<?xml version="1.0" encoding="utf-8"?>
<!-- Generator: Adobe Illustrator 23.0.0, SVG Export Plug-In . SVG Version: 6.00 Build 0)  -->
<svg version="1.1" id="Layer_1" xmlns="http://www.w3.org/2000/svg" xmlns:xlink="http://www.w3.org/1999/xlink" x="0px" y="0px"
	 viewBox="0 0 85 85" style="enable-background:new 0 0 85 85;" xml:space="preserve">
<style type="text/css">
	.st0{fill:#F04E54;}
	.st1{fill:#E5364F;}
	.st2{fill:#48C3DB;}
	.st3{fill:#1AB1DD;}
	.st4{fill:#FFFFFF;}
	.st5{fill:#2E3192;}
	.st6{fill:#E6E7E8;}
	.st7{fill:#F26456;}
	.st8{clip-path:url(#XMLID_96_);fill:#C5E7EA;}
	.st9{fill:#005D8A;}
	.st10{fill:#89A3A3;}
	.st11{fill:#728E8D;}
	.st12{fill:#F4F6F7;}
	.st13{fill:#086F99;}
	.st14{clip-path:url(#XMLID_97_);fill:#DDE5E3;}
	.st15{fill:#CCCBCA;}
	.st16{fill:#04A58C;}
	.st17{fill:#4E4F4F;}
	.st18{fill:#747932;}
	.st19{fill:#8DC63F;}
	.st20{fill:#8153A2;}
	.st21{fill:#D1D3D4;}
	.st22{fill:#F1F2F2;}
	.st23{fill:#FFD086;}
	.st24{fill:#FBB040;}
	.st25{fill:#EE348B;}
	.st26{fill:#C49A6C;}
	.st27{fill:#C3812A;}
	.st28{fill:#DF3D88;}
	.st29{fill:#F4CC2C;}
	.st30{fill:#F8C31D;}
	.st31{fill:none;stroke:#FFFFFF;stroke-width:2;stroke-linecap:round;stroke-linejoin:round;stroke-miterlimit:10;}
	.st32{fill:#FFFFFF;stroke:#FFFFFF;stroke-width:2;stroke-linecap:round;stroke-linejoin:round;stroke-miterlimit:10;}
	.st33{fill:#FFFFFF;stroke:#E5364F;stroke-width:2;stroke-miterlimit:10;}
	.st34{clip-path:url(#XMLID_98_);fill:#C5E7EA;}
	.st35{clip-path:url(#XMLID_99_);fill:#F26456;}
	.st36{clip-path:url(#XMLID_100_);fill:#747932;}
	.st37{clip-path:url(#XMLID_101_);fill:#C5E7EA;}
	.st38{clip-path:url(#XMLID_163_);fill:#C5E7EA;}
	.st39{clip-path:url(#XMLID_164_);fill:#747932;}
	.st40{clip-path:url(#XMLID_165_);fill:#747932;}
	.st41{clip-path:url(#XMLID_166_);fill:#F26456;}
	.st42{clip-path:url(#XMLID_167_);fill:#1AB1DD;}
	.st43{clip-path:url(#XMLID_168_);fill:#F26456;}
	.st44{clip-path:url(#XMLID_169_);fill:#1AB1DD;}
	.st45{clip-path:url(#XMLID_170_);fill:#F26456;}
	.st46{clip-path:url(#XMLID_171_);fill:#F26456;}
	.st47{clip-path:url(#XMLID_172_);fill:#1AB1DD;}
	.st48{clip-path:url(#XMLID_173_);fill:#1AB1DD;}
	.st49{clip-path:url(#XMLID_174_);fill:#1AB1DD;}
	.st50{clip-path:url(#XMLID_175_);fill:#1AB1DD;}
	.st51{clip-path:url(#XMLID_176_);fill:#1AB1DD;}
	.st52{clip-path:url(#XMLID_177_);fill:#1AB1DD;}
	.st53{clip-path:url(#XMLID_178_);fill:#04A58C;}
	.st54{clip-path:url(#XMLID_179_);fill:#04A58C;}
	.st55{clip-path:url(#XMLID_180_);fill:#04A58C;}
	.st56{clip-path:url(#XMLID_181_);fill:#04A58C;}
	.st57{clip-path:url(#XMLID_182_);fill:#04A58C;}
	.st58{clip-path:url(#XMLID_183_);fill:#8153A2;}
	.st59{clip-path:url(#XMLID_184_);fill:#8153A2;}
	.st60{fill-rule:evenodd;clip-rule:evenodd;fill:#FFFFFF;}
	.st61{fill:none;stroke:#010101;stroke-width:2;stroke-linecap:round;stroke-miterlimit:10;}
	.st62{clip-path:url(#SVGID_2_);}
	.st63{fill:none;stroke:#FFFFFF;stroke-width:2;stroke-miterlimit:10;}
	.st64{clip-path:url(#SVGID_6_);}
	.st65{fill:#19B1DC;}
</style>
<g id="XMLID_50_">
	<defs>
		<path id="XMLID_51_" d="M85,42.5C85,65.97,65.97,85,42.5,85C19.03,85,0,65.97,0,42.5C0,19.03,19.03,0,42.5,0
			C65.97,0,85,19.03,85,42.5z"/>
	</defs>
	<use xlink:href="#XMLID_51_"  style="overflow:visible;fill:#C5E7EA;"/>
	<clipPath id="XMLID_95_">
		<use xlink:href="#XMLID_51_"  style="overflow:visible;"/>
	</clipPath>
</g>
<g>
	<path class="st4" d="M47.45,56.77v0.57c0,0.76-0.63,1.39-1.39,1.39h-7.12c-0.76,0-1.39-0.63-1.39-1.39v-0.57H18.36v3.45
		c0,1.53,1.25,2.78,2.78,2.78h42.73c1.53,0,2.78-1.25,2.78-2.78v-3.45H47.45z"/>
	<path class="st4" d="M26.97,32.74h13.69c0.08-1.76,0.52-3.43,1.25-4.95h-16.1c-2.22,0-4.04,1.82-4.04,4.04v23.05h5.19V32.74z"/>
	<path class="st4" d="M58.03,54.88h5.19V43.67c-1.51,1.14-3.27,1.99-5.19,2.46V54.88z"/>
	<path class="st4" d="M44.31,47.19c-0.2,0.23,0.11,0.3,0.11,0.3c2.92,0.66,5.62-1.19,7.14-2.51c0.62-0.54,2.08-0.39,2.08-0.39
		l-0.01-0.01c0.31,0.02,0.62,0.04,0.93,0.04c6.63,0,12-5.06,12-11.3c0-6.24-5.37-11.3-12-11.3c-6.63,0-12,5.06-12,11.3
		c0,3.17,1.38,6.03,3.61,8.08C48.3,44.15,44.74,46.69,44.31,47.19z M47.85,31.25h4.83v-4.83h3.77v4.83h4.83v3.77h-4.83v4.83h-3.77
		v-4.83h-4.83V31.25z"/>
</g>
</svg>
