<?xml version="1.0" encoding="utf-8"?>
<!-- Generator: Adobe Illustrator 23.0.0, SVG Export Plug-In . SVG Version: 6.00 Build 0)  -->
<svg version="1.1" id="Layer_1" xmlns="http://www.w3.org/2000/svg" xmlns:xlink="http://www.w3.org/1999/xlink" x="0px" y="0px"
	 viewBox="0 0 85 85" style="enable-background:new 0 0 85 85;" xml:space="preserve">
<style type="text/css">
	.st0{clip-path:url(#XMLID_173_);fill:#C5E7EA;}
	.st1{fill:#48C3DB;}
	.st2{fill:#1AB1DD;}
	.st3{fill:#FFFFFF;}
	.st4{fill:#2E3192;}
	.st5{fill:#F04E54;}
	.st6{fill:#E5364F;}
	.st7{fill:#E6E7E8;}
	.st8{fill:#F26456;}
	.st9{clip-path:url(#XMLID_174_);fill:#C5E7EA;}
	.st10{fill:#005D8A;}
	.st11{fill:#89A3A3;}
	.st12{fill:#728E8D;}
	.st13{fill:#F4F6F7;}
	.st14{fill:#086F99;}
	.st15{clip-path:url(#XMLID_175_);fill:#DDE5E3;}
	.st16{fill:#CCCBCA;}
	.st17{fill:#04A58C;}
	.st18{fill:#4E4F4F;}
	.st19{fill:#747932;}
	.st20{fill:#8DC63F;}
	.st21{fill:#8153A2;}
	.st22{fill:#D1D3D4;}
	.st23{fill:#F1F2F2;}
	.st24{fill:#FFD086;}
	.st25{fill:#FBB040;}
	.st26{fill:#EE348B;}
	.st27{fill:#C49A6C;}
	.st28{fill:#C3812A;}
	.st29{fill:#DF3D88;}
	.st30{fill:#F4CC2C;}
	.st31{fill:#F8C31D;}
	.st32{opacity:0.28;}
	.st33{fill:#26BCB3;}
	.st34{fill:#16467D;}
	.st35{fill:#1C4076;}
	.st36{fill:#C0E6EB;}
	.st37{fill:#6D7187;}
	.st38{fill:#5F6276;}
	.st39{fill:#3C3F54;}
	.st40{fill:#FCC015;}
	.st41{fill:#434343;}
	.st42{opacity:0.15;fill:#FFFFFF;}
	.st43{fill:none;stroke:#FFFFFF;stroke-width:2;stroke-linecap:round;stroke-linejoin:round;stroke-miterlimit:10;}
	.st44{fill:#FFFFFF;stroke:#FFFFFF;stroke-width:2;stroke-linecap:round;stroke-linejoin:round;stroke-miterlimit:10;}
	.st45{fill:#424242;}
	.st46{fill:none;stroke:#434343;stroke-width:2;stroke-linecap:round;stroke-linejoin:round;stroke-miterlimit:10;}
	.st47{fill:#FFFFFF;stroke:#E5364F;stroke-width:2;stroke-miterlimit:10;}
	.st48{clip-path:url(#XMLID_176_);fill:#C5E7EA;}
	.st49{clip-path:url(#XMLID_177_);fill:#04A58C;}
	.st50{clip-path:url(#XMLID_178_);fill:#04A58C;}
	.st51{clip-path:url(#XMLID_179_);fill:#747932;}
	.st52{clip-path:url(#XMLID_180_);fill:#C5E7EA;}
	.st53{clip-path:url(#XMLID_181_);fill:#C5E7EA;}
	.st54{clip-path:url(#XMLID_182_);fill:#747932;}
	.st55{clip-path:url(#XMLID_183_);fill:#747932;}
	.st56{clip-path:url(#XMLID_184_);fill:#04A58C;}
	.st57{clip-path:url(#XMLID_185_);fill:#04A58C;}
	.st58{clip-path:url(#XMLID_186_);fill:#04A58C;}
	.st59{clip-path:url(#XMLID_187_);fill:#8153A2;}
	.st60{clip-path:url(#XMLID_188_);fill:#8153A2;}
	.st61{clip-path:url(#XMLID_189_);fill:#8153A2;}
	.st62{clip-path:url(#XMLID_190_);fill:#8153A2;}
	.st63{fill-rule:evenodd;clip-rule:evenodd;fill:#FFFFFF;}
	.st64{clip-path:url(#XMLID_191_);fill:#747932;}
	.st65{clip-path:url(#XMLID_192_);fill:#747932;}
	.st66{clip-path:url(#XMLID_193_);fill:#747932;}
	.st67{clip-path:url(#XMLID_194_);fill:#C5E7EA;}
	.st68{clip-path:url(#XMLID_195_);fill:#DDE5E3;}
</style>
<g id="XMLID_53_">
	<defs>
		<path id="XMLID_58_" d="M85,42.5C85,65.97,65.97,85,42.5,85C19.03,85,0,65.97,0,42.5C0,19.03,19.03,0,42.5,0
			C65.97,0,85,19.03,85,42.5z"/>
	</defs>
	<use xlink:href="#XMLID_58_"  style="overflow:visible;fill:#C5E7EA;"/>
	<clipPath id="XMLID_173_">
		<use xlink:href="#XMLID_58_"  style="overflow:visible;"/>
	</clipPath>
	<path id="XMLID_59_" class="st0" d="M85,42.67c0,23.47-19.03,42.5-42.5,42.5C19.03,85.17,0,66.14,0,42.67s19.03-42.5,42.5-42.5
		C65.97,0.17,85,19.2,85,42.67z"/>
</g>
<g>
	<g>
		<path class="st3" d="M35.29,46.83c-0.01,0-0.01,0-0.02,0c-0.27-0.01-0.5-0.21-0.53-0.48l-1.19-8.79l-0.54,2.67
			c-0.05,0.26-0.28,0.45-0.55,0.45h-6v-1.12H32l1.1-5.48c0.05-0.27,0.31-0.47,0.57-0.45c0.27,0.01,0.5,0.21,0.54,0.48l1.2,8.89
			l0.64-3c0.05-0.26,0.28-0.44,0.55-0.44h2.56l1.02-7.19c0.04-0.28,0.27-0.48,0.55-0.48h0c0.28,0,0.51,0.2,0.55,0.48l1.45,10.15
			l1.8-7.16c0.06-0.25,0.28-0.42,0.55-0.42c0.26,0,0.48,0.19,0.54,0.44l1.46,6.81l0.9-2.27c0.08-0.21,0.29-0.35,0.52-0.35h1.44
			l1.66-5.53c0.07-0.24,0.29-0.4,0.54-0.4c0,0,0.01,0,0.01,0c0.25,0,0.47,0.18,0.53,0.42l1.41,5.51h4.41v1.12h-4.84
			c-0.26,0-0.48-0.17-0.54-0.42l-1.02-3.98l-1.2,4c-0.07,0.24-0.29,0.4-0.54,0.4h-1.48l-1.44,3.63c-0.09,0.23-0.32,0.37-0.57,0.35
			c-0.24-0.02-0.45-0.2-0.5-0.44l-1.34-6.26l-1.91,7.59c-0.06,0.26-0.3,0.45-0.57,0.42c-0.27-0.01-0.49-0.21-0.52-0.48l-1.3-9.08
			l-0.54,3.79c-0.04,0.28-0.28,0.48-0.55,0.48h-2.59l-1.21,5.71C35.78,46.65,35.55,46.83,35.29,46.83z"/>
	</g>
	<path class="st3" d="M62.17,21.17H22.83c-2.75,0-4.42,1.67-4.42,4.42V52c0,2.75,1.68,4.42,4.42,4.42h16.52v3.41h-9.33
		c-0.93,0-1.69,0.76-1.69,1.69v2.3h28.34v-2.3c0-0.93-0.76-1.69-1.69-1.69h-9.33v-3.41h16.53c2.75,0,4.42-1.67,4.42-4.42V25.59
		C66.59,22.83,64.92,21.17,62.17,21.17z M61.56,51.4H23.43V26.19h38.13V51.4z"/>
</g>
</svg>
