<?xml version="1.0" encoding="utf-8"?>
<!-- Generator: Adobe Illustrator 23.1.1, SVG Export Plug-In . SVG Version: 6.00 Build 0)  -->
<svg version="1.1" id="Layer_1" xmlns="http://www.w3.org/2000/svg" xmlns:xlink="http://www.w3.org/1999/xlink" x="0px" y="0px"
	 viewBox="0 0 85 85" style="enable-background:new 0 0 85 85;" xml:space="preserve">
<style type="text/css">
	.st0{fill:#E5364F;}
	.st1{fill:#48C3DB;}
	.st2{fill:#1AB1DD;}
	.st3{fill:#FFFFFF;}
	.st4{fill:#2E3192;}
	.st5{fill:#F04E54;}
	.st6{fill:#E6E7E8;}
	.st7{fill:#F26456;}
	.st8{clip-path:url(#XMLID_173_);fill:#C5E7EA;}
	.st9{fill:#005D8A;}
	.st10{fill:#89A3A3;}
	.st11{fill:#728E8D;}
	.st12{fill:#F4F6F7;}
	.st13{fill:#086F99;}
	.st14{clip-path:url(#XMLID_174_);fill:#DDE5E3;}
	.st15{fill:#CCCBCA;}
	.st16{fill:#04A58C;}
	.st17{fill:#4E4F4F;}
	.st18{fill:#747932;}
	.st19{fill:#8DC63F;}
	.st20{fill:#8153A2;}
	.st21{fill:#D1D3D4;}
	.st22{fill:#F1F2F2;}
	.st23{fill:#FFD086;}
	.st24{fill:#FBB040;}
	.st25{fill:#EE348B;}
	.st26{fill:#C49A6C;}
	.st27{fill:#C3812A;}
	.st28{fill:#DF3D88;}
	.st29{fill:#F4CC2C;}
	.st30{fill:#F8C31D;}
	.st31{opacity:0.28;}
	.st32{fill:#26BCB3;}
	.st33{fill:#16467D;}
	.st34{fill:#1C4076;}
	.st35{fill:#C0E6EB;}
	.st36{fill:#6D7187;}
	.st37{fill:#5F6276;}
	.st38{fill:#3C3F54;}
	.st39{fill:#FCC015;}
	.st40{fill:#434343;}
	.st41{opacity:0.15;fill:#FFFFFF;}
	.st42{fill:none;stroke:#FFFFFF;stroke-width:2;stroke-linecap:round;stroke-linejoin:round;stroke-miterlimit:10;}
	.st43{fill:#FFFFFF;stroke:#FFFFFF;stroke-width:2;stroke-linecap:round;stroke-linejoin:round;stroke-miterlimit:10;}
	.st44{fill:#424242;}
	.st45{fill:none;stroke:#434343;stroke-width:2;stroke-linecap:round;stroke-linejoin:round;stroke-miterlimit:10;}
	.st46{fill:#FFFFFF;stroke:#E5364F;stroke-width:2;stroke-miterlimit:10;}
	.st47{clip-path:url(#XMLID_175_);fill:#C5E7EA;}
	.st48{clip-path:url(#XMLID_176_);fill:#04A58C;}
	.st49{clip-path:url(#XMLID_177_);fill:#04A58C;}
	.st50{clip-path:url(#XMLID_178_);fill:#747932;}
	.st51{clip-path:url(#XMLID_179_);fill:#C5E7EA;}
	.st52{clip-path:url(#XMLID_180_);fill:#C5E7EA;}
	.st53{clip-path:url(#XMLID_181_);fill:#747932;}
	.st54{clip-path:url(#XMLID_182_);fill:#747932;}
	.st55{clip-path:url(#XMLID_183_);fill:#04A58C;}
	.st56{clip-path:url(#XMLID_184_);fill:#04A58C;}
	.st57{clip-path:url(#XMLID_185_);fill:#04A58C;}
	.st58{clip-path:url(#XMLID_186_);fill:#8153A2;}
	.st59{clip-path:url(#XMLID_187_);fill:#8153A2;}
	.st60{clip-path:url(#XMLID_188_);fill:#8153A2;}
	.st61{clip-path:url(#XMLID_189_);fill:#8153A2;}
	.st62{fill-rule:evenodd;clip-rule:evenodd;fill:#FFFFFF;}
	.st63{clip-path:url(#XMLID_190_);fill:#747932;}
	.st64{clip-path:url(#XMLID_191_);fill:#747932;}
	.st65{clip-path:url(#XMLID_192_);fill:#747932;}
	.st66{clip-path:url(#XMLID_193_);fill:#C5E7EA;}
	.st67{clip-path:url(#XMLID_194_);fill:#DDE5E3;}
</style>
<g id="XMLID_68_">
	<defs>
		<path id="XMLID_69_" d="M85,42.5C85,65.97,65.97,85,42.5,85C19.03,85,0,65.97,0,42.5C0,19.03,19.03,0,42.5,0
			C65.97,0,85,19.03,85,42.5z"/>
	</defs>
	<use xlink:href="#XMLID_69_"  style="overflow:visible;fill:#C5E7EA;"/>
	<clipPath id="XMLID_172_">
		<use xlink:href="#XMLID_69_"  style="overflow:visible;"/>
	</clipPath>
	<path id="XMLID_70_" style="clip-path:url(#XMLID_172_);fill:#C5E7EA;" d="M85,42.67c0,23.47-19.03,42.5-42.5,42.5
		C19.03,85.17,0,66.14,0,42.67s19.03-42.5,42.5-42.5C65.97,0.17,85,19.2,85,42.67z"/>
</g>
<path class="st3" d="M53.35,45.17c0,0.44-0.32,0.8-0.72,0.8H40.7c-0.4,0-0.72-0.36-0.72-0.8c0-0.44,0.32-0.8,0.72-0.8h11.93
	C53.03,44.38,53.35,44.74,53.35,45.17z M52.63,35.14H40.7c-0.4,0-0.72,0.36-0.72,0.8c0,0.44,0.32,0.8,0.72,0.8h11.93
	c0.4,0,0.72-0.36,0.72-0.8C53.35,35.5,53.03,35.14,52.63,35.14z M52.63,53.69H40.7c-0.4,0-0.72,0.36-0.72,0.8
	c0,0.44,0.32,0.8,0.72,0.8h11.93c0.4,0,0.72-0.36,0.72-0.8C53.35,54.05,53.03,53.69,52.63,53.69z M33.93,38.01
	c1.19,0,2.15-0.96,2.15-2.15c0-1.19-0.96-2.15-2.15-2.15c-1.19,0-2.15,0.96-2.15,2.15C31.77,37.05,32.74,38.01,33.93,38.01z
	 M33.93,42.87c-1.19,0-2.15,0.96-2.15,2.15c0,1.19,0.97,2.15,2.15,2.15c1.19,0,2.15-0.96,2.15-2.15
	C36.08,43.84,35.11,42.87,33.93,42.87z M33.93,51.99c-1.19,0-2.15,0.97-2.15,2.15c0,1.19,0.97,2.15,2.15,2.15
	c1.19,0,2.15-0.96,2.15-2.15C36.08,52.96,35.11,51.99,33.93,51.99z M58.3,21.12h-5.26c0,0.39,0,2.57,0,4.67h1.47
	c1.31,0,2.39,1.17,2.39,2.59v31.48c0,1.43-1.07,2.59-2.39,2.59H30c-1.31,0-2.38-1.16-2.38-2.59V28.38c0-1.43,1.07-2.59,2.38-2.59
	h1.47c0-2.1,0-4.28,0-4.67H26.7c-2.05,0-3.72,1.68-3.72,3.72v38.81c0,2.05,1.67,3.73,3.72,3.73h31.6c2.05,0,3.72-1.68,3.72-3.73
	V24.85C62.02,22.8,60.35,21.12,58.3,21.12z M33.16,27.8c0.01-2.73,0-6.91,0-6.91h5.72c0.01-1.81,1.52-3.27,3.38-3.27
	c1.86,0,3.37,1.46,3.38,3.27h5.72c0,0-0.01,4.19,0,6.91 M40.81,20.7c0,0.78,0.65,1.4,1.45,1.4c0.8,0,1.45-0.63,1.45-1.4
	c0-0.78-0.65-1.41-1.45-1.41C41.46,19.29,40.81,19.92,40.81,20.7z"/>
</svg>
