<?xml version="1.0" encoding="utf-8"?>
<!-- Generator: Adobe Illustrator 23.0.0, SVG Export Plug-In . SVG Version: 6.00 Build 0)  -->
<svg version="1.1" id="Layer_1" xmlns="http://www.w3.org/2000/svg" xmlns:xlink="http://www.w3.org/1999/xlink" x="0px" y="0px"
	 viewBox="0 0 85 85" style="enable-background:new 0 0 85 85;" xml:space="preserve">
<style type="text/css">
	.st0{clip-path:url(#XMLID_173_);fill:#C5E7EA;}
	.st1{fill:#48C3DB;}
	.st2{fill:#1AB1DD;}
	.st3{fill:#FFFFFF;}
	.st4{fill:#2E3192;}
	.st5{fill:#F04E54;}
	.st6{fill:#E5364F;}
	.st7{fill:#E6E7E8;}
	.st8{fill:#F26456;}
	.st9{clip-path:url(#XMLID_174_);fill:#C5E7EA;}
	.st10{fill:#005D8A;}
	.st11{fill:#89A3A3;}
	.st12{fill:#728E8D;}
	.st13{fill:#F4F6F7;}
	.st14{fill:#086F99;}
	.st15{clip-path:url(#XMLID_175_);fill:#DDE5E3;}
	.st16{fill:#CCCBCA;}
	.st17{fill:#04A58C;}
	.st18{fill:#4E4F4F;}
	.st19{fill:#747932;}
	.st20{fill:#8DC63F;}
	.st21{fill:#8153A2;}
	.st22{fill:#D1D3D4;}
	.st23{fill:#F1F2F2;}
	.st24{fill:#FFD086;}
	.st25{fill:#FBB040;}
	.st26{fill:#EE348B;}
	.st27{fill:#C49A6C;}
	.st28{fill:#C3812A;}
	.st29{fill:#DF3D88;}
	.st30{fill:#F4CC2C;}
	.st31{fill:#F8C31D;}
	.st32{opacity:0.28;}
	.st33{fill:#26BCB3;}
	.st34{fill:#16467D;}
	.st35{fill:#1C4076;}
	.st36{fill:#C0E6EB;}
	.st37{fill:#6D7187;}
	.st38{fill:#5F6276;}
	.st39{fill:#3C3F54;}
	.st40{fill:#FCC015;}
	.st41{fill:#434343;}
	.st42{opacity:0.15;fill:#FFFFFF;}
	.st43{fill:none;stroke:#FFFFFF;stroke-width:2;stroke-linecap:round;stroke-linejoin:round;stroke-miterlimit:10;}
	.st44{fill:#FFFFFF;stroke:#FFFFFF;stroke-width:2;stroke-linecap:round;stroke-linejoin:round;stroke-miterlimit:10;}
	.st45{fill:#424242;}
	.st46{fill:none;stroke:#434343;stroke-width:2;stroke-linecap:round;stroke-linejoin:round;stroke-miterlimit:10;}
	.st47{fill:#FFFFFF;stroke:#E5364F;stroke-width:2;stroke-miterlimit:10;}
	.st48{clip-path:url(#XMLID_176_);fill:#C5E7EA;}
	.st49{clip-path:url(#XMLID_177_);fill:#04A58C;}
	.st50{clip-path:url(#XMLID_178_);fill:#04A58C;}
	.st51{clip-path:url(#XMLID_179_);fill:#747932;}
	.st52{clip-path:url(#XMLID_180_);fill:#C5E7EA;}
	.st53{clip-path:url(#XMLID_181_);fill:#C5E7EA;}
	.st54{clip-path:url(#XMLID_182_);fill:#747932;}
	.st55{clip-path:url(#XMLID_183_);fill:#747932;}
	.st56{clip-path:url(#XMLID_184_);fill:#04A58C;}
	.st57{clip-path:url(#XMLID_185_);fill:#04A58C;}
	.st58{clip-path:url(#XMLID_186_);fill:#04A58C;}
	.st59{clip-path:url(#XMLID_187_);fill:#8153A2;}
	.st60{clip-path:url(#XMLID_188_);fill:#8153A2;}
	.st61{clip-path:url(#XMLID_189_);fill:#8153A2;}
	.st62{clip-path:url(#XMLID_190_);fill:#8153A2;}
	.st63{fill-rule:evenodd;clip-rule:evenodd;fill:#FFFFFF;}
	.st64{clip-path:url(#XMLID_191_);fill:#747932;}
	.st65{clip-path:url(#XMLID_192_);fill:#747932;}
	.st66{clip-path:url(#XMLID_193_);fill:#747932;}
	.st67{clip-path:url(#XMLID_194_);fill:#C5E7EA;}
	.st68{clip-path:url(#XMLID_195_);fill:#DDE5E3;}
</style>
<g id="XMLID_60_">
	<defs>
		<path id="XMLID_61_" d="M85,42.5C85,65.97,65.97,85,42.5,85C19.03,85,0,65.97,0,42.5C0,19.03,19.03,0,42.5,0
			C65.97,0,85,19.03,85,42.5z"/>
	</defs>
	<use xlink:href="#XMLID_61_"  style="overflow:visible;fill:#C5E7EA;"/>
	<clipPath id="XMLID_173_">
		<use xlink:href="#XMLID_61_"  style="overflow:visible;"/>
	</clipPath>
	<path id="XMLID_62_" class="st0" d="M85,42.67c0,23.47-19.03,42.5-42.5,42.5C19.03,85.17,0,66.14,0,42.67s19.03-42.5,42.5-42.5
		C65.97,0.17,85,19.2,85,42.67z"/>
</g>
<path class="st3" d="M46.19,41.69h7.12v1.95h-7.12V41.69z M46.19,56.51h7.12v-1.95h-7.12V56.51z M50.51,52.2h-1.52v1.47h1.52V52.2z
	 M48.99,58.87h1.52v-1.47h-1.52V58.87z M37.08,52.46l-1.83,1.83l-1.83-1.83l-1.38,1.38l1.83,1.83l-1.83,1.83l1.38,1.38l1.83-1.83
	l1.83,1.83l1.38-1.38l-1.83-1.83l1.83-1.83L37.08,52.46z M36.23,39.11h-1.95v2.58h-2.58v1.95h2.58v2.58h1.95v-2.58h2.58v-1.95h-2.58
	V39.11z M58.75,60.34c0,1.99-1.61,3.6-3.6,3.6h-25.3c-1.99,0-3.6-1.61-3.6-3.6V38.55v-1.55V24.66c0-1.99,1.61-3.6,3.6-3.6h25.3
	c1.99,0,3.6,1.61,3.6,3.6v12.33 M29.16,31.5c0,0.66,0.54,1.2,1.2,1.2h24.27c0.66,0,1.2-0.54,1.2-1.2v-5.99c0-0.66-0.54-1.2-1.2-1.2
	H30.37c-0.66,0-1.2,0.54-1.2,1.2V31.5z M40.67,51.36c0-0.66-0.54-1.2-1.2-1.2h-8.45c-0.66,0-1.2,0.54-1.2,1.2v8.45
	c0,0.66,0.54,1.2,1.2,1.2h8.45c0.66,0,1.2-0.54,1.2-1.2V51.36z M40.67,38.17c0-0.66-0.54-1.2-1.2-1.2h-8.45
	c-0.66,0-1.2,0.54-1.2,1.2v8.45c0,0.66,0.54,1.2,1.2,1.2h8.45c0.66,0,1.2-0.54,1.2-1.2V38.17z M55.18,51.36c0-0.66-0.54-1.2-1.2-1.2
	h-8.45c-0.66,0-1.2,0.54-1.2,1.2v8.45c0,0.66,0.54,1.2,1.2,1.2h8.45c0.66,0,1.2-0.54,1.2-1.2V51.36z M55.18,38.17
	c0-0.66-0.54-1.2-1.2-1.2h-8.45c-0.66,0-1.2,0.54-1.2,1.2v8.45c0,0.66,0.54,1.2,1.2,1.2h8.45c0.66,0,1.2-0.54,1.2-1.2V38.17z"/>
</svg>
