<svg viewBox="0 0 1468 228" xmlns="http://www.w3.org/2000/svg"><path d="m179 134.48a7.33 7.33 0 0 1 -5.48 8.79 7.24 7.24 0 0 1 -4.5-.4c2.24 3.19 10.67 8.4 31.88 9.28-31.24 6.8-32.27 1.93-39.21.34-18.32 8.65-46.79 6.49-46.79 6.49l28.28-9.58s-26.93-2.52-31.53-8.38c31.23 3.14 40.17-3 39.64-3.44-7-5.65-13.48-26.43-13.68-27.07.85 1.09 16.1 20.6 27.24 27.73 0-.15-.09-.31-.13-.47a7.32 7.32 0 1 1 14.28-3.29z" fill="#808285"/><path d="m175.78 29.09c-3.18 31.81-8.13 31.29-11.78 37.39 2.55 20.11-8.3 46.52-8.3 46.52l-.37-29.85s-10.72 24.85-17.72 27.38c12.64-28.74 9.54-39.13 9-38.76-7.66 5-30 4.65-30 4.65s24.33-8.73 34.85-17.36l-.46-.06a7.32 7.32 0 1 1 6.14-2.49c3.68-1.11 11.25-7.51 18.64-27.42z" fill="#ec5724"/><path d="m124.5 59.94-28.5-8.86s20.31 17.86 20.58 25.31c-23.41-20.9-34.26-21.17-34.08-20.52 2.38 8.83-4.85 30-4.85 30a.83.83 0 0 0 0-.1c-.05-1.76-.94-26.21-5.73-38.42-.05.16-.1.31-.16.47a7.34 7.34 0 1 1 -.48-6.62c.06-3.89-3.7-13.07-20.34-26.25 29.26 12.83 27.24 17.38 31.91 22.75 19.6 3.71 40.99 21.68 41.65 22.24z" fill="#808285"/><path d="m111.59 141c-.44.65-14.59 21.55-18 34.51l.41-.28a7.32 7.32 0 1 1 -2.49 10 7.2 7.2 0 0 1 -1-4.41c-2.35 3.12-4.69 12.75 1 33.19-16.09-27.54-11.78-30.01-12.41-37.12-13.67-14.53-20.42-41.63-20.62-42.47l17.84 23.91s-5.92-26.4-1.77-32.58c6.67 30.67 15.28 37.27 15.52 36.64 3.22-8.39 20.93-20.99 21.52-21.39z" fill="#808285"/><path d="m47.13 97.5c.66-.39 23.35-13.76 30.42-11.75-27.11 15.82-30.72 26.06-30 26.09 9 .45 26.31 13.34 27 13.85-.71-.2-25-7.22-38.38-6.43l.39.3a7.33 7.33 0 1 1 -6.56-1.56c-3.68-1.26-13.57-.52-31.25 11.23 21.27-23.86 25-20.53 31.52-23.32 9.75-17.77 34-32.75 34-32.75z" fill="#808285"/><path d="m256.52 87.73h3.48v-1.44c0-13.31-7.54-17.8-17.8-17.8-12.51 0-22.61 7.86-22.61 7.86l-6.37-11.35s11.71-9.62 30.31-9.62c20.53 0 32.07 11.23 32.07 31.75v51.32h-14.43v-7.7a60.85 60.85 0 0 1 .32-6.41h-.32a28.07 28.07 0 0 1 -26 16c-14 0-27.58-8.5-27.58-24.7.02-26.79 35.3-27.91 48.93-27.91zm-18 40.09c13.15 0 21.65-13.79 21.65-25.82v-2.56h-4c-11.71 0-32.88.8-32.88 15.4.03 6.57 5.17 12.98 15.27 12.98z" fill="#808285"/><path d="m297.89 25.19h15.56v88.36c0 9.78 3.85 11.55 8.66 11.55a24.79 24.79 0 0 0 2.73-.16v13.79a43.62 43.62 0 0 1 -5.13.32c-8.82 0-21.81-2.41-21.81-22.77z" fill="#808285"/><path d="m340.39 25.19h15.56v88.36c0 9.78 3.85 11.55 8.66 11.55a24.8 24.8 0 0 0 2.73-.16v13.79a43.62 43.62 0 0 1 -5.13.32c-8.82 0-21.81-2.41-21.81-22.77z" fill="#808285"/><g fill="#58595b"><path d="m436.93 23.26c27.26 0 41.21 14.91 41.21 14.91l-7.85 11.83s-13.15-12.35-32.72-12.35c-25.34 0-41.86 19.24-41.86 43.3 0 24.22 16.84 44.74 42 44.74 21.33 0 35-14.75 35-14.75l8.5 11.39s-15.56 18-43.94 18c-34 0-57.89-26-57.89-59.18-.02-32.87 24.67-57.89 57.55-57.89z"/><path d="m537.47 55.34c24.22 0 43.78 17.8 43.78 42.34 0 24.7-19.57 42.66-43.78 42.66s-43.78-18-43.78-42.66c0-24.54 19.57-42.34 43.78-42.34zm0 71.52c15.4 0 27.9-12.19 27.9-29.19 0-16.84-12.51-28.87-27.9-28.87-15.24 0-27.9 12-27.9 28.87 0 17 12.67 29.19 27.9 29.19z"/><path d="m598.73 25.19h15.56v88.36c0 9.78 3.85 11.55 8.66 11.55a24.8 24.8 0 0 0 2.73-.16v13.79a43.62 43.62 0 0 1 -5.13.32c-8.82 0-21.81-2.41-21.81-22.77z"/><path d="m641.22 25.19h15.56v88.36c0 9.78 3.85 11.55 8.66 11.55a24.8 24.8 0 0 0 2.73-.16v13.79a43.62 43.62 0 0 1 -5.17.27c-8.82 0-21.81-2.41-21.81-22.77z"/><path d="m719.64 55.34c22.93 0 35.12 17 35.12 38 0 2.08-.48 6.74-.48 6.74h-59.17c.8 17.8 13.47 26.78 27.9 26.78 14 0 24.06-9.46 24.06-9.46l6.41 11.39a48.3 48.3 0 0 1 -31.48 11.54c-25.5 0-43-18.44-43-42.5.07-25.83 17.55-42.49 40.64-42.49zm19.25 33c-.48-14-9.14-20.69-19.57-20.69-11.87 0-21.49 7.38-23.74 20.69z"/><path d="m803.19 158.61c14.11 0 25.66-6.25 25.66-22.77v-5.93c0-2.57.16-5.13.16-5.13h-.32c-4.81 8-12.35 12.67-24.06 12.67-22.61 0-36.24-18.12-36.24-41.54 0-23.25 13-40.57 35.44-40.57 19.56 0 25.5 12 25.5 12h.32a20.2 20.2 0 0 1 -.16-2.57v-7.51h14.91v77.74c0 26.78-20.37 37-40.89 37a63.25 63.25 0 0 1 -27.74-6.74l5.13-12.19a52.27 52.27 0 0 0 22.29 5.54zm26-62.54c0-21.17-10.26-27.26-22.93-27.26-14.11 0-22.13 10.26-22.13 26.78 0 16.84 9 28.39 23.57 28.39 11.21.02 21.47-6.74 21.47-27.91z"/><path d="m903.74 55.34c22.93 0 35.12 17 35.12 38 0 2.08-.48 6.74-.48 6.74h-59.18c.8 17.8 13.47 26.78 27.9 26.78 14 0 24.06-9.46 24.06-9.46l6.41 11.39a48.3 48.3 0 0 1 -31.43 11.55c-25.5 0-43-18.44-43-42.5.02-25.84 17.5-42.5 40.6-42.5zm19.25 33c-.48-14-9.14-20.69-19.57-20.69-11.87 0-21.49 7.38-23.73 20.69z"/></g><path d="m961.3 113.39s12 12.19 28.87 12.19c10.58 0 19.57-5.93 19.57-16.68 0-24.54-54.85-19.24-54.85-54 0-17.64 15.23-31.59 36.56-31.59 21 0 32.07 11.39 32.07 11.39l-7.22 13.15s-10.41-9.85-24.85-9.85c-12 0-20.53 7.54-20.53 16.52 0 23.41 54.85 17.16 54.85 53.88 0 17.48-13.47 31.91-35.92 31.91-24.05 0-37.53-14.92-37.53-14.92z" fill="#808285"/><path d="m1080.29 55.34c22.93 0 35.12 17 35.12 38 0 2.08-.48 6.74-.48 6.74h-59.18c.8 17.8 13.47 26.78 27.9 26.78 14 0 24.06-9.46 24.06-9.46l6.41 11.39a48.3 48.3 0 0 1 -31.43 11.55c-25.5 0-43-18.44-43-42.5.03-25.84 17.51-42.5 40.6-42.5zm19.25 33c-.48-14-9.14-20.69-19.57-20.69-11.87 0-21.49 7.38-23.73 20.69z" fill="#808285"/><path d="m1176.67 87.73h3.53v-1.44c0-13.31-7.54-17.8-17.8-17.8-12.51 0-22.61 7.86-22.61 7.86l-6.42-11.35s11.71-9.62 30.31-9.62c20.53 0 32.07 11.23 32.07 31.75v51.32h-14.43v-7.7a61 61 0 0 1 .32-6.41h-.32a28.07 28.07 0 0 1 -26 16c-14 0-27.58-8.5-27.58-24.7.02-26.79 35.26-27.91 48.93-27.91zm-18 40.09c13.15 0 21.65-13.79 21.65-25.82v-2.56h-4c-11.71 0-32.88.8-32.88 15.4.03 6.57 5.17 12.98 15.27 12.98z" fill="#808285"/><path d="m1219 57.26h15.07v14.11a58.28 58.28 0 0 1 -.32 6.09h.32c3.69-11.87 13.15-21.17 25.66-21.17a27.61 27.61 0 0 1 4 .32v15.39a22.42 22.42 0 0 0 -4.49-.48c-9.94 0-19.08 7.06-22.77 19.08a49.31 49.31 0 0 0 -1.92 14.59v33.2h-15.55z" fill="#808285"/><path d="m1316.35 55.34c20.37 0 30.47 11.87 30.47 11.87l-7.38 10.91a32.87 32.87 0 0 0 -22.45-9.3c-16.36 0-28.23 12.19-28.23 28.87 0 16.52 11.87 29.19 28.71 29.19 15.07 0 25-10.91 25-10.91l6.25 11.39s-11.23 13-32.39 13c-25.5 0-43.46-18.12-43.46-42.5.02-24.08 17.98-42.52 43.48-42.52z" fill="#808285"/><path d="m1366.38 25.19h15.56v41.53c0 3.85-.32 6.74-.32 6.74h.32c3.53-7.86 13.79-18.12 30-18.12 19.08 0 27.9 10.42 27.9 31.11v52h-15.56v-48.45c0-11.39-2.41-20.37-15.4-20.37-12.19 0-22.29 8.34-25.66 20a38 38 0 0 0 -1.28 10.74v38h-15.56z" fill="#808285"/></svg>