<?xml version="1.0" encoding="utf-8"?>
<!-- Generator: Adobe Illustrator 23.0.0, SVG Export Plug-In . SVG Version: 6.00 Build 0)  -->
<svg version="1.1" id="Layer_1" xmlns="http://www.w3.org/2000/svg" xmlns:xlink="http://www.w3.org/1999/xlink" x="0px" y="0px"
	 viewBox="0 0 85 85" style="enable-background:new 0 0 85 85;" xml:space="preserve">
<style type="text/css">
	.st0{fill:#F04E54;}
	.st1{fill:#E5364F;}
	.st2{fill:#48C3DB;}
	.st3{fill:#1AB1DD;}
	.st4{fill:#FFFFFF;}
	.st5{fill:#2E3192;}
	.st6{fill:#E6E7E8;}
	.st7{fill:#F26456;}
	.st8{clip-path:url(#XMLID_93_);fill:#C5E7EA;}
	.st9{fill:#005D8A;}
	.st10{fill:#89A3A3;}
	.st11{fill:#728E8D;}
	.st12{fill:#F4F6F7;}
	.st13{fill:#086F99;}
	.st14{clip-path:url(#XMLID_94_);fill:#DDE5E3;}
	.st15{fill:#CCCBCA;}
	.st16{fill:#04A58C;}
	.st17{fill:#4E4F4F;}
	.st18{fill:#747932;}
	.st19{fill:#8DC63F;}
	.st20{fill:#8153A2;}
	.st21{fill:#D1D3D4;}
	.st22{fill:#F1F2F2;}
	.st23{fill:#FFD086;}
	.st24{fill:#FBB040;}
	.st25{fill:#EE348B;}
	.st26{fill:#C49A6C;}
	.st27{fill:#C3812A;}
	.st28{fill:#DF3D88;}
	.st29{fill:#F4CC2C;}
	.st30{fill:#F8C31D;}
	.st31{fill:none;stroke:#FFFFFF;stroke-width:2;stroke-linecap:round;stroke-linejoin:round;stroke-miterlimit:10;}
	.st32{fill:#FFFFFF;stroke:#FFFFFF;stroke-width:2;stroke-linecap:round;stroke-linejoin:round;stroke-miterlimit:10;}
	.st33{fill:#FFFFFF;stroke:#E5364F;stroke-width:2;stroke-miterlimit:10;}
	.st34{clip-path:url(#XMLID_95_);fill:#C5E7EA;}
	.st35{clip-path:url(#XMLID_96_);fill:#F26456;}
	.st36{clip-path:url(#XMLID_97_);fill:#747932;}
	.st37{clip-path:url(#XMLID_98_);fill:#C5E7EA;}
	.st38{clip-path:url(#XMLID_99_);fill:#C5E7EA;}
	.st39{clip-path:url(#XMLID_100_);fill:#747932;}
	.st40{clip-path:url(#XMLID_101_);fill:#747932;}
	.st41{clip-path:url(#XMLID_163_);fill:#F26456;}
	.st42{clip-path:url(#XMLID_164_);fill:#1AB1DD;}
	.st43{clip-path:url(#XMLID_165_);fill:#F26456;}
	.st44{clip-path:url(#XMLID_166_);fill:#1AB1DD;}
	.st45{clip-path:url(#XMLID_167_);fill:#F26456;}
	.st46{clip-path:url(#XMLID_168_);fill:#F26456;}
	.st47{clip-path:url(#XMLID_169_);fill:#1AB1DD;}
	.st48{clip-path:url(#XMLID_170_);fill:#1AB1DD;}
	.st49{clip-path:url(#XMLID_171_);fill:#1AB1DD;}
	.st50{clip-path:url(#XMLID_172_);fill:#1AB1DD;}
	.st51{clip-path:url(#XMLID_173_);fill:#1AB1DD;}
	.st52{clip-path:url(#XMLID_174_);fill:#1AB1DD;}
	.st53{clip-path:url(#XMLID_175_);fill:#04A58C;}
	.st54{clip-path:url(#XMLID_176_);fill:#04A58C;}
	.st55{clip-path:url(#XMLID_177_);fill:#04A58C;}
	.st56{clip-path:url(#XMLID_178_);fill:#04A58C;}
	.st57{clip-path:url(#XMLID_179_);fill:#04A58C;}
	.st58{clip-path:url(#XMLID_180_);fill:#8153A2;}
	.st59{clip-path:url(#XMLID_181_);fill:#8153A2;}
	.st60{fill-rule:evenodd;clip-rule:evenodd;fill:#FFFFFF;}
</style>
<g id="XMLID_76_">
	<defs>
		<path id="XMLID_77_" d="M85,42.67c0,23.47-19.03,42.5-42.5,42.5C19.03,85.17,0,66.14,0,42.67C0,19.2,19.03,0.17,42.5,0.17
			C65.97,0.17,85,19.2,85,42.67z"/>
	</defs>
	<use xlink:href="#XMLID_77_"  style="overflow:visible;fill:#8153A2;"/>
	<clipPath id="XMLID_92_">
		<use xlink:href="#XMLID_77_"  style="overflow:visible;"/>
	</clipPath>
	<path id="XMLID_78_" style="clip-path:url(#XMLID_92_);fill:#8153A2;" d="M85,42.84c0,23.47-19.03,42.5-42.5,42.5
		C19.03,85.34,0,66.32,0,42.84s19.03-42.5,42.5-42.5C65.97,0.34,85,19.37,85,42.84z"/>
</g>
<path class="st4" d="M54.77,60.88c-0.48,0-0.91-0.26-1.13-0.69c-1.91-3.74-4.4-5.56-7.59-5.56c-0.86,0-1.79,0.14-2.77,0.4
	c-0.11,0.03-0.22,0.05-0.34,0.05c-0.57,0-1.07-0.38-1.22-0.93c-0.09-0.33-0.05-0.67,0.12-0.96c0.17-0.29,0.44-0.51,0.77-0.6
	c1.22-0.34,2.4-0.51,3.5-0.51c4.13,0,7.43,2.34,9.79,6.95c0.15,0.3,0.18,0.65,0.08,0.97c-0.1,0.32-0.33,0.58-0.63,0.74
	C55.16,60.83,54.96,60.88,54.77,60.88z"/>
<path class="st4" d="M54.77,60.58c-0.35,0-0.69-0.19-0.86-0.53c-2.49-4.87-5.99-6.61-10.7-5.31c-0.52,0.14-1.05-0.16-1.19-0.68
	c-0.14-0.52,0.16-1.05,0.68-1.19c5.65-1.56,10.01,0.56,12.94,6.3c0.24,0.48,0.05,1.06-0.42,1.3C55.07,60.55,54.92,60.58,54.77,60.58
	z"/>
<path class="st4" d="M47.89,42.67c-0.34,0-0.67-0.03-1-0.09c-0.33-0.06-0.62-0.25-0.81-0.53s-0.26-0.62-0.2-0.95
	c0.11-0.6,0.64-1.03,1.24-1.03c0.08,0,0.16,0.01,0.24,0.02c0.17,0.03,0.34,0.05,0.53,0.05c0.56,0,1.2-0.15,1.9-0.44
	c0.16-0.06,0.32-0.1,0.49-0.1c0.51,0,0.97,0.31,1.17,0.78c0.13,0.31,0.13,0.66,0,0.97c-0.13,0.31-0.37,0.56-0.69,0.69
	C49.75,42.45,48.79,42.67,47.89,42.67z"/>
<path class="st4" d="M47.89,42.37c-0.32,0-0.64-0.03-0.94-0.09c-0.53-0.1-0.87-0.61-0.77-1.13c0.1-0.53,0.6-0.88,1.13-0.77
	c0.74,0.14,1.61,0,2.6-0.41c0.49-0.21,1.06,0.03,1.27,0.52c0.21,0.49-0.03,1.06-0.52,1.27C49.67,42.16,48.75,42.37,47.89,42.37z"/>
<path class="st4" d="M59.72,47.06c-2.15,0-3.92-1.24-5.13-3.59c-0.16-0.3-0.18-0.65-0.08-0.97c0.1-0.32,0.33-0.58,0.63-0.74
	c0.18-0.09,0.38-0.14,0.58-0.14c0.48,0,0.91,0.26,1.13,0.69c0.77,1.5,1.69,2.2,2.9,2.2c0.56,0,1.18-0.15,1.9-0.44
	c0.16-0.06,0.32-0.1,0.49-0.1c0.51,0,0.97,0.31,1.17,0.78c0.27,0.65-0.04,1.39-0.69,1.66C61.6,46.85,60.62,47.06,59.72,47.06z"/>
<path class="st4" d="M59.72,46.76c-2.04,0-3.7-1.15-4.86-3.42c-0.24-0.48-0.06-1.06,0.42-1.3c0.48-0.24,1.06-0.06,1.3,0.42
	c1.18,2.31,2.78,2.9,5.18,1.9c0.49-0.21,1.06,0.03,1.27,0.52c0.21,0.49-0.03,1.06-0.52,1.27C61.51,46.56,60.58,46.76,59.72,46.76z"
	/>
<path class="st4" d="M50.53,65.98c-1.91,0-3.79-0.34-5.61-1c-3.5-1.29-6.48-3.76-8.38-6.97l-0.15-0.26l2.18-1.29l0.15,0.26
	c1.6,2.71,4.11,4.79,7.07,5.88c1.53,0.56,3.12,0.85,4.73,0.85c1.99,0,3.92-0.43,5.75-1.28c3.32-1.54,5.85-4.28,7.11-7.71l6.42-17.48
	c-0.43,0.01-0.85,0.02-1.27,0.02c-9.92,0-18.62-3.64-25.88-10.81l-0.21-0.21l1.78-1.8l0.21,0.21c6.76,6.68,14.88,10.07,24.11,10.07
	c0.99,0,2-0.04,3.01-0.12c0,0,0.01,0,0.01,0c0.49,0,0.86,0.18,1.1,0.5c0.26,0.35,0.33,0.79,0.18,1.2l-7.08,19.29
	c-1.5,4.07-4.49,7.32-8.42,9.14C55.18,65.48,52.89,65.98,50.53,65.98z"/>
<path class="st4" d="M50.53,65.68c-1.85,0-3.71-0.33-5.5-0.99c-3.44-1.26-6.36-3.69-8.22-6.84l1.67-0.99
	c1.64,2.77,4.2,4.9,7.22,6.01c3.51,1.29,7.32,1.13,10.71-0.44c3.39-1.57,5.97-4.37,7.26-7.88l6.57-17.9
	c-10.56,0.44-19.76-3.16-27.38-10.69l1.36-1.38c7.56,7.47,16.76,10.85,27.36,10.04c0.34-0.02,0.65,0.12,0.85,0.38
	c0.2,0.26,0.25,0.61,0.14,0.92l-7.08,19.29c-1.47,4-4.4,7.18-8.27,8.97C55.09,65.19,52.82,65.68,50.53,65.68z"/>
<path class="st4" d="M32.06,52.5c-2.19,0-4.51-0.73-6.91-2.18c-0.29-0.17-0.49-0.45-0.58-0.78c-0.08-0.33-0.03-0.67,0.15-0.96
	c0.23-0.38,0.64-0.61,1.09-0.61c0.23,0,0.46,0.06,0.66,0.18c2,1.21,3.88,1.82,5.59,1.82c2.69,0,5.04-1.46,7.19-4.46
	c0.24-0.33,0.62-0.53,1.03-0.53c0.27,0,0.52,0.08,0.74,0.24c0.28,0.2,0.46,0.49,0.51,0.83c0.05,0.33-0.02,0.67-0.22,0.94
	C38.68,50.65,35.57,52.5,32.06,52.5z"/>
<path class="st4" d="M32.06,52.2c-2.13,0-4.39-0.71-6.76-2.14c-0.46-0.28-0.61-0.87-0.33-1.33c0.28-0.46,0.87-0.61,1.33-0.33
	c5.28,3.19,9.59,2.3,13.18-2.72c0.31-0.44,0.92-0.54,1.35-0.22c0.44,0.31,0.54,0.92,0.22,1.35C38.5,50.4,35.45,52.2,32.06,52.2z"/>
<path class="st4" d="M20.9,40.25c-0.26,0-0.52-0.08-0.74-0.24c-0.57-0.41-0.7-1.2-0.29-1.77c1.36-1.89,2.97-2.85,4.8-2.85
	c1.13,0,2.34,0.38,3.57,1.12c0.29,0.17,0.5,0.45,0.58,0.78c0.08,0.33,0.03,0.67-0.15,0.96c-0.23,0.38-0.65,0.61-1.09,0.61
	c-0.23,0-0.46-0.06-0.65-0.18c-0.84-0.51-1.57-0.75-2.24-0.75c-1.01,0-1.89,0.57-2.76,1.78C21.7,40.05,21.31,40.25,20.9,40.25z"/>
<path class="st4" d="M20.9,39.95c-0.2,0-0.39-0.06-0.56-0.18c-0.43-0.31-0.53-0.92-0.22-1.35c2.11-2.94,4.87-3.51,7.98-1.64
	c0.46,0.28,0.61,0.87,0.33,1.33c-0.28,0.46-0.87,0.61-1.33,0.33c-2.22-1.34-3.89-0.99-5.4,1.11C21.5,39.81,21.2,39.95,20.9,39.95z"
	/>
<path class="st4" d="M33.28,37.66c-0.27,0-0.52-0.08-0.74-0.24c-0.57-0.41-0.7-1.2-0.29-1.77c1.36-1.89,2.97-2.85,4.8-2.85
	c1.13,0,2.34,0.38,3.57,1.12c0.6,0.36,0.79,1.14,0.43,1.74c-0.23,0.38-0.64,0.61-1.09,0.61c-0.23,0-0.46-0.06-0.65-0.18
	c-0.84-0.5-1.57-0.75-2.24-0.75c-1.01,0-1.89,0.57-2.76,1.78C34.07,37.47,33.69,37.66,33.28,37.66z"/>
<path class="st4" d="M33.28,37.36c-0.2,0-0.39-0.06-0.56-0.18c-0.43-0.31-0.53-0.92-0.22-1.35c2.11-2.95,4.87-3.51,7.98-1.64
	c0.46,0.28,0.61,0.87,0.33,1.33c-0.28,0.46-0.87,0.61-1.33,0.33c-2.22-1.34-3.89-1-5.4,1.11C33.88,37.22,33.58,37.36,33.28,37.36z"
	/>
<path class="st4" d="M32.12,59.68c-3.16,0-6.23-0.93-8.9-2.68c-3.62-2.39-6.1-6.04-6.98-10.29l-4.15-20.13
	c-0.09-0.43,0.05-0.86,0.36-1.16c0.24-0.23,0.55-0.36,0.89-0.36c0.1,0,0.19,0.01,0.28,0.03c2.79,0.64,5.56,0.96,8.24,0.96
	c7.14,0,13.89-2.29,20.06-6.79c0.22-0.16,0.48-0.24,0.75-0.24c0.16,0,0.31,0.03,0.46,0.08c0.41,0.16,0.7,0.5,0.79,0.93l4.15,20.13
	c1.81,8.77-3.86,17.38-12.63,19.19C34.33,59.57,33.22,59.68,32.12,59.68z M18.73,46.2c0.74,3.58,2.83,6.67,5.89,8.68
	c2.25,1.48,4.84,2.26,7.51,2.26c0.93,0,1.87-0.1,2.79-0.29c7.4-1.53,12.18-8.79,10.66-16.19l-3.76-18.24
	c-6.17,4.09-12.88,6.17-19.93,6.17c-2.26,0-4.58-0.21-6.91-0.64L18.73,46.2z"/>
<path class="st4" d="M32.12,59.38c-3.08,0-6.1-0.9-8.73-2.63c-3.56-2.34-5.99-5.93-6.85-10.1l-4.15-20.13
	c-0.07-0.32,0.04-0.66,0.27-0.89c0.24-0.23,0.57-0.33,0.89-0.25c10.36,2.37,19.96,0.39,28.54-5.88c0.27-0.19,0.61-0.24,0.92-0.12
	c0.31,0.12,0.53,0.39,0.6,0.71l4.15,20.13c1.77,8.61-3.79,17.06-12.4,18.83C34.28,59.27,33.2,59.38,32.12,59.38z M14.58,27.58
	l3.85,18.68c0.76,3.66,2.89,6.81,6.02,8.87c3.12,2.06,6.86,2.77,10.53,2.02c7.56-1.56,12.45-8.98,10.89-16.54l-3.85-18.68
	C33.69,27.58,24.47,29.48,14.58,27.58z"/>
</svg>
