<?xml version="1.0" encoding="utf-8"?>
<!-- Generator: Adobe Illustrator 23.0.0, SVG Export Plug-In . SVG Version: 6.00 Build 0)  -->
<svg version="1.1" id="Layer_1" xmlns="http://www.w3.org/2000/svg" xmlns:xlink="http://www.w3.org/1999/xlink" x="0px" y="0px"
	 viewBox="0 0 85 85" style="enable-background:new 0 0 85 85;" xml:space="preserve">
<style type="text/css">
	.st0{fill:#F04E54;}
	.st1{fill:#E5364F;}
	.st2{fill:#48C3DB;}
	.st3{fill:#1AB1DD;}
	.st4{fill:#FFFFFF;}
	.st5{fill:#2E3192;}
	.st6{fill:#E6E7E8;}
	.st7{fill:#F26456;}
	.st8{clip-path:url(#XMLID_93_);fill:#C5E7EA;}
	.st9{fill:#005D8A;}
	.st10{fill:#89A3A3;}
	.st11{fill:#728E8D;}
	.st12{fill:#F4F6F7;}
	.st13{fill:#086F99;}
	.st14{clip-path:url(#XMLID_94_);fill:#DDE5E3;}
	.st15{fill:#CCCBCA;}
	.st16{fill:#04A58C;}
	.st17{fill:#4E4F4F;}
	.st18{fill:#747932;}
	.st19{fill:#8DC63F;}
	.st20{fill:#8153A2;}
	.st21{fill:#D1D3D4;}
	.st22{fill:#F1F2F2;}
	.st23{fill:#FFD086;}
	.st24{fill:#FBB040;}
	.st25{fill:#EE348B;}
	.st26{fill:#C49A6C;}
	.st27{fill:#C3812A;}
	.st28{fill:#DF3D88;}
	.st29{fill:#F4CC2C;}
	.st30{fill:#F8C31D;}
	.st31{fill:none;stroke:#FFFFFF;stroke-width:2;stroke-linecap:round;stroke-linejoin:round;stroke-miterlimit:10;}
	.st32{fill:#FFFFFF;stroke:#FFFFFF;stroke-width:2;stroke-linecap:round;stroke-linejoin:round;stroke-miterlimit:10;}
	.st33{fill:#FFFFFF;stroke:#E5364F;stroke-width:2;stroke-miterlimit:10;}
	.st34{clip-path:url(#XMLID_95_);fill:#C5E7EA;}
	.st35{clip-path:url(#XMLID_96_);fill:#F26456;}
	.st36{clip-path:url(#XMLID_97_);fill:#747932;}
	.st37{clip-path:url(#XMLID_98_);fill:#C5E7EA;}
	.st38{clip-path:url(#XMLID_99_);fill:#C5E7EA;}
	.st39{clip-path:url(#XMLID_100_);fill:#747932;}
	.st40{clip-path:url(#XMLID_101_);fill:#747932;}
	.st41{clip-path:url(#XMLID_163_);fill:#F26456;}
	.st42{clip-path:url(#XMLID_164_);fill:#1AB1DD;}
	.st43{clip-path:url(#XMLID_165_);fill:#F26456;}
	.st44{clip-path:url(#XMLID_166_);fill:#1AB1DD;}
	.st45{clip-path:url(#XMLID_167_);fill:#F26456;}
	.st46{clip-path:url(#XMLID_168_);fill:#F26456;}
	.st47{clip-path:url(#XMLID_169_);fill:#1AB1DD;}
	.st48{clip-path:url(#XMLID_170_);fill:#1AB1DD;}
	.st49{clip-path:url(#XMLID_171_);fill:#1AB1DD;}
	.st50{clip-path:url(#XMLID_172_);fill:#1AB1DD;}
	.st51{clip-path:url(#XMLID_173_);fill:#1AB1DD;}
	.st52{clip-path:url(#XMLID_174_);fill:#1AB1DD;}
	.st53{clip-path:url(#XMLID_175_);fill:#04A58C;}
	.st54{clip-path:url(#XMLID_176_);fill:#04A58C;}
	.st55{clip-path:url(#XMLID_177_);fill:#04A58C;}
	.st56{clip-path:url(#XMLID_178_);fill:#04A58C;}
	.st57{clip-path:url(#XMLID_179_);fill:#04A58C;}
	.st58{clip-path:url(#XMLID_180_);fill:#8153A2;}
	.st59{clip-path:url(#XMLID_181_);fill:#8153A2;}
	.st60{fill-rule:evenodd;clip-rule:evenodd;fill:#FFFFFF;}
</style>
<g id="XMLID_72_">
	<defs>
		<path id="XMLID_74_" d="M85,42.5C85,65.97,65.97,85,42.5,85C19.03,85,0,65.97,0,42.5C0,19.03,19.03,0,42.5,0
			C65.97,0,85,19.03,85,42.5z"/>
	</defs>
	<use xlink:href="#XMLID_74_"  style="overflow:visible;fill:#8153A2;"/>
	<clipPath id="XMLID_92_">
		<use xlink:href="#XMLID_74_"  style="overflow:visible;"/>
	</clipPath>
	<path id="XMLID_75_" style="clip-path:url(#XMLID_92_);fill:#8153A2;" d="M85,42.67c0,23.47-19.03,42.5-42.5,42.5
		C19.03,85.17,0,66.14,0,42.67s19.03-42.5,42.5-42.5C65.97,0.17,85,19.2,85,42.67z"/>
</g>
<path class="st4" d="M30.75,61.02c-1.64,0-3.28-0.24-4.91-0.71c-0.33-0.1-0.55-0.4-0.55-0.74v-3.14c0-0.43,0.34-0.77,0.77-0.77
	c0.43,0,0.77,0.34,0.77,0.77v2.55c2.61,0.66,5.24,0.66,7.85,0v-33.3c-2.61-0.48-5.24-0.48-7.85,0v26.15c0,0.43-0.34,0.77-0.77,0.77
	c-0.43,0-0.77-0.34-0.77-0.77V25.05c0-0.36,0.25-0.68,0.61-0.75c3.22-0.69,6.49-0.69,9.71,0c0.36,0.08,0.61,0.39,0.61,0.75v34.52
	c0,0.34-0.23,0.64-0.55,0.74C34.03,60.79,32.39,61.02,30.75,61.02z"/>
<path class="st4" d="M33.23,29.89h-4.96c-0.43,0-0.77-0.34-0.77-0.77s0.34-0.77,0.77-0.77h4.96c0.43,0,0.77,0.34,0.77,0.77
	S33.65,29.89,33.23,29.89z"/>
<path class="st4" d="M33.23,32.17h-4.96c-0.43,0-0.77-0.34-0.77-0.77c0-0.43,0.34-0.77,0.77-0.77h4.96c0.43,0,0.77,0.34,0.77,0.77
	C34,31.83,33.65,32.17,33.23,32.17z"/>
<path class="st4" d="M33.23,34.45h-4.96c-0.43,0-0.77-0.34-0.77-0.77c0-0.43,0.34-0.77,0.77-0.77h4.96c0.43,0,0.77,0.34,0.77,0.77
	C34,34.11,33.65,34.45,33.23,34.45z"/>
<path class="st4" d="M46.85,50.43c-0.43,0-0.77-0.34-0.77-0.77V25.05c0-0.36,0.25-0.68,0.61-0.75c3.22-0.69,6.49-0.69,9.71,0
	c0.36,0.08,0.61,0.39,0.61,0.75v2.61c0,0.43-0.34,0.77-0.77,0.77s-0.77-0.34-0.77-0.77v-1.97c-2.61-0.48-5.24-0.48-7.85,0v23.97
	C47.62,50.09,47.28,50.43,46.85,50.43z"/>
<path class="st4" d="M54.02,29.89h-4.96c-0.43,0-0.77-0.34-0.77-0.77s0.34-0.77,0.77-0.77h4.96c0.43,0,0.77,0.34,0.77,0.77
	S54.45,29.89,54.02,29.89z"/>
<path class="st4" d="M54.02,32.17h-4.96c-0.43,0-0.77-0.34-0.77-0.77c0-0.43,0.34-0.77,0.77-0.77h4.96c0.43,0,0.77,0.34,0.77,0.77
	C54.79,31.83,54.45,32.17,54.02,32.17z"/>
<path class="st4" d="M41.23,61.02c-1.3,0-2.63-0.24-3.98-0.73c-0.31-0.11-0.51-0.4-0.51-0.72v-1c0-0.43,0.34-0.77,0.77-0.77
	s0.77,0.34,0.77,0.77v0.44c2.01,0.62,3.89,0.63,5.73,0.02V25.65c-1.9-0.44-3.83-0.44-5.73,0v27.5c0,0.43-0.34,0.77-0.77,0.77
	s-0.77-0.34-0.77-0.77v-28.1c0-0.35,0.23-0.65,0.57-0.74c2.55-0.7,5.13-0.7,7.68,0c0.33,0.09,0.57,0.4,0.57,0.74v34.52
	c0,0.32-0.19,0.6-0.49,0.72C43.82,60.78,42.54,61.02,41.23,61.02z"/>
<path class="st4" d="M43.33,29.89h-4.1c-0.43,0-0.77-0.34-0.77-0.77s0.34-0.77,0.77-0.77h4.1c0.43,0,0.77,0.34,0.77,0.77
	S43.75,29.89,43.33,29.89z"/>
<path class="st4" d="M53.78,46.7c-0.11,0-0.21-0.02-0.31-0.07c-0.39-0.17-0.56-0.63-0.39-1.02c2.98-6.63,6.43-12.01,10.57-16.45
	c0.29-0.31,0.78-0.33,1.09-0.04c0.31,0.29,0.33,0.78,0.04,1.09c-4.02,4.31-7.38,9.55-10.29,16.03C54.35,46.53,54.07,46.7,53.78,46.7
	z"/>
<path class="st4" d="M59.01,45.28c-0.24,0-0.47-0.04-0.71-0.11l-2.08-0.65c-0.41-0.13-0.63-0.56-0.51-0.96
	c0.13-0.41,0.56-0.64,0.96-0.51l2.08,0.65c0.28,0.09,0.57,0.02,0.8-0.17c-0.38-0.19-0.89-0.44-1.35-0.64
	c-0.34-0.15-0.52-0.53-0.43-0.89c0.09-0.36,0.43-0.61,0.8-0.58c0.68,0.05,1.48,0.08,1.93,0.09c0.55-1.3,1.23-2.63,2.19-4.3
	c-0.24-0.15-0.56-0.33-0.87-0.5c-0.31-0.16-0.47-0.52-0.39-0.86c0.08-0.34,0.39-0.59,0.74-0.59c0.61-0.01,1.34-0.03,1.72-0.07
	c1.36-2.23,2.94-4.56,4.93-7.29c-0.07-0.07-0.15-0.14-0.22-0.2c-0.23-0.2-0.32-0.51-0.23-0.8c0.09-0.29,0.34-0.5,0.64-0.54
	c0.42-0.05,0.86-0.13,1.09-0.19c0.67-0.9,1.19-1.59,1.78-2.36l0.1-0.14c-1.72,0.23-3.51,0.69-5.23,1.36
	c-0.09,0.33-0.22,0.93-0.31,1.44c-0.07,0.36-0.38,0.63-0.75,0.63c-0.36,0.02-0.69-0.25-0.76-0.62c-0.04-0.2-0.09-0.41-0.14-0.6
	c-0.47,0.23-0.9,0.45-1.31,0.67c-1.28,0.71-2.4,1.49-3.49,2.45c0.04,0.46,0.19,1.44,0.34,2.26c0.06,0.35-0.13,0.71-0.46,0.85
	c-0.33,0.14-0.72,0.03-0.93-0.26c-0.26-0.36-0.57-0.77-0.81-1.08c-0.62,0.65-1.19,1.33-1.79,2.19c0.1,0.51,0.34,1.71,0.58,2.8
	c0.07,0.34-0.09,0.69-0.41,0.85c-0.31,0.16-0.7,0.08-0.93-0.18c-0.3-0.34-0.63-0.72-0.9-1.03c-0.46,0.81-0.86,1.65-1.19,2.49
	c-0.2,0.52-0.15,1.12,0.13,1.6l1.03,1.76c0.22,0.37,0.09,0.84-0.28,1.05c-0.37,0.21-0.84,0.09-1.05-0.28l-1.03-1.76
	c-0.52-0.88-0.61-1.98-0.24-2.93c0.47-1.23,1.09-2.45,1.83-3.61c0.13-0.2,0.35-0.34,0.6-0.35c0.14-0.01,0.24-0.02,0.37,0.05
	c-0.15-0.8-0.1-0.88,0.03-1.07c0.9-1.35,1.72-2.26,2.69-3.22c0.16-0.16,0.4-0.25,0.62-0.23c0.08,0.01,0.15,0.01,0.24,0.05
	c-0.02-0.61,0.1-0.72,0.28-0.88c1.26-1.14,2.54-2.05,4.02-2.87c0.64-0.35,1.34-0.7,2.14-1.06c0.17-0.08,0.39-0.09,0.58-0.03
	c0.13-0.26,0.26-0.33,0.44-0.4c2.07-0.83,4.26-1.39,6.34-1.62c0.54-0.06,1.04,0.2,1.31,0.67c0.28,0.49,0.24,1.09-0.1,1.53
	l-0.33,0.44c-0.62,0.81-1.16,1.53-1.89,2.52c-0.1,0.13-0.19,0.26-0.68,0.39c0.07,0.23,0.05,0.47-0.13,0.71
	c-2.21,3.01-3.91,5.53-5.36,7.93c-0.12,0.2-0.22,0.33-0.65,0.4c0.02,0.04,0.03,0.08,0.04,0.12c0.06,0.2,0.03,0.46-0.08,0.64
	c-1.2,2.05-1.97,3.56-2.58,5.07c-0.09,0.21-0.18,0.36-0.42,0.44c0.1,0.18,0.09,0.38,0.01,0.61C60.95,44.63,60.02,45.28,59.01,45.28z
	 M59.89,43.06C59.89,43.06,59.89,43.06,59.89,43.06C59.89,43.06,59.89,43.06,59.89,43.06z"/>
<path class="st4" d="M60.09,50.71h-1.38c-0.43,0-0.77-0.34-0.77-0.77s0.34-0.77,0.77-0.77h1.38c0.45,0,0.82-0.42,0.82-0.95v-0.58
	c0-0.52-0.37-0.95-0.82-0.95h-8.04c-0.45,0-0.82,0.42-0.82,0.95v0.58c0,0.52,0.37,0.95,0.82,0.95h2.06c0.43,0,0.77,0.34,0.77,0.77
	s-0.34,0.77-0.77,0.77h-2.06c-1.3,0-2.36-1.12-2.36-2.49v-0.58c0-1.37,1.06-2.49,2.36-2.49h8.04c1.3,0,2.36,1.12,2.36,2.49v0.58
	C62.45,49.6,61.39,50.71,60.09,50.71z"/>
<path class="st4" d="M63.69,62.91H48.44c-1.29,0-2.33-1.1-2.33-2.46v-6.6c0-1.35,1.05-2.46,2.33-2.46h4.02
	c0.43,0,0.77,0.34,0.77,0.77s-0.34,0.77-0.77,0.77h-4.02c-0.44,0-0.79,0.41-0.79,0.92v6.6c0,0.51,0.36,0.92,0.79,0.92h15.25
	c0.44,0,0.79-0.41,0.79-0.92v-6.6c0-0.51-0.36-0.92-0.79-0.92h-4.02c-0.43,0-0.77-0.34-0.77-0.77s0.34-0.77,0.77-0.77h4.02
	c1.29,0,2.33,1.1,2.33,2.46v6.6C66.02,61.81,64.98,62.91,63.69,62.91z"/>
<path class="st4" d="M52.46,52.93c-0.14,0-0.28-0.04-0.41-0.12c-0.36-0.23-0.46-0.7-0.24-1.06c0.31-0.49,0.31-0.9,0-1.39
	c-0.23-0.36-0.12-0.83,0.24-1.06c0.36-0.23,0.83-0.12,1.06,0.24c0.63,1,0.63,2.05,0,3.04C52.97,52.81,52.72,52.93,52.46,52.93z"/>
<path class="st4" d="M59.67,52.93c-0.26,0-0.51-0.13-0.65-0.36c-0.62-0.99-0.62-2.04,0-3.03c0.22-0.36,0.7-0.47,1.06-0.25
	c0.36,0.22,0.47,0.7,0.25,1.06c-0.31,0.49-0.31,0.91,0,1.4c0.22,0.36,0.11,0.84-0.25,1.06C59.95,52.89,59.81,52.93,59.67,52.93z"/>
<g>
	<rect x="26.1" y="62.84" class="st4" width="17.65" height="0.6"/>
	<path class="st4" d="M26.1,64.21c-0.59,0-1.07-0.48-1.07-1.07s0.48-1.07,1.07-1.07h17.65c0.59,0,1.07,0.48,1.07,1.07
		s-0.48,1.07-1.07,1.07H26.1z"/>
	<path class="st4" d="M43.75,63.91H26.1c-0.43,0-0.77-0.34-0.77-0.77s0.34-0.77,0.77-0.77h17.65c0.43,0,0.77,0.34,0.77,0.77
		S44.17,63.91,43.75,63.91z"/>
</g>
</svg>
