 <svg id="Layer_1" data-name="Layer 1" xmlns="http://www.w3.org/2000/svg" width="1463.92" height="199.07" viewBox="0 0 1463.92 199.07"><defs><style>.cls-1{fill:#FFFFFF;}.cls-2{fill:#FFFFFF;}.cls-3{isolation:isolate;}.cls-4{fill:#FFFFFF;}</style></defs><path class="cls-1" d="M179,134.6a7.33,7.33,0,0,1-5.48,8.79,7.24,7.24,0,0,1-4.5-.4c2.24,3.19,10.67,8.4,31.88,9.28-31.24,6.8-32.27,1.93-39.21.34-18.32,8.65-46.79,6.49-46.79,6.49l28.28-9.58s-26.93-2.52-31.53-8.38c31.23,3.14,40.17-3,39.64-3.44-7-5.65-13.48-26.43-13.68-27.07h0c.85,1.09,16.1,20.6,27.24,27.73-.05-.15-.09-.31-.13-.47A7.33,7.33,0,0,1,179,134.6Z" transform="translate(1.2 -15.06)"/><path class="cls-2" d="M175.79,29.21C172.61,61,167.66,60.5,164,66.6c2.55,20.11-8.3,46.52-8.3,46.52l-.37-29.85s-10.72,24.85-17.72,27.38c12.64-28.74,9.54-39.13,9-38.76-7.66,5-30,4.65-30,4.65S141,67.81,151.47,59.18l-.46-.06a7.32,7.32,0,1,1,6.14-2.49C160.83,55.52,168.4,49.12,175.79,29.21Z" transform="translate(1.2 -15.06)"/><path class="cls-1" d="M124.51,60.06,96,51.2s20.31,17.86,20.58,25.31C93.18,55.61,82.32,55.34,82.5,56c2.38,8.83-4.85,30-4.85,30a.17.17,0,0,0,0-.1c0-1.76-.94-26.21-5.73-38.42a1.46,1.46,0,0,1-.16.47,7.35,7.35,0,1,1-.48-6.62c.06-3.89-3.7-13.07-20.34-26.26C80.2,27.9,78.18,32.45,82.85,37.82,102.46,41.53,123.85,59.5,124.51,60.06Z" transform="translate(1.2 -15.06)"/><path class="cls-1" d="M111.6,141.12h0c-.44.65-14.59,21.55-18,34.51l.41-.28a7.32,7.32,0,1,1-2.46,10.06l0-.06a7.31,7.31,0,0,1-1-4.41c-2.35,3.12-4.69,12.75,1,33.2-16.09-27.55-11.78-30-12.41-37.13-13.67-14.53-20.42-41.63-20.62-42.47l17.84,23.91s-5.92-26.4-1.77-32.58c6.67,30.67,15.28,37.27,15.52,36.64C93.3,154.12,111,141.52,111.6,141.12Z" transform="translate(1.2 -15.06)"/><path class="cls-1" d="M47.13,97.62c.66-.39,23.35-13.76,30.42-11.75-27.11,15.82-30.72,26.06-30,26.09,9,.45,26.31,13.34,27,13.85-.71-.2-25-7.22-38.38-6.43l.39.3a7.33,7.33,0,1,1-10.33.79,7.22,7.22,0,0,1,3.82-2.35c-3.68-1.26-13.57-.52-31.25,11.23,21.27-23.86,25-20.53,31.52-23.32,9.75-17.77,34-32.75,34-32.75Z" transform="translate(1.2 -15.06)"/><g class="cls-3"><g class="cls-3"><path class="cls-1" d="M249.75,77.21h3.09V76c0-11.66-6.6-15.59-15.59-15.59-10.95,0-19.8,6.88-19.8,6.88l-5.62-10a44.57,44.57,0,0,1,26.55-8.43c18,0,28.08,9.83,28.08,27.81v44.94H253.82v-6.74a53.57,53.57,0,0,1,.28-5.62h-.28a24.57,24.57,0,0,1-22.75,14c-12.22,0-24.15-7.45-24.15-21.63C206.92,78.19,237.81,77.21,249.75,77.21ZM234,112.32c11.52,0,19-12.08,19-22.61V87.46h-3.51c-10.25,0-28.79.71-28.79,13.49C220.68,106.7,225.17,112.32,234,112.32Z" transform="translate(1.2 -15.06)"/><path class="cls-1" d="M286,22.44h13.63V99.82c0,8.57,3.37,10.11,7.58,10.11a21.92,21.92,0,0,0,2.39-.14v12.08a38.5,38.5,0,0,1-4.5.28c-7.72,0-19.1-2.1-19.1-19.94Z" transform="translate(1.2 -15.06)"/><path class="cls-1" d="M323.2,22.44h13.62V99.82c0,8.57,3.37,10.11,7.59,10.11a21.62,21.62,0,0,0,2.38-.14v12.08a38.22,38.22,0,0,1-4.49.28c-7.72,0-19.1-2.1-19.1-19.94Z" transform="translate(1.2 -15.06)"/></g><g class="cls-3"><path class="cls-4" d="M408,20.75c23.73,0,36.09,11.94,36.09,11.94l-7,10.39a45.63,45.63,0,0,0-28-9.69c-23.31,0-37.35,17-37.35,38.2,0,23,15.73,38.91,36.51,38.91,17.13,0,28.09-12.36,28.09-12.36V83.81H420.25V71.73H449v49.86H436.82v-6.18c0-2.11.14-4.21.14-4.21h-.28s-10.81,12.08-30.48,12.08c-26.68,0-48.73-21.07-48.73-51.41C357.47,43.22,379.1,20.75,408,20.75Z" transform="translate(1.2 -15.06)"/><path class="cls-4" d="M468,50.53H481.2V62.89a49.39,49.39,0,0,1-.29,5.33h.29c3.23-10.39,11.51-18.54,22.47-18.54a23.51,23.51,0,0,1,3.51.29V63.45a19.73,19.73,0,0,0-3.93-.42c-8.71,0-16.72,6.18-19.95,16.71a43.31,43.31,0,0,0-1.68,12.78v29.07H468Z" transform="translate(1.2 -15.06)"/><path class="cls-4" d="M557.73,77.21h3.09V76c0-11.66-6.6-15.59-15.58-15.59-11,0-19.81,6.88-19.81,6.88l-5.61-10a44.56,44.56,0,0,1,26.54-8.43c18,0,28.09,9.83,28.09,27.81v44.94H561.81v-6.74a53.57,53.57,0,0,1,.28-5.62h-.28a24.59,24.59,0,0,1-22.75,14c-12.22,0-24.16-7.45-24.16-21.63C514.9,78.19,545.8,77.21,557.73,77.21ZM542,112.32c11.52,0,19-12.08,19-22.61V87.46h-3.51c-10.25,0-28.79.71-28.79,13.49C528.66,106.7,533.16,112.32,542,112.32Z" transform="translate(1.2 -15.06)"/><path class="cls-4" d="M622.34,48.84c16.43,0,21.91,11.24,21.91,11.24h.28a40.46,40.46,0,0,1-.28-4.78V22.44h13.62v99.15H645v-6.74c0-2.81.14-4.78.14-4.78h-.28s-5.76,13.21-23.32,13.21c-19.24,0-31.32-15.17-31.32-37.22C590.17,63.45,603.52,48.84,622.34,48.84Zm1.82,62.64c10.54,0,20.51-7.44,20.51-25.56,0-12.64-6.6-25.28-20.09-25.28-11.23,0-20.5,9.27-20.5,25.42C604.08,101.51,612.36,111.48,624.16,111.48Z" transform="translate(1.2 -15.06)"/><path class="cls-4" d="M678.23,50.53h13.62V92.94c0,9.83,2,17.7,13.34,17.7,14.47,0,23-12.78,23-26.83V50.53h13.62v71.06h-13.2v-9.41a46.77,46.77,0,0,1,.28-5.2h-.28c-2.95,7-12.22,16.3-26.12,16.3-16,0-24.3-8.43-24.3-27.25Z" transform="translate(1.2 -15.06)"/></g><g class="cls-3"><path class="cls-4" d="M800.28,77.21h3.09V76c0-11.66-6.6-15.59-15.59-15.59-10.95,0-19.8,6.88-19.8,6.88l-5.62-10a44.57,44.57,0,0,1,26.55-8.43c18,0,28.08,9.83,28.08,27.81v44.94H804.35v-6.74a53.57,53.57,0,0,1,.28-5.62h-.28a24.57,24.57,0,0,1-22.75,14c-12.22,0-24.15-7.45-24.15-21.63C757.45,78.19,788.34,77.21,800.28,77.21Zm-15.73,35.11c11.52,0,19-12.08,19-22.61V87.46H800c-10.25,0-28.79.71-28.79,13.49C771.21,106.7,775.7,112.32,784.55,112.32Z" transform="translate(1.2 -15.06)"/></g><g class="cls-3"><path class="cls-4" d="M839.89,62.46h-9.27v-11h9.69V31h13.2v20.5h17.13v11H853.51v31.6c0,14.19,10,16,15.17,16a16.52,16.52,0,0,0,3.23-.28v12.08a37.57,37.57,0,0,1-4.78.28c-9.13,0-27.24-2.81-27.24-26.54Z" transform="translate(1.2 -15.06)"/><path class="cls-4" d="M917.83,48.84c20.08,0,30.76,14.89,30.76,33.29,0,1.82-.43,5.9-.43,5.9H896.34c.7,15.58,11.8,23.45,24.44,23.45,12.22,0,21.06-8.29,21.06-8.29l5.62,10a42.27,42.27,0,0,1-27.52,10.12c-22.33,0-37.64-16.16-37.64-37.22C882.3,63.45,897.61,48.84,917.83,48.84Zm16.85,28.93c-.42-12.22-8-18.11-17.13-18.11-10.39,0-18.82,6.46-20.79,18.11Z" transform="translate(1.2 -15.06)"/></g><g class="cls-3"><path class="cls-1" d="M968.25,99.68s10.53,10.68,25.28,10.68c9.26,0,17.13-5.2,17.13-14.61,0-21.49-48-16.85-48-47.33,0-15.45,13.34-27.67,32-27.67,18.4,0,28.09,10,28.09,10l-6.32,11.52s-9.13-8.57-21.77-8.57c-10.53,0-18,6.61-18,14.47,0,20.5,48,15,48,47.19,0,15.31-11.79,28-31.46,28-21.06,0-32.86-13.07-32.86-13.07Z" transform="translate(1.2 -15.06)"/><path class="cls-1" d="M1074.84,48.84c17.83,0,26.68,10.39,26.68,10.39l-6.46,9.56a28.76,28.76,0,0,0-19.66-8.15c-14.33,0-24.72,10.67-24.72,25.28,0,14.46,10.39,25.56,25.14,25.56,13.2,0,21.91-9.55,21.91-9.55l5.48,10s-9.83,11.38-28.37,11.38c-22.33,0-38.06-15.87-38.06-37.22C1036.78,65,1052.51,48.84,1074.84,48.84Z" transform="translate(1.2 -15.06)"/><path class="cls-1" d="M1118.65,22.44h13.63V58.81a57.51,57.51,0,0,1-.29,5.9h.29c3.08-6.88,12.07-15.87,26.26-15.87,16.71,0,24.43,9.13,24.43,27.25v45.5h-13.62V79.18c0-10-2.1-17.84-13.48-17.84-10.67,0-19.52,7.3-22.47,17.56a33.37,33.37,0,0,0-1.12,9.41v33.28h-13.63Z" transform="translate(1.2 -15.06)"/><path class="cls-1" d="M1236.48,48.84c21.21,0,38.34,15.59,38.34,37.08s-17.13,37.36-38.34,37.36-38.34-15.73-38.34-37.36S1215.27,48.84,1236.48,48.84Zm0,62.64c13.48,0,24.44-10.67,24.44-25.56s-11-25.28-24.44-25.28S1212,71.17,1212,85.92,1223.14,111.48,1236.48,111.48Z" transform="translate(1.2 -15.06)"/><path class="cls-1" d="M1324.11,48.84c21.21,0,38.34,15.59,38.34,37.08s-17.13,37.36-38.34,37.36-38.34-15.73-38.34-37.36S1302.91,48.84,1324.11,48.84Zm0,62.64c13.49,0,24.44-10.67,24.44-25.56s-11-25.28-24.44-25.28c-13.34,0-24.43,10.53-24.43,25.28S1310.77,111.48,1324.11,111.48Z" transform="translate(1.2 -15.06)"/><path class="cls-1" d="M1377.76,22.44h13.62V99.82c0,8.57,3.37,10.11,7.58,10.11a21.69,21.69,0,0,0,2.39-.14v12.08a38.22,38.22,0,0,1-4.49.28c-7.73,0-19.1-2.1-19.1-19.94Z" transform="translate(1.2 -15.06)"/><path class="cls-1" d="M1416.66,103.19a30.47,30.47,0,0,0,20.36,8.29c5.9,0,11.8-3.09,11.8-8.85,0-13.06-36.52-10.39-36.52-33.56,0-12.93,11.52-20.23,25.71-20.23,15.58,0,22.89,7.87,22.89,7.87L1455.42,67s-6.32-6.32-17.55-6.32c-5.9,0-11.66,2.53-11.66,8.71,0,12.78,36.51,10,36.51,33.28,0,11.8-10.11,20.65-25.7,20.65-17.41,0-27-10.4-27-10.4Z" transform="translate(1.2 -15.06)"/></g></g></svg>

