<?xml version="1.0" encoding="utf-8"?>
<!-- Generator: Adobe Illustrator 23.0.0, SVG Export Plug-In . SVG Version: 6.00 Build 0)  -->
<svg version="1.1" id="Layer_1" xmlns="http://www.w3.org/2000/svg" xmlns:xlink="http://www.w3.org/1999/xlink" x="0px" y="0px"
	 viewBox="0 0 85 85" style="enable-background:new 0 0 85 85;" xml:space="preserve">
<style type="text/css">
	.st0{clip-path:url(#XMLID_2_);fill:#00A48B;}
	.st1{fill-rule:evenodd;clip-rule:evenodd;fill:#FFFFFF;}
	.st2{clip-path:url(#XMLID_3_);fill:#00A48B;}
	.st3{fill:#FFFFFF;}
	.st4{clip-path:url(#XMLID_4_);fill:#00A48B;}
	.st5{clip-path:url(#XMLID_5_);fill:#00A48B;}
	.st6{clip-path:url(#XMLID_6_);fill:#00A48B;}
</style>
<g id="XMLID_29_">
	<defs>
		<path id="XMLID_30_" d="M85,42.5C85,65.97,65.97,85,42.5,85C19.03,85,0,65.97,0,42.5C0,19.03,19.03,0,42.5,0
			C65.97,0,85,19.03,85,42.5z"/>
	</defs>
	<use xlink:href="#XMLID_30_"  style="overflow:visible;fill:#00A48B;"/>
	<clipPath id="XMLID_2_">
		<use xlink:href="#XMLID_30_"  style="overflow:visible;"/>
	</clipPath>
	<path id="XMLID_31_" class="st0" d="M85,42.67c0,23.47-19.03,42.5-42.5,42.5C19.03,85.17,0,66.14,0,42.67s19.03-42.5,42.5-42.5
		C65.97,0.17,85,19.2,85,42.67z"/>
</g>
<g>
	<path class="st3" d="M71.9,39.64c0,0.47,0,0.93,0,1.4c-0.02,0.07-0.05,0.14-0.06,0.21c-0.45,2.97-2.16,4.9-4.91,5.98
		c-1.27,0.5-2.59,0.47-3.91,0.31c-0.5-0.06-0.84,0.09-1.14,0.48c-0.7,0.91-1.43,1.81-2.14,2.71c-0.5,0.64-1,1.29-1.48,1.91
		c0.42,0.44,0.82,0.86,1.22,1.27c2.89,2.98,3.74,7.76,2.05,11.54c-1.96,4.4-6.24,6.91-11.03,6.38c-3.1-0.34-5.6-1.81-7.45-4.34
		c-0.97-1.32-1.54-2.8-1.88-4.39c-0.06-0.29-0.15-0.48-0.51-0.53c-3.7-0.51-7.39-1.04-11.08-1.59c-0.4-0.06-0.56,0.01-0.71,0.41
		c-1.47,4.03-6.02,6.28-10.28,4.24c-3.35-1.6-4.94-5.21-3.86-8.79c0.83-2.76,2.77-4.53,5.64-5.16c0.28-0.06,0.4-0.18,0.44-0.47
		c0.17-1.31,0.38-2.61,0.56-3.92c0.12-0.88,0.23-1.77,0.34-2.66c0.03-0.24-0.01-0.41-0.31-0.48c-0.42-0.09-0.83-0.23-1.22-0.39
		c-3.73-1.48-6.08-4.13-6.88-8.09c-0.08-0.39-0.13-0.79-0.2-1.18c0-0.54,0-1.08,0-1.62c0.14-0.69,0.23-1.4,0.43-2.07
		c1.41-4.81,6.03-8.58,12.12-7.59c3.09,0.5,5.49,2.18,7.18,4.83c0.12,0.19,0.25,0.38,0.39,0.58c0.13-0.09,0.24-0.15,0.33-0.22
		c2.3-1.61,4.59-3.22,6.88-4.83c0.67-0.47,0.66-0.47,0.49-1.28c-0.23-1.09-0.3-2.2-0.06-3.28c0.82-3.8,4.22-6.07,7.43-5.93
		c2.44,0.11,4.42,1.1,5.86,3.08c0.72,0.99,1.28,2.06,1.31,3.33c0.01,0.47-0.02,0.93,0.01,1.4c0.08,1.22-0.28,2.32-0.9,3.35
		c-0.33,0.54-0.71,1.04-1.07,1.58c2.31,2.69,4.64,5.4,6.98,8.11c0.09-0.05,0.16-0.07,0.22-0.11c1.66-1.02,3.5-1.25,5.35-0.87
		c3.08,0.62,5.21,3.1,5.73,5.79C71.82,39.04,71.86,39.34,71.9,39.64z M57.24,42.25c-0.06-0.51-0.13-0.87-0.15-1.23
		c-0.02-0.29-0.17-0.38-0.43-0.42C53.3,40,49.95,39.4,46.59,38.8c-3.94-0.7-7.88-1.39-11.81-2.08c-0.65-0.11-0.65-0.11-0.88,0.53
		c-0.81,2.17-2.12,3.96-4.04,5.28c-1.41,0.97-2.96,1.55-4.64,1.82c-0.29,0.05-0.43,0.16-0.47,0.48c-0.3,2.22-0.62,4.43-0.94,6.65
		c-0.03,0.24,0.08,0.3,0.25,0.36c1.4,0.5,2.61,1.28,3.57,2.43c0.18,0.21,0.33,0.21,0.56,0.11c4.59-1.87,9.18-3.73,13.77-5.61
		c4.96-2.03,9.92-4.06,14.88-6.08C57.11,42.57,57.32,42.46,57.24,42.25z M41.83,24.58c-0.01,0-0.05,0.01-0.08,0.03
		c-2.53,1.79-5.06,3.57-7.58,5.37c-0.1,0.07-0.16,0.29-0.14,0.43c0.14,0.93,0.33,1.85,0.47,2.79c0.04,0.28,0.17,0.38,0.44,0.43
		c3.75,0.68,7.51,1.38,11.26,2.05c3.66,0.66,7.32,1.28,10.98,1.94c0.24,0.04,0.31-0.03,0.41-0.21c0.4-0.67,0.8-1.35,1.25-1.98
		c0.33-0.46,0.37-0.45,0-0.89c-2.14-2.5-4.29-5-6.43-7.5c-0.17-0.2-0.29-0.18-0.49-0.08c-0.54,0.26-1.08,0.52-1.65,0.71
		c-0.91,0.31-1.86,0.25-2.8,0.22C45.01,27.8,43.32,26.41,41.83,24.58z M59.64,46.04c-0.48-0.59-0.93-1.14-1.37-1.69
		c-0.2-0.25-0.39-0.32-0.72-0.19c-3.18,1.3-6.38,2.56-9.56,3.86c-4.73,1.93-9.45,3.86-14.16,5.81c-1.61,0.66-3.2,1.36-4.8,2.04
		c-0.21,0.09-0.31,0.19-0.22,0.44c0.15,0.43,0.27,0.86,0.41,1.29c0.07,0.22,0.2,0.33,0.44,0.37c0.71,0.1,1.42,0.23,2.14,0.34
		c2.98,0.43,5.96,0.85,8.93,1.29c0.27,0.04,0.38-0.02,0.45-0.27c0.13-0.48,0.27-0.97,0.42-1.44c1.5-4.81,6.52-7.97,11.51-7.23
		c0.7,0.1,1.39,0.3,2.08,0.41c0.19,0.03,0.49,0.01,0.59-0.12C57.08,49.33,58.36,47.68,59.64,46.04z M51.96,59.14
		c0-0.02,0-0.05,0-0.07c-0.71,0-1.42-0.02-2.13,0.01c-0.6,0.02-1.2,0.05-1.79,0.13c-0.49,0.06-1.18,0.7-1.18,1.08
		c0.01,1.63,0,3.26,0.05,4.88c0.02,0.81,0.39,1.27,1.18,1.29c2.47,0.07,4.94,0.09,7.41,0.05c0.9-0.02,1.37-0.52,1.38-1.32
		c0.03-1.58,0.02-3.16-0.04-4.73c-0.02-0.75-0.61-1.29-1.37-1.3C54.31,59.11,53.13,59.14,51.96,59.14z M23.35,31.77
		C23.35,31.77,23.35,31.77,23.35,31.77c-1.19,0-2.37,0-3.56,0.01c-0.72,0-1.38,0.6-1.39,1.33c-0.02,1.58-0.02,3.16,0.01,4.73
		c0,0.23,0.14,0.49,0.27,0.69c0.27,0.41,0.71,0.5,1.16,0.5c2.42,0.01,4.84,0.02,7.27,0.01c0.84-0.01,1.26-0.44,1.27-1.29
		c0.03-1.52-0.02-3.03,0.03-4.55c0.03-0.86-0.69-1.45-1.46-1.44C25.75,31.78,24.55,31.77,23.35,31.77z M21.47,62.76
		c0-0.01,0-0.02,0-0.02c0.99,0,1.98,0.03,2.97-0.01c0.75-0.03,0.98-0.3,1-1.07c0.03-0.91,0.01-1.81,0.08-2.72
		c0.04-0.53-0.1-0.93-0.53-1.23c-0.17-0.12-0.36-0.28-0.55-0.29c-0.79-0.03-1.59-0.03-2.39-0.01c-1,0.02-2.01,0.04-3.01,0.1
		c-0.48,0.03-0.81,0.28-0.82,0.7c-0.05,1.26-0.07,2.52-0.04,3.78c0.01,0.46,0.44,0.77,0.9,0.77C19.88,62.77,20.67,62.76,21.47,62.76
		z M48.46,19.08c0,0.01,0,0.02,0,0.04c-0.97,0-1.93-0.04-2.9,0.01c-0.69,0.04-0.98,0.39-1,1.08c-0.03,1.03-0.03,2.06,0.01,3.08
		c0.02,0.7,0.38,1.1,1.06,1.12c1.77,0.06,3.55,0.06,5.32,0.07c0.08,0,0.18-0.04,0.23-0.09c0.34-0.37,0.67-0.71,0.62-1.32
		c-0.08-1-0.03-2.01-0.05-3.01c-0.02-0.63-0.39-0.97-1.01-0.98C49.98,19.08,49.22,19.08,48.46,19.08z M64.68,44.04
		C64.68,44.03,64.68,44.03,64.68,44.04c0.88-0.01,1.76-0.01,2.64-0.01c0.45,0,0.9-0.47,0.9-0.92c0-1.17,0-2.35,0-3.52
		c0-0.4-0.52-0.96-0.93-0.95c-1.75,0.01-3.5,0.03-5.25,0.06c-0.54,0.01-0.93,0.38-0.94,0.92c-0.03,1.14-0.04,2.27-0.05,3.41
		c0,0.49,0.53,1.01,1.03,1.01C62.94,44.04,63.81,44.04,64.68,44.04z M21.47,31.24c0.03-0.34,0.04-0.66,0.08-0.97
		c0.16-1.16,0.87-1.76,2.02-1.72c0.86,0.03,1.39,0.45,1.57,1.31c0.08,0.34,0.09,0.7,0.16,1.05c0.02,0.1,0.11,0.24,0.18,0.25
		c0.39,0.04,0.79,0.05,1.22,0.07c-0.04-0.4-0.05-0.75-0.1-1.1c-0.26-1.89-1.48-3.34-3.86-2.95c-0.34,0.06-0.7,0.16-0.99,0.35
		c-1.29,0.85-1.64,2.14-1.58,3.63C20.61,31.2,21.02,31.22,21.47,31.24z M55.15,58.58c-0.13-0.68-0.2-1.34-0.4-1.96
		c-0.35-1.1-1.08-1.85-2.27-2.05c-1.24-0.21-2.32,0.04-3.1,1.1c-0.63,0.86-0.76,1.85-0.77,2.93c0.25,0,0.46,0,0.68,0
		c0.23,0,0.46,0,0.7,0c0.03-0.36,0.06-0.67,0.08-0.99c0.06-0.74,0.54-1.38,1.18-1.58c0.77-0.24,1.57-0.06,1.96,0.44
		c0.34,0.43,0.55,0.93,0.56,1.48c0.01,0.2,0,0.41,0,0.62C54.24,58.58,54.65,58.58,55.15,58.58z M24.13,57.12
		c-0.05-0.47-0.06-0.92-0.16-1.36c-0.14-0.6-0.48-1.1-1.06-1.38c-0.87-0.42-1.75-0.41-2.53,0.18c-0.78,0.58-0.95,1.47-0.96,2.39
		c0,0.06,0.08,0.18,0.13,0.18c0.29,0.03,0.59,0.03,0.8,0.04c0.13-0.54,0.21-0.99,0.35-1.42c0.13-0.39,0.46-0.57,0.88-0.6
		c0.94-0.05,1.41,0.37,1.56,1.41c0.09,0.64,0.1,0.64,0.76,0.6C23.94,57.17,23.99,57.15,24.13,57.12z M67.06,38.27
		c-0.06-1.06-0.17-2.11-1.19-2.69c-0.87-0.5-1.8-0.43-2.64,0.14c-0.62,0.42-1.04,1.78-0.83,2.56c0.06,0,0.12,0,0.18,0
		c0.64,0,0.64,0,0.72-0.63c0.02-0.14,0.04-0.29,0.09-0.43c0.13-0.34,0.27-0.68,0.67-0.81c0.91-0.3,1.57,0.05,1.79,0.99
		c0.07,0.29,0.06,0.7,0.25,0.83C66.31,38.38,66.69,38.27,67.06,38.27z M45.95,18.65c0.83,0.1,0.83,0.09,0.94-0.67
		c0.07-0.45,0.24-0.85,0.65-1.1c0.82-0.5,1.8-0.04,1.98,0.94c0.05,0.27,0.05,0.55,0.07,0.84c0.36,0,0.69,0,1.03,0
		c-0.01-1.82-1.03-3.11-2.4-3.03C46.63,15.72,45.78,16.85,45.95,18.65z"/>
	<path class="st3" d="M51.69,61.5c0.53,0.04,0.83,0.15,1.01,0.5c0.17,0.33,0.1,0.62-0.06,0.93c-0.15,0.28-0.21,0.61-0.29,0.93
		c-0.05,0.17-0.04,0.37-0.11,0.53c-0.06,0.12-0.22,0.3-0.31,0.29c-0.14-0.01-0.29-0.15-0.38-0.28c-0.07-0.11-0.07-0.28-0.09-0.42
		c-0.03-0.38-0.09-0.73-0.35-1.05c-0.25-0.3-0.24-0.7-0.02-0.99C51.27,61.71,51.57,61.59,51.69,61.5z"/>
	<path class="st3" d="M24.34,35.11c-0.02,0.07-0.04,0.27-0.14,0.38c-0.32,0.32-0.33,0.72-0.35,1.12c-0.01,0.09-0.01,0.17-0.01,0.26
		c-0.02,0.26-0.19,0.44-0.42,0.42c-0.14-0.01-0.34-0.2-0.4-0.35c-0.09-0.22-0.05-0.48-0.11-0.72c-0.06-0.23-0.13-0.47-0.25-0.67
		c-0.24-0.38-0.26-0.75-0.01-1.09c0.23-0.32,0.68-0.47,1.05-0.35C24.08,34.25,24.34,34.59,24.34,35.11z"/>
	<path class="st3" d="M21.83,59.19c0.49,0.01,0.75,0.38,0.6,0.84c-0.11,0.34-0.18,0.68-0.27,1.02c-0.06,0.22-0.16,0.48-0.42,0.41
		c-0.14-0.04-0.26-0.28-0.32-0.46c-0.12-0.31-0.17-0.65-0.29-0.96C20.96,59.63,21.32,59.19,21.83,59.19z"/>
	<path class="st3" d="M48.86,21.39c-0.03,0.12-0.07,0.23-0.1,0.35c-0.1,0.31-0.19,0.62-0.31,0.92c-0.05,0.12-0.17,0.25-0.28,0.29
		c-0.2,0.06-0.28-0.08-0.33-0.28c-0.07-0.34-0.19-0.68-0.3-1.01c-0.09-0.28-0.04-0.51,0.17-0.7c0.22-0.21,0.51-0.3,0.77-0.13
		c0.18,0.11,0.3,0.32,0.45,0.49C48.91,21.34,48.88,21.36,48.86,21.39z"/>
	<path class="st3" d="M65.27,41.12c-0.02,0.05-0.05,0.14-0.08,0.23c-0.1,0.29-0.22,0.59-0.3,0.89c-0.05,0.18-0.09,0.41-0.32,0.35
		c-0.12-0.03-0.25-0.2-0.3-0.34c-0.12-0.34-0.24-0.69-0.26-1.04c-0.01-0.24,0.1-0.53,0.26-0.71c0.11-0.12,0.41-0.17,0.58-0.12
		C65.15,40.46,65.28,40.74,65.27,41.12z"/>
</g>
</svg>
