<?xml version="1.0" encoding="utf-8"?>
<!-- Generator: Adobe Illustrator 23.0.0, SVG Export Plug-In . SVG Version: 6.00 Build 0)  -->
<svg version="1.1" id="Layer_1" xmlns="http://www.w3.org/2000/svg" xmlns:xlink="http://www.w3.org/1999/xlink" x="0px" y="0px"
	 viewBox="0 0 85 85" style="enable-background:new 0 0 85 85;" xml:space="preserve">
<style type="text/css">
	.st0{clip-path:url(#XMLID_2_);fill:#00A48B;}
	.st1{fill-rule:evenodd;clip-rule:evenodd;fill:#FFFFFF;}
	.st2{clip-path:url(#XMLID_3_);fill:#00A48B;}
	.st3{fill:#FFFFFF;}
	.st4{clip-path:url(#XMLID_4_);fill:#00A48B;}
	.st5{clip-path:url(#XMLID_5_);fill:#00A48B;}
	.st6{clip-path:url(#XMLID_6_);fill:#00A48B;}
</style>
<g id="XMLID_112_">
	<defs>
		<path id="XMLID_113_" d="M85,42.5C85,65.97,65.97,85,42.5,85C19.03,85,0,65.97,0,42.5C0,19.03,19.03,0,42.5,0
			C65.97,0,85,19.03,85,42.5z"/>
	</defs>
	<use xlink:href="#XMLID_113_"  style="overflow:visible;fill:#00A48B;"/>
	<clipPath id="XMLID_2_">
		<use xlink:href="#XMLID_113_"  style="overflow:visible;"/>
	</clipPath>
	<path id="XMLID_114_" class="st0" d="M85,42.67c0,23.47-19.03,42.5-42.5,42.5C19.03,85.17,0,66.14,0,42.67s19.03-42.5,42.5-42.5
		C65.97,0.17,85,19.2,85,42.67z"/>
</g>
<g>
	<path class="st3" d="M65.99,42.5c0-0.97-0.06-1.93-0.18-2.87l4.36-1.88c-0.46-2.71-1.31-5.28-2.49-7.67l-4.64,1.04
		c-0.94-1.69-2.07-3.24-3.38-4.64l2.42-4.09c-1.93-1.88-4.12-3.48-6.52-4.74l-3.14,3.57c-1.72-0.8-3.55-1.41-5.46-1.77l-0.44-4.73
		c-1.32-0.19-2.66-0.29-4.03-0.29s-2.71,0.1-4.03,0.29l-0.44,4.73c-1.91,0.37-3.75,0.97-5.46,1.77l-3.14-3.57
		c-2.4,1.26-4.59,2.87-6.52,4.74l2.42,4.09c-1.31,1.4-2.44,2.96-3.38,4.64l-4.64-1.04c-1.18,2.38-2.03,4.96-2.49,7.67l4.36,1.88
		c-0.11,0.94-0.18,1.9-0.18,2.87s0.06,1.93,0.18,2.87l-4.36,1.88c0.46,2.71,1.31,5.28,2.49,7.67l4.64-1.04
		c0.94,1.69,2.07,3.24,3.38,4.64l-2.42,4.09c1.93,1.88,4.12,3.48,6.52,4.74l3.14-3.57c1.72,0.8,3.55,1.41,5.46,1.77l0.44,4.73
		c1.32,0.19,2.66,0.29,4.03,0.29s2.71-0.1,4.03-0.29l0.44-4.73c1.91-0.37,3.75-0.97,5.46-1.77l3.14,3.57
		c2.4-1.26,4.59-2.87,6.52-4.74l-2.42-4.09c1.31-1.4,2.44-2.96,3.38-4.64l4.64,1.04c1.18-2.38,2.03-4.96,2.49-7.67l-4.36-1.88
		C65.93,44.43,65.99,43.47,65.99,42.5z M42.5,60.25c-9.8,0-17.75-7.95-17.75-17.75S32.7,24.75,42.5,24.75S60.25,32.7,60.25,42.5
		S52.3,60.25,42.5,60.25z"/>
	<g>
		<path class="st3" d="M39.68,49.35l3.42-3.42l2.09-2.09l3.42-3.42c1.24,0.5,3.13,1.06,4.48-0.71c0.7-0.93,1.04-2.07,0.91-3.15
			c-0.02-0.2-0.27-0.29-0.42-0.15l-1.81,1.81c0,0-0.2,0.2-0.27,0.27c-0.4,0.4-1.35,0.11-2.12-0.66c-0.77-0.77-1.06-1.71-0.66-2.12
			C48.8,35.65,49,35.45,49,35.45l1.81-1.81c0.15-0.15,0.06-0.4-0.15-0.42c-1.08-0.13-2.22,0.21-3.15,0.91
			c-1.77,1.34-1.21,3.23-0.71,4.48l-3.42,3.42l-2.09,2.09l-3.42,3.42c-1.24-0.5-3.13-1.06-4.48,0.71c-0.7,0.93-1.04,2.07-0.91,3.15
			c0.02,0.2,0.27,0.29,0.42,0.15l1.81-1.81c0,0,0.2-0.2,0.27-0.27c0.4-0.4,1.35-0.11,2.12,0.66c0.77,0.77,1.06,1.71,0.66,2.12
			c-0.07,0.07-0.27,0.27-0.27,0.27l-1.81,1.81c-0.15,0.15-0.06,0.4,0.15,0.42c1.08,0.13,2.22-0.21,3.15-0.91
			C40.75,52.48,40.18,50.59,39.68,49.35z"/>
		<path class="st3" d="M41.79,29.46c-2.06-0.78-5.32,2.57-6.2,3.54c-0.98-0.06-2.02,0.32-2.81,1.12c-0.87,0.87-1.24,2.04-1.08,3.1
			c-0.28,0.21-1.09,0.74-1.82,0.47l-2.5,2.51c0,0,1.13,2.39,3.91,3.91l2.5-2.51c-0.29-0.76,0.32-1.63,0.5-1.86
			c0.56,0.07,1.14-0.01,1.69-0.22l14.16,15.25c0,0,1.65-0.25,2.53-1.13c0.88-0.88,1.13-2.53,1.13-2.53L38.34,36.8
			c0.11-0.5,0.12-1.01,0.01-1.48c1.08-3.35,2.63-3.32,3.93-4.02c0.34-0.19,1.18-0.72,1.09-1.09C43.27,29.77,41.79,29.46,41.79,29.46
			z"/>
	</g>
</g>
</svg>
