<?xml version="1.0" encoding="utf-8"?>
<!-- Generator: Adobe Illustrator 23.0.0, SVG Export Plug-In . SVG Version: 6.00 Build 0)  -->
<svg version="1.1" id="Layer_1" xmlns="http://www.w3.org/2000/svg" xmlns:xlink="http://www.w3.org/1999/xlink" x="0px" y="0px"
	 viewBox="0 0 85 85" style="enable-background:new 0 0 85 85;" xml:space="preserve">
<style type="text/css">
	.st0{clip-path:url(#XMLID_2_);fill:#00A48B;}
	.st1{fill-rule:evenodd;clip-rule:evenodd;fill:#FFFFFF;}
	.st2{clip-path:url(#XMLID_3_);fill:#00A48B;}
	.st3{fill:#FFFFFF;}
	.st4{clip-path:url(#XMLID_4_);fill:#00A48B;}
	.st5{clip-path:url(#XMLID_5_);fill:#00A48B;}
	.st6{clip-path:url(#XMLID_6_);fill:#00A48B;}
</style>
<g id="XMLID_102_">
	<defs>
		<path id="XMLID_110_" d="M85,42.5C85,65.97,65.97,85,42.5,85C19.03,85,0,65.97,0,42.5C0,19.03,19.03,0,42.5,0
			C65.97,0,85,19.03,85,42.5z"/>
	</defs>
	<use xlink:href="#XMLID_110_"  style="overflow:visible;fill:#00A48B;"/>
	<clipPath id="XMLID_2_">
		<use xlink:href="#XMLID_110_"  style="overflow:visible;"/>
	</clipPath>
	<path id="XMLID_111_" class="st0" d="M85,42.67c0,23.47-19.03,42.5-42.5,42.5C19.03,85.17,0,66.14,0,42.67s19.03-42.5,42.5-42.5
		C65.97,0.17,85,19.2,85,42.67z"/>
</g>
<g>
	<g>
		<path class="st1" d="M38.91,24.53c0,1.42-0.38,2.69-1.13,3.81l-0.01,0.01c-0.05,0.07-0.09,0.13-0.14,0.2
			c-0.22,0.29-0.46,0.57-0.72,0.84v0.01c-0.05,0.05-0.11,0.1-0.17,0.15l1.21,2.13h0.01c1.4-0.58,2.92-0.88,4.56-0.89
			c0.01,0,0.02,0,0.02,0h0.04c1.65,0.01,3.18,0.31,4.59,0.9h0.01c1.21-2.07,2.43-4.14,3.64-6.21c-0.02-0.03-0.05-0.05-0.07-0.08
			c-0.03-0.03-0.06-0.07-0.09-0.1c-0.2-0.22-0.39-0.45-0.56-0.7c-0.01-0.01-0.02-0.03-0.03-0.04c-0.65-0.96-0.98-2.06-1-3.31v-0.01
			c0-0.15,0.01-0.3,0.02-0.44c0.09-1.46,0.67-2.73,1.73-3.81h0.01l0.01-0.01v-0.01c1.18-1.16,2.59-1.74,4.24-1.74
			c1.11,0,2.1,0.26,2.99,0.77l0.02,0.02h0.01c0.45,0.26,0.86,0.58,1.24,0.97l0.02,0.02c1.02,1.02,1.59,2.23,1.71,3.62
			c0.01,0.03,0.01,0.06,0.01,0.09c0.01,0.17,0.02,0.33,0.02,0.5v0.01c0,0.71-0.11,1.38-0.32,1.99c-0.16,0.46-0.38,0.9-0.66,1.3
			c0,0.01-0.01,0.01-0.01,0.02l-0.01,0.01c-0.2,0.29-0.42,0.57-0.68,0.83c-0.02,0.02-0.04,0.05-0.07,0.07
			c-0.01,0.01-0.01,0.01-0.02,0.02l-0.01,0.01c-0.01,0-0.01,0.01-0.02,0.01c-0.39,0.38-0.8,0.7-1.25,0.96
			c-0.15,0.09-0.31,0.17-0.47,0.24c-0.01,0.01-0.03,0.02-0.04,0.02c-0.28,0.13-0.56,0.23-0.86,0.31c-0.5,0.13-1.03,0.2-1.6,0.2
			c-0.54,0-1.05-0.07-1.55-0.2c-0.01,0-0.02,0-0.02,0l-0.04,0.07h-0.01c-1.2,2.05-2.4,4.1-3.6,6.15c0.38,0.3,0.75,0.63,1.11,0.98
			c0.12,0.1,0.23,0.21,0.33,0.32l0.01,0.01c1.79,1.89,2.83,4.1,3.13,6.61v0.01h1.65v-0.01c0.28-1.53,1.01-2.88,2.18-4.05
			c0.02-0.02,0.04-0.05,0.07-0.07c0.48-0.48,1-0.88,1.55-1.2c1.18-0.7,2.51-1.04,3.98-1.04h0.02c2.19-0.01,4.05,0.77,5.59,2.32
			c0.03,0.03,0.05,0.05,0.07,0.08c1.12,1.14,1.81,2.47,2.09,3.96c0,0.01,0,0.02,0,0.02c0.09,0.49,0.13,0.99,0.13,1.52
			c0,1.63-0.44,3.09-1.3,4.38v0.02c-0.28,0.41-0.61,0.81-1,1.19l-0.02,0.02h-0.01c-0.5,0.49-1.03,0.91-1.59,1.25
			c-0.02,0.01-0.04,0.02-0.06,0.03c-0.13,0.08-0.27,0.15-0.4,0.22c-1.07,0.53-2.25,0.8-3.53,0.81c-1.29,0-2.46-0.27-3.51-0.8h-0.02
			c-0.01,0-0.01-0.01-0.02-0.01c-0.75-0.37-1.44-0.87-2.06-1.5h0.01l-0.01-0.01c-0.37-0.38-0.7-0.77-0.99-1.17
			c-0.01-0.02-0.02-0.03-0.03-0.05c-0.57-0.86-0.96-1.8-1.15-2.81l-1.65-0.01c-0.3,2.49-1.33,4.69-3.09,6.58l-0.01,0.01
			c-0.04,0.05-0.09,0.1-0.14,0.14c-0.06,0.06-0.11,0.11-0.17,0.17h0.01c-0.39,0.39-0.79,0.74-1.2,1.06v0.01l1.22,2.14
			c0.63-0.19,1.3-0.29,2-0.29h0.01c1.12,0.01,2.14,0.24,3.07,0.7c0.64,0.32,1.23,0.76,1.79,1.31c0.26,0.26,0.51,0.54,0.72,0.83
			c0.04,0.06,0.09,0.12,0.13,0.17c0.01,0.01,0.02,0.02,0.02,0.03c0.75,1.11,1.12,2.38,1.12,3.81c0,1.89-0.67,3.5-2,4.84l-0.01,0.02
			c-0.43,0.42-0.88,0.77-1.35,1.06l-0.01,0.01c-0.02,0.01-0.04,0.02-0.06,0.02l-0.01,0.01c-1.01,0.59-2.14,0.89-3.41,0.91h-0.02
			c-1.89-0.01-3.51-0.69-4.84-2.02c-1.34-1.33-2.01-2.95-2.01-4.84c0.01-1.42,0.39-2.69,1.14-3.81l0.01-0.01
			c0.04-0.07,0.09-0.13,0.13-0.2c0.22-0.29,0.46-0.57,0.73-0.83v-0.01c0.05-0.06,0.11-0.11,0.17-0.17l-1.23-2.12
			c-1.4,0.58-2.92,0.87-4.56,0.87h-0.04c-1.66,0-3.19-0.3-4.6-0.88h-0.01l-3.37,5.73c0.03,0.02,0.05,0.05,0.08,0.07
			c0.03,0.03,0.05,0.07,0.08,0.1c0.21,0.22,0.39,0.45,0.57,0.7c0.01,0.02,0.02,0.03,0.03,0.05c0.64,0.96,0.97,2.06,0.99,3.3v0.01
			c0,0.15-0.01,0.3-0.02,0.44c-0.09,1.46-0.67,2.73-1.73,3.81h-0.01l-0.01,0.02c-1.18,1.17-2.59,1.75-4.24,1.74
			c-1.11,0-2.1-0.27-2.99-0.78l-0.02-0.01v-0.01c-0.45-0.26-0.86-0.58-1.25-0.96L26.07,68v-0.02c-1.02-1.02-1.59-2.22-1.72-3.61
			c0-0.03,0-0.07,0-0.1c-0.01-0.16-0.02-0.33-0.02-0.49v-0.02c0-0.71,0.1-1.38,0.32-1.99c0.16-0.46,0.38-0.9,0.66-1.3l0.01-0.01
			c0-0.01,0.01-0.01,0.01-0.02c0.2-0.29,0.42-0.57,0.68-0.83c0.02-0.02,0.04-0.05,0.07-0.07c0.01-0.01,0.01-0.01,0.02-0.02
			c0.01,0,0.01-0.01,0.02-0.01l0.01-0.01c0.39-0.38,0.81-0.7,1.26-0.96c0.15-0.09,0.3-0.17,0.46-0.24c0.02-0.01,0.03-0.01,0.05-0.02
			c0.28-0.13,0.56-0.23,0.86-0.32c0.5-0.13,1.03-0.2,1.59-0.21c0.54,0,1.06,0.07,1.55,0.21c0.01,0,0.01,0.01,0.02,0.01l0.01-0.01
			l0.03-0.07h0.01l3.32-5.68c-0.4-0.32-0.78-0.66-1.15-1.04c-0.07-0.07-0.14-0.13-0.21-0.19c-0.01-0.01-0.03-0.03-0.04-0.04v0.01
			c-0.01-0.01-0.01-0.02-0.02-0.02h0.01l-0.01-0.01c-0.01-0.01-0.01-0.01-0.02-0.02C32.05,49,31,46.79,30.7,44.28l-3.91-0.01
			c-0.18,0.81-0.51,1.56-0.97,2.25v0.01c-0.01,0.01-0.01,0.01-0.02,0.02c-0.24,0.35-0.52,0.69-0.83,1.01h-0.01
			c-0.01,0.01-0.02,0.02-0.02,0.02c-0.44,0.42-0.89,0.78-1.37,1.07l-0.01,0.01c-0.03,0.02-0.05,0.03-0.07,0.05
			c-0.01,0-0.02,0.01-0.02,0.01c-0.07,0.03-0.14,0.07-0.22,0.11c-0.01,0.01-0.02,0.01-0.02,0.02c-0.02,0.01-0.04,0.03-0.06,0.04
			c-0.93,0.45-1.95,0.68-3.06,0.68c-1.11,0-2.13-0.23-3.06-0.68c-0.02-0.01-0.04-0.03-0.06-0.04c-0.62-0.32-1.19-0.74-1.73-1.26
			c-0.01-0.01-0.02-0.02-0.02-0.02h-0.01c-0.31-0.33-0.58-0.67-0.82-1.01c-0.01-0.01-0.01-0.01-0.02-0.02l-0.01-0.01
			c-0.75-1.11-1.13-2.38-1.14-3.8c0-1.89,0.67-3.5,2-4.84h0.01c0.43-0.44,0.88-0.8,1.37-1.08c0.01-0.01,0.03-0.02,0.04-0.02
			c1.02-0.6,2.17-0.9,3.43-0.9h0.02c1.88-0.01,3.5,0.66,4.84,2c0.96,0.95,1.58,2.05,1.85,3.28h3.9c0.3-2.51,1.35-4.71,3.14-6.61
			v-0.02c0.01-0.01,0.02-0.02,0.03-0.02c0.1-0.1,0.19-0.2,0.3-0.29h-0.02c0.37-0.36,0.75-0.69,1.15-1v-0.01l-1.22-2.14h-0.01
			c-0.63,0.19-1.3,0.29-2,0.29h-0.01c-1.12-0.01-2.14-0.24-3.07-0.7c-0.64-0.32-1.23-0.75-1.78-1.3c-0.27-0.27-0.51-0.55-0.73-0.84
			c-0.04-0.06-0.08-0.12-0.12-0.17c-0.01-0.01-0.02-0.02-0.02-0.03c-0.75-1.11-1.13-2.38-1.13-3.81c0-1.89,0.67-3.5,2.01-4.84
			l0.01-0.01c0.43-0.42,0.88-0.77,1.35-1.06l0.01-0.01c0.01-0.01,0.03-0.02,0.04-0.03l0.02-0.01c1.01-0.59,2.14-0.89,3.41-0.91h0.02
			c1.9,0.01,3.51,0.69,4.84,2.02C38.25,21.03,38.91,22.64,38.91,24.53z M29.41,21.87c-0.73,0.73-1.1,1.62-1.1,2.66
			c0,1.04,0.37,1.93,1.1,2.66c0.73,0.73,1.62,1.1,2.66,1.1c1.04,0,1.93-0.37,2.66-1.1c0.73-0.73,1.1-1.62,1.1-2.66
			c0-1.04-0.37-1.93-1.1-2.66c-0.73-0.73-1.62-1.1-2.66-1.1C31.03,20.77,30.14,21.14,29.41,21.87z M23.89,42.72
			c0-1.04-0.37-1.93-1.11-2.67s-1.63-1.11-2.67-1.11c-1.04,0-1.93,0.37-2.67,1.11c-0.74,0.74-1.11,1.63-1.11,2.67
			c0,1.04,0.37,1.93,1.11,2.67c0.74,0.74,1.63,1.11,2.67,1.11c1.04,0,1.93-0.37,2.67-1.11C23.52,44.66,23.89,43.77,23.89,42.72z
			 M33.84,41.17h7.19v-0.8c-0.39-0.05-0.77-0.12-1.15-0.2c-1.74-0.38-3.32-1.15-4.74-2.3C34.46,38.87,34.03,39.97,33.84,41.17z
			 M47.01,35.04l-0.02-0.02c-0.01,0-0.02-0.01-0.02-0.01C46.95,35.01,46.94,35,46.92,35c-0.86-0.5-1.79-0.84-2.79-1.01v3.25
			c0.15-0.03,0.31-0.06,0.46-0.1h0.01c1.19-0.27,2.28-0.78,3.27-1.53c-0.26-0.2-0.52-0.38-0.79-0.54c-0.01,0-0.01-0.01-0.02-0.01
			C47.04,35.06,47.02,35.05,47.01,35.04z M38.13,35.04c-0.01,0.01-0.02,0.02-0.02,0.02c-0.28,0.16-0.56,0.35-0.82,0.55
			c0.99,0.75,2.08,1.26,3.27,1.53c0.16,0.04,0.32,0.07,0.48,0.1v-3.25c-1.02,0.17-1.97,0.51-2.85,1.03
			C38.16,35.03,38.14,35.03,38.13,35.04z M44.13,41.17c2.39,0,4.78,0,7.17,0h0.01c-0.2-1.2-0.64-2.3-1.31-3.3
			c-1.42,1.15-3,1.92-4.74,2.3c-0.37,0.08-0.75,0.15-1.13,0.19V41.17z M60.45,39.32c-0.94,0.94-1.41,2.08-1.41,3.41
			s0.47,2.47,1.41,3.41s2.08,1.41,3.41,1.41c1.33,0,2.47-0.47,3.41-1.41s1.41-2.08,1.41-3.41s-0.47-2.47-1.41-3.41
			c-0.94-0.94-2.08-1.41-3.41-1.41C62.53,37.91,61.39,38.38,60.45,39.32z M53.02,23.27c0.57,0.57,1.26,0.86,2.07,0.86
			c0.81,0,1.5-0.29,2.07-0.86c0.57-0.57,0.86-1.25,0.86-2.05c0-0.8-0.29-1.48-0.86-2.05c-0.57-0.57-1.26-0.86-2.07-0.86
			c-0.81,0-1.5,0.29-2.07,0.86c-0.57,0.57-0.86,1.25-0.86,2.05C52.16,22.02,52.44,22.7,53.02,23.27z M51.31,44.27h-7.18v0.83
			c0.38,0.05,0.76,0.12,1.13,0.21c1.73,0.38,3.31,1.13,4.73,2.28C50.67,46.58,51.11,45.47,51.31,44.27z M53.09,57.17
			c-1.04,0-1.93,0.37-2.67,1.1c-0.74,0.74-1.11,1.63-1.11,2.67c0,1.04,0.37,1.93,1.11,2.67s1.63,1.1,2.67,1.1
			c1.04,0,1.93-0.37,2.67-1.1c0.74-0.74,1.11-1.63,1.11-2.67c0-1.04-0.37-1.93-1.11-2.67C55.02,57.53,54.13,57.17,53.09,57.17z
			 M44.13,48.24v3.22c0.97-0.16,1.88-0.48,2.73-0.96c0.11-0.08,0.22-0.14,0.32-0.19c0.23-0.15,0.45-0.3,0.66-0.47
			c-0.98-0.75-2.07-1.26-3.25-1.52h-0.01C44.44,48.29,44.29,48.27,44.13,48.24z M41.02,45.1v-0.83h-7.19
			c0.2,1.2,0.64,2.31,1.31,3.32c1.42-1.14,3-1.9,4.73-2.28C40.25,45.22,40.63,45.15,41.02,45.1z M38.14,50.43
			c0.89,0.52,1.85,0.87,2.88,1.04v-3.22c-0.16,0.02-0.32,0.05-0.48,0.08c-1.18,0.26-2.27,0.77-3.26,1.52
			c0.23,0.18,0.46,0.34,0.7,0.5C38.04,50.37,38.09,50.4,38.14,50.43z M32.39,65.83c0.57-0.57,0.86-1.25,0.86-2.05
			c0-0.8-0.29-1.48-0.86-2.05c-0.57-0.57-1.25-0.86-2.05-0.86c-0.8,0-1.48,0.29-2.05,0.86c-0.57,0.57-0.86,1.25-0.86,2.05
			c0,0.8,0.29,1.48,0.86,2.05c0.57,0.57,1.25,0.86,2.05,0.86C31.14,66.69,31.82,66.4,32.39,65.83z"/>
	</g>
	<g>
		<path class="st1" d="M53.09,58.83c0.59,0,1.09,0.2,1.5,0.61c0.41,0.41,0.61,0.91,0.61,1.5c0,0.59-0.21,1.09-0.61,1.5
			c-0.41,0.41-0.91,0.61-1.5,0.61c-0.59,0-1.09-0.2-1.5-0.61c-0.41-0.41-0.62-0.91-0.62-1.5c0-0.59,0.2-1.09,0.62-1.5
			C52,59.03,52.5,58.83,53.09,58.83z"/>
	</g>
	<g>
		<path class="st1" d="M60.7,42.72c0-0.88,0.31-1.62,0.92-2.24c0.61-0.61,1.36-0.92,2.24-0.92c0.88,0,1.62,0.31,2.24,0.92
			c0.61,0.62,0.92,1.36,0.92,2.24c0,0.88-0.31,1.62-0.92,2.24c-0.62,0.62-1.36,0.92-2.24,0.92c-0.88,0-1.62-0.31-2.24-0.92
			C61.01,44.34,60.7,43.6,60.7,42.72z"/>
	</g>
	<g>
		<path class="st1" d="M29.97,24.53c0-0.58,0.21-1.07,0.62-1.48s0.9-0.61,1.48-0.61c0.58,0,1.07,0.2,1.48,0.61
			c0.41,0.41,0.62,0.9,0.62,1.48c0,0.58-0.2,1.07-0.62,1.48c-0.41,0.41-0.9,0.61-1.48,0.61c-0.58,0-1.07-0.2-1.48-0.61
			S29.97,25.1,29.97,24.53z"/>
	</g>
	<g>
		<path class="st1" d="M18.01,42.72c0-0.59,0.21-1.09,0.62-1.5s0.91-0.62,1.5-0.62s1.09,0.21,1.5,0.62s0.61,0.91,0.61,1.5
			s-0.2,1.09-0.61,1.5s-0.91,0.61-1.5,0.61s-1.09-0.2-1.5-0.61S18.01,43.31,18.01,42.72z"/>
	</g>
</g>
</svg>
