<?xml version="1.0" encoding="utf-8"?>
<!-- Generator: Adobe Illustrator 23.0.0, SVG Export Plug-In . SVG Version: 6.00 Build 0)  -->
<svg version="1.1" id="Layer_1" xmlns="http://www.w3.org/2000/svg" xmlns:xlink="http://www.w3.org/1999/xlink" x="0px" y="0px"
	 viewBox="0 0 85 85" style="enable-background:new 0 0 85 85;" xml:space="preserve">
<style type="text/css">
	.st0{clip-path:url(#XMLID_2_);fill:#00A48B;}
	.st1{fill-rule:evenodd;clip-rule:evenodd;fill:#FFFFFF;}
	.st2{clip-path:url(#XMLID_3_);fill:#00A48B;}
	.st3{fill:#FFFFFF;}
	.st4{clip-path:url(#XMLID_4_);fill:#00A48B;}
	.st5{clip-path:url(#XMLID_5_);fill:#00A48B;}
	.st6{clip-path:url(#XMLID_6_);fill:#00A48B;}
</style>
<g id="XMLID_32_">
	<defs>
		<path id="XMLID_34_" d="M85,42.67c0,23.47-19.03,42.5-42.5,42.5C19.03,85.17,0,66.14,0,42.67C0,19.2,19.03,0.17,42.5,0.17
			C65.97,0.17,85,19.2,85,42.67z"/>
	</defs>
	<use xlink:href="#XMLID_34_"  style="overflow:visible;fill:#00A48B;"/>
	<clipPath id="XMLID_2_">
		<use xlink:href="#XMLID_34_"  style="overflow:visible;"/>
	</clipPath>
	<path id="XMLID_35_" class="st0" d="M85,42.84c0,23.47-19.03,42.5-42.5,42.5C19.03,85.34,0,66.32,0,42.84s19.03-42.5,42.5-42.5
		C65.97,0.34,85,19.37,85,42.84z"/>
</g>
<g>
	<g>
		<path class="st1" d="M28.62,28.94c0.39-1.08,0.82-2.12,1.32-3.11c0.11-0.25,0.24-0.5,0.39-0.75c0.58-1.1,1.19-2.08,1.82-2.94
			c-2.4,0.98-4.61,2.43-6.63,4.33C26.5,27.39,27.53,28.22,28.62,28.94z M40.21,17.34h0.02c0.03,0,0.06,0,0.08,0c0.07,0,0.13,0,0.2,0
			h0.09c0.07,0,0.13,0,0.2,0c0.03,0,0.06,0,0.08,0h0.02c0.02,0,0.03,0,0.05,0c0.09,0,0.18,0,0.27,0.01
			c6.67,0.14,12.38,2.59,17.13,7.34c0.2,0.2,0.39,0.4,0.58,0.6l0.11,0.1c1.14,1.22,2.14,2.51,2.99,3.86H49.19
			c-0.28-0.71-0.59-1.41-0.92-2.08c-0.01-0.03-0.02-0.06-0.04-0.08c-0.07-0.17-0.15-0.33-0.24-0.5c-0.01-0.01-0.01-0.02-0.02-0.03
			c-1.68-3.18-3.62-5.1-5.81-5.78v8.47h-1.83c-0.5,0-0.96,0.09-1.38,0.27v-8.74c-2.19,0.68-4.13,2.6-5.81,5.78
			c-0.01,0.01-0.01,0.02-0.02,0.03c-0.09,0.17-0.17,0.33-0.24,0.5c-0.01,0.03-0.03,0.06-0.04,0.08c-0.53,1.05-0.99,2.16-1.38,3.33
			c1.7,0.78,3.5,1.31,5.41,1.61c-0.04,0.22-0.07,0.44-0.07,0.68v2.56c-2.18-0.31-4.25-0.89-6.2-1.73c-0.05,0.23-0.1,0.46-0.15,0.7
			c-0.42,2.05-0.67,4.25-0.74,6.58h7.1v3.2h-7.1c0.08,2.32,0.32,4.5,0.74,6.56c0.05,0.23,0.1,0.46,0.15,0.69
			c0.85-0.37,1.73-0.68,2.63-0.95c-0.02,0.11-0.03,0.22-0.03,0.34v0.43c0,0.89,0.22,1.68,0.67,2.39c-0.82,0.25-1.63,0.56-2.41,0.91
			c0.39,1.16,0.85,2.28,1.38,3.35c0.01,0.01,0.01,0.02,0.02,0.03c0.08,0.17,0.16,0.34,0.26,0.52c0.01,0.01,0.01,0.02,0.02,0.03
			c1.68,3.19,3.62,5.12,5.81,5.79v-8.47h3.21v8.47c2.19-0.67,4.13-2.6,5.81-5.79c0.01-0.01,0.01-0.02,0.02-0.03
			c0.1-0.18,0.19-0.35,0.26-0.52c0.01-0.01,0.01-0.02,0.02-0.03c0.34-0.68,0.65-1.38,0.93-2.11h6.77v0.01l6.06-0.01
			c-0.85,1.35-1.84,2.64-2.98,3.86l-0.05,0.04c-0.01,0.01-0.02,0.03-0.04,0.04c-0.01,0.01-0.02,0.03-0.04,0.04
			c-0.19,0.19-0.38,0.38-0.58,0.58c-4.75,4.77-10.46,7.22-17.13,7.36c-0.09,0.01-0.18,0.01-0.27,0.01c-0.02,0-0.03,0-0.05,0h-0.02
			c-0.02,0-0.04,0-0.06,0c-0.02,0-0.04,0.01-0.07,0.01c-0.06,0.01-0.13,0.01-0.2,0.01h-0.02c-0.07,0-0.13,0-0.2-0.01
			c-0.02,0-0.04-0.01-0.07-0.01c-0.02,0-0.04,0-0.06,0h-0.02c-0.02,0-0.03,0-0.05,0c-0.09,0-0.18,0-0.27-0.01
			c-6.67-0.14-12.38-2.59-17.13-7.36c-0.2-0.2-0.39-0.39-0.58-0.58c-0.01-0.01-0.03-0.02-0.04-0.04c-0.01-0.01-0.03-0.02-0.04-0.04
			l-0.05-0.04c-2.26-2.44-3.94-5.11-5.06-8.01l-0.01-0.01c-1.06-2.79-1.59-5.8-1.6-9.01v-0.08c0.01-3.24,0.54-6.26,1.61-9.03
			c1.12-2.92,2.81-5.6,5.07-8.03l0.11-0.1c0.19-0.2,0.38-0.4,0.58-0.6c4.75-4.75,10.46-7.2,17.13-7.34
			c0.09-0.01,0.18-0.01,0.27-0.01C40.18,17.34,40.19,17.34,40.21,17.34z M51.18,25.82c0.49,0.99,0.93,2.03,1.32,3.11
			c1.08-0.72,2.12-1.54,3.1-2.47c-2.02-1.91-4.23-3.35-6.63-4.33c0.63,0.86,1.24,1.84,1.82,2.94
			C50.93,25.32,51.06,25.57,51.18,25.82z M27.66,52.87c-0.13-0.52-0.25-1.04-0.36-1.57c-0.46-2.26-0.73-4.66-0.82-7.2h-7.84
			c0.14,2.22,0.59,4.33,1.34,6.31l-0.01-0.01c0.79,2.06,1.91,3.98,3.36,5.77C24.69,54.88,26.13,53.78,27.66,52.87z M27.66,32.11
			c-1.52-0.92-2.96-2.03-4.31-3.31c-1.45,1.78-2.57,3.71-3.37,5.77c-0.75,1.97-1.2,4.08-1.33,6.33h7.84
			c0.08-2.56,0.36-4.97,0.82-7.22C27.41,33.15,27.53,32.63,27.66,32.11z M51.16,59.19c-0.11,0.22-0.23,0.46-0.37,0.7
			c-0.58,1.11-1.19,2.09-1.83,2.96c2.4-0.99,4.6-2.43,6.62-4.34c-0.98-0.93-2.01-1.76-3.08-2.47c-0.4,1.1-0.85,2.17-1.36,3.2
			L51.16,59.19z M30.32,59.89c-0.14-0.24-0.26-0.47-0.37-0.7l0.03,0.04c-0.51-1.03-0.96-2.09-1.36-3.2
			c-1.08,0.71-2.1,1.54-3.08,2.47c2.01,1.91,4.22,3.36,6.62,4.34C31.51,61.98,30.9,61,30.32,59.89z"/>
	</g>
	<g>
		<path class="st1" d="M69.61,51.17c0,0.68-0.24,1.26-0.72,1.74c-0.48,0.48-1.05,0.72-1.73,0.72H37.73c-0.63,0-1.18-0.21-1.65-0.63
			c-0.03-0.03-0.06-0.06-0.09-0.09c-0.48-0.48-0.72-1.06-0.72-1.74v-0.43h12.78v0.08c0,0.32,0.12,0.59,0.35,0.81
			c0.22,0.23,0.49,0.35,0.81,0.35h6.48c0.32,0,0.6-0.12,0.83-0.35c0.23-0.22,0.35-0.49,0.35-0.81v-0.08h12.76V51.17z"/>
	</g>
	<g>
		<path class="st1" d="M63.13,34.25H41.77v12.27h21.37V34.25z M38.95,32.36c0.07-0.21,0.19-0.4,0.36-0.56
			c0.28-0.29,0.63-0.44,1.02-0.44h24.24c0.39,0.01,0.73,0.15,1.01,0.44c0.29,0.28,0.43,0.62,0.43,1.02v16.6H38.87v-16.6
			C38.87,32.65,38.9,32.5,38.95,32.36z"/>
	</g>
	<g>
		<polygon class="st1" points="54.24,41.77 55.37,43.71 53.46,44.81 52.34,42.87 50.41,44.81 49.5,35.75 56.89,41.07 		"/>
	</g>
</g>
</svg>
