<?xml version="1.0" encoding="utf-8"?>
<!-- Generator: Adobe Illustrator 23.0.0, SVG Export Plug-In . SVG Version: 6.00 Build 0)  -->
<svg version="1.1" id="Layer_1" xmlns="http://www.w3.org/2000/svg" xmlns:xlink="http://www.w3.org/1999/xlink" x="0px" y="0px"
	 viewBox="0 0 85 85" style="enable-background:new 0 0 85 85;" xml:space="preserve">
<style type="text/css">
	.st0{clip-path:url(#XMLID_2_);fill:#00A48B;}
	.st1{fill-rule:evenodd;clip-rule:evenodd;fill:#FFFFFF;}
	.st2{clip-path:url(#XMLID_3_);fill:#00A48B;}
	.st3{fill:#FFFFFF;}
	.st4{clip-path:url(#XMLID_4_);fill:#00A48B;}
	.st5{clip-path:url(#XMLID_5_);fill:#00A48B;}
	.st6{clip-path:url(#XMLID_6_);fill:#00A48B;}
</style>
<g id="XMLID_115_">
	<defs>
		<path id="XMLID_116_" d="M85,42.67c0,23.47-19.03,42.5-42.5,42.5C19.03,85.17,0,66.14,0,42.67C0,19.2,19.03,0.17,42.5,0.17
			C65.97,0.17,85,19.2,85,42.67z"/>
	</defs>
	<use xlink:href="#XMLID_116_"  style="overflow:visible;fill:#00A48B;"/>
	<clipPath id="XMLID_2_">
		<use xlink:href="#XMLID_116_"  style="overflow:visible;"/>
	</clipPath>
	<path id="XMLID_117_" class="st0" d="M85,42.84c0,23.47-19.03,42.5-42.5,42.5C19.03,85.34,0,66.32,0,42.84s19.03-42.5,42.5-42.5
		C65.97,0.34,85,19.37,85,42.84z"/>
</g>
<g>
	<g>
		<g>
			<path class="st3" d="M35.17,44.76c-0.27,0-0.55-0.1-0.75-0.31l-5.06-5.06l5.06-5.06c0.42-0.42,1.09-0.42,1.51,0s0.42,1.09,0,1.51
				l-3.55,3.55l3.55,3.55c0.42,0.42,0.42,1.09,0,1.51C35.72,44.65,35.45,44.76,35.17,44.76z"/>
		</g>
		<g>
			<path class="st3" d="M49.82,44.76c-0.27,0-0.55-0.1-0.75-0.31c-0.42-0.42-0.42-1.09,0-1.51l3.55-3.55l-3.55-3.55
				c-0.42-0.42-0.42-1.09,0-1.51s1.09-0.42,1.51,0l5.06,5.06l-5.06,5.06C50.37,44.65,50.1,44.76,49.82,44.76z"/>
		</g>
		<g>
			<path class="st3" d="M40.31,44.98c-0.12,0-0.23-0.02-0.35-0.06c-0.56-0.19-0.85-0.8-0.66-1.36l3.18-9.23
				c0.19-0.56,0.8-0.85,1.36-0.66c0.56,0.19,0.85,0.8,0.66,1.36l-3.18,9.23C41.17,44.7,40.75,44.98,40.31,44.98z"/>
		</g>
	</g>
	<g>
		<path class="st1" d="M61.17,50.44V27.75H23.84v22.68H61.17z M63.66,25.25c0.46,0.46,0.69,1.02,0.69,1.66v26.71h-43.7V26.91
			c0-0.65,0.23-1.2,0.68-1.66c0.46-0.45,1.01-0.68,1.66-0.68h39.02C62.65,24.57,63.2,24.8,63.66,25.25z"/>
	</g>
	<g>
		<path class="st1" d="M47.71,57.76c0.52,0,0.96-0.19,1.32-0.55c0.37-0.36,0.55-0.8,0.55-1.32v-0.13h20.56v0.72
			c0,1.09-0.39,2.02-1.17,2.79c-0.77,0.78-1.7,1.16-2.79,1.17H18.81c-1.09,0-2.02-0.39-2.8-1.17c-0.77-0.77-1.16-1.7-1.16-2.79
			v-0.72h20.57v0.13c0,0.52,0.18,0.96,0.54,1.32c0.36,0.37,0.8,0.55,1.32,0.55H47.71z"/>
	</g>
</g>
</svg>
