<?xml version="1.0" encoding="utf-8"?>
<!-- Generator: Adobe Illustrator 23.0.0, SVG Export Plug-In . SVG Version: 6.00 Build 0)  -->
<svg version="1.1" id="Layer_1" xmlns="http://www.w3.org/2000/svg" xmlns:xlink="http://www.w3.org/1999/xlink" x="0px" y="0px"
	 viewBox="0 0 85 85" style="enable-background:new 0 0 85 85;" xml:space="preserve">
<style type="text/css">
	.st0{clip-path:url(#XMLID_2_);fill:#17AFDC;}
	.st1{fill:#FFFFFF;}
	.st2{clip-path:url(#XMLID_3_);fill:#17AFDC;}
	.st3{clip-path:url(#XMLID_4_);fill:#17AFDC;}
	.st4{clip-path:url(#XMLID_5_);fill:#17AFDC;}
	.st5{fill:#16B0DB;}
	.st6{clip-path:url(#XMLID_6_);fill:#17AFDC;}
	.st7{clip-path:url(#XMLID_7_);fill:#17AFDC;}
	.st8{clip-path:url(#XMLID_8_);fill:#17AFDC;}
	.st9{fill:none;stroke:#FFFFFF;stroke-width:2;stroke-linecap:round;stroke-linejoin:round;stroke-miterlimit:10;}
	.st10{clip-path:url(#XMLID_9_);fill:#17AFDC;}
</style>
<g id="XMLID_82_">
	<defs>
		<path id="XMLID_83_" d="M85,42.67c0,23.47-19.03,42.5-42.5,42.5C19.03,85.17,0,66.14,0,42.67C0,19.2,19.03,0.17,42.5,0.17
			C65.97,0.17,85,19.2,85,42.67z"/>
	</defs>
	<use xlink:href="#XMLID_83_"  style="overflow:visible;fill:#17AFDC;"/>
	<clipPath id="XMLID_2_">
		<use xlink:href="#XMLID_83_"  style="overflow:visible;"/>
	</clipPath>
	<path id="XMLID_84_" class="st0" d="M85,42.84c0,23.47-19.03,42.5-42.5,42.5C19.03,85.34,0,66.32,0,42.84s19.03-42.5,42.5-42.5
		C65.97,0.34,85,19.37,85,42.84z"/>
</g>
<g>
	<path class="st1" d="M52.31,50.92c0.86-0.1,1.63-0.23,2.41-0.29c2.77-0.18,5.46,0.16,7.92,1.52c0.64,0.35,1.24,0.87,1.68,1.44
		c0.33,0.42,0.52,1.05,0.53,1.6c0.05,2.82,0,5.65,0.04,8.47c0.01,1.13-0.44,1.98-1.29,2.66c-1.37,1.09-2.98,1.6-4.67,1.91
		c-2.81,0.52-5.58,0.36-8.28-0.61c-1.21-0.43-2.33-1.01-3.16-2.04c-0.09-0.11-0.36-0.14-0.52-0.11c-2.78,0.52-5.55,0.53-8.26-0.35
		c-1.03-0.34-2.02-0.86-2.94-1.45c-0.97-0.61-1.4-1.56-1.4-2.76c0.03-5.7,0.03-11.4,0-17.1c-0.01-1.18,0.46-2.05,1.35-2.74
		c1.36-1.06,2.96-1.57,4.63-1.87c3.11-0.55,6.14-0.34,9.06,0.94c0.59,0.26,1.15,0.62,1.67,1.02c0.84,0.65,1.28,1.5,1.26,2.61
		c-0.04,2.17-0.01,4.34-0.01,6.5C52.31,50.47,52.31,50.68,52.31,50.92z M43.33,46.16c1-0.1,2.01-0.15,3.01-0.31
		c1.26-0.2,2.5-0.51,3.53-1.32c0.88-0.7,0.92-1.58,0.01-2.23c-0.63-0.44-1.36-0.81-2.1-1.02c-2.86-0.81-5.76-0.81-8.64-0.07
		c-0.8,0.2-1.58,0.58-2.27,1.04c-0.99,0.66-0.97,1.58-0.02,2.29c0.41,0.31,0.89,0.56,1.37,0.75C39.85,45.93,41.58,46.09,43.33,46.16
		z M55.87,57.83c1.02-0.1,2.06-0.11,3.06-0.32c1.01-0.21,2.01-0.57,2.96-0.96c0.62-0.26,1.2-0.71,1.18-1.49
		c-0.01-0.77-0.61-1.17-1.21-1.49c-0.49-0.26-1.02-0.48-1.55-0.63c-2.74-0.75-5.5-0.78-8.26-0.14c-0.84,0.2-1.68,0.53-2.42,0.97
		c-1.24,0.74-1.23,1.81-0.02,2.6c0.46,0.3,0.98,0.54,1.51,0.72C52.65,57.61,54.25,57.76,55.87,57.83z M36.15,46.11
		c0,0.53,0.03,0.99-0.01,1.45c-0.05,0.67,0.21,1.2,0.76,1.52c0.64,0.37,1.31,0.73,2.02,0.93c2.31,0.68,4.68,0.72,7.05,0.39
		c1.26-0.17,2.52-0.43,3.58-1.18c0.4-0.28,0.8-0.74,0.92-1.19c0.16-0.58,0.04-1.24,0.04-1.89C44.79,48.47,41.08,48.47,36.15,46.11z
		 M63.09,57.83c-4.83,2.31-9.59,2.3-14.34,0.01c-0.2,2.37,0.21,3.04,2.39,3.73c2.66,0.84,5.38,0.9,8.09,0.36
		c1.04-0.21,2.04-0.68,3.02-1.12c0.48-0.21,0.83-0.65,0.85-1.24C63.11,59,63.09,58.42,63.09,57.83z M48.77,62.34
		c-0.16,2.12-0.26,2.66,2.06,3.62c0.1,0.04,0.21,0.08,0.32,0.11c2.42,0.76,4.89,0.82,7.38,0.48c1.26-0.17,2.52-0.43,3.58-1.18
		c0.4-0.28,0.81-0.73,0.93-1.18c0.16-0.58,0.04-1.25,0.04-1.88C58.28,64.63,53.53,64.62,48.77,62.34z M50.49,50.67
		c-4.78,2.28-9.54,2.29-14.33-0.03c0,0.4,0.04,0.8-0.01,1.18c-0.12,0.99,0.37,1.59,1.18,2.03c0.28,0.15,0.56,0.3,0.86,0.41
		c2.77,0.97,5.6,1.02,8.46,0.47c0.14-0.03,0.33-0.15,0.37-0.27c0.48-1.4,1.61-2.13,2.87-2.66C50.46,51.56,50.65,51.25,50.49,50.67z
		 M36.15,55.08c0,0.52,0.03,0.98-0.01,1.44c-0.06,0.69,0.24,1.2,0.78,1.57c0.32,0.22,0.66,0.43,1.02,0.57
		c2.82,1.08,5.72,1.12,8.65,0.57c0.13-0.02,0.31-0.22,0.32-0.34c0.03-0.78,0.01-1.56,0.01-2.37C43.17,57.17,39.59,56.94,36.15,55.08
		z M36.15,59.57c0,0.5,0.04,0.93-0.01,1.36c-0.08,0.82,0.3,1.37,0.95,1.76c0.37,0.22,0.74,0.46,1.15,0.56
		c1.19,0.29,2.39,0.58,3.61,0.73c1.56,0.19,3.13,0.08,4.68-0.26c0.15-0.03,0.38-0.22,0.39-0.34c0.04-0.78,0.02-1.56,0.02-2.4
		C43.19,61.66,39.6,61.43,36.15,59.57z"/>
	<path class="st1" d="M47.83,18.29c-9,0-17.94,0-26.91,0c0,13.46,0,26.89,0,40.37c0.23,0,0.43,0,0.63,0c3.25,0,6.51,0,9.76,0
		c0.11,0,0.22-0.01,0.34,0c0.53,0.03,0.9,0.39,0.91,0.87c0.01,0.51-0.37,0.89-0.94,0.9c-1.23,0.01-2.47,0-3.7,0
		c-2.54,0-5.08,0-7.63,0c-0.88,0-1.18-0.29-1.18-1.17c0-13.89,0-27.78,0-41.67c0-0.8,0.32-1.12,1.12-1.12c9.4,0,18.81,0,28.21,0
		c0.86,0,1.17,0.29,1.17,1.12c0,6.43,0,12.86,0,19.29c0,0.15,0,0.3-0.04,0.44c-0.12,0.44-0.55,0.72-0.98,0.65
		c-0.48-0.08-0.76-0.44-0.76-1.02c0-2.71,0-5.42,0-8.13c0-3.35,0-6.69,0-10.04C47.83,18.64,47.83,18.48,47.83,18.29z"/>
	<path class="st1" d="M34.31,22.75c-3.16,0-6.31,0-9.47,0c-0.17,0-0.34,0.02-0.5-0.02c-0.45-0.11-0.73-0.4-0.73-0.87
		c0-0.47,0.28-0.76,0.73-0.87c0.14-0.04,0.3-0.02,0.45-0.02c6.33,0,12.66,0,18.99,0c0.17,0,0.34-0.01,0.5,0.01
		c0.49,0.05,0.84,0.42,0.84,0.88c0,0.46-0.35,0.85-0.84,0.88c-0.54,0.03-1.08,0.01-1.62,0.01C39.87,22.75,37.09,22.75,34.31,22.75z"
		/>
	<path class="st1" d="M34.31,27.24c-3.16,0-6.31,0-9.47,0c-0.17,0-0.34,0.02-0.5-0.02c-0.45-0.11-0.73-0.4-0.73-0.87
		c0-0.47,0.28-0.76,0.73-0.87c0.14-0.04,0.3-0.02,0.45-0.02c6.33,0,12.66,0,18.99,0c0.17,0,0.34-0.01,0.5,0.01
		c0.49,0.05,0.84,0.42,0.84,0.88c0,0.46-0.35,0.85-0.84,0.88c-0.54,0.03-1.08,0.01-1.62,0.01C39.87,27.24,37.09,27.24,34.31,27.24z"
		/>
	<path class="st1" d="M34.38,31.72c-3.18,0-6.35,0-9.53,0c-0.11,0-0.22,0-0.34,0c-0.54-0.04-0.91-0.39-0.92-0.87
		c-0.01-0.5,0.38-0.9,0.94-0.9c1.49-0.01,2.99-0.01,4.48,0c4.95,0,9.9,0,14.85,0c0.17,0,0.34-0.02,0.5,0.02
		c0.46,0.1,0.73,0.39,0.74,0.86c0.01,0.47-0.26,0.77-0.71,0.88c-0.18,0.04-0.37,0.02-0.56,0.02C40.69,31.72,37.54,31.72,34.38,31.72
		C34.38,31.72,34.38,31.72,34.38,31.72z"/>
	<path class="st1" d="M34.34,36.21c-3.18,0-6.35,0.01-9.53-0.01c-0.3,0-0.7-0.05-0.87-0.24c-0.2-0.22-0.3-0.64-0.25-0.94
		c0.07-0.42,0.46-0.6,0.9-0.6c1.48,0,2.95,0,4.43,0c4.95,0,9.9,0,14.85,0c0.11,0,0.22,0,0.34,0c0.54,0.03,0.91,0.38,0.93,0.86
		c0.02,0.5-0.37,0.91-0.93,0.91c-1.25,0.02-2.5,0.01-3.75,0.01C38.41,36.21,36.37,36.21,34.34,36.21z"/>
	<path class="st1" d="M65.89,30.71c-0.17,0.34-0.25,0.58-0.38,0.77c-2.93,4.11-5.86,8.21-8.8,12.32c-0.37,0.52-0.86,0.63-1.3,0.33
		c-0.44-0.3-0.52-0.82-0.16-1.33c2.95-4.14,5.91-8.27,8.86-12.41c0.25-0.35,0.61-0.58,1.01-0.38
		C65.41,30.14,65.63,30.46,65.89,30.71z"/>
	<path class="st1" d="M63.07,44.28c-1.35-0.01-2.67-1.33-2.67-2.68c-0.01-1.34,1.33-2.68,2.67-2.69c1.37-0.01,2.72,1.34,2.7,2.71
		C65.75,42.98,64.42,44.29,63.07,44.28z M63.99,41.6c0-0.6-0.28-0.9-0.87-0.91c-0.64-0.01-0.93,0.27-0.93,0.9
		c0,0.61,0.28,0.9,0.87,0.91C63.68,42.52,63.99,42.22,63.99,41.6z"/>
	<path class="st1" d="M60.38,32.62c0,1.35-1.32,2.67-2.67,2.69c-1.36,0.01-2.72-1.34-2.7-2.71c0.02-1.35,1.35-2.66,2.69-2.66
		C59.05,29.95,60.38,31.28,60.38,32.62z M58.6,32.64c0-0.6-0.28-0.9-0.86-0.92c-0.63-0.02-0.94,0.27-0.95,0.89
		c0,0.6,0.28,0.9,0.86,0.92C58.29,33.55,58.6,33.26,58.6,32.64z"/>
	<path class="st1" d="M28.08,38.92c1.14,0,2.28,0,3.41,0c0.66,0,1.07,0.35,1.07,0.89c0,0.54-0.41,0.89-1.06,0.89
		c-2.26,0-4.51,0-6.77,0c-0.71,0-1.12-0.33-1.12-0.89c0-0.56,0.42-0.89,1.12-0.89C25.84,38.91,26.96,38.92,28.08,38.92z"/>
	<path class="st1" d="M28.13,43.4c1.12,0,2.24,0,3.36,0c0.66,0,1.07,0.34,1.08,0.88c0.01,0.54-0.41,0.9-1.06,0.9
		c-2.28,0-4.55,0-6.83,0c-0.66,0-1.07-0.34-1.08-0.88c-0.01-0.55,0.42-0.9,1.11-0.9C25.85,43.4,26.99,43.4,28.13,43.4z"/>
	<path class="st1" d="M28.08,47.89c1.14,0,2.28,0,3.41,0c0.66,0,1.07,0.35,1.07,0.89c0,0.54-0.41,0.89-1.06,0.89
		c-2.28,0-4.55,0-6.83,0c-0.66,0-1.07-0.35-1.07-0.89c0-0.54,0.41-0.89,1.06-0.89C25.8,47.89,26.94,47.89,28.08,47.89z"/>
</g>
</svg>
