<?xml version="1.0" encoding="utf-8"?>
<!-- Generator: Adobe Illustrator 23.0.0, SVG Export Plug-In . SVG Version: 6.00 Build 0)  -->
<svg version="1.1" id="Layer_1" xmlns="http://www.w3.org/2000/svg" xmlns:xlink="http://www.w3.org/1999/xlink" x="0px" y="0px"
	 viewBox="0 0 85 85" style="enable-background:new 0 0 85 85;" xml:space="preserve">
<style type="text/css">
	.st0{clip-path:url(#XMLID_2_);fill:#17AFDC;}
	.st1{fill:#FFFFFF;}
	.st2{clip-path:url(#XMLID_3_);fill:#17AFDC;}
	.st3{clip-path:url(#XMLID_4_);fill:#17AFDC;}
	.st4{clip-path:url(#XMLID_5_);fill:#17AFDC;}
	.st5{fill:#16B0DB;}
	.st6{clip-path:url(#XMLID_6_);fill:#17AFDC;}
	.st7{clip-path:url(#XMLID_7_);fill:#17AFDC;}
	.st8{clip-path:url(#XMLID_8_);fill:#17AFDC;}
	.st9{fill:none;stroke:#FFFFFF;stroke-width:2;stroke-linecap:round;stroke-linejoin:round;stroke-miterlimit:10;}
	.st10{clip-path:url(#XMLID_9_);fill:#17AFDC;}
</style>
<g id="XMLID_118_">
	<defs>
		<path id="XMLID_137_" d="M85,42.5C85,65.97,65.97,85,42.5,85C19.03,85,0,65.97,0,42.5C0,19.03,19.03,0,42.5,0
			C65.97,0,85,19.03,85,42.5z"/>
	</defs>
	<use xlink:href="#XMLID_137_"  style="overflow:visible;fill:#17AFDC;"/>
	<clipPath id="XMLID_2_">
		<use xlink:href="#XMLID_137_"  style="overflow:visible;"/>
	</clipPath>
	<path id="XMLID_141_" class="st0" d="M85,42.67c0,23.47-19.03,42.5-42.5,42.5C19.03,85.17,0,66.14,0,42.67s19.03-42.5,42.5-42.5
		C65.97,0.17,85,19.2,85,42.67z"/>
</g>
<g>
	<path class="st1" d="M48.12,55.68l0,0.65c0,0.87-0.71,1.58-1.58,1.58l-8.1,0.01c-0.87,0-1.58-0.71-1.58-1.58l0-0.65l-21.81,0.02
		l0,3.93c0,1.74,1.42,3.15,3.16,3.15l48.56-0.05c1.74,0,3.15-1.42,3.15-3.16l0-3.93L48.12,55.68z"/>
	<path class="st1" d="M24.82,28.41l28.64-0.5l-0.03-5.71L23.5,22.79c-2.52,0-4.58,2.07-4.58,4.59l0.03,26.19l5.89-0.01L24.82,28.41z
		"/>
	<path class="st1" d="M60.23,27.91l-6.77,0.02l-0.03-5.73l8,0.06c2.52-0.05,4.63,1.98,4.67,4.5l0.5,26.18l-5.89,0.11L60.23,27.91z"
		/>
	<g>
		<g>
			
				<rect x="45.76" y="36.53" transform="matrix(0.8143 -0.5804 0.5804 0.8143 -12.3243 35.7828)" class="st1" width="8" height="1.25"/>
		</g>
		<g>
			
				<rect x="38.6" y="40.47" transform="matrix(0.985 -0.1726 0.1726 0.985 -6.4691 7.7856)" class="st1" width="5.87" height="1.25"/>
		</g>
		<g>
			
				<rect x="32.11" y="44.12" transform="matrix(0.7074 -0.7068 0.7068 0.7074 -21.4607 37.6405)" class="st1" width="5.24" height="1.25"/>
		</g>
		<g>
			<path class="st1" d="M32.08,49.36c-1.03,0.03-1.9-0.78-1.93-1.81c-0.03-1.03,0.78-1.9,1.81-1.93c1.03-0.03,1.9,0.78,1.93,1.81
				C33.92,48.46,33.11,49.33,32.08,49.36z M31.99,46.87c-0.34,0.01-0.61,0.3-0.6,0.64c0.01,0.34,0.3,0.61,0.64,0.6
				c0.34-0.01,0.61-0.3,0.6-0.64C32.63,47.13,32.34,46.86,31.99,46.87z"/>
		</g>
		<g>
			<path class="st1" d="M37.52,43.87c-1.03,0.03-1.9-0.78-1.93-1.81c-0.03-1.03,0.78-1.9,1.81-1.93c1.03-0.03,1.9,0.78,1.93,1.81
				C39.37,42.96,38.55,43.83,37.52,43.87z M37.44,41.37c-0.34,0.01-0.61,0.3-0.6,0.64c0.01,0.34,0.3,0.61,0.64,0.6
				c0.34-0.01,0.61-0.3,0.6-0.64C38.07,41.63,37.78,41.36,37.44,41.37z"/>
		</g>
		<g>
			<path class="st1" d="M45.72,42.12c-1.03,0.03-1.9-0.78-1.93-1.81c-0.03-1.03,0.78-1.9,1.81-1.93c1.03-0.03,1.9,0.78,1.93,1.81
				C47.57,41.22,46.75,42.09,45.72,42.12z M45.64,39.63c-0.34,0.01-0.61,0.3-0.6,0.64c0.01,0.34,0.3,0.61,0.64,0.6
				c0.34-0.01,0.61-0.3,0.6-0.64C46.27,39.88,45.98,39.61,45.64,39.63z"/>
		</g>
		<g>
			<path class="st1" d="M54.11,36c-1.03,0.03-1.9-0.78-1.93-1.81c-0.03-1.03,0.78-1.9,1.81-1.93c1.03-0.03,1.9,0.78,1.93,1.81
				C55.96,35.09,55.15,35.96,54.11,36z M54.03,33.5c-0.34,0.01-0.61,0.3-0.6,0.64c0.01,0.34,0.3,0.61,0.64,0.6
				c0.34-0.01,0.61-0.3,0.6-0.64S54.37,33.49,54.03,33.5z"/>
		</g>
	</g>
</g>
</svg>
