<?xml version="1.0" encoding="utf-8"?>
<!-- Generator: Adobe Illustrator 23.0.0, SVG Export Plug-In . SVG Version: 6.00 Build 0)  -->
<svg version="1.1" id="Layer_1" xmlns="http://www.w3.org/2000/svg" xmlns:xlink="http://www.w3.org/1999/xlink" x="0px" y="0px"
	 viewBox="0 0 85 85" style="enable-background:new 0 0 85 85;" xml:space="preserve">
<style type="text/css">
	.st0{clip-path:url(#XMLID_2_);fill:#17AFDC;}
	.st1{fill:#FFFFFF;}
	.st2{clip-path:url(#XMLID_3_);fill:#17AFDC;}
	.st3{clip-path:url(#XMLID_4_);fill:#17AFDC;}
	.st4{clip-path:url(#XMLID_5_);fill:#17AFDC;}
	.st5{fill:#16B0DB;}
	.st6{clip-path:url(#XMLID_6_);fill:#17AFDC;}
	.st7{clip-path:url(#XMLID_7_);fill:#17AFDC;}
	.st8{clip-path:url(#XMLID_8_);fill:#17AFDC;}
	.st9{fill:none;stroke:#FFFFFF;stroke-width:2;stroke-linecap:round;stroke-linejoin:round;stroke-miterlimit:10;}
	.st10{clip-path:url(#XMLID_9_);fill:#17AFDC;}
</style>
<g id="XMLID_151_">
	<defs>
		<path id="XMLID_152_" d="M85,42.5C85,65.97,65.97,85,42.5,85C19.03,85,0,65.97,0,42.5C0,19.03,19.03,0,42.5,0
			C65.97,0,85,19.03,85,42.5z"/>
	</defs>
	<use xlink:href="#XMLID_152_"  style="overflow:visible;fill:#17AFDC;"/>
	<clipPath id="XMLID_2_">
		<use xlink:href="#XMLID_152_"  style="overflow:visible;"/>
	</clipPath>
	<path id="XMLID_153_" class="st0" d="M85,42.67c0,23.47-19.03,42.5-42.5,42.5C19.03,85.17,0,66.14,0,42.67s19.03-42.5,42.5-42.5
		C65.97,0.17,85,19.2,85,42.67z"/>
</g>
<g>
	<g>
		<g>
			<g>
				<path class="st1" d="M35.59,57.46l0-2.41c0-1.96-0.82-3.82-2.31-5.24c-2.83-2.71-4.27-6.6-3.94-10.65
					c0.51-6.18,5.31-11.22,11.43-11.99c3.86-0.47,7.56,0.65,10.44,3.19c2.85,2.52,4.49,6.15,4.49,9.97c0,3.57-1.37,6.89-3.86,9.35
					c-1.58,1.56-2.46,3.58-2.46,5.69v2.1h-2.11v-2.1c0-2.69,1.1-5.24,3.09-7.2c2.08-2.05,3.23-4.83,3.23-7.84
					c0-3.21-1.37-6.27-3.77-8.38c-2.41-2.13-5.53-3.08-8.78-2.67c-5.13,0.64-9.16,4.87-9.58,10.06c-0.28,3.42,0.92,6.68,3.29,8.95
					c1.88,1.8,2.96,4.27,2.96,6.77l0,2.41H35.59z"/>
			</g>
			<g>
				<g>
					<g>
						<g>
							<g>
								<rect x="20.23" y="39.26" class="st1" width="6.75" height="2.11"/>
							</g>
						</g>
					</g>
					<g>
						<g>
							<g>
								<rect x="58.02" y="39.26" class="st1" width="6.75" height="2.11"/>
							</g>
						</g>
					</g>
				</g>
				<g>
					<g>
						<g>
							<g>
								
									<rect x="22.76" y="48.71" transform="matrix(0.8658 -0.5004 0.5004 0.8658 -21.3919 19.7551)" class="st1" width="6.75" height="2.11"/>
							</g>
						</g>
					</g>
					<g>
						<g>
							<g>
								
									<rect x="55.49" y="29.81" transform="matrix(0.8658 -0.5003 0.5003 0.8658 -7.5468 33.5913)" class="st1" width="6.75" height="2.11"/>
							</g>
						</g>
					</g>
				</g>
				<g>
					<g>
						<g>
							<g>
								
									<rect x="48.57" y="22.9" transform="matrix(0.4999 -0.8661 0.8661 0.4999 5.2331 56.9678)" class="st1" width="6.75" height="2.11"/>
							</g>
						</g>
					</g>
				</g>
				<g>
					<g>
						<g>
							<g>
								<rect x="41.44" y="18.05" class="st1" width="2.11" height="6.75"/>
							</g>
						</g>
					</g>
				</g>
				<g>
					<g>
						<g>
							<g>
								<rect x="32" y="20.58" transform="matrix(0.866 -0.5 0.5 0.866 -7.5479 19.7352)" class="st1" width="2.11" height="6.75"/>
							</g>
						</g>
					</g>
				</g>
				<g>
					<g>
						<g>
							<g>
								
									<rect x="57.81" y="46.39" transform="matrix(0.5 -0.866 0.866 0.5 -13.6653 75.8542)" class="st1" width="2.11" height="6.75"/>
							</g>
						</g>
					</g>
					<g>
						<g>
							<g>
								
									<rect x="25.08" y="27.49" transform="matrix(0.5 -0.866 0.866 0.5 -13.6638 38.0703)" class="st1" width="2.11" height="6.75"/>
							</g>
						</g>
					</g>
				</g>
			</g>
			<g>
				<path class="st1" d="M44.7,66.95h-4.41l-1.15-2.03l-3.54-2.1V56.4h13.8v6.43l-3.54,2.1L44.7,66.95z M41.52,64.84h1.95l0.82-1.45
					l2.99-1.77v-3.11h-9.57v3.11l2.99,1.77L41.52,64.84z"/>
			</g>
		</g>
	</g>
	<g>
		<g>
			<g>
				<g>
					<path class="st1" d="M42.5,46.88c-2.22,0-4.03-1.59-4.03-3.54h2.11c0,0.78,0.88,1.43,1.92,1.43c1.04,0,1.92-0.65,1.92-1.43
						c0-0.9-0.72-1.43-1.92-1.43c-2.78,0-4.03-1.78-4.03-3.54c0-1.95,1.81-3.54,4.03-3.54c2.22,0,4.03,1.59,4.03,3.54h-2.11
						c0-0.78-0.88-1.43-1.92-1.43c-1.04,0-1.92,0.65-1.92,1.43c0,1.24,1.2,1.43,1.92,1.43c2.37,0,4.03,1.46,4.03,3.55
						C46.53,45.29,44.72,46.88,42.5,46.88z"/>
				</g>
				<g>
					<rect x="41.44" y="32.85" class="st1" width="2.11" height="4.05"/>
				</g>
				<g>
					<rect x="41.44" y="44.8" class="st1" width="2.11" height="4.05"/>
				</g>
			</g>
		</g>
	</g>
</g>
</svg>
