<?xml version="1.0" encoding="utf-8"?>
<!-- Generator: Adobe Illustrator 23.0.0, SVG Export Plug-In . SVG Version: 6.00 Build 0)  -->
<svg version="1.1" id="Layer_1" xmlns="http://www.w3.org/2000/svg" xmlns:xlink="http://www.w3.org/1999/xlink" x="0px" y="0px"
	 viewBox="0 0 85 85" style="enable-background:new 0 0 85 85;" xml:space="preserve">
<style type="text/css">
	.st0{clip-path:url(#XMLID_2_);fill:#17AFDC;}
	.st1{fill:#FFFFFF;}
	.st2{clip-path:url(#XMLID_3_);fill:#17AFDC;}
	.st3{clip-path:url(#XMLID_4_);fill:#17AFDC;}
	.st4{clip-path:url(#XMLID_5_);fill:#17AFDC;}
	.st5{fill:#16B0DB;}
	.st6{clip-path:url(#XMLID_6_);fill:#17AFDC;}
	.st7{clip-path:url(#XMLID_7_);fill:#17AFDC;}
	.st8{clip-path:url(#XMLID_8_);fill:#17AFDC;}
	.st9{fill:none;stroke:#FFFFFF;stroke-width:2;stroke-linecap:round;stroke-linejoin:round;stroke-miterlimit:10;}
	.st10{clip-path:url(#XMLID_9_);fill:#17AFDC;}
</style>
<g id="XMLID_103_">
	<defs>
		<path id="XMLID_104_" d="M85,42.5C85,65.97,65.97,85,42.5,85C19.03,85,0,65.97,0,42.5C0,19.03,19.03,0,42.5,0
			C65.97,0,85,19.03,85,42.5z"/>
	</defs>
	<use xlink:href="#XMLID_104_"  style="overflow:visible;fill:#17AFDC;"/>
	<clipPath id="XMLID_2_">
		<use xlink:href="#XMLID_104_"  style="overflow:visible;"/>
	</clipPath>
	<path id="XMLID_105_" class="st0" d="M85,42.67c0,23.47-19.03,42.5-42.5,42.5C19.03,85.17,0,66.14,0,42.67s19.03-42.5,42.5-42.5
		C65.97,0.17,85,19.2,85,42.67z"/>
</g>
<g>
	<g>
		<path class="st1" d="M65.16,33.3c-1.23-3.03-3.04-5.76-5.37-8.09c-1.94-1.94-4.18-3.53-6.63-4.72c-2.37-1.15-4.91-1.9-7.53-2.24
			c-2.6-0.33-5.22-0.25-7.79,0.24c-2.25,0.43-4.4,1.17-6.43,2.2l-1.71-2.34l-3.49,7.87l8.56-0.92l-1.65-2.26
			c8.18-3.94,18.12-2.31,24.62,4.19c7.51,7.51,8.32,19.22,2.42,27.64l2.36,1.65c1.05-1.5,1.93-3.11,2.63-4.83
			c1.19-2.93,1.79-6.03,1.79-9.2S66.35,36.23,65.16,33.3z"/>
	</g>
	<g>
		<path class="st1" d="M51.86,61.95c-8.18,3.94-18.12,2.31-24.62-4.19c-7.51-7.51-8.32-19.22-2.42-27.64l-2.36-1.65
			c-1.05,1.5-1.93,3.11-2.63,4.83c-1.19,2.93-1.79,6.03-1.79,9.2s0.6,6.27,1.79,9.2c1.23,3.03,3.04,5.76,5.37,8.09
			c1.94,1.94,4.18,3.53,6.63,4.72c2.37,1.15,4.91,1.9,7.53,2.24c1.04,0.13,2.09,0.2,3.14,0.2c1.56,0,3.11-0.15,4.65-0.44
			c2.25-0.43,4.4-1.17,6.43-2.2c0,0,0,0,0,0l1.71,2.34l3.49-7.87l-8.56,0.92L51.86,61.95z"/>
	</g>
</g>
<g>
	<g>
		<g>
			<path class="st1" d="M31.87,40.71c-3.68,0-6.64,3.03-6.64,6.71v4.36c0,1.22,0.99,2.21,2.21,2.21h8.86c1.22,0,2.21-0.99,2.21-2.21
				v-4.43C38.51,43.69,35.54,40.71,31.87,40.71z"/>
			<path class="st5" d="M36.3,54.29h-8.86c-1.38,0-2.5-1.12-2.5-2.5v-4.36c0-3.85,3.11-6.99,6.93-6.99l0,0.29l0-0.29c0,0,0,0,0,0
				c1.85,0,3.59,0.72,4.9,2.03c1.31,1.31,2.03,3.05,2.03,4.9v4.43C38.8,53.16,37.68,54.29,36.3,54.29z M31.87,41
				C31.87,41,31.87,41,31.87,41c-3.51,0-6.35,2.88-6.35,6.42v4.36c0,1.06,0.86,1.93,1.93,1.93h8.86c1.06,0,1.93-0.86,1.93-1.93
				v-4.43c0-1.7-0.66-3.29-1.86-4.49C35.16,41.66,33.57,41,31.87,41z"/>
		</g>
		<g>
			<circle class="st1" cx="31.85" cy="37.64" r="4.43"/>
			<path class="st5" d="M31.85,42.35c-2.6,0-4.72-2.12-4.72-4.72c0-2.6,2.12-4.72,4.72-4.72c2.6,0,4.72,2.12,4.72,4.72
				C36.57,40.24,34.45,42.35,31.85,42.35z M31.85,33.5c-2.28,0-4.14,1.86-4.14,4.14c0,2.28,1.86,4.14,4.14,4.14
				c2.28,0,4.14-1.86,4.14-4.14C35.99,35.35,34.13,33.5,31.85,33.5z"/>
		</g>
	</g>
	<g>
		<g>
			<path class="st1" d="M53.13,40.71c3.68,0,6.64,3.03,6.64,6.71v4.36c0,1.22-0.99,2.21-2.21,2.21H48.7c-1.22,0-2.21-0.99-2.21-2.21
				v-4.43C46.49,43.69,49.46,40.71,53.13,40.71z"/>
			<path class="st5" d="M57.56,54.29H48.7c-1.38,0-2.5-1.12-2.5-2.5v-4.43c0-1.85,0.72-3.59,2.03-4.9c1.31-1.31,3.05-2.03,4.9-2.03
				c0,0,0,0,0,0c3.82,0,6.93,3.14,6.93,6.99v4.36C60.06,53.16,58.94,54.29,57.56,54.29z M53.13,41c-1.7,0-3.29,0.66-4.49,1.86
				c-1.2,1.2-1.86,2.8-1.86,4.49v4.43c0,1.06,0.86,1.93,1.93,1.93h8.86c1.06,0,1.93-0.86,1.93-1.93v-4.36
				C59.48,43.88,56.63,41,53.13,41C53.13,41,53.13,41,53.13,41z"/>
		</g>
		<g>
			<circle class="st1" cx="53.15" cy="37.64" r="4.43"/>
			<path class="st5" d="M53.15,42.35c-2.6,0-4.72-2.12-4.72-4.72c0-2.6,2.12-4.72,4.72-4.72c2.6,0,4.72,2.12,4.72,4.72
				C57.87,40.24,55.75,42.35,53.15,42.35z M53.15,33.5c-2.28,0-4.14,1.86-4.14,4.14c0,2.28,1.86,4.14,4.14,4.14
				c2.28,0,4.14-1.86,4.14-4.14C57.29,35.35,55.43,33.5,53.15,33.5z"/>
		</g>
	</g>
	<g>
		<g>
			<path class="st1" d="M42.52,38.65c-4.9,0-8.85,4.04-8.85,8.94v5.82c0,1.63,1.32,2.95,2.95,2.95h11.81c1.63,0,2.95-1.32,2.95-2.95
				v-5.9C51.39,42.61,47.42,38.65,42.52,38.65z"/>
			<path class="st5" d="M48.43,56.65H36.63c-1.79,0-3.24-1.45-3.24-3.24v-5.82c0-5.09,4.1-9.23,9.14-9.23l0,0c0,0,0,0,0,0
				c2.44,0,4.74,0.95,6.46,2.68c1.73,1.73,2.68,4.02,2.68,6.47v5.9C51.67,55.19,50.22,56.65,48.43,56.65z M42.53,38.94
				c-4.72,0-8.56,3.88-8.56,8.65v5.82c0,1.47,1.2,2.66,2.66,2.66h11.81c1.47,0,2.66-1.2,2.66-2.66v-5.9c0-2.29-0.89-4.44-2.51-6.06
				C46.97,39.83,44.82,38.94,42.53,38.94C42.53,38.94,42.53,38.94,42.53,38.94L42.53,38.94z"/>
		</g>
		<g>
			<circle class="st1" cx="42.5" cy="34.54" r="5.9"/>
			<path class="st5" d="M42.5,40.74c-3.41,0-6.19-2.78-6.19-6.19s2.78-6.19,6.19-6.19s6.19,2.78,6.19,6.19S45.91,40.74,42.5,40.74z
				 M42.5,28.93c-3.1,0-5.62,2.52-5.62,5.62s2.52,5.62,5.62,5.62s5.62-2.52,5.62-5.62S45.6,28.93,42.5,28.93z"/>
		</g>
	</g>
</g>
</svg>
