<?xml version="1.0" encoding="utf-8"?>
<!-- Generator: Adobe Illustrator 23.0.0, SVG Export Plug-In . SVG Version: 6.00 Build 0)  -->
<svg version="1.1" id="Layer_1" xmlns="http://www.w3.org/2000/svg" xmlns:xlink="http://www.w3.org/1999/xlink" x="0px" y="0px"
	 viewBox="0 0 85 85" style="enable-background:new 0 0 85 85;" xml:space="preserve">
<style type="text/css">
	.st0{fill:#E5364F;}
	.st1{fill:#48C3DB;}
	.st2{fill:#1AB1DD;}
	.st3{fill:#FFFFFF;}
	.st4{fill:#2E3192;}
	.st5{fill:#F04E54;}
	.st6{fill:#E6E7E8;}
	.st7{fill:#F26456;}
	.st8{clip-path:url(#XMLID_173_);fill:#C5E7EA;}
	.st9{fill:#005D8A;}
	.st10{fill:#89A3A3;}
	.st11{fill:#728E8D;}
	.st12{fill:#F4F6F7;}
	.st13{fill:#086F99;}
	.st14{clip-path:url(#XMLID_174_);fill:#DDE5E3;}
	.st15{fill:#CCCBCA;}
	.st16{fill:#04A58C;}
	.st17{fill:#4E4F4F;}
	.st18{fill:#747932;}
	.st19{fill:#8DC63F;}
	.st20{fill:#8153A2;}
	.st21{fill:#D1D3D4;}
	.st22{fill:#F1F2F2;}
	.st23{fill:#FFD086;}
	.st24{fill:#FBB040;}
	.st25{fill:#EE348B;}
	.st26{fill:#C49A6C;}
	.st27{fill:#C3812A;}
	.st28{fill:#DF3D88;}
	.st29{fill:#F4CC2C;}
	.st30{fill:#F8C31D;}
	.st31{opacity:0.28;}
	.st32{fill:#26BCB3;}
	.st33{fill:#16467D;}
	.st34{fill:#1C4076;}
	.st35{fill:#C0E6EB;}
	.st36{fill:#6D7187;}
	.st37{fill:#5F6276;}
	.st38{fill:#3C3F54;}
	.st39{fill:#FCC015;}
	.st40{fill:#434343;}
	.st41{opacity:0.15;fill:#FFFFFF;}
	.st42{fill:none;stroke:#FFFFFF;stroke-width:2;stroke-linecap:round;stroke-linejoin:round;stroke-miterlimit:10;}
	.st43{fill:#FFFFFF;stroke:#FFFFFF;stroke-width:2;stroke-linecap:round;stroke-linejoin:round;stroke-miterlimit:10;}
	.st44{fill:#424242;}
	.st45{fill:none;stroke:#434343;stroke-width:2;stroke-linecap:round;stroke-linejoin:round;stroke-miterlimit:10;}
	.st46{fill:#FFFFFF;stroke:#E5364F;stroke-width:2;stroke-miterlimit:10;}
	.st47{clip-path:url(#XMLID_175_);fill:#C5E7EA;}
	.st48{clip-path:url(#XMLID_176_);fill:#04A58C;}
	.st49{clip-path:url(#XMLID_177_);fill:#04A58C;}
	.st50{clip-path:url(#XMLID_178_);fill:#747932;}
	.st51{clip-path:url(#XMLID_179_);fill:#C5E7EA;}
	.st52{clip-path:url(#XMLID_180_);fill:#C5E7EA;}
	.st53{clip-path:url(#XMLID_181_);fill:#747932;}
	.st54{clip-path:url(#XMLID_182_);fill:#747932;}
	.st55{clip-path:url(#XMLID_183_);fill:#04A58C;}
	.st56{clip-path:url(#XMLID_184_);fill:#04A58C;}
	.st57{clip-path:url(#XMLID_185_);fill:#04A58C;}
	.st58{clip-path:url(#XMLID_186_);fill:#8153A2;}
	.st59{clip-path:url(#XMLID_187_);fill:#8153A2;}
	.st60{clip-path:url(#XMLID_188_);fill:#8153A2;}
	.st61{clip-path:url(#XMLID_189_);fill:#8153A2;}
	.st62{fill-rule:evenodd;clip-rule:evenodd;fill:#FFFFFF;}
	.st63{clip-path:url(#XMLID_190_);fill:#747932;}
	.st64{clip-path:url(#XMLID_191_);fill:#747932;}
	.st65{clip-path:url(#XMLID_192_);fill:#747932;}
	.st66{clip-path:url(#XMLID_193_);fill:#C5E7EA;}
	.st67{clip-path:url(#XMLID_194_);fill:#DDE5E3;}
</style>
<circle id="XMLID_52_" class="st0" cx="42.5" cy="42.5" r="42.5"/>
<g>
	<path class="st3" d="M51.74,44.16c-1.16-3.92-4.35-7.29-8.12-8.84c-3.74-1.55-7.92-0.85-11.27,1.31c-3.49,2.26-5.06,5.86-6.66,9.54
		c-0.33,0.77-2.4,4.5,0.08,4.02c1.27-0.24,2.05-3.45,2.52-4.52c1.64-3.73,3.62-6.9,7.61-8.38c3.99-1.49,7.98-0.12,10.9,2.83
		c2.88,2.91,3.87,6.9,2.84,10.85c-0.51,1.96-1.48,3.77-2.7,5.38c-0.53,0.7-3.45,3.32-1.21,3.86c-0.04-0.01-0.06-0.01,0,0
		c0.25,0.06,0.08,0.02,0,0c1.29,0.31,2.76-2.25,3.38-3.13c0.89-1.26,1.64-2.63,2.18-4.08C52.35,50.19,52.6,47.06,51.74,44.16z"/>
	<path class="st3" d="M39.33,30.67c-3.37-0.19-6.71,0.88-9.39,2.94c-1.56,1.19-2.91,2.7-3.8,4.46c-0.32,0.64-0.72,1.45-0.05,2.02
		c0.56,0.48,1.45,0.25,1.72-0.43c1.34-3.33,4.71-5.77,8.15-6.54c3.7-0.83,7.45,0.28,10.54,2.38c3.51,2.38,6.15,6.01,6.95,10.22
		c0.42,2.19,0.33,4.48-0.3,6.62c-0.29,0.99-2.38,3.92-0.5,4.39c-0.01,0-0.02,0,0,0c0.38,0.09,0.07,0.02,0,0
		c1.65,0.4,2.48-3.26,2.75-4.36c0.47-1.86,0.59-3.81,0.39-5.71C54.94,38.5,47.63,31.13,39.33,30.67z"/>
	<path class="st3" d="M48.06,44.09c-1.59-3.58-5.31-6.17-9.3-5.77c-4.21,0.43-7.25,3.43-9.11,7.05c-0.97,1.9-1.61,3.95-2.06,6.03
		c-0.23,1.08-1.47,4.58,0.17,4.98c-0.03-0.01-0.51-0.12,0,0c0,0,0,0,0,0c1.85,0.45,1.85-4.06,2.12-5.2c0.87-3.7,2.67-8,6.24-9.83
		c3.72-1.91,7.95-0.4,9.79,3.35c2.24,4.54-1.86,7.35-3.3,11.21c-0.29,0.77-1.27,5.26,1.05,3.82c0.7-0.43,0.56-1.49,0.73-2.18
		c0.22-0.9,0.61-1.74,1.11-2.52C47.71,51.57,49.93,48.31,48.06,44.09z"/>
	<path class="st3" d="M43.12,43.69c-3.12-2.61-6.92-1.25-9.15,1.77c-2.28,3.09-3.53,6.79-3.84,10.6c-0.06,0.74-0.34,1.89,0.35,2.42
		c0.58,0.44,1.45,0.18,1.69-0.5c0.3-0.84,0.13-2,0.25-2.89c0.13-0.97,0.33-1.93,0.6-2.87c0.78-2.68,3.1-8.25,6.67-7.76
		c1.6,0.22,3.5,1.74,3.27,3.51c-0.19,1.56-1.56,2.84-2.46,4.01c-1.19,1.54-1.61,3.34-1.84,5.24c-0.12,0.98-1.11,3.82,0.41,4.19
		c-0.03-0.01-0.51-0.12,0,0c0,0,0,0,0,0c1.67,0.4,1.58-2.49,1.7-3.43c0.24-1.91,0.5-3.71,1.89-5.17
		C45.22,50.17,46.26,46.32,43.12,43.69z"/>
	<path class="st3" d="M54.38,35.04c-1.84-2.3-4.13-4.23-6.74-5.59c-1.33-0.69-2.73-1.23-4.18-1.59c-1.08-0.27-2.78-0.8-3.88-0.49
		c-0.57,0.16-0.92,0.77-0.76,1.35c0.19,0.7,0.82,0.78,1.44,0.83c1.32,0.11,2.63,0.38,3.89,0.8c2.73,0.91,5.2,2.53,7.21,4.58
		c2.16,2.22,3.82,4.94,4.75,7.89c0.47,1.5,0.76,3.06,0.81,4.63c0.03,0.97-0.61,3.12,0.72,3.44c-0.03-0.01-0.5-0.12,0,0c0,0,0,0,0,0
		c2.56,0.62,1.19-6.3,0.9-7.45C57.8,40.37,56.35,37.5,54.38,35.04z"/>
	<path class="st3" d="M58.25,34.32c-1.7-2.5-3.91-4.65-6.39-6.37c-4.8-3.32-10.94-5.26-16.77-4.02c-1.18,0.25-1.09,2.02,0.1,2.16
		c1.26,0.14,2.72-0.37,4.03-0.33c3.02,0.09,5.98,0.98,8.66,2.36c2.78,1.43,5.3,3.39,7.31,5.79c0.92,1.09,1.73,2.27,2.38,3.54
		c0.4,0.78,0.66,2.51,1.63,2.75C62.24,40.93,58.72,35.01,58.25,34.32z"/>
	<path class="st3" d="M59.2,40.19C58.85,40.1,59.39,40.23,59.2,40.19L59.2,40.19z"/>
	<path class="st3" d="M40.27,46.7c-2.12-1.17-4.78,5.03-5.25,6.43c-0.44,1.32-2.46,7.72-0.49,8.21c-0.05-0.01-0.47-0.12,0,0
		c0,0,0,0,0,0c1.58,0.38,1.44-1.93,1.56-2.85c0.2-1.54,0.47-3.07,0.96-4.54c0.48-1.46,1.16-2.84,2.11-4.05
		C39.72,49.17,41.87,47.59,40.27,46.7z"/>
	<path class="st3" d="M28.74,32.31c0.83,0.2,1.68-0.78,2.36-1.15c0.83-0.45,1.72-0.8,2.63-1.06c0.83-0.24,2.34-0.15,2.98-0.72
		c0.54-0.48,0.46-1.38-0.16-1.76c-1.37-0.82-4.66,0.72-5.94,1.33C29.89,29.3,26.11,31.67,28.74,32.31z"/>
	<path class="st3" d="M28.74,32.31C28.52,32.26,29.06,32.39,28.74,32.31L28.74,32.31z"/>
</g>
</svg>
