<?xml version="1.0" encoding="utf-8"?>
<!-- Generator: Adobe Illustrator 23.0.0, SVG Export Plug-In . SVG Version: 6.00 Build 0)  -->
<svg version="1.1" id="Layer_1" xmlns="http://www.w3.org/2000/svg" xmlns:xlink="http://www.w3.org/1999/xlink" x="0px" y="0px"
	 viewBox="0 0 85 85" style="enable-background:new 0 0 85 85;" xml:space="preserve">
<style type="text/css">
	.st0{clip-path:url(#XMLID_173_);fill:#C5E7EA;}
	.st1{fill:#48C3DB;}
	.st2{fill:#1AB1DD;}
	.st3{fill:#FFFFFF;}
	.st4{fill:#2E3192;}
	.st5{fill:#F04E54;}
	.st6{fill:#E5364F;}
	.st7{fill:#E6E7E8;}
	.st8{fill:#F26456;}
	.st9{clip-path:url(#XMLID_174_);fill:#C5E7EA;}
	.st10{fill:#005D8A;}
	.st11{fill:#89A3A3;}
	.st12{fill:#728E8D;}
	.st13{fill:#F4F6F7;}
	.st14{fill:#086F99;}
	.st15{clip-path:url(#XMLID_175_);fill:#DDE5E3;}
	.st16{fill:#CCCBCA;}
	.st17{fill:#04A58C;}
	.st18{fill:#4E4F4F;}
	.st19{fill:#747932;}
	.st20{fill:#8DC63F;}
	.st21{fill:#8153A2;}
	.st22{fill:#D1D3D4;}
	.st23{fill:#F1F2F2;}
	.st24{fill:#FFD086;}
	.st25{fill:#FBB040;}
	.st26{fill:#EE348B;}
	.st27{fill:#C49A6C;}
	.st28{fill:#C3812A;}
	.st29{fill:#DF3D88;}
	.st30{fill:#F4CC2C;}
	.st31{fill:#F8C31D;}
	.st32{opacity:0.28;}
	.st33{fill:#26BCB3;}
	.st34{fill:#16467D;}
	.st35{fill:#1C4076;}
	.st36{fill:#C0E6EB;}
	.st37{fill:#6D7187;}
	.st38{fill:#5F6276;}
	.st39{fill:#3C3F54;}
	.st40{fill:#FCC015;}
	.st41{fill:#434343;}
	.st42{opacity:0.15;fill:#FFFFFF;}
	.st43{fill:none;stroke:#FFFFFF;stroke-width:2;stroke-linecap:round;stroke-linejoin:round;stroke-miterlimit:10;}
	.st44{fill:#FFFFFF;stroke:#FFFFFF;stroke-width:2;stroke-linecap:round;stroke-linejoin:round;stroke-miterlimit:10;}
	.st45{fill:#424242;}
	.st46{fill:none;stroke:#434343;stroke-width:2;stroke-linecap:round;stroke-linejoin:round;stroke-miterlimit:10;}
	.st47{fill:#FFFFFF;stroke:#E5364F;stroke-width:2;stroke-miterlimit:10;}
	.st48{clip-path:url(#XMLID_176_);fill:#C5E7EA;}
	.st49{clip-path:url(#XMLID_177_);fill:#04A58C;}
	.st50{clip-path:url(#XMLID_178_);fill:#04A58C;}
	.st51{clip-path:url(#XMLID_179_);fill:#747932;}
	.st52{clip-path:url(#XMLID_180_);fill:#C5E7EA;}
	.st53{clip-path:url(#XMLID_181_);fill:#C5E7EA;}
	.st54{clip-path:url(#XMLID_182_);fill:#747932;}
	.st55{clip-path:url(#XMLID_183_);fill:#747932;}
	.st56{clip-path:url(#XMLID_184_);fill:#04A58C;}
	.st57{clip-path:url(#XMLID_185_);fill:#04A58C;}
	.st58{clip-path:url(#XMLID_186_);fill:#04A58C;}
	.st59{clip-path:url(#XMLID_187_);fill:#8153A2;}
	.st60{clip-path:url(#XMLID_188_);fill:#8153A2;}
	.st61{clip-path:url(#XMLID_189_);fill:#8153A2;}
	.st62{clip-path:url(#XMLID_190_);fill:#8153A2;}
	.st63{fill-rule:evenodd;clip-rule:evenodd;fill:#FFFFFF;}
	.st64{clip-path:url(#XMLID_191_);fill:#747932;}
	.st65{clip-path:url(#XMLID_192_);fill:#747932;}
	.st66{clip-path:url(#XMLID_193_);fill:#747932;}
	.st67{clip-path:url(#XMLID_194_);fill:#C5E7EA;}
	.st68{clip-path:url(#XMLID_195_);fill:#DDE5E3;}
</style>
<circle id="XMLID_109_" class="st6" cx="42.5" cy="42.5" r="42.5"/>
<g>
	<path class="st3" d="M26.82,55.87c3.92,0,7.29-2.32,8.83-5.65c0.24-0.53,0.21-0.78,0.06-1.08l-7.9-15.68
		c-0.19-0.37-0.56-0.6-0.98-0.6c-0.41,0-0.79,0.23-0.98,0.6l-7.91,15.68c-0.12,0.23-0.14,0.77,0.06,1.08
		C19.54,53.55,22.9,55.87,26.82,55.87z M26.82,36.38l6.13,12.16H20.69L26.82,36.38z"/>
	<path class="st3" d="M23.57,32.84c0.97-1.47,2.77-3.96,6.61-1.57c1.88,1.31,3.05,1.93,4.95,2.08c2.22,0.17,3.89-0.23,5.1-0.77v24.5
		h-2.51c-0.49,0-0.58,0.38-0.9,0.9l-1.4,2.24c0,0-2.44,0.94-2.44,3.03h19c0-2.1-2.44-3.03-2.44-3.03l-1.35-2.24
		c-0.29-0.45-0.41-0.9-0.9-0.9h-2.55v-24.5c1.21,0.54,2.89,0.94,5.1,0.76c1.9-0.15,3.08-0.77,4.95-2.08
		c3.84-2.39,5.64,0.1,6.61,1.57c0.26,0.39,1.29,0.91,2.12-0.04c0.47-0.54,0.25-1.43-0.17-2.05c-0.1-0.13-1.78-3.1-5.43-3.13
		c-1.04,0-2.56,0.25-3.79,0.88c-1.62,0.82-3.05,1.12-4.29,1.12c-2.52,0.01-4.3-1.24-5.1-1.93v-1.29c0.39-0.49,0.63-1.1,0.63-1.78
		c0-1.59-1.29-2.89-2.89-2.89c-1.59,0-2.89,1.29-2.89,2.89c0,0.67,0.24,1.29,0.63,1.78v1.29c-0.8,0.69-2.59,1.94-5.1,1.93
		c-1.24,0-2.67-0.29-4.29-1.12c-1.23-0.63-2.75-0.88-3.79-0.88c-3.65,0.03-5.33,3-5.43,3.13c-0.42,0.61-0.65,1.5-0.18,2.05
		C22.28,33.76,23.31,33.23,23.57,32.84z"/>
	<path class="st3" d="M58.15,32.85c-0.41,0-0.79,0.23-0.98,0.6l-7.9,15.68c-0.12,0.23-0.15,0.77,0.06,1.08
		c1.54,3.33,4.91,5.65,8.82,5.65c3.91,0,7.28-2.32,8.82-5.65c0.24-0.53,0.21-0.78,0.06-1.08l-7.91-15.68
		C58.95,33.09,58.57,32.85,58.15,32.85z M52.03,48.53l6.13-12.16l6.13,12.16H52.03z"/>
</g>
</svg>
