<?xml version="1.0" encoding="utf-8"?>
<!-- Generator: Adobe Illustrator 23.0.0, SVG Export Plug-In . SVG Version: 6.00 Build 0)  -->
<svg version="1.1" id="Layer_1" xmlns="http://www.w3.org/2000/svg" xmlns:xlink="http://www.w3.org/1999/xlink" x="0px" y="0px"
	 viewBox="0 0 85 85" style="enable-background:new 0 0 85 85;" xml:space="preserve">
<style type="text/css">
	.st0{clip-path:url(#XMLID_173_);fill:#C5E7EA;}
	.st1{fill:#48C3DB;}
	.st2{fill:#1AB1DD;}
	.st3{fill:#FFFFFF;}
	.st4{fill:#2E3192;}
	.st5{fill:#F04E54;}
	.st6{fill:#E5364F;}
	.st7{fill:#E6E7E8;}
	.st8{fill:#F26456;}
	.st9{clip-path:url(#XMLID_174_);fill:#C5E7EA;}
	.st10{fill:#005D8A;}
	.st11{fill:#89A3A3;}
	.st12{fill:#728E8D;}
	.st13{fill:#F4F6F7;}
	.st14{fill:#086F99;}
	.st15{clip-path:url(#XMLID_175_);fill:#DDE5E3;}
	.st16{fill:#CCCBCA;}
	.st17{fill:#04A58C;}
	.st18{fill:#4E4F4F;}
	.st19{fill:#747932;}
	.st20{fill:#8DC63F;}
	.st21{fill:#8153A2;}
	.st22{fill:#D1D3D4;}
	.st23{fill:#F1F2F2;}
	.st24{fill:#FFD086;}
	.st25{fill:#FBB040;}
	.st26{fill:#EE348B;}
	.st27{fill:#C49A6C;}
	.st28{fill:#C3812A;}
	.st29{fill:#DF3D88;}
	.st30{fill:#F4CC2C;}
	.st31{fill:#F8C31D;}
	.st32{opacity:0.28;}
	.st33{fill:#26BCB3;}
	.st34{fill:#16467D;}
	.st35{fill:#1C4076;}
	.st36{fill:#C0E6EB;}
	.st37{fill:#6D7187;}
	.st38{fill:#5F6276;}
	.st39{fill:#3C3F54;}
	.st40{fill:#FCC015;}
	.st41{fill:#434343;}
	.st42{opacity:0.15;fill:#FFFFFF;}
	.st43{fill:none;stroke:#FFFFFF;stroke-width:2;stroke-linecap:round;stroke-linejoin:round;stroke-miterlimit:10;}
	.st44{fill:#FFFFFF;stroke:#FFFFFF;stroke-width:2;stroke-linecap:round;stroke-linejoin:round;stroke-miterlimit:10;}
	.st45{fill:#424242;}
	.st46{fill:none;stroke:#434343;stroke-width:2;stroke-linecap:round;stroke-linejoin:round;stroke-miterlimit:10;}
	.st47{fill:#FFFFFF;stroke:#E5364F;stroke-width:2;stroke-miterlimit:10;}
	.st48{clip-path:url(#XMLID_176_);fill:#C5E7EA;}
	.st49{clip-path:url(#XMLID_177_);fill:#04A58C;}
	.st50{clip-path:url(#XMLID_178_);fill:#04A58C;}
	.st51{clip-path:url(#XMLID_179_);fill:#747932;}
	.st52{clip-path:url(#XMLID_180_);fill:#C5E7EA;}
	.st53{clip-path:url(#XMLID_181_);fill:#C5E7EA;}
	.st54{clip-path:url(#XMLID_182_);fill:#747932;}
	.st55{clip-path:url(#XMLID_183_);fill:#747932;}
	.st56{clip-path:url(#XMLID_184_);fill:#04A58C;}
	.st57{clip-path:url(#XMLID_185_);fill:#04A58C;}
	.st58{clip-path:url(#XMLID_186_);fill:#04A58C;}
	.st59{clip-path:url(#XMLID_187_);fill:#8153A2;}
	.st60{clip-path:url(#XMLID_188_);fill:#8153A2;}
	.st61{clip-path:url(#XMLID_189_);fill:#8153A2;}
	.st62{clip-path:url(#XMLID_190_);fill:#8153A2;}
	.st63{fill-rule:evenodd;clip-rule:evenodd;fill:#FFFFFF;}
	.st64{clip-path:url(#XMLID_191_);fill:#747932;}
	.st65{clip-path:url(#XMLID_192_);fill:#747932;}
	.st66{clip-path:url(#XMLID_193_);fill:#747932;}
	.st67{clip-path:url(#XMLID_194_);fill:#C5E7EA;}
	.st68{clip-path:url(#XMLID_195_);fill:#DDE5E3;}
</style>
<circle id="XMLID_106_" class="st6" cx="42.5" cy="42.5" r="42.5"/>
<g>
	<path class="st3" d="M42.5,27.94c-7.61,0-13.79,6.19-13.79,13.79c0,7.61,6.19,13.79,13.79,13.79s13.79-6.19,13.79-13.79
		C56.29,34.13,50.11,27.94,42.5,27.94z M52.29,39.15l-4.62,4.5l1.09,6.36c0.05,0.31-0.27,0.55-0.55,0.4l-5.71-3l-5.71,3
		c-0.28,0.15-0.61-0.09-0.55-0.4l1.09-6.36l-4.62-4.5c-0.23-0.22-0.1-0.6,0.21-0.65l6.38-0.93l2.85-5.78c0.14-0.28,0.54-0.28,0.68,0
		l2.85,5.78l6.38,0.93C52.39,38.55,52.52,38.93,52.29,39.15z"/>
	<path class="st3" d="M62.26,31.11l0.48-2.86c0.03-0.16,0.01-0.32-0.04-0.47c-0.05-0.15-0.14-0.29-0.26-0.4l-1.25-1.15l-1.25-1.15
		l-1.21-1.12l-1.21-1.12c-0.14-0.13-0.31-0.21-0.49-0.24c-0.18-0.03-0.37-0.01-0.54,0.06c-0.14,0.06-0.3,0.12-0.48,0.19
		c-0.18,0.07-0.37,0.14-0.57,0.22c-0.45,0.16-0.96,0.33-1.44,0.45c-0.49,0.12-0.96,0.21-1.36,0.21c-0.73,0-1.44-0.11-2.12-0.3
		c-0.68-0.19-1.34-0.45-1.97-0.75c-0.63-0.3-1.22-0.65-1.77-1c-0.55-0.35-1.06-0.71-1.53-1.03c-0.42-0.29-0.87-0.51-1.34-0.66
		c-0.47-0.15-0.96-0.22-1.44-0.22c-0.49,0-0.97,0.07-1.44,0.22c-0.47,0.15-0.92,0.37-1.34,0.66c-0.46,0.33-0.97,0.68-1.53,1.03
		c-0.55,0.35-1.14,0.7-1.77,1c-0.63,0.3-1.28,0.57-1.97,0.75c-0.68,0.19-1.39,0.3-2.12,0.3c-0.4,0-0.87-0.08-1.36-0.21
		c-0.49-0.12-0.99-0.29-1.44-0.45c-0.2-0.07-0.39-0.15-0.57-0.22c-0.18-0.07-0.34-0.14-0.48-0.19c-0.17-0.07-0.36-0.09-0.54-0.06
		c-0.18,0.03-0.35,0.11-0.49,0.24l-1.21,1.12l-1.21,1.12l-1.25,1.15l-1.25,1.15c-0.12,0.11-0.21,0.25-0.26,0.4
		c-0.05,0.15-0.07,0.31-0.04,0.47l0.48,2.86l0.48,2.86c0.13,0.8,0.2,1.6,0.2,2.41c0,0.8-0.07,1.61-0.2,2.41l-0.26,1.53l-0.26,1.53
		c-0.35,2.06-0.25,4.14,0.27,6.12c0.52,1.98,1.45,3.84,2.78,5.44c0.93,1.12,1.98,2.18,3.1,3.18c1.12,1,2.3,1.93,3.48,2.79
		c2.54,1.84,5.08,3.34,6.99,4.37c1.26,0.68,2.24,1.16,2.76,1.41c0.26,0.13,0.56,0.13,0.83,0c0.52-0.25,1.5-0.73,2.76-1.41
		c1.91-1.03,4.45-2.53,6.99-4.37c1.18-0.86,2.37-1.79,3.48-2.79c1.12-1,2.17-2.06,3.1-3.18c1.33-1.6,2.27-3.47,2.78-5.44
		c0.52-1.98,0.61-4.06,0.27-6.12l-0.26-1.53l-0.26-1.53c-0.13-0.8-0.2-1.6-0.2-2.41c0-0.8,0.07-1.61,0.2-2.41L62.26,31.11z
		 M42.5,56.5c-8.15,0-14.76-6.61-14.76-14.76c0-8.15,6.61-14.76,14.76-14.76s14.76,6.61,14.76,14.76
		C57.26,49.89,50.65,56.5,42.5,56.5z"/>
</g>
</svg>
