<?xml version="1.0" encoding="utf-8"?>
<!-- Generator: Adobe Illustrator 23.0.0, SVG Export Plug-In . SVG Version: 6.00 Build 0)  -->
<svg version="1.1" id="Layer_1" xmlns="http://www.w3.org/2000/svg" xmlns:xlink="http://www.w3.org/1999/xlink" x="0px" y="0px"
	 viewBox="0 0 85 85" style="enable-background:new 0 0 85 85;" xml:space="preserve">
<style type="text/css">
	.st0{clip-path:url(#XMLID_173_);fill:#C5E7EA;}
	.st1{fill:#48C3DB;}
	.st2{fill:#1AB1DD;}
	.st3{fill:#FFFFFF;}
	.st4{fill:#2E3192;}
	.st5{fill:#F04E54;}
	.st6{fill:#E5364F;}
	.st7{fill:#E6E7E8;}
	.st8{fill:#F26456;}
	.st9{clip-path:url(#XMLID_174_);fill:#C5E7EA;}
	.st10{fill:#005D8A;}
	.st11{fill:#89A3A3;}
	.st12{fill:#728E8D;}
	.st13{fill:#F4F6F7;}
	.st14{fill:#086F99;}
	.st15{clip-path:url(#XMLID_175_);fill:#DDE5E3;}
	.st16{fill:#CCCBCA;}
	.st17{fill:#04A58C;}
	.st18{fill:#4E4F4F;}
	.st19{fill:#747932;}
	.st20{fill:#8DC63F;}
	.st21{fill:#8153A2;}
	.st22{fill:#D1D3D4;}
	.st23{fill:#F1F2F2;}
	.st24{fill:#FFD086;}
	.st25{fill:#FBB040;}
	.st26{fill:#EE348B;}
	.st27{fill:#C49A6C;}
	.st28{fill:#C3812A;}
	.st29{fill:#DF3D88;}
	.st30{fill:#F4CC2C;}
	.st31{fill:#F8C31D;}
	.st32{opacity:0.28;}
	.st33{fill:#26BCB3;}
	.st34{fill:#16467D;}
	.st35{fill:#1C4076;}
	.st36{fill:#C0E6EB;}
	.st37{fill:#6D7187;}
	.st38{fill:#5F6276;}
	.st39{fill:#3C3F54;}
	.st40{fill:#FCC015;}
	.st41{fill:#434343;}
	.st42{opacity:0.15;fill:#FFFFFF;}
	.st43{fill:none;stroke:#FFFFFF;stroke-width:2;stroke-linecap:round;stroke-linejoin:round;stroke-miterlimit:10;}
	.st44{fill:#FFFFFF;stroke:#FFFFFF;stroke-width:2;stroke-linecap:round;stroke-linejoin:round;stroke-miterlimit:10;}
	.st45{fill:#424242;}
	.st46{fill:none;stroke:#434343;stroke-width:2;stroke-linecap:round;stroke-linejoin:round;stroke-miterlimit:10;}
	.st47{fill:#FFFFFF;stroke:#E5364F;stroke-width:2;stroke-miterlimit:10;}
	.st48{clip-path:url(#XMLID_176_);fill:#C5E7EA;}
	.st49{clip-path:url(#XMLID_177_);fill:#04A58C;}
	.st50{clip-path:url(#XMLID_178_);fill:#04A58C;}
	.st51{clip-path:url(#XMLID_179_);fill:#747932;}
	.st52{clip-path:url(#XMLID_180_);fill:#C5E7EA;}
	.st53{clip-path:url(#XMLID_181_);fill:#C5E7EA;}
	.st54{clip-path:url(#XMLID_182_);fill:#747932;}
	.st55{clip-path:url(#XMLID_183_);fill:#747932;}
	.st56{clip-path:url(#XMLID_184_);fill:#04A58C;}
	.st57{clip-path:url(#XMLID_185_);fill:#04A58C;}
	.st58{clip-path:url(#XMLID_186_);fill:#04A58C;}
	.st59{clip-path:url(#XMLID_187_);fill:#8153A2;}
	.st60{clip-path:url(#XMLID_188_);fill:#8153A2;}
	.st61{clip-path:url(#XMLID_189_);fill:#8153A2;}
	.st62{clip-path:url(#XMLID_190_);fill:#8153A2;}
	.st63{fill-rule:evenodd;clip-rule:evenodd;fill:#FFFFFF;}
	.st64{clip-path:url(#XMLID_191_);fill:#747932;}
	.st65{clip-path:url(#XMLID_192_);fill:#747932;}
	.st66{clip-path:url(#XMLID_193_);fill:#747932;}
	.st67{clip-path:url(#XMLID_194_);fill:#C5E7EA;}
	.st68{clip-path:url(#XMLID_195_);fill:#DDE5E3;}
</style>
<circle id="XMLID_107_" class="st6" cx="42.5" cy="42.5" r="42.5"/>
<g>
	<path class="st3" d="M22.74,61.25h26.99c0-3.19-2.75-4.62-2.75-4.62h0.07v-2.16c0-0.75-0.62-1.37-1.37-1.37H26.86
		c-0.75,0-1.37,0.62-1.37,1.37v2.16C25.49,56.63,22.74,58.05,22.74,61.25z"/>
	<path class="st3" d="M25.66,49.71c-0.04-0.62-0.65-1.04-1.26-0.95l-6.7,0.96c-0.61,0.09-1.03,0.65-0.95,1.26
		c0.08,0.56,0.56,0.96,1.1,0.96l6.86-0.96C25.49,50.84,25.7,50.23,25.66,49.71z"/>
	<path class="st3" d="M18.19,42.24l6.06,3.42c0.17,0.1,0.36,0.14,0.55,0.14c0.39,0,0.77-0.2,0.97-0.57c0.3-0.54,0.11-1.22-0.42-1.52
		l-6.06-3.42c-0.54-0.3-1.22-0.11-1.52,0.42C17.46,41.26,17.65,41.94,18.19,42.24z"/>
	<g>
		<path class="st3" d="M43.54,48.88c0.44-0.86,0.19-1.88-0.42-2.54l1.74-3.95l19.17,9.53c1.74,0.77,3.25-0.89,3.84-2.21
			c0.58-1.32,0.68-3.6-0.95-4.32l-19.86-7.99l1.88-4.26c0,0,0.01,0,0.01,0c0.9,0,1.77-0.52,2.16-1.4c0.52-1.19-0.01-2.58-1.2-3.11
			l-10.59-4.68c-1.19-0.52-2.58,0.01-3.1,1.2c-0.39,0.88-0.19,1.88,0.42,2.54l-5.83,13.2c-0.91,0-1.78,0.52-2.17,1.4
			c-0.52,1.19,0.01,2.58,1.2,3.1l10.7,4.71C42.21,50.75,43.16,49.62,43.54,48.88z M35.22,42.78l-1.91-0.84l5.74-12.99l1.91,0.84
			L35.22,42.78z"/>
	</g>
</g>
</svg>
