<?xml version="1.0" encoding="utf-8"?>
<!-- Generator: Adobe Illustrator 23.0.0, SVG Export Plug-In . SVG Version: 6.00 Build 0)  -->
<svg version="1.1" id="Layer_1" xmlns="http://www.w3.org/2000/svg" xmlns:xlink="http://www.w3.org/1999/xlink" x="0px" y="0px"
	 viewBox="0 0 85 85" style="enable-background:new 0 0 85 85;" xml:space="preserve">
<style type="text/css">
	.st0{clip-path:url(#XMLID_173_);fill:#C5E7EA;}
	.st1{fill:#48C3DB;}
	.st2{fill:#1AB1DD;}
	.st3{fill:#FFFFFF;}
	.st4{fill:#2E3192;}
	.st5{fill:#F04E54;}
	.st6{fill:#E5364F;}
	.st7{fill:#E6E7E8;}
	.st8{fill:#F26456;}
	.st9{clip-path:url(#XMLID_174_);fill:#C5E7EA;}
	.st10{fill:#005D8A;}
	.st11{fill:#89A3A3;}
	.st12{fill:#728E8D;}
	.st13{fill:#F4F6F7;}
	.st14{fill:#086F99;}
	.st15{clip-path:url(#XMLID_175_);fill:#DDE5E3;}
	.st16{fill:#CCCBCA;}
	.st17{fill:#04A58C;}
	.st18{fill:#4E4F4F;}
	.st19{fill:#747932;}
	.st20{fill:#8DC63F;}
	.st21{fill:#8153A2;}
	.st22{fill:#D1D3D4;}
	.st23{fill:#F1F2F2;}
	.st24{fill:#FFD086;}
	.st25{fill:#FBB040;}
	.st26{fill:#EE348B;}
	.st27{fill:#C49A6C;}
	.st28{fill:#C3812A;}
	.st29{fill:#DF3D88;}
	.st30{fill:#F4CC2C;}
	.st31{fill:#F8C31D;}
	.st32{opacity:0.28;}
	.st33{fill:#26BCB3;}
	.st34{fill:#16467D;}
	.st35{fill:#1C4076;}
	.st36{fill:#C0E6EB;}
	.st37{fill:#6D7187;}
	.st38{fill:#5F6276;}
	.st39{fill:#3C3F54;}
	.st40{fill:#FCC015;}
	.st41{fill:#434343;}
	.st42{opacity:0.15;fill:#FFFFFF;}
	.st43{fill:none;stroke:#FFFFFF;stroke-width:2;stroke-linecap:round;stroke-linejoin:round;stroke-miterlimit:10;}
	.st44{fill:#FFFFFF;stroke:#FFFFFF;stroke-width:2;stroke-linecap:round;stroke-linejoin:round;stroke-miterlimit:10;}
	.st45{fill:#424242;}
	.st46{fill:none;stroke:#434343;stroke-width:2;stroke-linecap:round;stroke-linejoin:round;stroke-miterlimit:10;}
	.st47{fill:#FFFFFF;stroke:#E5364F;stroke-width:2;stroke-miterlimit:10;}
	.st48{clip-path:url(#XMLID_176_);fill:#C5E7EA;}
	.st49{clip-path:url(#XMLID_177_);fill:#04A58C;}
	.st50{clip-path:url(#XMLID_178_);fill:#04A58C;}
	.st51{clip-path:url(#XMLID_179_);fill:#747932;}
	.st52{clip-path:url(#XMLID_180_);fill:#C5E7EA;}
	.st53{clip-path:url(#XMLID_181_);fill:#C5E7EA;}
	.st54{clip-path:url(#XMLID_182_);fill:#747932;}
	.st55{clip-path:url(#XMLID_183_);fill:#747932;}
	.st56{clip-path:url(#XMLID_184_);fill:#04A58C;}
	.st57{clip-path:url(#XMLID_185_);fill:#04A58C;}
	.st58{clip-path:url(#XMLID_186_);fill:#04A58C;}
	.st59{clip-path:url(#XMLID_187_);fill:#8153A2;}
	.st60{clip-path:url(#XMLID_188_);fill:#8153A2;}
	.st61{clip-path:url(#XMLID_189_);fill:#8153A2;}
	.st62{clip-path:url(#XMLID_190_);fill:#8153A2;}
	.st63{fill-rule:evenodd;clip-rule:evenodd;fill:#FFFFFF;}
	.st64{clip-path:url(#XMLID_191_);fill:#747932;}
	.st65{clip-path:url(#XMLID_192_);fill:#747932;}
	.st66{clip-path:url(#XMLID_193_);fill:#747932;}
	.st67{clip-path:url(#XMLID_194_);fill:#C5E7EA;}
	.st68{clip-path:url(#XMLID_195_);fill:#DDE5E3;}
</style>
<circle id="XMLID_108_" class="st6" cx="42.5" cy="42.5" r="42.5"/>
<g>
	<g>
		<path class="st3" d="M27.65,27.58c2.73,0,4.93-2.21,4.93-4.93c0-2.72-2.21-4.93-4.93-4.93c-2.72,0-4.93,2.21-4.93,4.93
			C22.72,25.37,24.93,27.58,27.65,27.58z"/>
		<path class="st3" d="M30.79,34.94c0.08-2.55,0.71-4.39,1.67-5.74c-0.61-0.18-1.3-0.3-2.11-0.33l-2.71,2.97l-2.71-2.97
			c-5.13,0.25-5.97,3.55-6.05,6.28v4.71h11.92C30.79,39.86,30.79,34.97,30.79,34.94z"/>
		<path class="st3" d="M57.38,27.58c2.73,0,4.93-2.21,4.93-4.93c0-2.72-2.21-4.93-4.93-4.93c-2.72,0-4.93,2.21-4.93,4.93
			C52.45,25.37,54.66,27.58,57.38,27.58z"/>
		<path class="st3" d="M60.08,28.87l-2.71,2.97l-2.71-2.97c-0.61,0.03-1.16,0.11-1.66,0.22c1.05,1.46,1.64,3.48,1.74,5.89v4.88h11.4
			v-4.71C66.01,32.31,65.13,29.1,60.08,28.87z"/>
		<path class="st3" d="M52.61,34.97c-0.14-3.19-1.12-6.79-6.8-7.06l-3.05,3.34l-3.05-3.34c-5.77,0.28-6.71,3.99-6.8,7.06v4.88h19.7
			V34.97z"/>
		<path class="st3" d="M37.24,20.93c0,3.06,2.48,5.54,5.54,5.54c3.06,0,5.54-2.48,5.54-5.54c0-3.06-2.48-5.54-5.54-5.54
			C39.72,15.38,37.24,17.87,37.24,20.93z"/>
	</g>
	<path class="st47" d="M57,44.56l0.35-2.1c0.02-0.12,0.01-0.24-0.03-0.35c-0.04-0.11-0.1-0.21-0.19-0.29l-0.91-0.85l-0.91-0.85
		l-0.88-0.82l-0.88-0.82c-0.1-0.09-0.23-0.16-0.36-0.18s-0.27-0.01-0.4,0.04c-0.1,0.04-0.22,0.09-0.35,0.14
		c-0.13,0.05-0.27,0.1-0.42,0.16c-0.33,0.12-0.7,0.24-1.06,0.33c-0.36,0.09-0.71,0.15-1,0.15c-0.53,0-1.05-0.08-1.55-0.22
		c-0.5-0.14-0.98-0.33-1.44-0.55c-0.46-0.22-0.89-0.48-1.3-0.73c-0.4-0.26-0.78-0.52-1.12-0.76c-0.31-0.22-0.64-0.38-0.98-0.49
		c-0.34-0.11-0.7-0.16-1.06-0.16c-0.36,0-0.71,0.05-1.06,0.16c-0.34,0.11-0.68,0.27-0.98,0.49c-0.34,0.24-0.72,0.5-1.12,0.76
		c-0.4,0.26-0.84,0.51-1.3,0.73c-0.46,0.22-0.94,0.42-1.44,0.55c-0.5,0.14-1.02,0.22-1.55,0.22c-0.29,0-0.64-0.06-1-0.15
		c-0.36-0.09-0.73-0.21-1.06-0.33c-0.15-0.05-0.29-0.11-0.42-0.16c-0.13-0.05-0.25-0.1-0.35-0.14c-0.13-0.05-0.27-0.07-0.4-0.04
		c-0.13,0.02-0.26,0.08-0.36,0.18l-0.88,0.82l-0.88,0.82l-0.91,0.85l-0.91,0.85c-0.09,0.08-0.15,0.18-0.19,0.29
		c-0.04,0.11-0.05,0.23-0.03,0.35l0.35,2.1l0.35,2.1c0.1,0.58,0.15,1.17,0.15,1.77c0,0.59-0.05,1.18-0.15,1.77l-0.19,1.13
		l-0.19,1.13c-0.25,1.51-0.18,3.04,0.19,4.49c0.38,1.45,1.06,2.82,2.04,3.99c0.68,0.82,1.45,1.6,2.28,2.33
		c0.82,0.73,1.69,1.42,2.56,2.05c1.86,1.35,3.73,2.45,5.13,3.2c0.92,0.5,1.65,0.85,2.03,1.04c0.19,0.09,0.41,0.09,0.61,0
		c0.38-0.18,1.1-0.53,2.03-1.04c1.4-0.76,3.26-1.85,5.13-3.2c0.87-0.63,1.74-1.31,2.56-2.05c0.82-0.73,1.6-1.51,2.28-2.33
		c0.98-1.18,1.66-2.54,2.04-3.99c0.38-1.45,0.45-2.98,0.19-4.49l-0.19-1.13l-0.19-1.13c-0.1-0.58-0.15-1.17-0.15-1.77
		c0-0.59,0.05-1.18,0.15-1.77L57,44.56z"/>
</g>
</svg>
