<?xml version="1.0" encoding="utf-8"?>
<!-- Generator: Adobe Illustrator 23.0.0, SVG Export Plug-In . SVG Version: 6.00 Build 0)  -->
<svg version="1.1" id="Layer_1" xmlns="http://www.w3.org/2000/svg" xmlns:xlink="http://www.w3.org/1999/xlink" x="0px" y="0px"
	 viewBox="0 0 85 85" style="enable-background:new 0 0 85 85;" xml:space="preserve">
<style type="text/css">
	.st0{fill:#1AB1DD;}
	.st1{fill:#FFFFFF;}
	.st2{fill:#2E3192;}
	.st3{fill:#E5364F;}
	.st4{fill:#E6E7E8;}
	.st5{fill:#F26456;}
	.st6{clip-path:url(#XMLID_36_);fill:#C5E7EA;}
	.st7{fill:#005D8A;}
	.st8{fill:#89A3A3;}
	.st9{fill:#728E8D;}
	.st10{fill:#F4F6F7;}
	.st11{fill:#086F99;}
	.st12{clip-path:url(#XMLID_37_);fill:#DDE5E3;}
	.st13{fill:#F04E54;}
	.st14{fill:#CCCBCA;}
	.st15{fill:#48C3DB;}
	.st16{fill:#04A58C;}
	.st17{fill:#4E4F4F;}
	.st18{fill:#747932;}
	.st19{fill:#8DC63F;}
	.st20{fill:#8153A2;}
	.st21{fill:#D1D3D4;}
	.st22{fill:#F1F2F2;}
	.st23{fill:#FFD086;}
	.st24{fill:#FBB040;}
	.st25{fill:#EE348B;}
	.st26{fill:#C49A6C;}
	.st27{fill:#C3812A;}
	.st28{fill:#DF3D88;}
	.st29{fill:#F4CC2C;}
	.st30{fill:#F8C31D;}
	.st31{opacity:0.28;}
	.st32{fill:#26BCB3;}
	.st33{fill:#16467D;}
	.st34{fill:#1C4076;}
	.st35{fill:#C0E6EB;}
	.st36{fill:#6D7187;}
	.st37{fill:#5F6276;}
	.st38{fill:#3C3F54;}
	.st39{fill:#FCC015;}
	.st40{fill:#434343;}
	.st41{opacity:0.15;fill:#FFFFFF;}
	.st42{fill:#424242;}
	.st43{fill:none;stroke:#434343;stroke-width:2;stroke-linecap:round;stroke-linejoin:round;stroke-miterlimit:10;}
	.st44{fill:none;stroke:#FFFFFF;stroke-width:2;stroke-linecap:round;stroke-linejoin:round;stroke-miterlimit:10;}
	.st45{fill:#FFFFFF;stroke:#FFFFFF;stroke-width:2;stroke-linecap:round;stroke-linejoin:round;stroke-miterlimit:10;}
</style>
<circle id="_Path__7_" class="st15" cx="42.5" cy="42.5" r="42.5"/>
<g>
	<g id="XMLID_39_">
		<path class="st1" d="M41.91,31.97c0,0.72-0.17,1.45-0.51,2.11c0.27,0.73,0.41,1.5,0.41,2.26c0,1.26-0.32,2.35-0.93,3.26
			c0.61,0.87,0.94,1.86,0.94,2.9s-0.33,2.03-0.94,2.9c0.61,0.91,0.93,2,0.93,3.26c0,0.76-0.14,1.53-0.41,2.26
			c0.34,0.66,0.51,1.39,0.51,2.11c0,0.92-0.3,1.75-0.86,2.43c2.07,2.76,0.44,6.69-0.53,7.59c-1.69,1.55-3.07,1.86-4.87,1.86
			c-2.33,0-4.48-0.94-5.79-2.51c-2.43-0.26-4.08-1.81-4.48-4.2c-1.56-0.24-3.15-1.58-3.32-3.41c-1.04-0.41-3.47-1.74-3.8-5.13
			c-0.06-0.61-0.02-1.25,0.11-1.9c-0.08-0.05-0.15-0.1-0.22-0.17c-1.36-1.36-2.11-3.16-2.11-5.09s0.75-3.73,2.11-5.09
			c0.07-0.07,0.14-0.12,0.22-0.17c-0.13-0.65-0.17-1.29-0.11-1.9c0.33-3.39,2.76-4.72,3.8-5.13c0.17-1.83,1.76-3.18,3.32-3.41
			c0.4-2.39,2.06-3.95,4.49-4.2c1.34-1.59,3.48-2.51,5.78-2.51c1.8,0,3.18,0.31,4.87,1.86c1.09,1,2.55,4.83,0.53,7.59
			C41.61,30.22,41.91,31.05,41.91,31.97z M40.71,33.89c0.33-0.6,0.5-1.26,0.5-1.92c0-0.84-0.3-1.59-0.87-2.17
			c-0.12-0.13-0.13-0.33-0.02-0.47c2.01-2.42,0.57-6.09-0.28-6.87c-1.52-1.4-2.72-1.67-4.39-1.67c-2.14,0-4.12,0.86-5.29,2.3
			c-0.01,0.01-0.02,0.03-0.03,0.04c-0.05,0.09-0.15,0.14-0.25,0.15c-2.26,0.19-3.77,1.64-4.04,3.88c-0.02,0.17-0.16,0.29-0.33,0.31
			c-1.4,0.08-2.92,1.31-2.96,3c-0.01,0.14-0.1,0.27-0.24,0.32c-0.75,0.26-3.24,1.36-3.56,4.62c-0.06,0.62,0,1.28,0.16,1.96
			c0.05,0.19-0.06,0.37-0.25,0.42c-0.1,0.03-0.17,0.06-0.22,0.11c-1.22,1.23-1.9,2.86-1.9,4.6s0.68,3.37,1.9,4.6
			c0.05,0.05,0.12,0.08,0.22,0.11c0.19,0.04,0.3,0.23,0.25,0.42c-0.16,0.68-0.22,1.34-0.16,1.96c0.32,3.25,2.81,4.36,3.56,4.62
			c0.14,0.05,0.23,0.18,0.24,0.32c0.04,1.69,1.56,2.92,2.96,3c0.17,0.01,0.31,0.14,0.33,0.31c0.27,2.24,1.78,3.69,4.04,3.88
			c0.1,0.01,0.2,0.06,0.25,0.15c0.01,0.01,0.02,0.03,0.03,0.04c1.17,1.44,3.15,2.3,5.29,2.3c1.67,0,2.87-0.27,4.39-1.67
			c0.85-0.79,2.32-4.46,0.31-6.85c-0.12-0.13-0.13-0.36-0.01-0.49c0.57-0.58,0.87-1.33,0.87-2.17c0-0.66-0.17-1.32-0.5-1.92
			c-0.04-0.09-0.05-0.2-0.01-0.3c0.27-0.68,0.41-1.43,0.41-2.15c0-1.2-0.32-2.23-0.95-3.06c-0.09-0.13-0.09-0.3,0.01-0.43
			c0.62-0.78,0.95-1.7,0.95-2.67s-0.33-1.89-0.95-2.67c-0.1-0.13-0.1-0.31-0.01-0.43c0.63-0.83,0.95-1.86,0.95-3.06
			c0-0.72-0.14-1.47-0.41-2.15C40.66,34.09,40.67,33.98,40.71,33.89z"/>
		<path class="st1" d="M41.21,31.97c0,0.66-0.17,1.32-0.5,1.92c-0.04,0.09-0.05,0.2-0.01,0.3c0.27,0.68,0.41,1.43,0.41,2.15
			c0,1.2-0.32,2.23-0.95,3.06c-0.09,0.12-0.09,0.3,0.01,0.43c0.62,0.78,0.95,1.7,0.95,2.67s-0.33,1.89-0.95,2.67
			c-0.1,0.13-0.1,0.3-0.01,0.43c0.63,0.83,0.95,1.86,0.95,3.06c0,0.72-0.14,1.47-0.41,2.15c-0.04,0.1-0.03,0.21,0.01,0.3
			c0.33,0.6,0.5,1.26,0.5,1.92c0,0.84-0.3,1.59-0.87,2.17c-0.12,0.13-0.11,0.36,0.01,0.49c2.01,2.39,0.54,6.06-0.31,6.85
			c-1.52,1.4-2.72,1.67-4.39,1.67c-2.14,0-4.12-0.86-5.29-2.3c-0.01-0.01-0.02-0.03-0.03-0.04c-0.05-0.09-0.15-0.14-0.25-0.15
			c-2.26-0.19-3.77-1.64-4.04-3.88c-0.02-0.17-0.16-0.3-0.33-0.31c-1.4-0.08-2.92-1.31-2.96-3c-0.01-0.14-0.1-0.27-0.24-0.32
			c-0.75-0.26-3.24-1.37-3.56-4.62c-0.06-0.62,0-1.28,0.16-1.96c0.05-0.19-0.06-0.38-0.25-0.42c-0.1-0.03-0.17-0.06-0.22-0.11
			c-1.22-1.23-1.9-2.86-1.9-4.6s0.68-3.37,1.9-4.6c0.05-0.05,0.12-0.08,0.22-0.11c0.19-0.05,0.3-0.23,0.25-0.42
			c-0.16-0.68-0.22-1.34-0.16-1.96c0.32-3.26,2.81-4.36,3.56-4.62c0.14-0.05,0.23-0.18,0.24-0.32c0.04-1.69,1.56-2.92,2.96-3
			c0.17-0.02,0.31-0.14,0.33-0.31c0.27-2.24,1.78-3.69,4.04-3.88c0.1-0.01,0.2-0.06,0.25-0.15c0.01-0.01,0.02-0.03,0.03-0.04
			c1.17-1.44,3.15-2.3,5.29-2.3c1.67,0,2.87,0.27,4.39,1.67c0.85,0.78,2.29,4.45,0.28,6.87c-0.11,0.14-0.1,0.34,0.02,0.47
			C40.91,30.38,41.21,31.13,41.21,31.97z M40.56,34.01c0.39-0.66,0.59-1.4,0.59-2.04c0-0.97-0.39-1.81-1.1-2.38
			c0,0-0.01,0-0.02-0.01c0.07-0.09,0.16-0.16,0.22-0.26c2.02-2.39,0.59-6.04-0.25-6.81c-1.51-1.39-2.69-1.66-4.35-1.66
			c-2.14,0-4.1,0.86-5.26,2.3c-0.04,0.05-0.06,0.11-0.08,0.17c-2.52,0.11-4.11,1.7-4.25,4.24c-0.06-0.03-0.12-0.05-0.19-0.05
			c-1.45,0-3.07,1.29-3.07,3.02c0,0.08,0.03,0.16,0.08,0.22c-1.41,0.36-3.58,1.67-3.86,4.67c-0.09,0.9,0.06,1.79,0.35,2.62
			c-0.02-0.03-0.03-0.07-0.06-0.09c-0.08-0.08-0.18-0.12-0.29-0.12c-0.1,0-0.21,0.04-0.29,0.12c-1.22,1.21-1.89,2.83-1.89,4.55
			s0.67,3.34,1.89,4.55c0.16,0.16,0.42,0.16,0.58,0c0.03-0.02,0.04-0.06,0.06-0.09c-0.29,0.83-0.44,1.72-0.35,2.62
			c0.28,3,2.45,4.31,3.86,4.67c-0.05,0.06-0.08,0.14-0.08,0.22c0,1.73,1.62,3.02,3.07,3.02c0.07,0,0.13-0.02,0.19-0.05
			c0.14,2.54,1.73,4.13,4.25,4.24c0.02,0.06,0.04,0.12,0.08,0.17c1.16,1.44,3.12,2.3,5.26,2.3c1.66,0,2.84-0.27,4.35-1.66
			c0.84-0.77,2.27-4.42,0.28-6.79c-0.08-0.1-0.17-0.19-0.25-0.28c0-0.01,0.01-0.01,0.02-0.01c0.71-0.57,1.1-1.41,1.1-2.38
			c0-0.64-0.2-1.38-0.59-2.04c0.32-0.72,0.49-1.52,0.49-2.33c0-1.34-0.42-2.43-1.14-3.26c1.51-1.63,1.51-4.17,0-5.8
			c0.72-0.83,1.14-1.92,1.14-3.26C41.05,35.53,40.88,34.73,40.56,34.01z"/>
		<path class="st1" d="M41.15,31.97c0,0.64-0.2,1.38-0.59,2.04c0.32,0.72,0.49,1.52,0.49,2.33c0,1.34-0.42,2.43-1.14,3.26
			c1.51,1.63,1.51,4.17,0,5.8c0.72,0.83,1.14,1.92,1.14,3.26c0,0.81-0.17,1.61-0.49,2.33c0.39,0.66,0.59,1.4,0.59,2.04
			c0,0.97-0.39,1.81-1.1,2.38c-0.01,0-0.02,0-0.02,0.01c0.08,0.09,0.17,0.18,0.25,0.28c1.99,2.37,0.56,6.02-0.28,6.79
			c-1.51,1.39-2.69,1.66-4.35,1.66c-2.14,0-4.1-0.86-5.26-2.3c-0.04-0.05-0.06-0.11-0.08-0.17c-2.52-0.11-4.11-1.7-4.25-4.24
			c-0.06,0.03-0.12,0.05-0.19,0.05c-1.45,0-3.07-1.29-3.07-3.02c0-0.08,0.03-0.16,0.08-0.22c-1.41-0.36-3.58-1.67-3.86-4.67
			c-0.09-0.9,0.06-1.79,0.35-2.62l0.05-0.13c0.69-1.83,2.09-3.34,3.25-3.95c0.2-0.11,0.45-0.03,0.56,0.17
			c0.11,0.2,0.03,0.45-0.17,0.55c-1.48,0.78-3.47,3.33-3.22,5.91c0.25,2.68,2.28,3.77,3.44,4c1.08,0.21,3.52,0.04,4.5-1.03
			c0.16-0.16,0.42-0.18,0.58-0.02c0.17,0.15,0.18,0.41,0.03,0.58c-0.43,0.46-1.03,0.79-1.68,1c-0.8,0.27-1.7,0.37-2.45,0.37
			c-0.23,0-0.45-0.01-0.65-0.03c0,0.03,0.02,0.06,0.02,0.09c0,1.22,1.22,2.2,2.24,2.2c0.07,0,0.14,0.02,0.19,0.05
			c0.04-0.74,0.15-1.53,0.39-2.36c0.04-0.14,0.14-0.24,0.27-0.28c0.07-0.03,0.15-0.03,0.23-0.01c0.22,0.07,0.35,0.29,0.29,0.51
			c-0.25,0.88-0.38,1.75-0.38,2.5c0,2.38,1.39,3.8,3.72,3.8c0.72,0,1.46-0.17,2.14-0.5c0.21-0.1,0.45-0.01,0.55,0.19
			c0.1,0.21,0.01,0.45-0.19,0.55c-0.56,0.27-1.16,0.44-1.76,0.53c1.03,1.05,2.61,1.67,4.33,1.67c1.51,0,2.46-0.21,3.79-1.43
			c0.48-0.44,1.92-3.62,0.18-5.69c-0.54-0.77-1.34-1.25-2.16-1.32c-0.23-0.01-0.4-0.21-0.38-0.44c0.02-0.23,0.21-0.39,0.44-0.38
			c0.69,0.06,1.36,0.35,1.94,0.8c0.02-0.03,0.04-0.07,0.08-0.09c0.65-0.52,0.79-1.24,0.79-1.74c0-1.19-0.84-3.07-3.07-3.07
			c-0.22,0-0.41-0.19-0.41-0.41c0-0.23,0.19-0.42,0.41-0.42c1.18,0,2.06,0.46,2.69,1.09c0.16-0.5,0.27-1.02,0.27-1.56
			c0-2.63-1.74-4.14-4.77-4.14c-3.78,0-8.17,1.85-10.32,4.32c-0.05,0.16-0.19,0.27-0.36,0.27h-0.06c-0.16,0-0.3-0.1-0.37-0.24
			s-0.05-0.32,0.06-0.44c2.28-2.74,6.93-4.73,11.05-4.73c1.61,0,2.91,0.41,3.86,1.14c1.22-1.32,1.22-3.36,0-4.68
			c-0.95,0.73-2.25,1.14-3.86,1.14c-4.12,0-8.77-1.99-11.05-4.73c-0.11-0.12-0.13-0.3-0.06-0.44c0.14-0.3,0.64-0.27,0.77,0.01
			c2.14,2.48,6.56,4.34,10.34,4.34c3.03,0,4.77-1.51,4.77-4.14c0-0.54-0.11-1.06-0.27-1.56c-0.63,0.63-1.51,1.09-2.69,1.09
			c-0.22,0-0.41-0.19-0.41-0.42c0-0.22,0.19-0.41,0.41-0.41c2.23,0,3.07-1.88,3.07-3.07c0-0.5-0.14-1.22-0.79-1.74
			c-0.04-0.02-0.06-0.06-0.08-0.09c-0.57,0.44-1.24,0.74-1.94,0.8c-0.01,0-0.02,0-0.03,0c-0.21,0-0.39-0.17-0.41-0.38
			c-0.02-0.23,0.15-0.43,0.38-0.44c0.82-0.07,1.62-0.55,2.14-1.3c1.76-2.09,0.32-5.27-0.16-5.71c-1.33-1.22-2.28-1.43-3.79-1.43
			c-1.72,0-3.3,0.62-4.33,1.67c0.6,0.09,1.2,0.26,1.76,0.53c0.2,0.1,0.29,0.34,0.19,0.55c-0.1,0.2-0.35,0.29-0.55,0.19
			c-0.68-0.33-1.42-0.5-2.14-0.5c-2.33,0-3.72,1.42-3.72,3.8c0,0.75,0.13,1.62,0.38,2.5c0.06,0.22-0.07,0.44-0.29,0.51
			c-0.03,0.01-0.07,0.01-0.11,0.01c-0.05,0-0.09-0.01-0.13-0.02c-0.12-0.04-0.22-0.14-0.26-0.28c-0.24-0.83-0.35-1.62-0.39-2.36
			c-0.05,0.03-0.12,0.05-0.19,0.05c-1.02,0-2.24,0.98-2.24,2.2c0,0.03-0.02,0.06-0.02,0.09c0.84-0.07,2.03-0.01,3.09,0.33
			c0.66,0.22,1.26,0.54,1.69,1.01c0.15,0.17,0.14,0.43-0.03,0.58c-0.16,0.16-0.42,0.14-0.58-0.02c-0.98-1.07-3.42-1.24-4.5-1.03
			c-1.16,0.23-3.19,1.32-3.44,4c-0.25,2.58,1.74,5.13,3.22,5.91c0.2,0.1,0.28,0.35,0.17,0.55c-0.07,0.14-0.22,0.22-0.37,0.22
			c-0.06,0-0.13-0.01-0.19-0.05c-1.16-0.61-2.56-2.12-3.25-3.95l-0.05-0.13c-0.29-0.83-0.44-1.72-0.35-2.62
			c0.28-3,2.45-4.31,3.86-4.67c-0.05-0.06-0.08-0.14-0.08-0.22c0-1.73,1.62-3.02,3.07-3.02c0.07,0,0.13,0.02,0.19,0.05
			c0.14-2.54,1.73-4.13,4.25-4.24c0.02-0.06,0.04-0.12,0.08-0.17c1.16-1.44,3.12-2.3,5.26-2.3c1.66,0,2.84,0.27,4.35,1.66
			c0.84,0.77,2.27,4.42,0.25,6.81c-0.06,0.1-0.15,0.17-0.22,0.26c0.01,0.01,0.02,0.01,0.02,0.01C40.76,30.16,41.15,31,41.15,31.97z"
			/>
		<path class="st1" d="M37.18,25.65c0.21,0.08,0.33,0.31,0.26,0.52c-0.35,1.06-1.51,1.63-2.42,1.63c-0.23,0-0.41-0.18-0.41-0.41
			c0-0.23,0.18-0.41,0.41-0.41c0.62,0,1.42-0.41,1.64-1.07C36.73,25.7,36.96,25.58,37.18,25.65z"/>
		<path class="st1" d="M37.44,58.83c0.07,0.21-0.05,0.44-0.26,0.52c-0.05,0.01-0.09,0.02-0.13,0.02c-0.17,0-0.34-0.11-0.39-0.28
			c-0.22-0.66-1.02-1.07-1.64-1.07c-0.23,0-0.41-0.18-0.41-0.41s0.18-0.41,0.41-0.41C35.93,57.2,37.09,57.77,37.44,58.83z"/>
		<path class="st1" d="M34.63,53.92c0.23,0.03,0.39,0.24,0.36,0.46c-0.04,0.23-0.25,0.38-0.47,0.35c-0.62-0.08-1.79,0.3-2.41,0.7
			l-0.13,0.09c-0.6,0.37-1.28,0.8-1.66,2.2c-0.05,0.18-0.21,0.3-0.39,0.3c-0.04,0-0.07,0-0.11-0.01c-0.22-0.06-0.35-0.29-0.29-0.51
			c0.46-1.7,1.36-2.27,2.01-2.68l0.12-0.08c-0.03-0.02-0.06-0.03-0.09-0.06c-0.18-0.22-0.39-0.39-0.62-0.57
			c-0.09-0.07-0.19-0.14-0.28-0.22c-0.17-0.15-0.2-0.41-0.05-0.58c0.15-0.17,0.41-0.2,0.58-0.05c0.09,0.07,0.17,0.14,0.26,0.2
			c0.25,0.2,0.51,0.41,0.75,0.69c0.06,0.08,0.08,0.17,0.08,0.26C32.99,54.1,33.93,53.83,34.63,53.92z"/>
		<path class="st1" d="M34.99,30.62c0.03,0.22-0.13,0.43-0.36,0.46c-0.09,0.01-0.19,0.02-0.3,0.02c-0.65,0-1.43-0.24-2.03-0.51
			c0,0.09-0.03,0.18-0.09,0.26c-0.24,0.28-0.5,0.49-0.75,0.69c-0.09,0.06-0.17,0.13-0.26,0.2c-0.08,0.07-0.17,0.1-0.26,0.1
			c-0.12,0-0.24-0.05-0.32-0.15c-0.15-0.17-0.12-0.43,0.05-0.58c0.09-0.08,0.19-0.15,0.28-0.22c0.23-0.18,0.44-0.35,0.62-0.57
			c0.03-0.03,0.06-0.05,0.09-0.07l-0.12-0.07c-0.65-0.41-1.55-0.98-2.01-2.68c-0.06-0.22,0.07-0.45,0.29-0.51
			c0.22-0.05,0.44,0.07,0.5,0.29c0.38,1.4,1.06,1.83,1.66,2.2l0.13,0.09c0.62,0.4,1.79,0.78,2.41,0.7
			C34.75,30.24,34.95,30.39,34.99,30.62z"/>
		<path class="st1" d="M34.49,49.11c0.22,0.03,0.38,0.24,0.35,0.46c-0.03,0.23-0.24,0.38-0.46,0.36c-0.38-0.05-1.37,0.16-1.83,0.66
			c-0.08,0.08-0.19,0.13-0.3,0.13c-0.1,0-0.2-0.04-0.28-0.11c-0.16-0.16-0.17-0.42-0.02-0.58C32.61,49.31,33.87,49.03,34.49,49.11z"
			/>
		<path class="st1" d="M26.38,40.46c1.12,1.13,1.12,2.95,0,4.08c-0.08,0.08-0.19,0.12-0.29,0.12c-0.11,0-0.21-0.04-0.3-0.12
			c-0.16-0.16-0.16-0.42,0-0.59c0.81-0.8,0.81-2.1,0-2.9c-0.16-0.17-0.16-0.43,0-0.59C25.96,40.3,26.22,40.3,26.38,40.46z"/>
		<path class="st1" d="M19.42,38.17c0.02,0.12-0.01,0.26-0.11,0.36c-1.06,1.06-1.64,2.47-1.64,3.97s0.58,2.91,1.64,3.97
			c0.1,0.1,0.13,0.24,0.11,0.36l-0.05,0.13c-0.02,0.03-0.03,0.07-0.06,0.09c-0.16,0.16-0.42,0.16-0.58,0
			c-1.22-1.21-1.89-2.83-1.89-4.55s0.67-3.34,1.89-4.55c0.08-0.08,0.19-0.12,0.29-0.12c0.11,0,0.21,0.04,0.29,0.12
			c0.03,0.02,0.04,0.06,0.06,0.09L19.42,38.17z"/>
	</g>
	<g id="XMLID_38_">
		<path class="st1" d="M43.09,53.03c0-0.72,0.17-1.45,0.51-2.11c-0.27-0.73-0.41-1.5-0.41-2.26c0-1.26,0.32-2.35,0.93-3.26
			c-0.61-0.87-0.94-1.86-0.94-2.9s0.33-2.03,0.94-2.9c-0.61-0.91-0.93-2-0.93-3.26c0-0.76,0.14-1.53,0.41-2.26
			c-0.34-0.66-0.51-1.39-0.51-2.11c0-0.92,0.3-1.75,0.86-2.43c-2.07-2.76-0.44-6.69,0.53-7.59c1.69-1.55,3.07-1.86,4.87-1.86
			c2.33,0,4.48,0.94,5.79,2.51c2.43,0.26,4.08,1.81,4.48,4.2c1.56,0.24,3.15,1.58,3.32,3.41c1.04,0.41,3.47,1.74,3.8,5.13
			c0.06,0.61,0.02,1.25-0.11,1.9c0.08,0.05,0.15,0.1,0.22,0.17c1.36,1.36,2.11,3.16,2.11,5.09s-0.75,3.73-2.11,5.09
			c-0.07,0.07-0.14,0.12-0.22,0.17c0.13,0.65,0.17,1.29,0.11,1.9c-0.33,3.39-2.76,4.72-3.8,5.13c-0.17,1.83-1.76,3.18-3.32,3.41
			c-0.4,2.39-2.06,3.95-4.49,4.2c-1.34,1.59-3.48,2.51-5.78,2.51c-1.8,0-3.18-0.31-4.87-1.86c-1.09-1-2.55-4.83-0.53-7.59
			C43.39,54.78,43.09,53.95,43.09,53.03z M44.29,51.11c-0.33,0.6-0.5,1.26-0.5,1.92c0,0.84,0.3,1.59,0.87,2.17
			c0.12,0.13,0.13,0.33,0.02,0.47c-2.01,2.42-0.57,6.09,0.28,6.87c1.52,1.4,2.72,1.67,4.39,1.67c2.14,0,4.12-0.86,5.29-2.3
			c0.01-0.01,0.02-0.03,0.03-0.04c0.05-0.09,0.15-0.14,0.25-0.15c2.26-0.19,3.77-1.64,4.04-3.88c0.02-0.17,0.16-0.29,0.33-0.31
			c1.4-0.08,2.92-1.31,2.96-3c0.01-0.14,0.1-0.27,0.24-0.32c0.75-0.26,3.24-1.36,3.56-4.62c0.06-0.62,0-1.28-0.16-1.96
			c-0.05-0.19,0.06-0.37,0.25-0.42c0.1-0.03,0.17-0.06,0.22-0.11c1.22-1.23,1.9-2.86,1.9-4.6s-0.68-3.37-1.9-4.6
			c-0.05-0.05-0.12-0.08-0.22-0.11c-0.19-0.04-0.3-0.23-0.25-0.42c0.16-0.68,0.22-1.34,0.16-1.96c-0.32-3.25-2.81-4.36-3.56-4.62
			c-0.14-0.05-0.23-0.18-0.24-0.32c-0.04-1.69-1.56-2.92-2.96-3c-0.17-0.01-0.31-0.14-0.33-0.31c-0.27-2.24-1.78-3.69-4.04-3.88
			c-0.1-0.01-0.2-0.06-0.25-0.15c-0.01-0.01-0.02-0.03-0.03-0.04c-1.17-1.44-3.15-2.3-5.29-2.3c-1.67,0-2.87,0.27-4.39,1.67
			c-0.85,0.79-2.32,4.46-0.31,6.85c0.12,0.13,0.13,0.36,0.01,0.49c-0.57,0.58-0.87,1.33-0.87,2.17c0,0.66,0.17,1.32,0.5,1.92
			c0.04,0.09,0.05,0.2,0.01,0.3c-0.27,0.68-0.41,1.43-0.41,2.15c0,1.2,0.32,2.23,0.95,3.06c0.09,0.13,0.09,0.3-0.01,0.43
			c-0.62,0.78-0.95,1.7-0.95,2.67s0.33,1.89,0.95,2.67c0.1,0.13,0.1,0.31,0.01,0.43c-0.63,0.83-0.95,1.86-0.95,3.06
			c0,0.72,0.14,1.47,0.41,2.15C44.34,50.91,44.33,51.02,44.29,51.11z"/>
		<path class="st1" d="M43.79,53.03c0-0.66,0.17-1.32,0.5-1.92c0.04-0.09,0.05-0.2,0.01-0.3c-0.27-0.68-0.41-1.43-0.41-2.15
			c0-1.2,0.32-2.23,0.95-3.06c0.09-0.12,0.09-0.3-0.01-0.43c-0.62-0.78-0.95-1.7-0.95-2.67s0.33-1.89,0.95-2.67
			c0.1-0.13,0.1-0.3,0.01-0.43c-0.63-0.83-0.95-1.86-0.95-3.06c0-0.72,0.14-1.47,0.41-2.15c0.04-0.1,0.03-0.21-0.01-0.3
			c-0.33-0.6-0.5-1.26-0.5-1.92c0-0.84,0.3-1.59,0.87-2.17c0.12-0.13,0.11-0.36-0.01-0.49c-2.01-2.39-0.54-6.06,0.31-6.85
			c1.52-1.4,2.72-1.67,4.39-1.67c2.14,0,4.12,0.86,5.29,2.3c0.01,0.01,0.02,0.03,0.03,0.04c0.05,0.09,0.15,0.14,0.25,0.15
			c2.26,0.19,3.77,1.64,4.04,3.88c0.02,0.17,0.16,0.3,0.33,0.31c1.4,0.08,2.92,1.31,2.96,3c0.01,0.14,0.1,0.27,0.24,0.32
			c0.75,0.26,3.24,1.37,3.56,4.62c0.06,0.62,0,1.28-0.16,1.96c-0.05,0.19,0.06,0.38,0.25,0.42c0.1,0.03,0.17,0.06,0.22,0.11
			c1.22,1.23,1.9,2.86,1.9,4.6s-0.68,3.37-1.9,4.6c-0.05,0.05-0.12,0.08-0.22,0.11c-0.19,0.05-0.3,0.23-0.25,0.42
			c0.16,0.68,0.22,1.34,0.16,1.96c-0.32,3.26-2.81,4.36-3.56,4.62c-0.14,0.05-0.23,0.18-0.24,0.32c-0.04,1.69-1.56,2.92-2.96,3
			c-0.17,0.02-0.31,0.14-0.33,0.31c-0.27,2.24-1.78,3.69-4.04,3.88c-0.1,0.01-0.2,0.06-0.25,0.15c-0.01,0.01-0.02,0.03-0.03,0.04
			c-1.17,1.44-3.15,2.3-5.29,2.3c-1.67,0-2.87-0.27-4.39-1.67c-0.85-0.78-2.29-4.45-0.28-6.87c0.11-0.14,0.1-0.34-0.02-0.47
			C44.09,54.62,43.79,53.87,43.79,53.03z M44.44,50.99c-0.39,0.66-0.59,1.4-0.59,2.04c0,0.97,0.39,1.81,1.1,2.38
			c0,0,0.01,0,0.02,0.01c-0.07,0.09-0.16,0.16-0.22,0.26c-2.02,2.39-0.59,6.04,0.25,6.81c1.51,1.39,2.69,1.66,4.35,1.66
			c2.14,0,4.1-0.86,5.26-2.3c0.04-0.05,0.06-0.11,0.08-0.17c2.52-0.11,4.11-1.7,4.25-4.24c0.06,0.03,0.12,0.05,0.19,0.05
			c1.45,0,3.07-1.29,3.07-3.02c0-0.08-0.03-0.16-0.08-0.22c1.41-0.36,3.58-1.67,3.86-4.67c0.09-0.9-0.06-1.79-0.35-2.62
			c0.02,0.03,0.03,0.07,0.06,0.09c0.08,0.08,0.18,0.12,0.29,0.12c0.1,0,0.21-0.04,0.29-0.12c1.22-1.21,1.89-2.83,1.89-4.55
			s-0.67-3.34-1.89-4.55c-0.16-0.16-0.42-0.16-0.58,0c-0.03,0.02-0.04,0.06-0.06,0.09c0.29-0.83,0.44-1.72,0.35-2.62
			c-0.28-3-2.45-4.31-3.86-4.67c0.05-0.06,0.08-0.14,0.08-0.22c0-1.73-1.62-3.02-3.07-3.02c-0.07,0-0.13,0.02-0.19,0.05
			c-0.14-2.54-1.73-4.13-4.25-4.24c-0.02-0.06-0.04-0.12-0.08-0.17c-1.16-1.44-3.12-2.3-5.26-2.3c-1.66,0-2.84,0.27-4.35,1.66
			c-0.84,0.77-2.27,4.42-0.28,6.79c0.08,0.1,0.17,0.19,0.25,0.28c0,0.01-0.01,0.01-0.02,0.01c-0.71,0.57-1.1,1.41-1.1,2.38
			c0,0.64,0.2,1.38,0.59,2.04c-0.32,0.72-0.49,1.52-0.49,2.33c0,1.34,0.42,2.43,1.14,3.26c-1.51,1.63-1.51,4.17,0,5.8
			c-0.72,0.83-1.14,1.92-1.14,3.26C43.95,49.47,44.12,50.27,44.44,50.99z"/>
		<path class="st1" d="M43.85,53.03c0-0.64,0.2-1.38,0.59-2.04c-0.32-0.72-0.49-1.52-0.49-2.33c0-1.34,0.42-2.43,1.14-3.26
			c-1.51-1.63-1.51-4.17,0-5.8c-0.72-0.83-1.14-1.92-1.14-3.26c0-0.81,0.17-1.61,0.49-2.33c-0.39-0.66-0.59-1.4-0.59-2.04
			c0-0.97,0.39-1.81,1.1-2.38c0.01,0,0.02,0,0.02-0.01c-0.08-0.09-0.17-0.18-0.25-0.28c-1.99-2.37-0.56-6.02,0.28-6.79
			c1.51-1.39,2.69-1.66,4.35-1.66c2.14,0,4.1,0.86,5.26,2.3c0.04,0.05,0.06,0.11,0.08,0.17c2.52,0.11,4.11,1.7,4.25,4.24
			c0.06-0.03,0.12-0.05,0.19-0.05c1.45,0,3.07,1.29,3.07,3.02c0,0.08-0.03,0.16-0.08,0.22c1.41,0.36,3.58,1.67,3.86,4.67
			c0.09,0.9-0.06,1.79-0.35,2.62l-0.05,0.13c-0.69,1.83-2.09,3.34-3.25,3.95c-0.2,0.11-0.45,0.03-0.56-0.17s-0.03-0.45,0.17-0.55
			c1.48-0.78,3.47-3.33,3.22-5.91c-0.25-2.68-2.28-3.77-3.44-4c-1.08-0.21-3.52-0.04-4.5,1.03c-0.16,0.16-0.42,0.18-0.58,0.02
			c-0.17-0.15-0.18-0.41-0.03-0.58c0.43-0.46,1.03-0.79,1.68-1c0.8-0.27,1.7-0.37,2.45-0.37c0.23,0,0.45,0.01,0.65,0.03
			c0-0.03-0.02-0.06-0.02-0.09c0-1.22-1.22-2.2-2.24-2.2c-0.07,0-0.14-0.02-0.19-0.05c-0.04,0.74-0.15,1.53-0.39,2.36
			c-0.04,0.14-0.14,0.24-0.27,0.28c-0.07,0.03-0.15,0.03-0.23,0.01c-0.22-0.07-0.35-0.29-0.29-0.51c0.25-0.88,0.38-1.75,0.38-2.5
			c0-2.38-1.39-3.8-3.72-3.8c-0.72,0-1.46,0.17-2.14,0.5c-0.21,0.1-0.45,0.01-0.55-0.19c-0.1-0.21-0.01-0.45,0.19-0.55
			c0.56-0.27,1.16-0.44,1.76-0.53c-1.03-1.05-2.61-1.67-4.33-1.67c-1.51,0-2.46,0.21-3.79,1.43c-0.48,0.44-1.92,3.62-0.18,5.69
			c0.54,0.77,1.34,1.25,2.16,1.32c0.23,0.01,0.4,0.21,0.38,0.44c-0.02,0.23-0.21,0.39-0.44,0.38c-0.69-0.06-1.36-0.35-1.94-0.8
			c-0.02,0.03-0.04,0.07-0.08,0.09c-0.65,0.52-0.79,1.24-0.79,1.74c0,1.19,0.84,3.07,3.07,3.07c0.22,0,0.41,0.19,0.41,0.41
			c0,0.23-0.19,0.42-0.41,0.42c-1.18,0-2.06-0.46-2.69-1.09c-0.16,0.5-0.27,1.02-0.27,1.56c0,2.63,1.74,4.14,4.77,4.14
			c3.78,0,8.17-1.85,10.32-4.32c0.05-0.16,0.19-0.27,0.36-0.27h0.06c0.16,0,0.3,0.1,0.37,0.24s0.05,0.32-0.06,0.44
			c-2.28,2.74-6.93,4.73-11.05,4.73c-1.61,0-2.91-0.41-3.86-1.14c-1.22,1.32-1.22,3.36,0,4.68c0.95-0.73,2.25-1.14,3.86-1.14
			c4.12,0,8.77,1.99,11.05,4.73c0.11,0.12,0.13,0.3,0.06,0.44c-0.14,0.3-0.64,0.27-0.77-0.01c-2.14-2.48-6.56-4.34-10.34-4.34
			c-3.03,0-4.77,1.51-4.77,4.14c0,0.54,0.11,1.06,0.27,1.56c0.63-0.63,1.51-1.09,2.69-1.09c0.22,0,0.41,0.19,0.41,0.42
			c0,0.22-0.19,0.41-0.41,0.41c-2.23,0-3.07,1.88-3.07,3.07c0,0.5,0.14,1.22,0.79,1.74c0.04,0.02,0.06,0.06,0.08,0.09
			c0.57-0.44,1.24-0.74,1.94-0.8c0.01,0,0.02,0,0.03,0c0.21,0,0.39,0.17,0.41,0.38c0.02,0.23-0.15,0.43-0.38,0.44
			c-0.82,0.07-1.62,0.55-2.14,1.3c-1.76,2.09-0.32,5.27,0.16,5.71c1.33,1.22,2.28,1.43,3.79,1.43c1.72,0,3.3-0.62,4.33-1.67
			c-0.6-0.09-1.2-0.26-1.76-0.53c-0.2-0.1-0.29-0.34-0.19-0.55c0.1-0.2,0.35-0.29,0.55-0.19c0.68,0.33,1.42,0.5,2.14,0.5
			c2.33,0,3.72-1.42,3.72-3.8c0-0.75-0.13-1.62-0.38-2.5c-0.06-0.22,0.07-0.44,0.29-0.51c0.03-0.01,0.07-0.01,0.11-0.01
			c0.05,0,0.09,0.01,0.13,0.02c0.12,0.04,0.22,0.14,0.26,0.28c0.24,0.83,0.35,1.62,0.39,2.36c0.05-0.03,0.12-0.05,0.19-0.05
			c1.02,0,2.24-0.98,2.24-2.2c0-0.03,0.02-0.06,0.02-0.09c-0.84,0.07-2.03,0.01-3.09-0.33c-0.66-0.22-1.26-0.54-1.69-1.01
			c-0.15-0.17-0.14-0.43,0.03-0.58c0.16-0.16,0.42-0.14,0.58,0.02c0.98,1.07,3.42,1.24,4.5,1.03c1.16-0.23,3.19-1.32,3.44-4
			c0.25-2.58-1.74-5.13-3.22-5.91c-0.2-0.1-0.28-0.35-0.17-0.55c0.07-0.14,0.22-0.22,0.37-0.22c0.06,0,0.13,0.01,0.19,0.05
			c1.16,0.61,2.56,2.12,3.25,3.95l0.05,0.13c0.29,0.83,0.44,1.72,0.35,2.62c-0.28,3-2.45,4.31-3.86,4.67
			c0.05,0.06,0.08,0.14,0.08,0.22c0,1.73-1.62,3.02-3.07,3.02c-0.07,0-0.13-0.02-0.19-0.05c-0.14,2.54-1.73,4.13-4.25,4.24
			c-0.02,0.06-0.04,0.12-0.08,0.17c-1.16,1.44-3.12,2.3-5.26,2.3c-1.66,0-2.84-0.27-4.35-1.66c-0.84-0.77-2.27-4.42-0.25-6.81
			c0.06-0.1,0.15-0.17,0.22-0.26c-0.01-0.01-0.02-0.01-0.02-0.01C44.24,54.84,43.85,54,43.85,53.03z"/>
		<path class="st1" d="M47.82,59.35c-0.21-0.08-0.33-0.31-0.26-0.52c0.35-1.06,1.51-1.63,2.42-1.63c0.23,0,0.41,0.18,0.41,0.41
			s-0.18,0.41-0.41,0.41c-0.62,0-1.42,0.41-1.64,1.07C48.27,59.3,48.04,59.42,47.82,59.35z"/>
		<path class="st1" d="M47.56,26.17c-0.07-0.21,0.05-0.44,0.26-0.52c0.05-0.01,0.09-0.02,0.13-0.02c0.17,0,0.34,0.11,0.39,0.28
			c0.22,0.66,1.02,1.07,1.64,1.07c0.23,0,0.41,0.18,0.41,0.41c0,0.23-0.18,0.41-0.41,0.41C49.07,27.8,47.91,27.23,47.56,26.17z"/>
		<path class="st1" d="M50.37,31.08c-0.23-0.03-0.39-0.24-0.36-0.46c0.04-0.23,0.25-0.38,0.47-0.35c0.62,0.08,1.79-0.3,2.41-0.7
			l0.13-0.09c0.6-0.37,1.28-0.8,1.66-2.2c0.05-0.18,0.21-0.3,0.39-0.3c0.04,0,0.07,0,0.11,0.01c0.22,0.06,0.35,0.29,0.29,0.51
			c-0.46,1.7-1.36,2.27-2.01,2.68l-0.12,0.08c0.03,0.02,0.06,0.03,0.09,0.06c0.18,0.22,0.39,0.39,0.62,0.57
			c0.09,0.07,0.19,0.14,0.28,0.22c0.17,0.15,0.2,0.41,0.05,0.58c-0.15,0.17-0.41,0.2-0.58,0.05c-0.09-0.07-0.17-0.14-0.26-0.2
			c-0.25-0.2-0.51-0.41-0.75-0.69c-0.06-0.08-0.08-0.17-0.08-0.26C52.01,30.9,51.07,31.17,50.37,31.08z"/>
		<path class="st1" d="M50.01,54.38c-0.03-0.22,0.13-0.43,0.36-0.46c0.09-0.01,0.19-0.02,0.3-0.02c0.65,0,1.43,0.24,2.03,0.51
			c0-0.09,0.03-0.18,0.09-0.26c0.24-0.28,0.5-0.49,0.75-0.69c0.09-0.06,0.17-0.13,0.26-0.2c0.08-0.07,0.17-0.1,0.26-0.1
			c0.12,0,0.24,0.05,0.32,0.15c0.15,0.17,0.12,0.43-0.05,0.58c-0.09,0.08-0.19,0.15-0.28,0.22c-0.23,0.18-0.44,0.35-0.62,0.57
			c-0.03,0.03-0.06,0.05-0.09,0.07l0.12,0.07c0.65,0.41,1.55,0.98,2.01,2.68c0.06,0.22-0.07,0.45-0.29,0.51
			c-0.22,0.05-0.44-0.07-0.5-0.29c-0.38-1.4-1.06-1.83-1.66-2.2l-0.13-0.09c-0.62-0.4-1.79-0.78-2.41-0.7
			C50.25,54.76,50.05,54.61,50.01,54.38z"/>
		<path class="st1" d="M50.51,35.89c-0.22-0.03-0.38-0.24-0.35-0.46c0.03-0.23,0.24-0.38,0.46-0.36c0.38,0.05,1.37-0.16,1.83-0.66
			c0.08-0.08,0.19-0.13,0.3-0.13c0.1,0,0.2,0.04,0.28,0.11c0.16,0.16,0.17,0.42,0.02,0.58C52.39,35.69,51.13,35.97,50.51,35.89z"/>
		<path class="st1" d="M58.62,44.54c-1.12-1.13-1.12-2.95,0-4.08c0.08-0.08,0.19-0.12,0.29-0.12c0.11,0,0.21,0.04,0.3,0.12
			c0.16,0.16,0.16,0.42,0,0.59c-0.81,0.8-0.81,2.1,0,2.9c0.16,0.17,0.16,0.43,0,0.59C59.04,44.7,58.78,44.7,58.62,44.54z"/>
		<path class="st1" d="M65.58,46.83c-0.02-0.12,0.01-0.26,0.11-0.36c1.06-1.06,1.64-2.47,1.64-3.97s-0.58-2.91-1.64-3.97
			c-0.1-0.1-0.13-0.24-0.11-0.36l0.05-0.13c0.02-0.03,0.03-0.07,0.06-0.09c0.16-0.16,0.42-0.16,0.58,0
			c1.22,1.21,1.89,2.83,1.89,4.55s-0.67,3.34-1.89,4.55c-0.08,0.08-0.19,0.12-0.29,0.12c-0.11,0-0.21-0.04-0.29-0.12
			c-0.03-0.02-0.04-0.06-0.06-0.09L65.58,46.83z"/>
	</g>
</g>
</svg>
