<?xml version="1.0" encoding="utf-8"?>
<!-- Generator: Adobe Illustrator 23.0.0, SVG Export Plug-In . SVG Version: 6.00 Build 0)  -->
<svg version="1.1" id="Layer_1" xmlns="http://www.w3.org/2000/svg" xmlns:xlink="http://www.w3.org/1999/xlink" x="0px" y="0px"
	 viewBox="0 0 85 85" style="enable-background:new 0 0 85 85;" xml:space="preserve">
<style type="text/css">
	.st0{fill:#1AB1DD;}
	.st1{fill:#FFFFFF;}
	.st2{fill:#2E3192;}
	.st3{fill:#E5364F;}
	.st4{fill:#E6E7E8;}
	.st5{fill:#F26456;}
	.st6{clip-path:url(#XMLID_36_);fill:#C5E7EA;}
	.st7{fill:#005D8A;}
	.st8{fill:#89A3A3;}
	.st9{fill:#728E8D;}
	.st10{fill:#F4F6F7;}
	.st11{fill:#086F99;}
	.st12{clip-path:url(#XMLID_37_);fill:#DDE5E3;}
	.st13{fill:#F04E54;}
	.st14{fill:#CCCBCA;}
	.st15{fill:#48C3DB;}
	.st16{fill:#04A58C;}
	.st17{fill:#4E4F4F;}
	.st18{fill:#747932;}
	.st19{fill:#8DC63F;}
	.st20{fill:#8153A2;}
	.st21{fill:#D1D3D4;}
	.st22{fill:#F1F2F2;}
	.st23{fill:#FFD086;}
	.st24{fill:#FBB040;}
	.st25{fill:#EE348B;}
	.st26{fill:#C49A6C;}
	.st27{fill:#C3812A;}
	.st28{fill:#DF3D88;}
	.st29{fill:#F4CC2C;}
	.st30{fill:#F8C31D;}
	.st31{opacity:0.28;}
	.st32{fill:#26BCB3;}
	.st33{fill:#16467D;}
	.st34{fill:#1C4076;}
	.st35{fill:#C0E6EB;}
	.st36{fill:#6D7187;}
	.st37{fill:#5F6276;}
	.st38{fill:#3C3F54;}
	.st39{fill:#FCC015;}
	.st40{fill:#434343;}
	.st41{opacity:0.15;fill:#FFFFFF;}
	.st42{fill:#424242;}
	.st43{fill:none;stroke:#434343;stroke-width:2;stroke-linecap:round;stroke-linejoin:round;stroke-miterlimit:10;}
	.st44{fill:none;stroke:#FFFFFF;stroke-width:2;stroke-linecap:round;stroke-linejoin:round;stroke-miterlimit:10;}
	.st45{fill:#FFFFFF;stroke:#FFFFFF;stroke-width:2;stroke-linecap:round;stroke-linejoin:round;stroke-miterlimit:10;}
</style>
<circle id="_Path__8_" class="st15" cx="42.5" cy="42.5" r="42.5"/>
<path class="st1" d="M64.42,59.76h-1.33v-5.11c0-1.77-1.43-3.21-3.21-3.21v0H47.71v0c-1.77,0-3.21,1.44-3.21,3.21v5.11h-4.34v-5.11
	c0-1.77-1.44-3.21-3.21-3.21v0H24.79v0c-1.77,0-3.21,1.44-3.21,3.21v5.11h-1c-1.25,0-2.26,1.01-2.26,2.26
	c0,1.25,1.01,2.26,2.26,2.26h43.83c1.25,0,2.26-1.01,2.26-2.26C66.67,60.77,65.66,59.76,64.42,59.76z"/>
<path class="st1" d="M30.88,49.93c3.2,0,5.8-2.59,5.8-5.8c0-3.2-2.6-5.8-5.8-5.8c-3.2,0-5.8,2.59-5.8,5.8
	C25.08,47.34,27.68,49.93,30.88,49.93z"/>
<path class="st1" d="M48,44.13c0,3.2,2.6,5.8,5.8,5.8c3.2,0,5.8-2.6,5.8-5.8c0-3.2-2.59-5.8-5.8-5.8C50.6,38.34,48,40.93,48,44.13z"
	/>
<path class="st1" d="M39.67,34.09c1.76,1.91-1.2,3.66-1.56,4c-0.17,0.16,0.09,0.2,0.09,0.2c2.42,0.45,4.66-0.82,5.93-1.73
	c0.51-0.37,1.73-0.27,1.73-0.27l-0.01,0c0.26,0.02,0.51,0.03,0.78,0.03c5.5,0,9.97-3.49,9.97-7.79c0-4.3-4.46-7.79-9.97-7.79
	c-5.5,0-9.97,3.49-9.97,7.79C36.67,30.7,37.82,32.67,39.67,34.09z M51.52,27.08c0.79,0,1.44,0.64,1.44,1.44
	c0,0.79-0.64,1.44-1.44,1.44c-0.8,0-1.44-0.64-1.44-1.44C50.08,27.72,50.72,27.08,51.52,27.08z M46.81,27.08
	c0.8,0,1.44,0.64,1.44,1.44c0,0.79-0.64,1.44-1.44,1.44c-0.8,0-1.44-0.64-1.44-1.44C45.37,27.72,46.02,27.08,46.81,27.08z
	 M42.1,27.08c0.8,0,1.44,0.64,1.44,1.44c0,0.79-0.65,1.44-1.44,1.44c-0.8,0-1.44-0.64-1.44-1.44C40.66,27.72,41.31,27.08,42.1,27.08
	z"/>
</svg>
