<?xml version="1.0" encoding="utf-8"?>
<!-- Generator: Adobe Illustrator 23.0.0, SVG Export Plug-In . SVG Version: 6.00 Build 0)  -->
<svg version="1.1" id="Layer_1" xmlns="http://www.w3.org/2000/svg" xmlns:xlink="http://www.w3.org/1999/xlink" x="0px" y="0px"
	 viewBox="0 0 85 85" style="enable-background:new 0 0 85 85;" xml:space="preserve">
<style type="text/css">
	.st0{fill:#1AB1DD;}
	.st1{fill:#FFFFFF;}
	.st2{fill:#2E3192;}
	.st3{fill:#E5364F;}
	.st4{fill:#E6E7E8;}
	.st5{fill:#F26456;}
	.st6{clip-path:url(#XMLID_36_);fill:#C5E7EA;}
	.st7{fill:#005D8A;}
	.st8{fill:#89A3A3;}
	.st9{fill:#728E8D;}
	.st10{fill:#F4F6F7;}
	.st11{fill:#086F99;}
	.st12{clip-path:url(#XMLID_37_);fill:#DDE5E3;}
	.st13{fill:#F04E54;}
	.st14{fill:#CCCBCA;}
	.st15{fill:#48C3DB;}
	.st16{fill:#04A58C;}
	.st17{fill:#4E4F4F;}
	.st18{fill:#747932;}
	.st19{fill:#8DC63F;}
	.st20{fill:#8153A2;}
	.st21{fill:#D1D3D4;}
	.st22{fill:#F1F2F2;}
	.st23{fill:#FFD086;}
	.st24{fill:#FBB040;}
	.st25{fill:#EE348B;}
	.st26{fill:#C49A6C;}
	.st27{fill:#C3812A;}
	.st28{fill:#DF3D88;}
	.st29{fill:#F4CC2C;}
	.st30{fill:#F8C31D;}
	.st31{opacity:0.28;}
	.st32{fill:#26BCB3;}
	.st33{fill:#16467D;}
	.st34{fill:#1C4076;}
	.st35{fill:#C0E6EB;}
	.st36{fill:#6D7187;}
	.st37{fill:#5F6276;}
	.st38{fill:#3C3F54;}
	.st39{fill:#FCC015;}
	.st40{fill:#434343;}
	.st41{opacity:0.15;fill:#FFFFFF;}
	.st42{fill:#424242;}
	.st43{fill:none;stroke:#434343;stroke-width:2;stroke-linecap:round;stroke-linejoin:round;stroke-miterlimit:10;}
	.st44{fill:none;stroke:#FFFFFF;stroke-width:2;stroke-linecap:round;stroke-linejoin:round;stroke-miterlimit:10;}
	.st45{fill:#FFFFFF;stroke:#FFFFFF;stroke-width:2;stroke-linecap:round;stroke-linejoin:round;stroke-miterlimit:10;}
</style>
<ellipse id="XMLID_40_" class="st15" cx="42.5" cy="42.49" rx="42.5" ry="42.49"/>
<g>
	<path class="st1" d="M40.7,42.6c1.79,0,3.25-1.66,3.25-3.7s-1.46-3.7-3.25-3.7c-1.79,0-3.25,1.66-3.25,3.7S38.91,42.6,40.7,42.6z
		 M40.7,37.2c0.68,0,1.25,0.78,1.25,1.7s-0.57,1.7-1.25,1.7s-1.25-0.78-1.25-1.7S40.02,37.2,40.7,37.2z"/>
	<rect x="42.4" y="48.8" class="st1" width="2" height="14.4"/>
	<rect x="37" y="48.8" class="st1" width="2" height="14.4"/>
	<rect x="39.7" y="56.9" class="st1" width="2" height="6.3"/>
	<rect x="25.3" y="54.2" class="st1" width="2" height="9"/>
	<path class="st1" d="M68.63,47.24l-4.49-11.38c-1.13-3.13-4.01-5.36-6.45-5.92c0.72-0.97,1.16-2.24,1.16-3.64
		c0-3.03-2.06-5.5-4.6-5.5s-4.6,2.47-4.6,5.5c0,1.76,0.7,3.32,1.77,4.33c-1.25,0.71-2.26,1.82-2.81,3.23l-4.18,10.66
		c-1.05-0.76-2.34-1.22-3.74-1.22c-1.09,0-2.13,0.28-3.03,0.76l-4.03-10.2c-0.55-1.39-1.54-2.48-2.76-3.19
		c1.1-1.01,1.82-2.59,1.82-4.37c0-3.03-2.06-5.5-4.6-5.5c-2.54,0-4.6,2.47-4.6,5.5c0,1.51,0.51,2.89,1.35,3.88
		c-4.53,1.21-7.91,5.23-8.12,10.15l-0.42,9.83c-0.03,0.61,0.19,1.21,0.62,1.66c0.43,0.44,1,0.68,1.67,0.68
		c0.94,0,1.77-0.5,2.21-1.26V63.2h2V39.8c0-0.52-0.4-0.96-0.92-1c-0.53-0.04-0.99,0.32-1.07,0.84l-1.67,10.37
		c-0.04,0.28-0.28,0.49-0.62,0.49c-0.08,0-0.13-0.04-0.16-0.07c-0.04-0.04-0.07-0.11-0.06-0.17l0.42-9.84
		c0.21-4.83,4.15-8.62,8.97-8.62c1.81,0,3.42,1.1,4.09,2.8l4.25,10.75c-0.34,0.36-0.63,0.76-0.88,1.19
		c-0.14-0.13-0.27-0.29-0.37-0.46l-3.1-5.83c-0.21-0.41-0.68-0.61-1.12-0.5c-0.45,0.11-0.76,0.51-0.76,0.97v22.5h2V44.72l1.22,2.3
		c0.34,0.61,0.82,1.1,1.4,1.45c-0.08,0.4-0.12,0.81-0.12,1.24v7.2h2v-7.2c0-2.43,1.97-4.4,4.4-4.4s4.4,1.97,4.4,4.4v7.2h2v-7.2
		c0-0.29-0.03-0.58-0.07-0.86c0.94-0.31,1.75-0.95,2.21-1.83l0.37-0.68L48.71,55c-0.03,0.28,0.06,0.56,0.25,0.77
		s0.46,0.33,0.74,0.33h1.76v7.1h2v-7.1h1.6v7.1h2v-7.1h1.54v7.1h2v-7.1h1.7c0.28,0,0.55-0.12,0.74-0.33s0.28-0.49,0.25-0.77
		l-0.91-8.67L62.75,47c0.51,0.95,1.4,1.65,2.43,1.92c0.32,0.09,0.65,0.13,0.98,0.13c0.72,0,1.44-0.2,2.07-0.6
		C68.64,48.2,68.81,47.68,68.63,47.24z M28.1,22.8c1.43,0,2.6,1.57,2.6,3.5c0,1.93-1.17,3.5-2.6,3.5s-2.6-1.57-2.6-3.5
		C25.5,24.37,26.67,22.8,28.1,22.8z M54.26,22.8c1.43,0,2.6,1.57,2.6,3.5c0,1.93-1.17,3.5-2.6,3.5s-2.6-1.57-2.6-3.5
		C51.66,24.37,52.82,22.8,54.26,22.8z M65.69,46.99c-0.5-0.13-0.93-0.46-1.18-0.93l-2.67-4.9l-0.34-3.26l-1.99,0.21l1.68,16H50.81
		l1.68-16l-1.99-0.21l-0.34,3.26l-2.68,4.91c-0.22,0.41-0.58,0.71-1.03,0.87c-0.14-0.29-0.3-0.58-0.49-0.85l4.51-11.49
		c0.66-1.7,2.25-2.79,4.05-2.79h2.03c1.66,0,4.63,1.8,5.7,4.77l4.13,10.47C66.16,47.06,65.92,47.05,65.69,46.99z"/>
</g>
</svg>
