<?xml version="1.0" encoding="utf-8"?>
<!-- Generator: Adobe Illustrator 23.0.0, SVG Export Plug-In . SVG Version: 6.00 Build 0)  -->
<svg version="1.1" id="Layer_1" xmlns="http://www.w3.org/2000/svg" xmlns:xlink="http://www.w3.org/1999/xlink" x="0px" y="0px"
	 viewBox="0 0 85 85" style="enable-background:new 0 0 85 85;" xml:space="preserve">
<style type="text/css">
	.st0{fill:#1AB1DD;}
	.st1{fill:#FFFFFF;}
	.st2{fill:#2E3192;}
	.st3{fill:#E5364F;}
	.st4{fill:#E6E7E8;}
	.st5{fill:#F26456;}
	.st6{clip-path:url(#XMLID_36_);fill:#C5E7EA;}
	.st7{fill:#005D8A;}
	.st8{fill:#89A3A3;}
	.st9{fill:#728E8D;}
	.st10{fill:#F4F6F7;}
	.st11{fill:#086F99;}
	.st12{clip-path:url(#XMLID_37_);fill:#DDE5E3;}
	.st13{fill:#F04E54;}
	.st14{fill:#CCCBCA;}
	.st15{fill:#48C3DB;}
	.st16{fill:#04A58C;}
	.st17{fill:#4E4F4F;}
	.st18{fill:#747932;}
	.st19{fill:#8DC63F;}
	.st20{fill:#8153A2;}
	.st21{fill:#D1D3D4;}
	.st22{fill:#F1F2F2;}
	.st23{fill:#FFD086;}
	.st24{fill:#FBB040;}
	.st25{fill:#EE348B;}
	.st26{fill:#C49A6C;}
	.st27{fill:#C3812A;}
	.st28{fill:#DF3D88;}
	.st29{fill:#F4CC2C;}
	.st30{fill:#F8C31D;}
	.st31{opacity:0.28;}
	.st32{fill:#26BCB3;}
	.st33{fill:#16467D;}
	.st34{fill:#1C4076;}
	.st35{fill:#C0E6EB;}
	.st36{fill:#6D7187;}
	.st37{fill:#5F6276;}
	.st38{fill:#3C3F54;}
	.st39{fill:#FCC015;}
	.st40{fill:#434343;}
	.st41{opacity:0.15;fill:#FFFFFF;}
	.st42{fill:#424242;}
	.st43{fill:none;stroke:#434343;stroke-width:2;stroke-linecap:round;stroke-linejoin:round;stroke-miterlimit:10;}
	.st44{fill:none;stroke:#FFFFFF;stroke-width:2;stroke-linecap:round;stroke-linejoin:round;stroke-miterlimit:10;}
	.st45{fill:#FFFFFF;stroke:#FFFFFF;stroke-width:2;stroke-linecap:round;stroke-linejoin:round;stroke-miterlimit:10;}
</style>
<ellipse id="XMLID_43_" transform="matrix(0.9999 -0.0168 0.0168 0.9999 -0.708 0.72)" class="st15" cx="42.5" cy="42.5" rx="42.5" ry="42.5"/>
<g>
	<path class="st1" d="M71.46,48.21l-1.56-5.95c0.15-0.1,0.29-0.23,0.42-0.36c1.05-1.11,1.01-2.86-0.1-3.91
		c-0.31-0.3-0.68-0.5-1.06-0.62c-0.3-1.87-0.96-4.46-2.38-6.49l2.12-0.63v-1.68l-10.51-3.13l-4.7-1.4l-12.47-3.71l-12.47,3.71
		l-4.7,1.4l-10.51,3.13v1.68l10.51,3.12l1.37,0.41l1.37,0.41v5.52h28.86v-5.52l1.37-0.41l1.37-0.41l6.14-1.83
		c1.46,1.65,2.13,4.2,2.44,6.04c-0.24,0.13-0.47,0.29-0.67,0.5c-1.05,1.11-1.01,2.86,0.1,3.91c0.1,0.1,0.22,0.18,0.33,0.25
		l-1.57,5.96H71.46L71.46,48.21z M59.32,52.73H44.88c0.66-0.84,1.11-2.44,1.12-4.28c0.01-1.85-0.43-3.47-1.09-4.32h14.45
		c1.04,0.01,1.88,1.95,1.87,4.32C61.21,50.82,60.36,52.73,59.32,52.73L59.32,52.73z M37.84,52.73H23.8
		c0.64-1.03,1.02-2.51,1.03-4.28c0.01-1.78-0.37-3.29-1.01-4.33h14.04c0.66,0.85,1.1,2.47,1.09,4.32
		C38.95,50.29,38.5,51.89,37.84,52.73L37.84,52.73z M21.41,52.73L21.41,52.73c-1.05-0.01-1.89-1.95-1.88-4.32
		c0.01-2.37,0.86-4.29,1.9-4.29h0.01c1.04,0.01,1.88,1.95,1.87,4.32C23.29,50.82,22.45,52.73,21.41,52.73L21.41,52.73z M59.37,42.59
		H21.43c-1.5,0-2.67,1.34-3.17,3.46c-0.17,0.7-0.26,1.5-0.26,2.35c-0.02,3.43,1.37,5.84,3.39,5.86h16.19l-3.73,8.07l3.32-0.3
		l1.75,2.65l2.23-4.83l2.23,4.83l1.75-2.65l3.32,0.3l-3.73-8.07h14.58c2.01,0,3.42-2.39,3.44-5.81
		C62.77,45.02,61.38,42.61,59.37,42.59L59.37,42.59z M21.15,46.47L21.15,46.47c-0.47,0-0.86,0.87-0.87,1.94
		c-0.01,1.08,0.37,1.96,0.85,1.97h0c0.47,0,0.86-0.87,0.86-1.95C22.01,47.36,21.63,46.48,21.15,46.47L21.15,46.47z"/>
</g>
</svg>
