<?xml version="1.0" encoding="utf-8"?>
<!-- Generator: Adobe Illustrator 23.0.0, SVG Export Plug-In . SVG Version: 6.00 Build 0)  -->
<svg version="1.1" id="Layer_1" xmlns="http://www.w3.org/2000/svg" xmlns:xlink="http://www.w3.org/1999/xlink" x="0px" y="0px"
	 viewBox="0 0 85 85" style="enable-background:new 0 0 85 85;" xml:space="preserve">
<style type="text/css">
	.st0{fill:#1AB1DD;}
	.st1{fill:#FFFFFF;}
	.st2{fill:#2E3192;}
	.st3{fill:#E5364F;}
	.st4{fill:#E6E7E8;}
	.st5{fill:#F26456;}
	.st6{clip-path:url(#XMLID_36_);fill:#C5E7EA;}
	.st7{fill:#005D8A;}
	.st8{fill:#89A3A3;}
	.st9{fill:#728E8D;}
	.st10{fill:#F4F6F7;}
	.st11{fill:#086F99;}
	.st12{clip-path:url(#XMLID_37_);fill:#DDE5E3;}
	.st13{fill:#F04E54;}
	.st14{fill:#CCCBCA;}
	.st15{fill:#48C3DB;}
	.st16{fill:#04A58C;}
	.st17{fill:#4E4F4F;}
	.st18{fill:#747932;}
	.st19{fill:#8DC63F;}
	.st20{fill:#8153A2;}
	.st21{fill:#D1D3D4;}
	.st22{fill:#F1F2F2;}
	.st23{fill:#FFD086;}
	.st24{fill:#FBB040;}
	.st25{fill:#EE348B;}
	.st26{fill:#C49A6C;}
	.st27{fill:#C3812A;}
	.st28{fill:#DF3D88;}
	.st29{fill:#F4CC2C;}
	.st30{fill:#F8C31D;}
	.st31{opacity:0.28;}
	.st32{fill:#26BCB3;}
	.st33{fill:#16467D;}
	.st34{fill:#1C4076;}
	.st35{fill:#C0E6EB;}
	.st36{fill:#6D7187;}
	.st37{fill:#5F6276;}
	.st38{fill:#3C3F54;}
	.st39{fill:#FCC015;}
	.st40{fill:#434343;}
	.st41{opacity:0.15;fill:#FFFFFF;}
	.st42{fill:#424242;}
	.st43{fill:none;stroke:#434343;stroke-width:2;stroke-linecap:round;stroke-linejoin:round;stroke-miterlimit:10;}
	.st44{fill:none;stroke:#FFFFFF;stroke-width:2;stroke-linecap:round;stroke-linejoin:round;stroke-miterlimit:10;}
	.st45{fill:#FFFFFF;stroke:#FFFFFF;stroke-width:2;stroke-linecap:round;stroke-linejoin:round;stroke-miterlimit:10;}
</style>
<ellipse id="XMLID_41_" class="st15" cx="42.5" cy="42.51" rx="42.5" ry="42.49"/>
<g>
	<path class="st1" d="M64.73,43.97c-0.23,0-0.45,0.04-0.66,0.09c-0.05-1.42-1.21-2.56-2.64-2.56c-0.28,0-0.55,0.06-0.8,0.14
		c-0.36-1.03-1.33-1.78-2.49-1.78c-1.43,0-2.59,1.14-2.64,2.56c-0.21-0.05-0.43-0.09-0.66-0.09c-1.46,0-2.65,1.19-2.65,2.65v7.88
		l-1-1.24c-0.02-0.03-0.04-0.05-0.06-0.08c-0.51-0.62-1.26-0.98-2.06-0.98c-1.46,0-2.65,1.19-2.65,2.65c0,0.47,0.12,0.93,0.36,1.33
		c0.02,0.03,0.04,0.07,0.06,0.1l4.13,6.48c0.41,0.64,0.88,1.23,1.41,1.76c0.94,0.94,1.45,2.18,1.45,3.51c0,0.55,0.45,1,1,1
		s1-0.45,1-1c0-1.86-0.72-3.61-2.04-4.92c-0.43-0.43-0.81-0.9-1.14-1.42l-4.14-6.49c0-0.01-0.01-0.02-0.01-0.03
		c-0.06-0.1-0.08-0.2-0.08-0.32c0-0.35,0.3-0.65,0.65-0.65c0.18,0,0.35,0.07,0.47,0.2c0.01,0.01,0.02,0.03,0.03,0.04l2.61,3.23v0.47
		c0,0.55,0.45,1,1,1s1-0.45,1-1V44.97c0-0.36,0.29-0.65,0.65-0.65c0.36,0,0.65,0.29,0.65,0.65v7.41c0,0.55,0.45,1,1,1s1-0.45,1-1
		V42.5c0-0.36,0.29-0.65,0.65-0.65c0.36,0,0.65,0.29,0.65,0.65v9.88c0,0.55,0.45,1,1,1s1-0.45,1-1v-8.23c0-0.36,0.29-0.65,0.65-0.65
		s0.65,0.29,0.65,0.65v8.23c0,0.55,0.45,1,1,1s1-0.45,1-1v-5.76c0-0.36,0.29-0.65,0.65-0.65c0.36,0,0.65,0.29,0.65,0.65v10.55
		c0,1.07-0.2,2.11-0.6,3.1l-0.31,0.78c-0.49,1.23-0.74,2.52-0.74,3.84v1.49c0,0.55,0.45,1,1,1s1-0.45,1-1v-1.49
		c0-1.07,0.2-2.11,0.6-3.1l0.31-0.78c0.49-1.23,0.74-2.52,0.74-3.84V46.62C67.38,45.16,66.19,43.97,64.73,43.97z"/>
	<path class="st1" d="M66.38,29.15c-1.86,0-3.61,0.72-4.92,2.04c-0.43,0.43-0.91,0.81-1.42,1.14l-6.49,4.14
		c-0.01,0-0.02,0.01-0.03,0.01c-0.39,0.23-0.96-0.1-0.96-0.56c0-0.18,0.07-0.35,0.2-0.47c0.01-0.01,0.03-0.02,0.04-0.03l3.23-2.61
		h0.47c0.55,0,1-0.45,1-1s-0.45-1-1-1H44.97c-0.36,0-0.65-0.29-0.65-0.65c0-0.36,0.29-0.65,0.65-0.65h7.41c0.55,0,1-0.45,1-1
		s-0.45-1-1-1H42.5c-0.36,0-0.65-0.29-0.65-0.65c0-0.36,0.29-0.65,0.65-0.65h9.88c0.55,0,1-0.45,1-1s-0.45-1-1-1h-8.23
		c-0.36,0-0.65-0.29-0.65-0.65s0.29-0.65,0.65-0.65h8.23c0.55,0,1-0.45,1-1s-0.45-1-1-1h-5.76c-0.36,0-0.65-0.29-0.65-0.65
		c0-0.36,0.29-0.65,0.65-0.65h10.55c1.07,0,2.11,0.2,3.1,0.6l0.78,0.31c1.23,0.49,2.52,0.74,3.84,0.74h1.49c0.55,0,1-0.45,1-1
		s-0.45-1-1-1h-1.49c-1.07,0-2.11-0.2-3.1-0.6l-0.78-0.31c-1.23-0.49-2.52-0.74-3.84-0.74H46.62c-1.46,0-2.65,1.19-2.65,2.65
		c0,0.23,0.04,0.45,0.09,0.66c-1.42,0.05-2.56,1.21-2.56,2.64c0,0.28,0.06,0.55,0.14,0.8c-1.03,0.36-1.78,1.33-1.78,2.49
		c0,1.43,1.14,2.59,2.56,2.64c-0.05,0.21-0.09,0.43-0.09,0.66c0,1.46,1.19,2.65,2.65,2.65h7.88l-1.24,1
		c-0.03,0.02-0.05,0.04-0.08,0.06c-0.62,0.51-0.98,1.26-0.98,2.06c0,1.46,1.19,2.65,2.65,2.65c0.47,0,0.93-0.12,1.33-0.36
		c0.03-0.02,0.07-0.04,0.1-0.06l6.48-4.13c0.63-0.4,1.23-0.88,1.76-1.41c0.94-0.94,2.18-1.45,3.51-1.45c0.55,0,1-0.45,1-1
		S66.93,29.15,66.38,29.15z"/>
	<path class="st1" d="M20.27,41.03c0.23,0,0.45-0.04,0.66-0.09c0.05,1.42,1.21,2.56,2.64,2.56c0.28,0,0.55-0.06,0.8-0.14
		c0.36,1.03,1.33,1.78,2.49,1.78c1.43,0,2.59-1.14,2.64-2.56c0.21,0.05,0.43,0.09,0.66,0.09c1.46,0,2.65-1.19,2.65-2.65v-7.88
		l1,1.24c0.02,0.03,0.04,0.05,0.06,0.08c0.51,0.62,1.26,0.98,2.06,0.98c1.46,0,2.65-1.19,2.65-2.65c0-0.47-0.12-0.93-0.36-1.33
		c-0.02-0.03-0.04-0.07-0.06-0.1l-4.13-6.48c-0.41-0.64-0.88-1.23-1.41-1.76c-0.94-0.94-1.45-2.18-1.45-3.51c0-0.55-0.45-1-1-1
		s-1,0.45-1,1c0,1.86,0.72,3.61,2.04,4.92c0.43,0.43,0.81,0.9,1.14,1.42l4.14,6.49c0,0.01,0.01,0.02,0.01,0.03
		c0.06,0.1,0.08,0.2,0.08,0.32c0,0.35-0.3,0.65-0.65,0.65c-0.18,0-0.35-0.07-0.47-0.2c-0.01-0.01-0.02-0.03-0.03-0.04l-2.61-3.23
		V28.5c0-0.55-0.45-1-1-1s-1,0.45-1,1v11.53c0,0.36-0.29,0.65-0.65,0.65c-0.36,0-0.65-0.29-0.65-0.65v-7.41c0-0.55-0.45-1-1-1
		s-1,0.45-1,1v9.88c0,0.36-0.29,0.65-0.65,0.65c-0.36,0-0.65-0.29-0.65-0.65v-9.88c0-0.55-0.45-1-1-1s-1,0.45-1,1v8.23
		c0,0.36-0.29,0.65-0.65,0.65s-0.65-0.29-0.65-0.65v-8.23c0-0.55-0.45-1-1-1s-1,0.45-1,1v5.76c0,0.36-0.29,0.65-0.65,0.65
		c-0.36,0-0.65-0.29-0.65-0.65V27.83c0-1.07,0.2-2.11,0.6-3.1l0.31-0.78c0.49-1.23,0.74-2.52,0.74-3.84v-1.49c0-0.55-0.45-1-1-1
		s-1,0.45-1,1v1.49c0,1.07-0.2,2.11-0.6,3.1l-0.31,0.78c-0.49,1.23-0.74,2.52-0.74,3.84v10.55C17.62,39.84,18.81,41.03,20.27,41.03z
		"/>
	<path class="st1" d="M42.58,55.51c0.05-0.21,0.09-0.43,0.09-0.66c0-1.46-1.19-2.65-2.65-2.65h-7.88l1.24-1
		c0.03-0.02,0.05-0.04,0.08-0.06c0.62-0.51,0.98-1.26,0.98-2.06c0-1.46-1.19-2.65-2.65-2.65c-0.47,0-0.93,0.12-1.33,0.36
		c-0.03,0.02-0.07,0.04-0.1,0.06l-6.48,4.13c-0.63,0.4-1.22,0.88-1.76,1.41c-0.94,0.94-2.18,1.45-3.51,1.45c-0.55,0-1,0.45-1,1
		s0.45,1,1,1c1.86,0,3.61-0.72,4.92-2.04c0.43-0.43,0.91-0.81,1.42-1.14l6.49-4.14c0.01,0,0.02-0.01,0.03-0.01
		c0.39-0.22,0.96,0.1,0.96,0.56c0,0.18-0.07,0.35-0.2,0.47c-0.01,0.01-0.03,0.02-0.04,0.03l-3.23,2.61H28.5c-0.55,0-1,0.45-1,1
		s0.45,1,1,1h11.53c0.36,0,0.65,0.29,0.65,0.65c0,0.36-0.29,0.65-0.65,0.65h-7.41c-0.55,0-1,0.45-1,1s0.45,1,1,1h9.88
		c0.36,0,0.65,0.29,0.65,0.65c0,0.36-0.29,0.65-0.65,0.65h-9.88c-0.55,0-1,0.45-1,1s0.45,1,1,1h8.23c0.36,0,0.65,0.29,0.65,0.65
		s-0.29,0.65-0.65,0.65h-8.23c-0.55,0-1,0.45-1,1s0.45,1,1,1h5.76c0.36,0,0.65,0.29,0.65,0.65c0,0.36-0.29,0.65-0.65,0.65H27.83
		c-1.07,0-2.11-0.2-3.1-0.6l-0.78-0.31c-1.23-0.49-2.52-0.74-3.84-0.74h-1.49c-0.55,0-1,0.45-1,1s0.45,1,1,1h1.49
		c1.07,0,2.11,0.2,3.1,0.6l0.78,0.31c1.23,0.49,2.52,0.74,3.84,0.74h10.55c1.46,0,2.65-1.19,2.65-2.65c0-0.23-0.04-0.45-0.09-0.66
		c1.42-0.05,2.56-1.21,2.56-2.64c0-0.28-0.06-0.55-0.14-0.8c1.03-0.36,1.78-1.33,1.78-2.49C45.15,56.71,44,55.55,42.58,55.51z"/>
</g>
</svg>
