<?xml version="1.0" encoding="utf-8"?>
<!-- Generator: Adobe Illustrator 23.0.0, SVG Export Plug-In . SVG Version: 6.00 Build 0)  -->
<svg version="1.1" id="Layer_1" xmlns="http://www.w3.org/2000/svg" xmlns:xlink="http://www.w3.org/1999/xlink" x="0px" y="0px"
	 viewBox="0 0 85 85" style="enable-background:new 0 0 85 85;" xml:space="preserve">
<style type="text/css">
	.st0{fill:#1AB1DD;}
	.st1{fill:#FFFFFF;}
	.st2{fill:#2E3192;}
	.st3{fill:#E5364F;}
	.st4{fill:#E6E7E8;}
	.st5{fill:#F26456;}
	.st6{clip-path:url(#XMLID_36_);fill:#C5E7EA;}
	.st7{fill:#005D8A;}
	.st8{fill:#89A3A3;}
	.st9{fill:#728E8D;}
	.st10{fill:#F4F6F7;}
	.st11{fill:#086F99;}
	.st12{clip-path:url(#XMLID_37_);fill:#DDE5E3;}
	.st13{fill:#F04E54;}
	.st14{fill:#CCCBCA;}
	.st15{fill:#48C3DB;}
	.st16{fill:#04A58C;}
	.st17{fill:#4E4F4F;}
	.st18{fill:#747932;}
	.st19{fill:#8DC63F;}
	.st20{fill:#8153A2;}
	.st21{fill:#D1D3D4;}
	.st22{fill:#F1F2F2;}
	.st23{fill:#FFD086;}
	.st24{fill:#FBB040;}
	.st25{fill:#EE348B;}
	.st26{fill:#C49A6C;}
	.st27{fill:#C3812A;}
	.st28{fill:#DF3D88;}
	.st29{fill:#F4CC2C;}
	.st30{fill:#F8C31D;}
	.st31{opacity:0.28;}
	.st32{fill:#26BCB3;}
	.st33{fill:#16467D;}
	.st34{fill:#1C4076;}
	.st35{fill:#C0E6EB;}
	.st36{fill:#6D7187;}
	.st37{fill:#5F6276;}
	.st38{fill:#3C3F54;}
	.st39{fill:#FCC015;}
	.st40{fill:#434343;}
	.st41{opacity:0.15;fill:#FFFFFF;}
	.st42{fill:#424242;}
	.st43{fill:none;stroke:#434343;stroke-width:2;stroke-linecap:round;stroke-linejoin:round;stroke-miterlimit:10;}
	.st44{fill:none;stroke:#FFFFFF;stroke-width:2;stroke-linecap:round;stroke-linejoin:round;stroke-miterlimit:10;}
	.st45{fill:#FFFFFF;stroke:#FFFFFF;stroke-width:2;stroke-linecap:round;stroke-linejoin:round;stroke-miterlimit:10;}
</style>
<path id="XMLID_42_" class="st15" d="M85.01,42.51c0,3.24-0.36,6.4-1.05,9.43c-3.34,14.73-14.33,26.55-28.57,31.07
	C51.33,84.31,46.99,85,42.5,85C19.03,85-0.01,65.98-0.01,42.51C-0.01,19.03,19.03,0,42.5,0C65.97,0,85.01,19.03,85.01,42.51z"/>
<path class="st44" d="M44.09,63.15v-2.38c0-1.24-0.79-2.83-0.79-6.36c0-2.33,4.49-5.83,4.49-5.83l4.25-2.9
	c2.83-3.43,1.99-4.77,6.36-4.77c0,0-0.53,3.14-1.59,5.56c0,0-2.48,2.38-3.97,3.97"/>
<path class="st44" d="M58.39,40.91v-1.59c0,0-0.79-7.2,3.18-7.2l0.79,7.15c0,0-0.79,7.69-0.79,8.79c0,1.59-8.74,7.12-8.74,11.12
	v3.97"/>
<path class="st44" d="M40.91,63.15v-2.38c0-1.24,0.79-2.83,0.79-6.36c0-2.33-4.49-5.83-4.49-5.83l-4.25-2.9
	c-2.83-3.43-1.99-4.77-6.36-4.77c0,0,0.53,3.14,1.59,5.56c0,0,2.48,2.38,3.97,3.97"/>
<path class="st44" d="M26.61,40.91v-1.59c0,0,0.79-7.2-3.18-7.2l-0.79,7.15c0,0,0.79,7.69,0.79,8.79c0,1.59,8.74,7.12,8.74,11.12
	v3.97"/>
<path class="st45" d="M42.5,29.43c1.15-3.43,4.06-7.58,7.94-7.58c3.22,0,6.36,2.62,6.36,7.04c0,4.92-5.83,12.14-14.3,16.79
	c-8.47-4.65-14.3-11.87-14.3-16.79c0-4.42,3.13-7.04,6.36-7.04C38.44,21.85,41.35,26,42.5,29.43z"/>
</svg>
