<?xml version="1.0" encoding="utf-8"?>
<!-- Generator: Adobe Illustrator 23.0.0, SVG Export Plug-In . SVG Version: 6.00 Build 0)  -->
<svg version="1.1" id="Layer_1" xmlns="http://www.w3.org/2000/svg" xmlns:xlink="http://www.w3.org/1999/xlink" x="0px" y="0px"
	 viewBox="0 0 85 85" style="enable-background:new 0 0 85 85;" xml:space="preserve">
<style type="text/css">
	.st0{fill:#F04E54;}
	.st1{fill:#E5364F;}
	.st2{fill:#48C3DB;}
	.st3{fill:#1AB1DD;}
	.st4{fill:#FFFFFF;}
	.st5{fill:#2E3192;}
	.st6{fill:#E6E7E8;}
	.st7{fill:#F26456;}
	.st8{clip-path:url(#XMLID_93_);fill:#C5E7EA;}
	.st9{fill:#005D8A;}
	.st10{fill:#89A3A3;}
	.st11{fill:#728E8D;}
	.st12{fill:#F4F6F7;}
	.st13{fill:#086F99;}
	.st14{clip-path:url(#XMLID_94_);fill:#DDE5E3;}
	.st15{fill:#CCCBCA;}
	.st16{fill:#04A58C;}
	.st17{fill:#4E4F4F;}
	.st18{fill:#747932;}
	.st19{fill:#8DC63F;}
	.st20{fill:#8153A2;}
	.st21{fill:#D1D3D4;}
	.st22{fill:#F1F2F2;}
	.st23{fill:#FFD086;}
	.st24{fill:#FBB040;}
	.st25{fill:#EE348B;}
	.st26{fill:#C49A6C;}
	.st27{fill:#C3812A;}
	.st28{fill:#DF3D88;}
	.st29{fill:#F4CC2C;}
	.st30{fill:#F8C31D;}
	.st31{fill:none;stroke:#FFFFFF;stroke-width:2;stroke-linecap:round;stroke-linejoin:round;stroke-miterlimit:10;}
	.st32{fill:#FFFFFF;stroke:#FFFFFF;stroke-width:2;stroke-linecap:round;stroke-linejoin:round;stroke-miterlimit:10;}
	.st33{fill:#FFFFFF;stroke:#E5364F;stroke-width:2;stroke-miterlimit:10;}
	.st34{clip-path:url(#XMLID_95_);fill:#C5E7EA;}
	.st35{clip-path:url(#XMLID_96_);fill:#F26456;}
	.st36{clip-path:url(#XMLID_97_);fill:#747932;}
	.st37{clip-path:url(#XMLID_98_);fill:#C5E7EA;}
	.st38{clip-path:url(#XMLID_99_);fill:#C5E7EA;}
	.st39{clip-path:url(#XMLID_100_);fill:#747932;}
	.st40{clip-path:url(#XMLID_101_);fill:#747932;}
	.st41{clip-path:url(#XMLID_163_);fill:#F26456;}
	.st42{clip-path:url(#XMLID_164_);fill:#1AB1DD;}
	.st43{clip-path:url(#XMLID_165_);fill:#F26456;}
	.st44{clip-path:url(#XMLID_166_);fill:#1AB1DD;}
	.st45{clip-path:url(#XMLID_167_);fill:#F26456;}
	.st46{clip-path:url(#XMLID_168_);fill:#F26456;}
	.st47{clip-path:url(#XMLID_169_);fill:#1AB1DD;}
	.st48{clip-path:url(#XMLID_170_);fill:#1AB1DD;}
	.st49{clip-path:url(#XMLID_171_);fill:#1AB1DD;}
	.st50{clip-path:url(#XMLID_172_);fill:#1AB1DD;}
	.st51{clip-path:url(#XMLID_173_);fill:#1AB1DD;}
	.st52{clip-path:url(#XMLID_174_);fill:#1AB1DD;}
	.st53{clip-path:url(#XMLID_175_);fill:#04A58C;}
	.st54{clip-path:url(#XMLID_176_);fill:#04A58C;}
	.st55{clip-path:url(#XMLID_177_);fill:#04A58C;}
	.st56{clip-path:url(#XMLID_178_);fill:#04A58C;}
	.st57{clip-path:url(#XMLID_179_);fill:#04A58C;}
	.st58{clip-path:url(#XMLID_180_);fill:#8153A2;}
	.st59{clip-path:url(#XMLID_181_);fill:#8153A2;}
	.st60{fill-rule:evenodd;clip-rule:evenodd;fill:#FFFFFF;}
</style>
<g id="XMLID_66_">
	<defs>
		<path id="XMLID_67_" d="M85,42.5C85,65.97,65.97,85,42.5,85C19.03,85,0,65.97,0,42.5C0,19.03,19.03,0,42.5,0
			C65.97,0,85,19.03,85,42.5z"/>
	</defs>
	<use xlink:href="#XMLID_67_"  style="overflow:visible;fill:#747932;"/>
	<clipPath id="XMLID_92_">
		<use xlink:href="#XMLID_67_"  style="overflow:visible;"/>
	</clipPath>
	<path id="XMLID_71_" style="clip-path:url(#XMLID_92_);fill:#747932;" d="M85,42.67c0,23.47-19.03,42.5-42.5,42.5
		C19.03,85.17,0,66.14,0,42.67s19.03-42.5,42.5-42.5C65.97,0.17,85,19.2,85,42.67z"/>
</g>
<g>
	<path class="st60" d="M25.48,42.57l1.85-6.86c0.07-0.26,0.31-0.44,0.57-0.42c0.27,0.01,0.49,0.21,0.54,0.47l2.24,12.41l1.47-5.18
		c0.07-0.25,0.29-0.41,0.55-0.41h4.52l1.69-8.95c0.05-0.27,0.29-0.46,0.56-0.46h0c0.27,0,0.51,0.19,0.56,0.46l2.63,13.77l3.39-10.1
		c0.08-0.23,0.3-0.39,0.54-0.39c0,0,0.01,0,0.01,0c0.25,0.01,0.47,0.17,0.54,0.41l2.64,9.2l1.93-3.64c0.1-0.19,0.29-0.3,0.5-0.3
		h2.66l2.77-6.92c0.09-0.22,0.31-0.35,0.54-0.36c0.24,0.01,0.45,0.16,0.53,0.39l2.36,6.89h3.96v0.57
		c4.45-11.67-3.1-20.89-11.29-21.02h-0.07c-3.97,0-8.16,2.13-11.17,7.05c-3.01-4.92-7.13-7.05-11.1-7.05h-0.07
		c-8.11,0.14-15.56,9.06-11.57,20.45H25.48z"/>
	<path class="st60" d="M60.66,43.71c-0.24,0-0.46-0.15-0.54-0.39l-2-5.83l-2.34,5.85c-0.09,0.22-0.3,0.36-0.53,0.36h-2.7l-2.44,4.58
		c-0.11,0.2-0.33,0.32-0.56,0.3c-0.23-0.02-0.42-0.19-0.49-0.41l-2.52-8.8l-3.5,10.43c-0.08,0.25-0.33,0.4-0.58,0.39
		c-0.26-0.02-0.47-0.21-0.52-0.46l-2.48-12.96l-1.22,6.47c-0.05,0.27-0.29,0.46-0.56,0.46h-4.56l-2.02,7.14
		c-0.07,0.25-0.29,0.41-0.55,0.41c-0.01,0-0.02,0-0.03,0c-0.27-0.01-0.49-0.21-0.53-0.47l-2.22-12.34l-1.3,4.82
		c-0.07,0.25-0.29,0.42-0.55,0.42h-5.73c2.76,6.7,9.5,14.17,22.31,21.17c12.81-7,19.55-14.47,22.31-21.17H60.66z"/>
</g>
</svg>
