<?xml version="1.0" encoding="utf-8"?>
<!-- Generator: Adobe Illustrator 23.0.0, SVG Export Plug-In . SVG Version: 6.00 Build 0)  -->
<svg version="1.1" id="Layer_1" xmlns="http://www.w3.org/2000/svg" xmlns:xlink="http://www.w3.org/1999/xlink" x="0px" y="0px"
	 viewBox="0 0 85 85" style="enable-background:new 0 0 85 85;" xml:space="preserve">
<style type="text/css">
	.st0{fill:#F04E54;}
	.st1{fill:#E5364F;}
	.st2{fill:#48C3DB;}
	.st3{fill:#1AB1DD;}
	.st4{fill:#FFFFFF;}
	.st5{fill:#2E3192;}
	.st6{fill:#E6E7E8;}
	.st7{fill:#F26456;}
	.st8{clip-path:url(#XMLID_93_);fill:#C5E7EA;}
	.st9{fill:#005D8A;}
	.st10{fill:#89A3A3;}
	.st11{fill:#728E8D;}
	.st12{fill:#F4F6F7;}
	.st13{fill:#086F99;}
	.st14{clip-path:url(#XMLID_94_);fill:#DDE5E3;}
	.st15{fill:#CCCBCA;}
	.st16{fill:#04A58C;}
	.st17{fill:#4E4F4F;}
	.st18{fill:#747932;}
	.st19{fill:#8DC63F;}
	.st20{fill:#8153A2;}
	.st21{fill:#D1D3D4;}
	.st22{fill:#F1F2F2;}
	.st23{fill:#FFD086;}
	.st24{fill:#FBB040;}
	.st25{fill:#EE348B;}
	.st26{fill:#C49A6C;}
	.st27{fill:#C3812A;}
	.st28{fill:#DF3D88;}
	.st29{fill:#F4CC2C;}
	.st30{fill:#F8C31D;}
	.st31{fill:none;stroke:#FFFFFF;stroke-width:2;stroke-linecap:round;stroke-linejoin:round;stroke-miterlimit:10;}
	.st32{fill:#FFFFFF;stroke:#FFFFFF;stroke-width:2;stroke-linecap:round;stroke-linejoin:round;stroke-miterlimit:10;}
	.st33{fill:#FFFFFF;stroke:#E5364F;stroke-width:2;stroke-miterlimit:10;}
	.st34{clip-path:url(#XMLID_95_);fill:#C5E7EA;}
	.st35{clip-path:url(#XMLID_96_);fill:#F26456;}
	.st36{clip-path:url(#XMLID_97_);fill:#747932;}
	.st37{clip-path:url(#XMLID_98_);fill:#C5E7EA;}
	.st38{clip-path:url(#XMLID_99_);fill:#C5E7EA;}
	.st39{clip-path:url(#XMLID_100_);fill:#747932;}
	.st40{clip-path:url(#XMLID_101_);fill:#747932;}
	.st41{clip-path:url(#XMLID_163_);fill:#F26456;}
	.st42{clip-path:url(#XMLID_164_);fill:#1AB1DD;}
	.st43{clip-path:url(#XMLID_165_);fill:#F26456;}
	.st44{clip-path:url(#XMLID_166_);fill:#1AB1DD;}
	.st45{clip-path:url(#XMLID_167_);fill:#F26456;}
	.st46{clip-path:url(#XMLID_168_);fill:#F26456;}
	.st47{clip-path:url(#XMLID_169_);fill:#1AB1DD;}
	.st48{clip-path:url(#XMLID_170_);fill:#1AB1DD;}
	.st49{clip-path:url(#XMLID_171_);fill:#1AB1DD;}
	.st50{clip-path:url(#XMLID_172_);fill:#1AB1DD;}
	.st51{clip-path:url(#XMLID_173_);fill:#1AB1DD;}
	.st52{clip-path:url(#XMLID_174_);fill:#1AB1DD;}
	.st53{clip-path:url(#XMLID_175_);fill:#04A58C;}
	.st54{clip-path:url(#XMLID_176_);fill:#04A58C;}
	.st55{clip-path:url(#XMLID_177_);fill:#04A58C;}
	.st56{clip-path:url(#XMLID_178_);fill:#04A58C;}
	.st57{clip-path:url(#XMLID_179_);fill:#04A58C;}
	.st58{clip-path:url(#XMLID_180_);fill:#8153A2;}
	.st59{clip-path:url(#XMLID_181_);fill:#8153A2;}
	.st60{fill-rule:evenodd;clip-rule:evenodd;fill:#FFFFFF;}
</style>
<g id="XMLID_138_">
	<defs>
		<path id="XMLID_139_" d="M85,42.5C85,65.97,65.97,85,42.5,85C19.03,85,0,65.97,0,42.5C0,19.03,19.03,0,42.5,0
			C65.97,0,85,19.03,85,42.5z"/>
	</defs>
	<use xlink:href="#XMLID_139_"  style="overflow:visible;fill:#747932;"/>
	<clipPath id="XMLID_92_">
		<use xlink:href="#XMLID_139_"  style="overflow:visible;"/>
	</clipPath>
	<path id="XMLID_140_" style="clip-path:url(#XMLID_92_);fill:#747932;" d="M85,42.67c0,23.47-19.03,42.5-42.5,42.5
		C19.03,85.17,0,66.14,0,42.67s19.03-42.5,42.5-42.5C65.97,0.17,85,19.2,85,42.67z"/>
</g>
<g>
	<path class="st4" d="M56.03,44.84c3.22-1,5.3-2.62,5.3-4.45c0-2.29-3.27-4.25-7.93-5.09c2.63-0.84,4.33-2.17,4.33-3.67
		c0-2.53-4.83-4.59-10.78-4.59c-5.95,0-10.78,2.05-10.78,4.59c0,1.73,2.25,3.23,5.57,4.02c-3.8,0.96-6.35,2.73-6.35,4.75
		c0,1.93,2.33,3.63,5.87,4.62c-6.24,1.25-10.56,3.95-10.56,7.08c0,4.32,8.24,7.83,18.4,7.83c10.16,0,18.4-3.51,18.4-7.83
		C67.49,48.81,62.75,46.01,56.03,44.84z M37.77,32.87c-0.14-0.28-0.22-0.57-0.22-0.87c0-2.24,4.26-4.05,9.52-4.05
		c2.75,0,5.22,0.5,6.95,1.29c-1.68-0.52-3.72-0.83-5.93-0.83C42.49,28.41,37.92,30.4,37.77,32.87z M37.31,41.89
		c-0.17-0.34-0.27-0.68-0.27-1.04c0-2.69,5.13-4.88,11.46-4.88c3.31,0,6.28,0.6,8.37,1.55c-2.02-0.63-4.48-1-7.14-1
		C42.99,36.52,37.5,38.91,37.31,41.89z M51.04,46.61c-9.57,0-17.36,3.39-17.62,7.61c-0.24-0.48-0.38-0.97-0.38-1.48
		c0-3.82,7.28-6.92,16.25-6.92c4.69,0,8.9,0.85,11.87,2.2C58.3,47.14,54.81,46.61,51.04,46.61z"/>
	<path class="st4" d="M29.39,25.08c-2.74,9.26,3.2,18.14,3.2,18.14C35.91,33.76,29.39,25.08,29.39,25.08z"/>
	<path class="st4" d="M31.87,44.26c-5.48-7.5-11.61-7.31-11.61-7.31C21.49,43.09,31.87,44.26,31.87,44.26z"/>
	<path class="st4" d="M31.87,45.83c-8.68-3.13-14.35,2.81-14.35,2.81C29.39,50.79,31.87,45.83,31.87,45.83z"/>
</g>
</svg>
