<?xml version="1.0" encoding="utf-8"?>
<!-- Generator: Adobe Illustrator 23.0.0, SVG Export Plug-In . SVG Version: 6.00 Build 0)  -->
<svg version="1.1" id="Layer_1" xmlns="http://www.w3.org/2000/svg" xmlns:xlink="http://www.w3.org/1999/xlink" x="0px" y="0px"
	 viewBox="0 0 85 85" style="enable-background:new 0 0 85 85;" xml:space="preserve">
<style type="text/css">
	.st0{fill:#F04E54;}
	.st1{fill:#E5364F;}
	.st2{fill:#48C3DB;}
	.st3{fill:#1AB1DD;}
	.st4{fill:#FFFFFF;}
	.st5{fill:#2E3192;}
	.st6{fill:#E6E7E8;}
	.st7{fill:#F26456;}
	.st8{clip-path:url(#XMLID_93_);fill:#C5E7EA;}
	.st9{fill:#005D8A;}
	.st10{fill:#89A3A3;}
	.st11{fill:#728E8D;}
	.st12{fill:#F4F6F7;}
	.st13{fill:#086F99;}
	.st14{clip-path:url(#XMLID_94_);fill:#DDE5E3;}
	.st15{fill:#CCCBCA;}
	.st16{fill:#04A58C;}
	.st17{fill:#4E4F4F;}
	.st18{fill:#747932;}
	.st19{fill:#8DC63F;}
	.st20{fill:#8153A2;}
	.st21{fill:#D1D3D4;}
	.st22{fill:#F1F2F2;}
	.st23{fill:#FFD086;}
	.st24{fill:#FBB040;}
	.st25{fill:#EE348B;}
	.st26{fill:#C49A6C;}
	.st27{fill:#C3812A;}
	.st28{fill:#DF3D88;}
	.st29{fill:#F4CC2C;}
	.st30{fill:#F8C31D;}
	.st31{fill:none;stroke:#FFFFFF;stroke-width:2;stroke-linecap:round;stroke-linejoin:round;stroke-miterlimit:10;}
	.st32{fill:#FFFFFF;stroke:#FFFFFF;stroke-width:2;stroke-linecap:round;stroke-linejoin:round;stroke-miterlimit:10;}
	.st33{fill:#FFFFFF;stroke:#E5364F;stroke-width:2;stroke-miterlimit:10;}
	.st34{clip-path:url(#XMLID_95_);fill:#C5E7EA;}
	.st35{clip-path:url(#XMLID_96_);fill:#F26456;}
	.st36{clip-path:url(#XMLID_97_);fill:#747932;}
	.st37{clip-path:url(#XMLID_98_);fill:#C5E7EA;}
	.st38{clip-path:url(#XMLID_99_);fill:#C5E7EA;}
	.st39{clip-path:url(#XMLID_100_);fill:#747932;}
	.st40{clip-path:url(#XMLID_101_);fill:#747932;}
	.st41{clip-path:url(#XMLID_163_);fill:#F26456;}
	.st42{clip-path:url(#XMLID_164_);fill:#1AB1DD;}
	.st43{clip-path:url(#XMLID_165_);fill:#F26456;}
	.st44{clip-path:url(#XMLID_166_);fill:#1AB1DD;}
	.st45{clip-path:url(#XMLID_167_);fill:#F26456;}
	.st46{clip-path:url(#XMLID_168_);fill:#F26456;}
	.st47{clip-path:url(#XMLID_169_);fill:#1AB1DD;}
	.st48{clip-path:url(#XMLID_170_);fill:#1AB1DD;}
	.st49{clip-path:url(#XMLID_171_);fill:#1AB1DD;}
	.st50{clip-path:url(#XMLID_172_);fill:#1AB1DD;}
	.st51{clip-path:url(#XMLID_173_);fill:#1AB1DD;}
	.st52{clip-path:url(#XMLID_174_);fill:#1AB1DD;}
	.st53{clip-path:url(#XMLID_175_);fill:#04A58C;}
	.st54{clip-path:url(#XMLID_176_);fill:#04A58C;}
	.st55{clip-path:url(#XMLID_177_);fill:#04A58C;}
	.st56{clip-path:url(#XMLID_178_);fill:#04A58C;}
	.st57{clip-path:url(#XMLID_179_);fill:#04A58C;}
	.st58{clip-path:url(#XMLID_180_);fill:#8153A2;}
	.st59{clip-path:url(#XMLID_181_);fill:#8153A2;}
	.st60{fill-rule:evenodd;clip-rule:evenodd;fill:#FFFFFF;}
</style>
<g id="XMLID_63_">
	<defs>
		<path id="XMLID_64_" d="M85,42.5C85,65.97,65.97,85,42.5,85C19.03,85,0,65.97,0,42.5C0,19.03,19.03,0,42.5,0
			C65.97,0,85,19.03,85,42.5z"/>
	</defs>
	<use xlink:href="#XMLID_64_"  style="overflow:visible;fill:#747932;"/>
	<clipPath id="XMLID_92_">
		<use xlink:href="#XMLID_64_"  style="overflow:visible;"/>
	</clipPath>
	<path id="XMLID_65_" style="clip-path:url(#XMLID_92_);fill:#747932;" d="M85,42.67c0,23.47-19.03,42.5-42.5,42.5
		C19.03,85.17,0,66.14,0,42.67s19.03-42.5,42.5-42.5C65.97,0.17,85,19.2,85,42.67z"/>
</g>
<g>
	<path class="st60" d="M59.18,44.38c-0.52-3.51-2.29-7.47-5.18-9.67c-1.19-0.9-2.59-1.4-4.08-1.18c-1.68,0.24-5.31,1.73-5.96,1.96
		c-0.1,0.02-0.21,0.04-0.34,0.06c-1.1-3.98-2.38-8.14-4.55-11.54c-0.96,0.63-1.92,1.27-2.89,1.91c4.11,2.59,5.59,7.37,6.08,9.66
		c-0.08-0.01-0.15-0.01-0.23-0.02c-1.61-0.08-3.25-1.03-4.78-1.49c-1.46-0.44-2.96-0.84-4.46-0.34c-3.32,1.11-5.35,4.95-6.37,8.05
		c-1.17,3.55-0.88,7.07,0.46,10.52c0.76,1.97,1.74,3.84,2.83,5.64c0.99,1.65,2.08,3.25,3.51,4.56c1.32,1.21,3.08,2.26,4.93,2.13
		c0.81-0.06,1.56-0.33,2.29-0.66c0.61-0.27,1.24-0.59,1.92-0.63c1.16-0.07,2.11,0.62,3.14,1.02c1.42,0.55,2.9,0.26,4.23-0.43
		c1.65-0.85,2.98-2.27,4.07-3.76c1.22-1.66,2.25-3.49,3.16-5.33C58.58,51.57,59.72,48.05,59.18,44.38z"/>
	<path class="st4" d="M56.5,20.37c-1.55,1.83-7.52,1.06-11.24,5.59c-1.74,2.11-1.48,5.61-1.22,6.8l8.21-7.26l-7.6,7.78
		c1.5,0.28,4.73,0.43,7.11-1.35C55.5,29.12,56.79,20.02,56.5,20.37z"/>
</g>
</svg>
