<svg enable-background="new 0 0 118.5 115.7" viewBox="0 0 118.5 115.7" xmlns="http://www.w3.org/2000/svg"><circle cx="60.5" cy="58.6" fill="#16b1de" r="56.1"/><path d="m115.8 67.7-29.5-29.5c-.3-.4-.8-.6-1.3-.6h-8.8c-.7 0-1.3.4-1.6 1.1s-.1 1.4.4 1.9l3.1 3.1-9.2 9.3-12.9-6.5c-.7-.3-1.5-.2-2 .3l-4 4-14.6-14.4c-.3-.3-.8-.5-1.3-.5-1 0-1.8.8-1.8 1.8v42c0 .5.2 1 .6 1.3l33.4 33.4c25.3-2.7 45.5-22 49.5-46.7z" fill="#118db2"/><g fill="#fff"><path d="m86.8 77.9v-22.8h-5.3v22.8h-5.3v-19.9l-5.2 3.9v16h-5.3v-16.7l-5.3-2.6v19.3h-5.3v-19.9l-5.1 5.3v14.6h-5.3v-8.8h-5.3v8.8h-3.5v-40.3c0-1-.8-1.8-1.8-1.8s-1.8.8-1.8 1.8v42c0 1 .8 1.8 1.8 1.8h52.6c1 0 1.8-.8 1.8-1.8s-.8-1.7-1.7-1.7z"/><path d="m41.2 63.9c.4 0 .9-.2 1.2-.5l13.1-13.1 12.9 6.4c.7.3 1.5.2 2-.3l10.1-10.1 3.1 3.1c.3.3.8.5 1.2.5.2 0 .5 0 .7-.1.7-.3 1.1-.9 1.1-1.6v-8.8c0-1-.8-1.8-1.8-1.8h-8.8c-.7 0-1.3.4-1.6 1.1s-.1 1.4.4 1.9l3.1 3.1-9 9.3-12.9-6.5c-.7-.3-1.5-.2-2 .3l-14 14c-.7.7-.7 1.8 0 2.5.3.4.8.6 1.2.6z"/></g></svg>