<svg enable-background="new 0 0 118.5 115.7" viewBox="0 0 118.5 115.7" xmlns="http://www.w3.org/2000/svg"><circle cx="60.6" cy="57.6" fill="#e5344e" r="56.1"/><path d="m88.3 42.4c-.2-.2-.4-.3-.6-.4l-26.3-12.3c-.5-.2-1-.2-1.5 0l-26.3 12.3c-.7.3-1.1 1.2-1 2 .1.4.3.7.6 1l2.1 2.1h-1c-1 0-1.8.8-1.8 1.8 0 .5.2 1 .6 1.3l2.9 2.9v23.8h-1.8c-1 0-1.8.8-1.8 1.8 0 .5.2 1 .6 1.3l2.2 2.2h-1c-1 0-1.8.8-1.8 1.8 0 .5.2.9.5 1.2l28.5 28.5c26.4-.5 48.3-19.2 53.8-44z" fill="#6d1b2a"/><g fill="#fff"><path d="m34.4 45.3h52.6c.8 0 1.5-.6 1.7-1.4s-.2-1.6-1-2l-26.3-12.2c-.5-.2-1-.2-1.5 0l-26.3 12.3c-.7.3-1.1 1.2-1 2 .2.8.9 1.3 1.8 1.3z"/><path d="m86.9 82.1h-52.5c-1 0-1.8.8-1.8 1.8s.8 1.8 1.8 1.8h52.6c1 0 1.8-.8 1.8-1.8-.1-1-.9-1.8-1.9-1.8z"/><path d="m86.9 76.9h-1.8v-26.3h1.8c1 0 1.8-.8 1.8-1.8s-.8-1.8-1.8-1.8h-52.5c-1 0-1.8.8-1.8 1.8s.8 1.8 1.8 1.8h1.8v26.3h-1.8c-1 0-1.8.8-1.8 1.8s.8 1.8 1.8 1.8h52.6c1 0 1.8-.8 1.8-1.8-.1-1.1-.9-1.8-1.9-1.8zm-47.3 0v-26.3h3.5v26.3zm7 0v-26.3h3.5v26.3zm7 0v-26.3h14v26.3zm17.6 0v-26.3h3.5v26.3zm7 0v-26.3h3.5v26.3z"/></g></svg>