<svg enable-background="new 0 0 118.5 115.7" viewBox="0 0 118.5 115.7" xmlns="http://www.w3.org/2000/svg"><circle cx="59.1" cy="58.2" fill="#00a58c" r="55.7"/><path d="m113.9 68.1-31.7-31.7.8 42.6-55.4-.2 35 35c25.8-1.6 46.8-20.8 51.3-45.7z" fill="#00826e"/><path d="m79.6 66.9h-40.3c-1.9 0-3.4-1.5-3.4-3.4v-24.9c0-1.9 1.5-3.4 3.4-3.4h40.3c1.9 0 3.4 1.5 3.4 3.4v24.9c0 1.9-1.5 3.4-3.4 3.4zm-41.2-2.7h42v-25.6h-42z" fill="#fff"/><path d="m89.2 79.4h-59.8c-1.5 0-2.1-.8-2.3-1.2s-.5-1.3.5-2.5l7.2-8.8c1-1.2 2.9-2.1 4.5-2.1h40.4c1.6 0 3.5.9 4.5 2.1l6.9 8.7c.9 1.2.6 2.2.5 2.5-.2.4-.8 1.3-2.4 1.3z" fill="#fff"/><path d="m80.6 71.7c.4.6.2 1.2-.5 1.2h-41.6c-.7 0-.9-.5-.4-1.1l1.8-2.1c.5-.6 1.5-1 2.2-1h34.9c.7 0 1.7.5 2.1 1.1z" fill="#4d4e4e"/></svg>