<svg enable-background="new 0 0 118.5 115.7" viewBox="0 0 118.5 115.7" xmlns="http://www.w3.org/2000/svg"><circle cx="60.7" cy="57.5" fill="#f16355" r="56"/><path d="m116.2 65-26.1-26.1c-.1-.1-.2-.2-.4-.3-.2-.2-5.6-3.8-14.1-3.8-8.7 0-12.5 3.9-12.7 4-.3.3-.5.8-.5 1.2v2.8l-4-4c-.2-.2-4-4-12.7-4-8.5 0-13.8 3.7-14.1 3.8-.4.3-.6.8-.6 1.4v38.5c0 .5.2 1 .6 1.3l33.4 33.5c26.4-2 47.7-22.3 51.2-48.3z" fill="#c24f44"/><g fill="#fff"><path d="m89.7 38.6c-.2-.2-5.6-3.8-14.1-3.8-8.7 0-12.5 3.9-12.7 4-.3.3-.5.8-.5 1.2v38.5c0 .7.4 1.3 1.1 1.6s1.4.1 1.9-.4c.1-.1 3.1-3 10.2-3 7.3 0 12 3.1 12.1 3.2.3.2.6.3 1 .3.3 0 .6-.1.8-.2.6-.3.9-.9.9-1.5v-38.5c0-.6-.2-1.1-.7-1.4z"/><path d="m45.8 34.8c-8.5 0-13.8 3.7-14.1 3.8-.5.3-.7.8-.7 1.4v38.5c0 .6.4 1.2.9 1.5.6.3 1.3.3 1.8-.1 0 0 4.7-3.2 12.1-3.2 7 0 10 2.8 10.2 3 .3.3.8.5 1.2.5.2 0 .4 0 .7-.1.7-.3 1.1-.9 1.1-1.6v-38.5c0-.5-.2-.9-.5-1.2-.2-.2-4.1-4-12.7-4z"/></g></svg>