<svg enable-background="new 0 0 118.5 115.7" viewBox="0 0 118.5 115.7" xmlns="http://www.w3.org/2000/svg" xmlns:xlink="http://www.w3.org/1999/xlink"><clipPath id="a"><circle cx="59.4" cy="58.3" r="55.8"/></clipPath><circle clip-path="url(#a)" cx="59.4" cy="58.5" fill="#c5e7e9" r="55.8"/><path clip-path="url(#a)" d="m134.5 80.2-36.3 48.5-44.7-33.5-.7-24.5-14.9-13.4-5.5-20.1 10.3-6.8 23.5-.2z" fill="#9cc1c3"/><path d="m51 30.4c0 1.6-1.3 2.9-2.9 2.9h-2.3c-1.6 0-2.9-1.3-2.9-2.9 0-1.6 1.3-2.9 2.9-2.9h2.2c1.7-.1 3 1.2 3 2.9z" fill="#005c89"/><path d="m43 29.3s-7.1.5-10.5 7.9c-.8 1.7 1.2 6.5 1.2 6.5h3.7s-3.1-4-1.3-7.2 7.5-4.2 7.5-4.2z" fill="#fff"/><path d="m33.6 43.7h3.7c.6 0 .5 1.4.5 1.4s-.2 7.7 5 14.8c4.6 6.1 8.2 7.1 10.1 7.1v11l-1.9-.1v-7.1s-5.9-1.3-11.6-10c-3.5-5.3-5-12.6-6-15.8-.3-.8.2-1.3.2-1.3z" fill="#89a3a3"/><path d="m54.7 30.4c0 1.6 1.3 2.9 2.9 2.9h2.4c1.6 0 2.9-1.3 2.9-2.9 0-1.6-1.3-2.9-2.9-2.9h-2.3c-1.7-.1-3 1.2-3 2.9z" fill="#005c89"/><path d="m62.7 29.3s7.1.5 10.5 7.9c.8 1.7-1.2 6.5-1.2 6.5h-3.7s3.1-4 1.3-7.2-7.5-4.2-7.5-4.2z" fill="#fff"/><path d="m72.1 43.7s-3 0-3.7 0c-.8 0-.5 1.4-.5 1.4s.2 7.7-5 14.8c-4.5 6.1-8.2 7.1-10 7.1v11l1.9-.1v-7.1s5.9-1.3 11.6-10c3.5-5.3 5-12.6 6-15.8.2-.8-.3-1.3-.3-1.3z" fill="#728d8d"/><path d="m51.2 78.9h3.4v10.7s-.5 4.2 3.9 4.2c7.7.2 11 .1 11 .1s4.1.2 4.3-5.3c.1-5.1 0-14.6 0-14.6s-.1-11.2 13.2-12.2l-.5 2.9s-9.3 1.8-9.4 9.4c-.1 7-.2 15.7-.2 15.7s1 7.3-7.7 7.2c-9.8-.1-9.8-.1-9.8-.1s-8.1.9-8.1-6.4c-.1-5.5-.1-11.6-.1-11.6z" fill="#fff"/><circle cx="91.1" cy="67" fill="#005c89" r="7.1"/><circle cx="91.2" cy="66.7" fill="#89a3a3" r="2.3"/><path d="m51.2 78.9c-.9 0-.7-1-.2-1h3.8c.4 0 .6 1-.1 1-.8 0-2.6 0-3.5 0z" fill="#fff"/><ellipse cx="48.2" cy="29" fill="#f4f6f6" rx="1.4" ry=".7"/><ellipse cx="60.1" cy="29" fill="#f4f6f6" rx="1.3" ry=".7"/><path d="m91.2 60.8v1.4s3.6-.1 4.3 2.7l1.6-.3s-1.8-4.2-5.9-3.8z" fill="#046f99"/></svg>