<svg enable-background="new 0 0 118.5 115.7" viewBox="0 0 118.5 115.7" xmlns="http://www.w3.org/2000/svg" xmlns:xlink="http://www.w3.org/1999/xlink"><defs><path id="a" d="m114.7 55.7c1 32.2-25.2 58.4-57.4 57.4-29.1-.9-52.9-24.7-53.8-53.8-1-32.1 25.3-58.4 57.4-57.4 29.1.9 52.8 24.7 53.8 53.8z"/><clipPath id="b"><use xlink:href="#a"/></clipPath></defs><use fill="#dee5e4" xlink:href="#a"/><circle clip-path="url(#b)" cx="59.8" cy="57.2" fill="#dee5e4" r="55.6"/><path clip-path="url(#b)" d="m120.7 72.3-32.4 43.2-53.8-40.3 12.9-16.5-.8-22.7 19.8 2.1 5.3 6.9 14.6 1.5z" fill="#c9cece"/><path d="m88.1 55.1c1.4 18.3-13.7 33.5-32.1 32.1-14.4-1.2-26.1-12.9-27.2-27.3-1.4-18.3 13.8-33.5 32.1-32.1 14.4 1.2 26.1 12.9 27.2 27.3z" fill="#fff"/><g fill="#ef4c54"><path d="m58.4 38.7h-7.5v13.2h-11.6v12.4h11.6v12h7.5z"/><path d="m58.4 38.7h7.5v13.2h11.7v12.4h-11.7v12h-7.5z"/></g></svg>