<svg enable-background="new 0 0 118.5 115.7" viewBox="0 0 118.5 115.7" xmlns="http://www.w3.org/2000/svg"><circle cx="59.6" cy="57.5" fill="#46c3da" r="56.2"/><path d="m91.1 40.1c-4.9-4.3-9.6-8.5-14.2-12.7 1.4 3 4.2 17.9-1.1 25.3-1.3 1.9-3.9 3.5-6.7 3.5-5 0-8-5.1-8.2-5.4-.7-1.4-1.4-2.8-2.2-4.1-.6.9-1.2 2.2-.8 3.5.6 1.9 2.9 2.3 2.9 3.6s-2 2.3-3 2.8c-2.1 1.2-4.5 3.8-6 9.8.4-.2.7-.3.8-.4 7.1-2.7-1.8 2.7-1.1 2.4 6.9-3.7 2.8.6 2.5 1.4-.2.7.6 3.2.9 3.9s-11.7 9.1-11.2 9.6c1.8 1.7 26.3 19.3 34.6 26.9.5-.2 1-.3 1.5-.5h.1c14.8-5.8 26.5-17.6 32.1-32.5.2-.5.4-1 .5-1.5.1-.2.1-.4.2-.6 2-6.3 2.5-11.5 2.7-14.2-7.8-6.7-16-13.6-24.3-20.8z" fill="#27acce"/><path d="m60 20.6c-5.6 0-12.5 2-17.1 5.4-5.6 4.2-7.7 14.8-6.3 21s3.1 9.2 5.4 12.2c2.2 3 3.7 4.2 4.5 7.5.9 4.2-2.3 12.9-2.2 16.7h24.8c1-4.2-.5-10.8 1.3-13.7 1.1-1.2 4.3-.2 8.3 0 2.3.1 2.9-.1 3.7-.6.5-.3 1.1-1.1 1.2-1.5.3-.7-.2-1.9-.4-2.4-.3-.5-.7-1 .8-2 1.1-.8 1-1.5.5-2.5-.3-.6.4-.8.9-1.2.6-.4.2-1.5-.2-2.2-.6-1.2.5-2 1-2.4.3-.3.6-.2 1.3-.3 1.3-.3 1.8-.8 1.6-1.6s-2.4-3.3-2.9-4.1c-1.5-2.4-2-4.1-2-4.7-.1-1.2.5-2 .9-3.4.3-1.4-3.2-10.2-7.1-13.9-3.2-2.8-8.6-4.9-14.5-5.9-1.2-.3-2.3-.4-3.5-.4z" fill="#fff"/><path d="m58.7 27.6.7 1.1c.5 0 .9 0 1.4.1l.8-1.1.2.1.8.3.2.1v1.3c.4.2.8.5 1.2.8l1.2-.5.1.1.6.7.1.1-.6 1.2c.3.4.5.8.6 1.3l1.3.2v.2l.2.9v.2l-1.1.7c0 .5 0 .9-.1 1.4l1.1.8-.1.2-.3.8-.1.2h-1.3c-.2.4-.5.8-.8 1.2l.5 1.2-.1.1-.7.6-.1.1-1.2-.6c-.4.3-.8.5-1.3.6l.1 1.4h-.2l-.9.2h-.2l-.7-1.1c-.5 0-.9 0-1.4-.1l-.8 1.1-.2-.1-.8-.3-.2-.1v-1.3c-.4-.2-.8-.5-1.2-.8l-1.2.5h-.2l-.6-.7-.1-.1.6-1.2c-.3-.4-.5-.8-.6-1.3l-1.3-.2v-.2l-.2-.9v-.2l1.1-.7c0-.5 0-.9.1-1.4l-1.1-.8.1-.2.3-.8.1-.2h1.3c.2-.4.5-.8.8-1.2l-.7-1.3.1-.1.7-.6.1-.1 1.2.6c.4-.3.8-.5 1.3-.6l.2-1.3h.2l.9-.2z" fill="#46c3da"/><path d="m71.8 36.4h.2.8.2l.4 1.2c.4.1.8.2 1.2.4l1-.7.2.1.7.4.2.1-.3 1.2c.3.3.6.6.9 1l1.2-.1.1.2.4.7.1.2-1.1.8c.1.4.2.8.3 1.3l1.1.5v.2.8.2l-1.2.4c-.1.4-.2.8-.4 1.2l.7 1-.1.2-.4.5-.1.2-1.2-.3c-.3.3-.6.6-1 .9l.2 1.2-.2.1-.7.3-.2.1-.9-.8c-.4.1-.8.2-1.3.3l-.5 1.1h-.2-.8-.2l-.3-1.3c-.4-.1-.8-.2-1.2-.4l-1 .7-.2-.1-.7-.4-.2-.1.3-1.2c-.3-.3-.6-.6-.9-1l-1.2.2-.1-.2-.4-.7-.1-.2.8-.9c-.1-.4-.2-.8-.3-1.3l-.9-.4v-.2-.8-.2l1.2-.4c.1-.4.2-.8.4-1.2l-.7-1 .1-.2.4-.7.1-.2 1.2.3c.3-.3.6-.6 1-.9l-.1-1.2.2-.1.9-.4.9.8c.4-.1.8-.2 1.3-.3z" fill="#46c3da"/><path d="m51.5 40.7h.2.8.2l.4 1.2c.4.1.8.2 1.2.4l1-.7.2.1.7.4.2.1-.3 1.2c.3.3.6.6.9 1l1.2-.2.1.2.4.7.1.2-.8.9c.1.4.2.8.3 1.3l1.1.5v.2.8.2l-1.2.4c-.1.4-.2.8-.4 1.2l.7 1-.1.2-.4.7-.1.2-1.2-.3c-.3.3-.6.6-1 .9l.2 1.2-.2.1-1 .2h-.2l-.9-.8c-.4.1-.8.2-1.3.3l-.5 1.1h-.2-.8-.2l-.4-1.2c-.4-.1-.8-.2-1.2-.4l-1 .7-.2-.1-.7-.4v-.2l.3-1.2c-.3-.3-.6-.6-.9-1l-1.2.2-.1-.2-.4-.7v-.1l.8-.9c-.1-.4-.2-.8-.3-1.3l-1.1-.5v-.2-.8-.2l1.2-.4c.1-.4.2-.8.4-1.2l-.7-1 .1-.2.4-.7.1-.2 1.2.3c.3-.3.6-.6 1-.9l-.1-1.2.2-.1.7-.4.2-.1.9.8c.4-.1.8-.2 1.3-.3z" fill="#46c3da"/><g fill="#fff"><path d="m59.6 30.7.5 2.4h.1l1.3-2.1c-.1 0-.2-.1-.4-.1-.4-.1-.9-.2-1.5-.2z"/><path d="m57.8 31.1c-.6.3-1.2.7-1.7 1.2l2.1 1.3z"/><path d="m63.1 32.1-1.3 2.1 2.4-.5c-.2-.6-.6-1.2-1.1-1.6z"/><path d="m55.2 33.7c0 .1-.1.2-.1.4-.2.5-.3 1.1-.2 1.6l2.4-.5v-.1z"/><path d="m59.7 34.2c-.1 0-.1 0-.1 0s0 0-.1 0 0 0-.1 0-.1 0-.2 0 0 0-.1 0-.1 0-.1.1-.1.1-.1.1c-.1.1-.1.1-.2.2 0 .1-.1.2-.1.2v.1.1.1.1s0 0 0 0v.1.1.1.1.1.1h.1.1.1.1.1.1.1.1.1.1.1.1.1.1.1.1.1.1.1s.1-.1.1-.1.1-.1.1-.1 0-.1.1-.1 0 0 0-.1 0 0 0-.1 0 0 0-.1c0 0 0 0 0-.1v-.1c0-.1 0-.1 0-.2s0 0 0-.1 0 0 0-.1 0 0 0-.1c-.1 0-.1-.1-.2-.1s0 0-.1 0c0 0 0 0-.1 0h-.1s0 0-.1 0 0 0-.1 0c-.3-.2-.3-.2-.4-.2z"/><path d="m64.7 35.5-2.4.5v.1.1l2.1 1.3c0-.1.1-.2.1-.4.1-.5.2-1 .2-1.6z"/><path d="m57.6 37-2.4.5c.3.6.7 1.2 1.1 1.7l1.3-2.1s0 0 0-.1c0 .1 0 .1 0 0z"/><path d="m61.2 37.7c-.1.1-.1.1-.1.1l.5 2.4c.6-.3 1.2-.7 1.7-1.1z"/><path d="m59.2 38.1-1.3 2.1c.1 0 .2.1.4.1.5.2 1.1.3 1.6.2l-.5-2.4c-.1 0-.1 0-.2 0z"/><path d="m72 39.3c-1.3 0-2.4.5-3.3 1.4l1.8 1.2c.6-.4 1.3-.6 2-.4l1.2-1.8c-.4-.2-.9-.3-1.4-.3-.1-.1-.2-.1-.3-.1z"/><path d="m75.1 40.6-1.1 1.8c.4.6.6 1.3.4 2l1.8 1.2c.2-.4.3-.9.3-1.4.1-1.5-.5-2.7-1.4-3.6z"/><path d="m67.8 42.1c0 .1-.1.2-.1.3-.1.4-.2.7-.2 1.1-.1 1.4.5 2.6 1.4 3.5l1.2-1.8c-.4-.6-.6-1.3-.4-2z"/><path d="m72 42.5c-.4 0-.8.2-1.1.6-.4.6-.2 1.4.4 1.9.6.4 1.4.2 1.9-.4.4-.6.2-1.4-.4-1.9-.3-.2-.6-.2-.8-.2z"/><path d="m51.7 43.6c-1.3 0-2.4.5-3.3 1.4l1.8 1.2c.6-.4 1.3-.6 2-.4l1.2-1.8c-.4-.2-.9-.3-1.4-.3-.2-.1-.2-.1-.3-.1z"/><path d="m54.8 44.9-1.2 1.8c.4.6.6 1.3.4 2l1.8 1.2c.2-.4.3-.9.3-1.4.2-1.5-.4-2.7-1.3-3.6z"/><path d="m73.5 45.8c-.6.4-1.3.6-2 .4l-1.2 1.8c.4.2.9.3 1.4.3 1.4.1 2.6-.5 3.5-1.4z"/><path d="m47.5 46.5c0 .1-.1.2-.1.3-.1.4-.2.7-.2 1.1-.1 1.4.5 2.6 1.4 3.5l1.2-1.8c-.4-.6-.6-1.3-.4-2z"/><path d="m51.6 46.8c-.4 0-.8.2-1.1.6-.4.6-.2 1.4.4 1.9.6.4 1.4.2 1.9-.4.4-.6.2-1.4-.4-1.9-.2-.1-.5-.2-.8-.2z"/><path d="m53.1 50.2c-.6.4-1.3.6-2 .4l-1.1 1.7c.4.2.9.3 1.4.3 1.4.1 2.6-.5 3.5-1.4z"/></g></svg>