<svg enable-background="new 0 0 118.5 115.7" viewBox="0 0 118.5 115.7" xmlns="http://www.w3.org/2000/svg"><circle cx="59.4" cy="58.2" fill="#8052a1" r="56"/><path d="m114.8 65.8-26-26.2c-.1-.1-.2-.2-.4-.3-4.2-2.6-9.1-3.9-14.1-3.8-8.7 0-12.5 3.9-12.7 4-.3.3-.5.8-.5 1.2v2.8l-6.1-4.9c-.2-.2-1.8-3.1-10.5-3.1-5-.1-9.8 1.2-14.1 3.8-.5.3-.8.9-.8 1.4v38.5c0 .5.2 1 .6 1.3l33.5 33.5c26.3-2.1 47.6-22.1 51.1-48.2z" fill="#8052a1"/><path d="m114.8 65.8-34.3-38.3s-4.9 11-5.9 13.2l-13.3-13.8c-.6.4-2.3 2.5-2.3 3l2.1 13.6-5.8-.4c-.2-.2-15.5-16.3-15.5-16.3l-1.4.4s1.2 12.2-1 12.6l3.6 4.7.8 1.3-1.3 1 .8 1.6c.7 3.8.7 6.7 1.3 10.7 0 .1.1.6.1.8 1.2 5.9 6.1 10.8 7.2 15.7 1.9 8 0 13 .1 13.1l22 24c22.4-5.2 39.7-23.7 42.8-46.9z" fill="#583c7c"/><g fill="#fff"><path d="m38.4 27.2c.6 2.8 2.2 10.3 2.2 10.5s-.5.6-.4 1.3.7 1.3 1.6 1.1 1.2-1 1.1-1.6c-.2-.6-.8-.8-.9-1s-1.7-7.7-2.2-10.5c2 3.1 3.7 8.5 6.5 10.6-.7 2.1-1.3 4.1-2.1 6.3-1 .2-2.3.5-3.3.7-1.5-1.7-3-3.3-4.4-5 1.8-3.1 1.3-8.7 1.9-12.4z"/><path d="m45.4 46-4.5.9c-.2.1-.5-.1-.5-.3-.1-.2.1-.5.3-.5l4.5-.9c.2-.1.5.1.5.3.1.2-.1.4-.3.5z"/><path d="m48.7 57.7-6.1 1.3-1.3-10.6 4.3-.9z"/><path d="m49 59.1-6.1 1.3 6.6 27.1c.3 1.3 1.5 2.2 2.7 1.9l.6-.1c.9-.2 1.5-1.2 1.3-2.2z"/><path d="m81 33.6 1 8.5s-.5-.4-.9-.4-1.5.3-1.5.3-.9-.7-1.3-.7c-.4-.1-1.5.3-1.5.3s-.9-.7-1.3-.7c-.4-.1-1 .1-1 .1l3.6-7.8s.7.3 1.4.4c.7.2 1.5 0 1.5 0z"/><path d="m80.5 27.5.4 4.7s-.3.1-1.1 0-1.1-.3-1.1-.3z"/><path d="m69.9 79.1-1.8-.3 6-36.4s.6-.2 1-.1c.2 0 .5.2.7.3z"/><path d="m72.7 79.5-1.6-.2 6-36.4c.3-.1.6-.1.9-.1.2 0 .5.2.8.4z"/><path d="m75.7 80-1.8-.3 6.1-36.4c.3-.1.6-.1.8-.1.5.1.9.4.9.4z"/><path d="m75.3 81.5-7.4-1.1c-.1 0-.2-.1-.2-.3 0-.1.2-.2.3-.2l7.4 1.1c.1 0 .2.1.2.3 0 .1-.1.2-.3.2z"/><path d="m75.1 83-7.4-1.1c-.1 0-.2-.1-.2-.3 0-.1.2-.2.3-.2l7.4 1.1c.1 0 .2.1.2.3-.1.1-.2.2-.3.2z"/><path d="m74.8 84.5-7.4-1.1c-.1 0-.2-.1-.2-.3 0-.1.2-.2.3-.2l7.4 1.1c.1 0 .2.1.2.3 0 .2-.1.3-.3.2z"/><path d="m71.9 89.5-3.2-.5c-1.2-.2-2-1.2-1.8-2.2l.4-2.3 7.5 1.1-.4 2.3c-.2 1.1-1.3 1.8-2.5 1.6z"/><path d="m65.5 40.5c0 2.5-2.4 5-5.7 5-3.5 0-5.6-2.4-5.5-5.1.1-4.6 4.3-12.3 7-13.5-1.2.8-.5 4.4.2 5.6 2.2 3.7 4 3.9 4 8z"/><path d="m62.4 58.8s-.9.2-2.5.2c-1.7 0-2.5-.2-2.5-.2l.5-12.1s.5.2 2 .2 2-.2 2-.2z"/><path d="m62.4 60.2s-1.1.2-2.5.2-2.5-.2-2.5-.2l.4 26.9c0 1.3.9 2.4 2 2.4h.5c.9 0 1.6-.8 1.6-1.9z"/></g></svg>