<svg viewBox="0 0 118.52 115.67" xmlns="http://www.w3.org/2000/svg"><path d="m114.6 58.24a55.5 55.5 0 1 1 -55.5-55.5 55.2 55.2 0 0 1 55.5 55.5z" fill="#747708"/><path d="m114.6 60.83c-5 47.78-48.36 52.44-48.36 52.44l-28.85-40.06 44-14 3-2v-7l-6-3 4-13a21.5 21.5 0 0 1 4 3c9.61 8.85 28.21 23.62 28.21 23.62z" fill="#515103" opacity=".7"/><g fill="#fff"><path d="m47.24 31.2s-1.24 14.34 12.6 15.39c0 0 5.76-13.72-12.6-15.39"/><path d="m67 25.08s-9.1 3.92-5.22 12.63c0 0 10.17-1 5.19-12.63"/><path d="m52.71 18.33s-4.51 8.79 4 13c0 0 7.21-7.24-4-13"/><path d="m35.28 59.61s-.11 1.4 0 7c2.11 13.6 11.54 15.6 13.11 15.6l19.45.26c7.18 0 12.45-6.76 13.45-15v-7.86z"/><path d="m83.91 49.61h-49.48c-.9 0-2.15 1-2.15 1.86v5.74c0 .9 1.25.39 2.15.39h49.48c.9 0 .37.5.37-.39v-5.74c0-.9.53-1.86-.37-1.86z"/><path d="m85.28 35.65c-1.6-1.56-4.19-2.08-5.74-.48l-12.61 12.44h11.32l7.12-6.77a3.43 3.43 0 0 0 -.09-5.19z"/></g></svg>