<?xml version="1.0" encoding="utf-8"?>
<!-- Generator: Adobe Illustrator 23.1.1, SVG Export Plug-In . SVG Version: 6.00 Build 0)  -->
<svg version="1.1" id="Layer_1" xmlns="http://www.w3.org/2000/svg" xmlns:xlink="http://www.w3.org/1999/xlink" x="0px" y="0px"
	 viewBox="0 0 85 85" style="enable-background:new 0 0 85 85;" xml:space="preserve">
<style type="text/css">
	.st0{fill:#F04E54;}
	.st1{fill:#E5364F;}
	.st2{fill:#48C3DB;}
	.st3{fill:#1AB1DD;}
	.st4{fill:#FFFFFF;}
	.st5{fill:#2E3192;}
	.st6{fill:#E6E7E8;}
	.st7{fill:#F26456;}
	.st8{clip-path:url(#XMLID_173_);fill:#C5E7EA;}
	.st9{fill:#005D8A;}
	.st10{fill:#89A3A3;}
	.st11{fill:#728E8D;}
	.st12{fill:#F4F6F7;}
	.st13{fill:#086F99;}
	.st14{clip-path:url(#XMLID_174_);fill:#DDE5E3;}
	.st15{fill:#CCCBCA;}
	.st16{fill:#04A58C;}
	.st17{fill:#4E4F4F;}
	.st18{fill:#747932;}
	.st19{fill:#8DC63F;}
	.st20{fill:#8153A2;}
	.st21{fill:#D1D3D4;}
	.st22{fill:#F1F2F2;}
	.st23{fill:#FFD086;}
	.st24{fill:#FBB040;}
	.st25{fill:#EE348B;}
	.st26{fill:#C49A6C;}
	.st27{fill:#C3812A;}
	.st28{fill:#DF3D88;}
	.st29{fill:#F4CC2C;}
	.st30{fill:#F8C31D;}
	.st31{opacity:0.28;}
	.st32{fill:#26BCB3;}
	.st33{fill:#16467D;}
	.st34{fill:#1C4076;}
	.st35{fill:#C0E6EB;}
	.st36{fill:#6D7187;}
	.st37{fill:#5F6276;}
	.st38{fill:#3C3F54;}
	.st39{fill:#FCC015;}
	.st40{fill:#434343;}
	.st41{opacity:0.15;fill:#FFFFFF;}
	.st42{fill:none;stroke:#FFFFFF;stroke-width:2;stroke-linecap:round;stroke-linejoin:round;stroke-miterlimit:10;}
	.st43{fill:#FFFFFF;stroke:#FFFFFF;stroke-width:2;stroke-linecap:round;stroke-linejoin:round;stroke-miterlimit:10;}
	.st44{fill:#424242;}
	.st45{fill:none;stroke:#434343;stroke-width:2;stroke-linecap:round;stroke-linejoin:round;stroke-miterlimit:10;}
	.st46{fill:#FFFFFF;stroke:#E5364F;stroke-width:2;stroke-miterlimit:10;}
	.st47{clip-path:url(#XMLID_175_);fill:#C5E7EA;}
	.st48{clip-path:url(#XMLID_176_);fill:#04A58C;}
	.st49{clip-path:url(#XMLID_177_);fill:#04A58C;}
	.st50{clip-path:url(#XMLID_178_);fill:#747932;}
	.st51{clip-path:url(#XMLID_179_);fill:#C5E7EA;}
	.st52{clip-path:url(#XMLID_180_);fill:#C5E7EA;}
	.st53{clip-path:url(#XMLID_181_);fill:#747932;}
	.st54{clip-path:url(#XMLID_182_);fill:#747932;}
	.st55{clip-path:url(#XMLID_183_);fill:#04A58C;}
	.st56{clip-path:url(#XMLID_184_);fill:#04A58C;}
	.st57{clip-path:url(#XMLID_185_);fill:#04A58C;}
	.st58{clip-path:url(#XMLID_186_);fill:#8153A2;}
	.st59{clip-path:url(#XMLID_187_);fill:#8153A2;}
	.st60{clip-path:url(#XMLID_188_);fill:#8153A2;}
	.st61{clip-path:url(#XMLID_189_);fill:#8153A2;}
	.st62{fill-rule:evenodd;clip-rule:evenodd;fill:#FFFFFF;}
	.st63{clip-path:url(#XMLID_190_);fill:#747932;}
	.st64{clip-path:url(#XMLID_191_);fill:#747932;}
	.st65{clip-path:url(#XMLID_192_);fill:#747932;}
	.st66{clip-path:url(#XMLID_193_);fill:#C5E7EA;}
	.st67{clip-path:url(#XMLID_194_);fill:#DDE5E3;}
</style>
<circle id="XMLID_57_" class="st0" cx="42.5" cy="42.5" r="42.5"/>
<path class="st4" d="M40.26,41.96c-1.53,0.56-2.97,1.25-4.05,2.18c-3-0.96-5.49-2.43-5.49-5.35c0-5.08,5.66-5.93,7.87-3.5
	c0.88,0.96-0.34,3.09-2.06,2.02C35.49,36.67,34,37.22,34,38.7C34,40.31,36.94,41.06,40.26,41.96z M45.36,63.78
	c0,0.98,0.24,1.72,0.93,1.72c0.55,0,0.58-0.76,0.58-1.59c0-0.72-0.37-1.31-0.91-1.82c-0.51,0.28-1.05,0.51-1.58,0.72
	C44.97,63.09,45.36,63.39,45.36,63.78z M48.32,45.58c-1.17,0.35-2.35,0.62-3.44,0.87c-0.04,0.01-0.09,0.02-0.14,0.03
	c0.95,0.44,1.55,0.98,1.55,1.74c0,1.46-1.18,2.54-2.66,3.56c-0.38,0.26-0.77,0.51-1.18,0.76c-0.77,0.49-1.57,0.98-2.29,1.52
	c-0.37,0.27-0.72,0.56-1.03,0.86c-0.95,0.89-1.6,1.92-1.6,3.21c0,1.05,0.54,1.82,1.33,2.4c0.68-0.47,1.44-0.86,2.18-1.21
	c-0.68-0.41-1.14-0.86-1.14-1.39c0-0.6,0.54-1.18,1.35-1.76c0.36-0.26,0.76-0.51,1.2-0.77c0.71-0.43,1.5-0.87,2.29-1.35
	c0.39-0.23,0.77-0.48,1.15-0.73c1.92-1.29,3.55-2.86,3.55-4.97C49.44,47.25,49.01,46.34,48.32,45.58z M45.77,54.93
	c-0.56,0.35-1.13,0.68-1.67,0.99c-0.14,0.08-0.29,0.17-0.45,0.26c0.81,0.58,1.35,1.15,1.35,1.76c0,0.53-0.45,0.97-1.13,1.39
	c-0.41,0.25-0.9,0.49-1.41,0.74c-0.78,0.37-1.61,0.75-2.35,1.19c-0.43,0.26-0.82,0.53-1.15,0.84c-0.55,0.51-0.91,1.1-0.91,1.82
	c0,0.83,0.03,1.59,0.58,1.59c0.68,0,0.92-0.75,0.92-1.72c0-0.4,0.4-0.69,0.99-0.96c0.52-0.24,1.19-0.46,1.93-0.69
	c0.78-0.25,1.6-0.52,2.35-0.87c0.45-0.21,0.87-0.45,1.24-0.72c0.79-0.59,1.33-1.35,1.33-2.4C47.37,56.84,46.71,55.82,45.77,54.93z
	 M41.45,47.34l0.07,3.06c0.29,0.21,0.6,0.42,0.92,0.63c0.33-0.21,0.63-0.42,0.92-0.63l0.08-3.06c-0.31-0.1-0.65-0.2-0.99-0.3
	C42.1,47.14,41.77,47.24,41.45,47.34z M41.72,58.26c0.21,0.13,0.47,0.26,0.72,0.39c0.25-0.13,0.51-0.26,0.72-0.39l0.02-0.84
	c-0.21-0.16-0.46-0.33-0.74-0.51c-0.27,0.18-0.53,0.36-0.75,0.52L41.72,58.26z M43.32,52.04l0-0.06c-0.29,0.19-0.58,0.38-0.88,0.57
	c-0.3-0.19-0.59-0.38-0.88-0.57v0.06c0.29,0.19,0.58,0.38,0.88,0.57C42.75,52.42,43.04,52.23,43.32,52.04z M68.45,26.85
	c-5.14-0.41-5.43-3.54-11.69-5.53c-6.14-1.95-8.48,7.36-12.85,7.36l0.07-2.56c1.36-0.59,2.32-1.95,2.32-3.53
	c0-2.12-1.72-3.84-3.84-3.84c-2.12,0-3.84,1.72-3.84,3.84c0,1.58,0.95,2.93,2.31,3.53l0.07,2.52c-4.79,0-6.33-9.39-12.41-7.46
	c-6.25,1.99-6.88,5.27-12.02,5.68c-2.26,0.18,5.66,8.26,24.51,5.32l0.22,8.82c0.39,0.11,0.76,0.21,1.16,0.32
	c0.39-0.11,0.77-0.22,1.15-0.32l0.22-8.83C62.76,35.14,70.7,27.03,68.45,26.85z M43.13,59.8l0-0.06c-0.22,0.11-0.45,0.23-0.68,0.34
	c-0.24-0.11-0.47-0.23-0.69-0.34l0,0.06c0.22,0.11,0.45,0.22,0.69,0.34C42.68,60.02,42.91,59.91,43.13,59.8z M42.45,63.53
	c-0.19,0.06-0.39,0.13-0.58,0.19l0.05,1.99c0,0.29,0.24,0.53,0.54,0.53c0.3,0,0.53-0.24,0.53-0.53l0.05-1.99
	C42.83,63.66,42.64,63.59,42.45,63.53z M46.3,35.29c-0.88,0.96,0.35,3.09,2.06,2.02c1.04-0.65,2.53-0.1,2.53,1.38
	c0,1.61-2.94,2.36-6.26,3.26c-0.72,0.2-1.46,0.4-2.19,0.62c-1.74,0.52-3.42,1.15-4.7,2.01c-0.45,0.3-0.84,0.63-1.17,0.99
	c-0.69,0.76-1.11,1.67-1.11,2.78c0,2.12,1.63,3.68,3.55,4.97c0.71-0.57,1.49-1.07,2.26-1.55c-1.49-1.02-2.66-2.1-2.66-3.56
	c0-0.76,0.6-1.3,1.55-1.74c0.63-0.29,1.41-0.54,2.29-0.76c1.42-0.37,3.08-0.7,4.7-1.13c0.52-0.14,1.03-0.28,1.53-0.44
	c2.99-0.96,5.49-2.43,5.49-5.35C54.17,33.71,48.51,32.87,46.3,35.29z"/>
</svg>
