<?xml version="1.0" encoding="utf-8"?>
<!-- Generator: Adobe Illustrator 23.1.1, SVG Export Plug-In . SVG Version: 6.00 Build 0)  -->
<svg version="1.1" id="Layer_1" xmlns="http://www.w3.org/2000/svg" xmlns:xlink="http://www.w3.org/1999/xlink" x="0px" y="0px"
	 viewBox="0 0 85 85" style="enable-background:new 0 0 85 85;" xml:space="preserve">
<style type="text/css">
	.st0{fill:#F04E54;}
	.st1{fill:#E5364F;}
	.st2{fill:#48C3DB;}
	.st3{fill:#1AB1DD;}
	.st4{fill:#FFFFFF;}
	.st5{fill:#2E3192;}
	.st6{fill:#E6E7E8;}
	.st7{fill:#F26456;}
	.st8{clip-path:url(#XMLID_173_);fill:#C5E7EA;}
	.st9{fill:#005D8A;}
	.st10{fill:#89A3A3;}
	.st11{fill:#728E8D;}
	.st12{fill:#F4F6F7;}
	.st13{fill:#086F99;}
	.st14{clip-path:url(#XMLID_174_);fill:#DDE5E3;}
	.st15{fill:#CCCBCA;}
	.st16{fill:#04A58C;}
	.st17{fill:#4E4F4F;}
	.st18{fill:#747932;}
	.st19{fill:#8DC63F;}
	.st20{fill:#8153A2;}
	.st21{fill:#D1D3D4;}
	.st22{fill:#F1F2F2;}
	.st23{fill:#FFD086;}
	.st24{fill:#FBB040;}
	.st25{fill:#EE348B;}
	.st26{fill:#C49A6C;}
	.st27{fill:#C3812A;}
	.st28{fill:#DF3D88;}
	.st29{fill:#F4CC2C;}
	.st30{fill:#F8C31D;}
	.st31{opacity:0.28;}
	.st32{fill:#26BCB3;}
	.st33{fill:#16467D;}
	.st34{fill:#1C4076;}
	.st35{fill:#C0E6EB;}
	.st36{fill:#6D7187;}
	.st37{fill:#5F6276;}
	.st38{fill:#3C3F54;}
	.st39{fill:#FCC015;}
	.st40{fill:#434343;}
	.st41{opacity:0.15;fill:#FFFFFF;}
	.st42{fill:none;stroke:#FFFFFF;stroke-width:2;stroke-linecap:round;stroke-linejoin:round;stroke-miterlimit:10;}
	.st43{fill:#FFFFFF;stroke:#FFFFFF;stroke-width:2;stroke-linecap:round;stroke-linejoin:round;stroke-miterlimit:10;}
	.st44{fill:#424242;}
	.st45{fill:none;stroke:#434343;stroke-width:2;stroke-linecap:round;stroke-linejoin:round;stroke-miterlimit:10;}
	.st46{fill:#FFFFFF;stroke:#E5364F;stroke-width:2;stroke-miterlimit:10;}
	.st47{clip-path:url(#XMLID_175_);fill:#C5E7EA;}
	.st48{clip-path:url(#XMLID_176_);fill:#04A58C;}
	.st49{clip-path:url(#XMLID_177_);fill:#04A58C;}
	.st50{clip-path:url(#XMLID_178_);fill:#747932;}
	.st51{clip-path:url(#XMLID_179_);fill:#C5E7EA;}
	.st52{clip-path:url(#XMLID_180_);fill:#C5E7EA;}
	.st53{clip-path:url(#XMLID_181_);fill:#747932;}
	.st54{clip-path:url(#XMLID_182_);fill:#747932;}
	.st55{clip-path:url(#XMLID_183_);fill:#04A58C;}
	.st56{clip-path:url(#XMLID_184_);fill:#04A58C;}
	.st57{clip-path:url(#XMLID_185_);fill:#04A58C;}
	.st58{clip-path:url(#XMLID_186_);fill:#8153A2;}
	.st59{clip-path:url(#XMLID_187_);fill:#8153A2;}
	.st60{clip-path:url(#XMLID_188_);fill:#8153A2;}
	.st61{clip-path:url(#XMLID_189_);fill:#8153A2;}
	.st62{fill-rule:evenodd;clip-rule:evenodd;fill:#FFFFFF;}
	.st63{clip-path:url(#XMLID_190_);fill:#747932;}
	.st64{clip-path:url(#XMLID_191_);fill:#747932;}
	.st65{clip-path:url(#XMLID_192_);fill:#747932;}
	.st66{clip-path:url(#XMLID_193_);fill:#C5E7EA;}
	.st67{clip-path:url(#XMLID_194_);fill:#DDE5E3;}
</style>
<circle id="XMLID_54_" class="st0" cx="42.5" cy="42.5" r="42.5"/>
<g>
	<path class="st62" d="M30.74,31.57l1.28-4.74c0.05-0.18,0.21-0.3,0.4-0.29c0.18,0.01,0.34,0.14,0.37,0.32l1.54,8.57l1.01-3.58
		c0.05-0.17,0.2-0.29,0.38-0.29h3.12l1.17-6.19c0.04-0.19,0.2-0.32,0.39-0.32h0c0.19,0,0.35,0.13,0.39,0.32l1.82,9.52l2.34-6.98
		c0.05-0.16,0.2-0.27,0.37-0.27c0,0,0.01,0,0.01,0c0.17,0,0.32,0.12,0.37,0.29l1.82,6.36l1.34-2.51c0.07-0.13,0.2-0.21,0.35-0.21
		h1.84l1.91-4.78c0.06-0.15,0.21-0.25,0.38-0.25c0.16,0,0.31,0.11,0.36,0.27l1.63,4.76h2.74v0.39c3.08-8.06-2.14-14.43-7.8-14.53
		h-0.05c-2.74,0-5.64,1.47-7.72,4.87c-2.08-3.4-4.93-4.87-7.67-4.87h-0.05c-5.6,0.09-10.75,6.26-8,14.13H30.74z"/>
	<path class="st62" d="M55.05,32.36c-0.17,0-0.32-0.11-0.37-0.27l-1.38-4.03l-1.62,4.05c-0.06,0.15-0.2,0.25-0.37,0.25h-1.87
		l-1.68,3.17c-0.08,0.14-0.23,0.22-0.39,0.21c-0.16-0.02-0.29-0.13-0.34-0.28l-1.74-6.08l-2.42,7.21c-0.06,0.17-0.23,0.28-0.4,0.27
		c-0.18-0.01-0.33-0.14-0.36-0.32l-1.71-8.96l-0.85,4.47c-0.04,0.19-0.2,0.32-0.39,0.32h-3.15l-1.4,4.94
		c-0.05,0.17-0.2,0.29-0.38,0.29c-0.01,0-0.01,0-0.02,0c-0.18-0.01-0.34-0.14-0.37-0.32l-1.54-8.53l-0.9,3.33
		c-0.05,0.17-0.2,0.29-0.38,0.29h-3.96c1.91,4.63,6.56,9.79,15.42,14.63c8.85-4.84,13.51-10,15.42-14.63H55.05z"/>
</g>
<g>
	<path class="st4" d="M40.4,48.64H29.86c-4.89,0-8.86,3.98-8.86,8.86v0.19c0,4.89,3.98,8.86,8.86,8.86h34.15v-4.18H29.86
		c-2.58,0-4.68-2.1-4.68-4.68v-0.19c0-2.58,2.1-4.68,4.68-4.68h34.15v-4.18H49.64"/>
	<rect x="30.29" y="55.54" class="st4" width="33.72" height="1.2"/>
	<rect x="30.29" y="58.73" class="st4" width="33.72" height="1.2"/>
</g>
</svg>
