<?xml version="1.0" encoding="utf-8"?>
<!-- Generator: Adobe Illustrator 23.1.1, SVG Export Plug-In . SVG Version: 6.00 Build 0)  -->
<svg version="1.1" id="Layer_1" xmlns="http://www.w3.org/2000/svg" xmlns:xlink="http://www.w3.org/1999/xlink" x="0px" y="0px"
	 viewBox="0 0 85 85" style="enable-background:new 0 0 85 85;" xml:space="preserve">
<style type="text/css">
	.st0{fill:#F04E54;}
	.st1{fill:#E5364F;}
	.st2{fill:#48C3DB;}
	.st3{fill:#1AB1DD;}
	.st4{fill:#FFFFFF;}
	.st5{fill:#2E3192;}
	.st6{fill:#E6E7E8;}
	.st7{fill:#F26456;}
	.st8{clip-path:url(#XMLID_173_);fill:#C5E7EA;}
	.st9{fill:#005D8A;}
	.st10{fill:#89A3A3;}
	.st11{fill:#728E8D;}
	.st12{fill:#F4F6F7;}
	.st13{fill:#086F99;}
	.st14{clip-path:url(#XMLID_174_);fill:#DDE5E3;}
	.st15{fill:#CCCBCA;}
	.st16{fill:#04A58C;}
	.st17{fill:#4E4F4F;}
	.st18{fill:#747932;}
	.st19{fill:#8DC63F;}
	.st20{fill:#8153A2;}
	.st21{fill:#D1D3D4;}
	.st22{fill:#F1F2F2;}
	.st23{fill:#FFD086;}
	.st24{fill:#FBB040;}
	.st25{fill:#EE348B;}
	.st26{fill:#C49A6C;}
	.st27{fill:#C3812A;}
	.st28{fill:#DF3D88;}
	.st29{fill:#F4CC2C;}
	.st30{fill:#F8C31D;}
	.st31{opacity:0.28;}
	.st32{fill:#26BCB3;}
	.st33{fill:#16467D;}
	.st34{fill:#1C4076;}
	.st35{fill:#C0E6EB;}
	.st36{fill:#6D7187;}
	.st37{fill:#5F6276;}
	.st38{fill:#3C3F54;}
	.st39{fill:#FCC015;}
	.st40{fill:#434343;}
	.st41{opacity:0.15;fill:#FFFFFF;}
	.st42{fill:none;stroke:#FFFFFF;stroke-width:2;stroke-linecap:round;stroke-linejoin:round;stroke-miterlimit:10;}
	.st43{fill:#FFFFFF;stroke:#FFFFFF;stroke-width:2;stroke-linecap:round;stroke-linejoin:round;stroke-miterlimit:10;}
	.st44{fill:#424242;}
	.st45{fill:none;stroke:#434343;stroke-width:2;stroke-linecap:round;stroke-linejoin:round;stroke-miterlimit:10;}
	.st46{fill:#FFFFFF;stroke:#E5364F;stroke-width:2;stroke-miterlimit:10;}
	.st47{clip-path:url(#XMLID_175_);fill:#C5E7EA;}
	.st48{clip-path:url(#XMLID_176_);fill:#04A58C;}
	.st49{clip-path:url(#XMLID_177_);fill:#04A58C;}
	.st50{clip-path:url(#XMLID_178_);fill:#747932;}
	.st51{clip-path:url(#XMLID_179_);fill:#C5E7EA;}
	.st52{clip-path:url(#XMLID_180_);fill:#C5E7EA;}
	.st53{clip-path:url(#XMLID_181_);fill:#747932;}
	.st54{clip-path:url(#XMLID_182_);fill:#747932;}
	.st55{clip-path:url(#XMLID_183_);fill:#04A58C;}
	.st56{clip-path:url(#XMLID_184_);fill:#04A58C;}
	.st57{clip-path:url(#XMLID_185_);fill:#04A58C;}
	.st58{clip-path:url(#XMLID_186_);fill:#8153A2;}
	.st59{clip-path:url(#XMLID_187_);fill:#8153A2;}
	.st60{clip-path:url(#XMLID_188_);fill:#8153A2;}
	.st61{clip-path:url(#XMLID_189_);fill:#8153A2;}
	.st62{fill-rule:evenodd;clip-rule:evenodd;fill:#FFFFFF;}
	.st63{clip-path:url(#XMLID_190_);fill:#747932;}
	.st64{clip-path:url(#XMLID_191_);fill:#747932;}
	.st65{clip-path:url(#XMLID_192_);fill:#747932;}
	.st66{clip-path:url(#XMLID_193_);fill:#C5E7EA;}
	.st67{clip-path:url(#XMLID_194_);fill:#DDE5E3;}
</style>
<circle id="XMLID_55_" class="st0" cx="42.5" cy="42.5" r="42.5"/>
<path class="st4" d="M66.54,48.33L56.32,42.5l10.22-5.83c0.26-0.15,0.36-0.49,0.21-0.75l-6.23-10.93c-0.15-0.26-0.49-0.36-0.75-0.2
	l-10.42,5.94v-12c0-0.3-0.25-0.55-0.55-0.55H36.21c-0.31,0-0.55,0.24-0.55,0.55v12l-10.43-5.94c-0.26-0.15-0.6-0.06-0.75,0.21
	l-6.22,10.93c-0.15,0.26-0.06,0.6,0.21,0.75l10.22,5.83l-10.22,5.82c-0.27,0.15-0.36,0.49-0.21,0.75L24.48,60
	c0.15,0.27,0.49,0.36,0.75,0.21l10.43-5.95v12.01c0,0.3,0.25,0.55,0.55,0.55h12.58c0.31,0,0.55-0.25,0.55-0.55v-12l10.42,5.94
	c0.26,0.15,0.6,0.06,0.75-0.2l6.23-10.93C66.9,48.81,66.8,48.47,66.54,48.33z M42.88,25.49c0.91,0,1.65,0.74,1.65,1.66l-0.09,3.84
	c-0.77-0.84-1.89-1.36-3.17-1.46l-0.05-2.38C41.23,26.23,41.97,25.49,42.88,25.49z M36.46,34.36c0-2.36,1.91-3.7,3.88-3.88
	c0.32-0.03,0.64-0.02,0.96,0.01c1.18,0.12,2.28,0.67,2.87,1.69c0.59,1.03-0.36,2.51-1.94,1.4c-0.56-0.39-1.6-0.44-1.98-0.28
	c-0.71,0.31-1.32,0.96-1.18,1.78c0.1,0.58,0.52,1.04,1.4,1.5l0.06,3C38.42,38.68,36.46,37.42,36.46,34.36z M44.37,34.62l-0.06,2.77
	l-0.02,1.09l-0.06,2.83l-0.03,1.35l-0.05,1.95c-0.46,0.42-2.26,1.78-2.49,1.93l-0.13-5.61l-0.02-1.05l-0.06-2.83l-0.02-1.06
	l-0.04-1.75c0.12,0.03,0.2,0.06,0.24,0.09c0.53,0.43,1.09,0.66,1.64,0.66C43.67,34.99,44.05,34.85,44.37,34.62z M43.84,59.05
	c0,0.27-0.11,0.5-0.28,0.68c-0.18,0.17-0.42,0.28-0.68,0.28c-0.53,0-0.96-0.43-0.96-0.96c0,0-0.06-5.86-0.06-5.93
	c0-1.59,0.97-2.4,2.18-3.19L43.84,59.05z M44.78,59.21c0-0.05,0.03-0.96,0.03-0.96c0.46,0.32,1.21,1.07,1.24,1.24
	C45.98,59.68,45.54,59.5,44.78,59.21z M44.8,48.26c-0.32,0.2-2.47,1.56-3.05,2.37c-0.46,0.65-0.9,1.51-0.91,2.51l0.07,3.32
	c-1.06-1.22-1.75-2.8-1.75-4.73c0-1.31,0.9-2.71,1.87-3.51c1.13-0.93,4.42-2.86,4.57-4.21c0.07-0.66-0.1-1.38-0.44-1.83l0.07-3.05
	c1.6,1.05,2.8,2.49,2.79,4.47C47.99,45.29,46.62,47.1,44.8,48.26z"/>
</svg>
