<?xml version="1.0" encoding="utf-8"?>
<!-- Generator: Adobe Illustrator 23.0.0, SVG Export Plug-In . SVG Version: 6.00 Build 0)  -->
<svg version="1.1" id="Layer_1" xmlns="http://www.w3.org/2000/svg" xmlns:xlink="http://www.w3.org/1999/xlink" x="0px" y="0px"
	 viewBox="0 0 85 85" style="enable-background:new 0 0 85 85;" xml:space="preserve">
<style type="text/css">
	.st0{clip-path:url(#XMLID_2_);fill:#F16355;}
	.st1{fill:none;stroke:#FFFFFF;stroke-width:2;stroke-linecap:round;stroke-linejoin:round;stroke-miterlimit:10;}
	.st2{clip-path:url(#SVGID_2_);}
	.st3{clip-path:url(#XMLID_3_);fill:#F16355;}
	.st4{fill:#FFFFFF;}
	.st5{clip-path:url(#XMLID_4_);fill:#F16355;}
	.st6{clip-path:url(#XMLID_5_);fill:#F16355;}
	.st7{fill:#F16355;}
	.st8{clip-path:url(#XMLID_6_);fill:#F16355;}
</style>
<g id="XMLID_86_">
	<defs>
		<path id="XMLID_87_" d="M85,42.5C85,65.97,65.97,85,42.5,85C19.03,85,0,65.97,0,42.5C0,19.03,19.03,0,42.5,0
			C65.97,0,85,19.03,85,42.5z"/>
	</defs>
	<use xlink:href="#XMLID_87_"  style="overflow:visible;fill:#F16355;"/>
	<clipPath id="XMLID_2_">
		<use xlink:href="#XMLID_87_"  style="overflow:visible;"/>
	</clipPath>
	<path id="XMLID_88_" class="st0" d="M85,42.67c0,23.47-19.03,42.5-42.5,42.5C19.03,85.17,0,66.14,0,42.67s19.03-42.5,42.5-42.5
		C65.97,0.17,85,19.2,85,42.67z"/>
</g>
<g>
	<g id="XMLID_93_">
		<g>
			<path class="st7" d="M64.08,58.98h-8.52c0.03-0.13,0.06-0.26,0.06-0.4h8.46c1.53,0,2.77-1.25,2.77-2.77v-6.27
				c0-3.71-2.21-6.93-5.36-8.37c0.13-0.09,0.26-0.17,0.37-0.27c3.21,1.55,5.41,4.86,5.41,8.65v6.27
				C67.26,57.56,65.84,58.98,64.08,58.98z"/>
			<path class="st7" d="M64.08,59.4h-8.62c0.06-0.13,0.09-0.27,0.1-0.42h8.52c1.76,0,3.18-1.42,3.18-3.17v-6.27
				c0-3.79-2.19-7.1-5.41-8.65c0.13-0.09,0.24-0.19,0.36-0.3l2.55,1.86c1.79,1.82,2.91,4.32,2.91,7.08v6.27
				C67.68,57.79,66.06,59.4,64.08,59.4z"/>
			<path class="st7" d="M62.22,40.6c-0.11,0.11-0.23,0.22-0.36,0.3c-0.13-0.07-0.26-0.14-0.4-0.2c0.13-0.1,0.24-0.19,0.37-0.29
				C61.96,40.47,62.09,40.53,62.22,40.6z"/>
			<path class="st7" d="M61.83,40.41c-0.13,0.1-0.24,0.19-0.37,0.29c-0.01,0-0.01,0-0.01,0c-0.16-0.07-0.32-0.13-0.47-0.19
				c0.14-0.09,0.27-0.17,0.4-0.29C61.53,40.28,61.69,40.34,61.83,40.41z"/>
			<path class="st7" d="M61.46,40.7c0.14,0.06,0.27,0.13,0.4,0.2c-0.11,0.1-0.24,0.19-0.37,0.27c-0.16-0.07-0.32-0.14-0.47-0.2
				c0.14-0.07,0.29-0.16,0.43-0.27C61.44,40.7,61.44,40.7,61.46,40.7z"/>
			<path class="st7" d="M61.44,40.7c-0.14,0.11-0.29,0.2-0.43,0.27c-0.17-0.07-0.34-0.13-0.52-0.19c0.17-0.07,0.33-0.17,0.47-0.27
				C61.13,40.57,61.28,40.63,61.44,40.7z"/>
			<path class="st4" d="M60.5,40.79c-0.82,0.43-1.75,0.67-2.72,0.67c-1,0-1.94-0.24-2.77-0.69c0.87-0.27,1.79-0.42,2.74-0.42
				C58.7,40.36,59.62,40.5,60.5,40.79z"/>
			<path class="st4" d="M57.74,39.53c-1.25,0-2.47,0.23-3.6,0.67c-1.41-1.08-2.31-2.77-2.31-4.67c0-3.27,2.67-5.94,5.94-5.94
				s5.94,2.67,5.94,5.94c0,1.92-0.92,3.63-2.34,4.7L57.74,39.53z"/>
			<path class="st4" d="M57.74,39.94c1.13,0,2.22,0.2,3.23,0.57c-0.14,0.1-0.3,0.2-0.47,0.27c-0.87-0.29-1.79-0.43-2.75-0.43
				c-0.95,0-1.86,0.14-2.74,0.42c-0.16-0.09-0.32-0.17-0.46-0.27C55.55,40.13,56.62,39.94,57.74,39.94z"/>
			<path class="st7" d="M55.62,58.58c0,0.14-0.03,0.27-0.06,0.4h-0.42c0.03-0.13,0.04-0.26,0.06-0.4H55.62z"/>
			<path class="st7" d="M55.15,58.98h0.42c-0.01,0.14-0.04,0.29-0.1,0.42h-0.42C55.09,59.25,55.12,59.12,55.15,58.98z"/>
			<path class="st7" d="M57.77,41.88c-1.2,0-2.32-0.33-3.27-0.92c0.16-0.07,0.33-0.13,0.5-0.19c0.83,0.44,1.76,0.69,2.77,0.69
				c0.97,0,1.91-0.24,2.72-0.67c0.17,0.06,0.34,0.11,0.52,0.19C60.07,41.55,58.95,41.88,57.77,41.88z"/>
			<path class="st7" d="M55.2,58.58c-0.01,0.14-0.03,0.27-0.06,0.4h-0.4c0.01-0.13,0.04-0.26,0.06-0.4H55.2z"/>
			<path class="st4" d="M57.74,39.94c-1.12,0-2.19,0.19-3.2,0.56c-0.14-0.09-0.27-0.19-0.4-0.3c1.13-0.44,2.35-0.67,3.6-0.67
				l3.63,0.7c-0.13,0.11-0.26,0.2-0.4,0.29C59.97,40.14,58.88,39.94,57.74,39.94z"/>
			<path class="st7" d="M55.15,58.98c-0.03,0.14-0.06,0.27-0.1,0.42h-0.43c0.04-0.13,0.09-0.27,0.13-0.42H55.15z"/>
			<path class="st7" d="M54.5,40.96c0.95,0.59,2.06,0.92,3.27,0.92c1.18,0,2.29-0.33,3.24-0.9c0.16,0.06,0.32,0.13,0.47,0.2
				c-1.06,0.7-2.34,1.12-3.71,1.12c-1.39,0-2.68-0.42-3.76-1.15C54.17,41.07,54.33,41,54.5,40.96z"/>
			<path class="st7" d="M54.5,40.96c-0.16-0.09-0.3-0.17-0.44-0.29c0.16-0.06,0.32-0.13,0.49-0.17c0.14,0.1,0.3,0.19,0.46,0.27
				C54.83,40.83,54.66,40.89,54.5,40.96z"/>
			<path class="st4" d="M54.83,49.68v8.46c0,0.16-0.01,0.3-0.03,0.44h-3.41c-1.52,0-2.77-1.25-2.77-2.77v-6.35
				c0-2.44,0.95-4.72,2.67-6.44c0.3-0.3,0.63-0.59,0.97-0.83C53.93,44.33,54.83,46.92,54.83,49.68z"/>
			<path class="st7" d="M54.83,49.68c0-2.75-0.9-5.35-2.57-7.48c0.1-0.1,0.22-0.17,0.33-0.26c1.66,2.14,2.64,4.83,2.64,7.74v8.46
				c0,0.16-0.01,0.3-0.03,0.44h-0.4c0.01-0.14,0.03-0.29,0.03-0.44V49.68z"/>
			<path class="st7" d="M54.14,40.2c0.13,0.11,0.26,0.22,0.4,0.3c-0.17,0.04-0.33,0.11-0.49,0.17c-0.13-0.09-0.26-0.19-0.37-0.29
				C53.83,40.31,53.99,40.26,54.14,40.2z"/>
			<path class="st4" d="M52.95,41.72c0.34-0.23,0.69-0.42,1.06-0.57c1.08,0.73,2.37,1.15,3.76,1.15c1.38,0,2.65-0.42,3.71-1.12
				c3.15,1.45,5.36,4.66,5.36,8.37v6.27c0,1.52-1.23,2.77-2.77,2.77h-8.46c0.03-0.14,0.03-0.29,0.03-0.44v-8.46
				C55.65,46.77,54.7,44,52.95,41.72z"/>
			<path class="st7" d="M54.06,40.67c0.14,0.11,0.29,0.2,0.44,0.29c-0.17,0.04-0.33,0.11-0.49,0.19c-0.13-0.09-0.26-0.17-0.37-0.27
				C53.77,40.8,53.91,40.73,54.06,40.67z"/>
			<path class="st7" d="M53.64,40.87c-0.11-0.09-0.23-0.17-0.34-0.29c0.13-0.07,0.26-0.14,0.39-0.2c0.11,0.1,0.24,0.2,0.37,0.29
				C53.91,40.73,53.77,40.8,53.64,40.87z"/>
			<path class="st7" d="M52.7,41.39c0.3-0.2,0.62-0.37,0.95-0.52c0.11,0.1,0.24,0.19,0.37,0.27c-0.37,0.16-0.72,0.34-1.06,0.57
				C52.87,41.6,52.78,41.49,52.7,41.39z"/>
			<path class="st7" d="M52.95,41.72c1.75,2.28,2.7,5.05,2.7,7.96v8.46c0,0.16,0,0.3-0.03,0.44H55.2c0.01-0.14,0.03-0.29,0.03-0.44
				v-8.46c0-2.91-0.97-5.61-2.64-7.74C52.71,41.86,52.82,41.78,52.95,41.72z"/>
			<path class="st7" d="M52.42,41.07c0.27-0.19,0.57-0.34,0.87-0.49c0.11,0.11,0.23,0.2,0.34,0.29c-0.33,0.14-0.65,0.32-0.95,0.52
				C52.61,41.27,52.52,41.17,52.42,41.07z"/>
			<path class="st7" d="M52.7,41.39c0.09,0.1,0.17,0.22,0.26,0.33c-0.13,0.06-0.24,0.14-0.36,0.22c-0.09-0.11-0.17-0.23-0.26-0.33
				C52.45,41.53,52.57,41.46,52.7,41.39z"/>
			<path class="st7" d="M52.42,41.07c0.1,0.1,0.19,0.2,0.27,0.32c-0.13,0.07-0.24,0.14-0.36,0.22c-0.09-0.1-0.17-0.2-0.26-0.3
				C52.18,41.22,52.29,41.15,52.42,41.07z"/>
			<path class="st7" d="M52.02,41.85c0.1-0.09,0.22-0.16,0.32-0.24c0.09,0.1,0.17,0.22,0.26,0.33c-0.11,0.09-0.23,0.16-0.33,0.26
				C52.19,42.08,52.11,41.96,52.02,41.85z"/>
			<path class="st7" d="M52.34,41.6c-0.1,0.09-0.22,0.16-0.32,0.24c-0.09-0.1-0.17-0.2-0.27-0.29c0.1-0.1,0.22-0.19,0.33-0.26
				C52.17,41.4,52.25,41.5,52.34,41.6z"/>
			<path class="st7" d="M57.77,29.59c-3.27,0-5.94,2.67-5.94,5.94c0,1.91,0.9,3.6,2.31,4.67c-0.16,0.06-0.32,0.11-0.46,0.19
				c-1.39-1.16-2.27-2.91-2.27-4.86c0-3.5,2.84-6.35,6.35-6.35c3.5,0,6.35,2.85,6.35,6.35c0,1.96-0.9,3.73-2.29,4.89
				c-0.14-0.07-0.3-0.13-0.46-0.19c1.42-1.08,2.34-2.78,2.34-4.7C63.71,32.26,61.04,29.59,57.77,29.59z"/>
			<path class="st7" d="M53.3,40.59C51.89,39.35,51,37.55,51,35.52c0-0.7,0.1-1.38,0.3-2.01c0.86-2.75,3.44-4.75,6.47-4.75
				c3.73,0,6.75,3.03,6.75,6.75c0,2.02-0.89,3.84-2.31,5.08c-0.13-0.07-0.26-0.13-0.39-0.19c1.39-1.16,2.29-2.92,2.29-4.89
				c0-3.5-2.85-6.35-6.35-6.35c-3.51,0-6.35,2.85-6.35,6.35c0,1.95,0.87,3.7,2.27,4.86C53.56,40.44,53.43,40.51,53.3,40.59z"/>
			<path class="st4" d="M42.5,23.04c4.44,0,8.06,3.61,8.06,8.06c0,2.61-1.23,4.92-3.17,6.38c-1.52-0.6-3.15-0.92-4.85-0.92
				c0,0,0,0-0.01,0c-1.72,0-3.37,0.34-4.87,0.96c-1.95-1.46-3.21-3.8-3.21-6.42C34.44,26.65,38.06,23.04,42.5,23.04z"/>
			<path class="st4" d="M48.62,55.81c0,1.52,1.25,2.77,2.77,2.77h3.41c-0.01,0.14-0.04,0.27-0.06,0.4h-3.36
				c-1.75,0-3.18-1.42-3.18-3.17v-6.35c0-3.11,1.49-5.88,3.81-7.61c0.09,0.11,0.17,0.23,0.24,0.34c-0.34,0.24-0.67,0.53-0.97,0.83
				c-1.72,1.72-2.67,4-2.67,6.44V55.81z"/>
			<path class="st7" d="M51.23,40.99c-1.09-1.09-2.37-1.96-3.74-2.55c0.13-0.1,0.26-0.19,0.37-0.29c1.62,0.75,3.05,1.82,4.22,3.15
				c-0.11,0.07-0.23,0.16-0.33,0.26C51.59,41.36,51.42,41.17,51.23,40.99z"/>
			<path class="st7" d="M48.22,37.86c1.32,0.62,2.52,1.48,3.58,2.54c0.22,0.22,0.43,0.44,0.62,0.67c-0.13,0.07-0.24,0.14-0.34,0.23
				c-1.16-1.33-2.6-2.41-4.22-3.15C47.99,38.06,48.11,37.96,48.22,37.86z"/>
			<path class="st4" d="M48.21,55.81c0,1.75,1.43,3.17,3.18,3.17h3.36c-0.04,0.14-0.09,0.29-0.13,0.42h-3.23
				c-1.98,0-3.58-1.61-3.58-3.58v-6.35c0-2.65,1.03-5.15,2.91-7.03c0.33-0.33,0.67-0.62,1.03-0.87c0.1,0.09,0.19,0.19,0.27,0.29
				c-2.32,1.73-3.81,4.5-3.81,7.61V55.81z"/>
			<path class="st7" d="M48.22,37.86c-0.11,0.1-0.23,0.2-0.36,0.29c-0.14-0.07-0.29-0.13-0.43-0.19c0.13-0.09,0.27-0.19,0.39-0.3
				C47.96,37.72,48.09,37.78,48.22,37.86z"/>
			<path class="st7" d="M47.02,38.23c0.14-0.07,0.27-0.17,0.42-0.27c0.14,0.06,0.29,0.11,0.43,0.19c-0.11,0.1-0.24,0.19-0.37,0.29
				C47.33,38.35,47.18,38.29,47.02,38.23z"/>
			<path class="st7" d="M47.39,37.47c0.14,0.07,0.29,0.13,0.43,0.19c-0.11,0.11-0.26,0.22-0.39,0.3c-0.14-0.07-0.29-0.13-0.44-0.19
				C47.13,37.69,47.26,37.59,47.39,37.47z"/>
			<path class="st7" d="M47.02,38.23c-0.16-0.07-0.32-0.13-0.49-0.19c0.16-0.07,0.3-0.17,0.46-0.27c0.16,0.06,0.3,0.11,0.44,0.19
				C47.29,38.06,47.16,38.16,47.02,38.23z"/>
			<path class="st4" d="M46.53,38.05c-1.18,0.7-2.57,1.1-4.03,1.1c-1.45,0-2.81-0.39-3.99-1.08c1.26-0.44,2.61-0.69,4.01-0.69
				c0.01,0,0.01,0,0.01,0C43.92,37.39,45.27,37.62,46.53,38.05z"/>
			<path class="st4" d="M42.53,36.97c1.56,0,3.07,0.29,4.46,0.8c-0.16,0.1-0.3,0.2-0.46,0.27c-1.26-0.43-2.61-0.66-3.99-0.66
				c0,0,0,0-0.01,0c-1.41,0-2.75,0.24-4.01,0.69c-0.16-0.07-0.32-0.17-0.47-0.27C39.43,37.26,40.95,36.97,42.53,36.97z"/>
			<path class="st7" d="M42.5,39.15c1.46,0,2.85-0.4,4.03-1.1c0.17,0.06,0.33,0.11,0.49,0.19c-1.3,0.85-2.85,1.32-4.52,1.32
				c-1.65,0-3.18-0.47-4.49-1.29c0.16-0.07,0.33-0.13,0.5-0.19C39.69,38.77,41.05,39.15,42.5,39.15z"/>
			<path class="st4" d="M46.99,37.78c-1.39-0.52-2.9-0.8-4.46-0.8c-1.58,0-3.1,0.29-4.49,0.83c-0.13-0.09-0.26-0.19-0.39-0.29
				c1.51-0.62,3.15-0.96,4.87-0.96c0.01,0,0.01,0,0.01,0c1.69,0,3.33,0.32,4.85,0.92C47.26,37.59,47.13,37.69,46.99,37.78z"/>
			<path class="st7" d="M38.04,37.8c0.16,0.1,0.32,0.2,0.47,0.27c-0.17,0.06-0.34,0.11-0.5,0.19c-0.14-0.09-0.29-0.17-0.42-0.29
				C37.74,37.92,37.9,37.86,38.04,37.8z"/>
			<path class="st7" d="M47.49,38.44c-1.42,0.96-3.14,1.53-4.99,1.53c-1.84,0-3.54-0.56-4.95-1.52c0.16-0.06,0.3-0.13,0.46-0.19
				c1.3,0.82,2.84,1.29,4.49,1.29c1.66,0,3.21-0.47,4.52-1.32C47.18,38.29,47.33,38.35,47.49,38.44z"/>
			<path class="st7" d="M38.04,37.8c-0.14,0.06-0.3,0.11-0.44,0.17c-0.13-0.07-0.26-0.17-0.37-0.27c0.14-0.07,0.29-0.13,0.43-0.19
				C37.78,37.62,37.91,37.72,38.04,37.8z"/>
			<path class="st7" d="M37.6,37.98c0.13,0.11,0.27,0.2,0.42,0.29c-0.16,0.06-0.3,0.13-0.46,0.19c-0.01,0.01-0.01,0-0.01,0
				c-0.13-0.09-0.24-0.16-0.36-0.27C37.33,38.11,37.45,38.05,37.6,37.98z"/>
			<path class="st7" d="M37.23,37.7c0.11,0.1,0.24,0.2,0.37,0.27c-0.14,0.07-0.27,0.13-0.42,0.2c-0.13-0.07-0.24-0.17-0.37-0.29
				C36.95,37.82,37.08,37.76,37.23,37.7z"/>
			<path class="st4" d="M36.38,49.46v6.35c0,1.52-1.25,2.77-2.77,2.77h-3.33c-0.01-0.14-0.03-0.29-0.03-0.44v-8.34
				c0-2.84,0.95-5.45,2.54-7.54c0.32,0.23,0.62,0.49,0.9,0.77C35.42,44.74,36.38,47.02,36.38,49.46z"/>
			<path class="st7" d="M42.5,23.04c-4.44,0-8.06,3.61-8.06,8.06c0,2.62,1.26,4.96,3.21,6.42c-0.14,0.06-0.29,0.11-0.43,0.19
				c-1.95-1.55-3.2-3.93-3.2-6.61c0-4.67,3.8-8.47,8.47-8.47s8.46,3.8,8.46,8.47c0,2.65-1.22,5.02-3.14,6.57
				c-0.14-0.06-0.29-0.11-0.43-0.19c1.94-1.46,3.17-3.77,3.17-6.38C50.56,26.65,46.95,23.04,42.5,23.04z"/>
			<path class="st7" d="M33.63,31.09c0-4.9,3.97-8.88,8.88-8.88c4.89,0,8.88,3.97,8.88,8.88c0,0.82-0.11,1.61-0.33,2.35
				c-0.47,1.75-1.48,3.28-2.82,4.42c-0.13-0.09-0.26-0.14-0.4-0.2c1.92-1.55,3.14-3.91,3.14-6.57c0-4.67-3.79-8.47-8.46-8.47
				s-8.47,3.8-8.47,8.47c0,2.68,1.25,5.06,3.2,6.61c-0.14,0.06-0.27,0.11-0.42,0.19c-1.36-1.13-2.38-2.68-2.85-4.44
				C33.74,32.7,33.63,31.91,33.63,31.09z"/>
			<path class="st7" d="M33.33,41.6L33,41.36c1.15-1.33,2.57-2.42,4.19-3.18c0.11,0.11,0.23,0.19,0.36,0.27
				C35.92,39.2,34.49,40.27,33.33,41.6z"/>
			<path class="st4" d="M33.7,43.02c-0.29-0.29-0.59-0.54-0.9-0.77c0.09-0.11,0.17-0.23,0.27-0.34c2.27,1.75,3.71,4.47,3.71,7.56
				v6.35c0,1.75-1.42,3.17-3.17,3.17h-3.27c-0.01-0.13-0.04-0.26-0.06-0.4h3.33c1.52,0,2.77-1.25,2.77-2.77v-6.35
				C36.38,47.02,35.42,44.74,33.7,43.02z"/>
			<path class="st4" d="M30.47,59.4h3.14c1.98,0,3.58-1.61,3.58-3.58v-6.35c0-2.65-1.03-5.15-2.91-7.03l-0.96-0.83
				c1.16-1.33,2.6-2.41,4.22-3.15c0,0,0,0.01,0.01,0c1.41,0.96,3.11,1.52,4.95,1.52c1.85,0,3.57-0.57,4.99-1.53
				c1.38,0.59,2.65,1.46,3.74,2.55c0.19,0.19,0.36,0.37,0.52,0.57c-0.36,0.26-0.7,0.54-1.03,0.87c-1.88,1.88-2.91,4.37-2.91,7.03
				v6.35c0,1.98,1.61,3.58,3.58,3.58h3.23c-0.53,1.49-1.95,2.57-3.61,2.57H34.07C32.42,61.96,31,60.89,30.47,59.4z"/>
			<path class="st7" d="M32.65,41.12c1.15-1.33,2.57-2.44,4.16-3.23c0.13,0.11,0.24,0.22,0.37,0.29c-1.62,0.76-3.04,1.85-4.19,3.18
				C32.9,41.27,32.78,41.19,32.65,41.12z"/>
			<path class="st4" d="M30.47,59.4c-0.04-0.13-0.09-0.27-0.13-0.42h3.27c1.75,0,3.17-1.42,3.17-3.17v-6.35
				c0-3.08-1.45-5.81-3.71-7.56c0.09-0.1,0.17-0.2,0.26-0.3l0.96,0.83c1.88,1.88,2.91,4.37,2.91,7.03v6.35
				c0,1.98-1.61,3.58-3.58,3.58H30.47z"/>
			<path class="st7" d="M33.33,41.6c-0.09,0.1-0.17,0.2-0.26,0.3c-0.11-0.07-0.22-0.16-0.33-0.24c0.07-0.1,0.16-0.2,0.26-0.3
				L33.33,41.6z"/>
			<path class="st7" d="M32.74,41.66c0.11,0.09,0.22,0.17,0.33,0.24c-0.1,0.11-0.19,0.23-0.27,0.34c-0.1-0.1-0.2-0.17-0.32-0.24
				C32.55,41.89,32.64,41.78,32.74,41.66z"/>
			<path class="st7" d="M32.74,41.66c-0.11-0.07-0.24-0.16-0.36-0.23c0.1-0.11,0.19-0.22,0.27-0.32c0.13,0.07,0.24,0.16,0.34,0.24
				C32.9,41.46,32.81,41.56,32.74,41.66z"/>
			<path class="st7" d="M32.38,41.43c0.11,0.07,0.24,0.16,0.36,0.23c-0.1,0.11-0.19,0.23-0.26,0.34c-0.1-0.09-0.23-0.16-0.34-0.24
				C32.22,41.65,32.29,41.53,32.38,41.43z"/>
			<path class="st7" d="M31.36,40.87c0.11-0.09,0.23-0.17,0.34-0.29l0.95,0.53c-0.09,0.1-0.17,0.2-0.27,0.32
				C32.05,41.22,31.71,41.03,31.36,40.87z"/>
			<path class="st7" d="M32.14,41.76c-0.37-0.23-0.76-0.44-1.16-0.6c0.13-0.09,0.26-0.19,0.39-0.29c0.34,0.16,0.69,0.34,1.02,0.56
				C32.29,41.53,32.22,41.65,32.14,41.76z"/>
			<path class="st7" d="M31.71,40.59c-0.11,0.11-0.23,0.2-0.34,0.29c-0.14-0.07-0.27-0.14-0.42-0.2c0.13-0.09,0.24-0.19,0.37-0.29
				L31.71,40.59z"/>
			<path class="st7" d="M31.32,40.39c-0.13,0.1-0.24,0.2-0.37,0.29c-0.16-0.06-0.32-0.13-0.49-0.17c0.14-0.09,0.27-0.19,0.4-0.3
				C31.02,40.26,31.17,40.31,31.32,40.39z"/>
			<path class="st7" d="M30.95,40.67c0.14,0.06,0.27,0.13,0.42,0.2c-0.13,0.1-0.26,0.2-0.39,0.29c-0.14-0.09-0.3-0.14-0.47-0.2
				C30.64,40.87,30.8,40.79,30.95,40.67z"/>
			<path class="st4" d="M30.86,40.2c-0.13,0.11-0.26,0.22-0.4,0.3c-1-0.37-2.08-0.56-3.2-0.56v-0.42
				C28.51,39.53,29.73,39.75,30.86,40.2z"/>
			<path class="st7" d="M30,40.77c0.16-0.09,0.32-0.17,0.46-0.27c0.17,0.04,0.33,0.11,0.49,0.17c-0.14,0.11-0.3,0.2-0.44,0.29
				C30.34,40.89,30.17,40.83,30,40.77z"/>
			<path class="st4" d="M27.23,42.29c1.38,0,2.67-0.42,3.74-1.13c0.4,0.16,0.79,0.37,1.16,0.6c-1.71,2.22-2.71,5.02-2.71,8.03v8.34
				c0,0.16,0.01,0.3,0.03,0.44h-8.55c-1.52,0-2.75-1.25-2.75-2.77v-6.27c0-3.71,2.21-6.93,5.36-8.37
				C24.59,41.88,25.87,42.29,27.23,42.29z"/>
			<path class="st7" d="M30.34,58.98c0.04,0.14,0.09,0.29,0.13,0.42h-0.44c-0.04-0.14-0.07-0.27-0.1-0.42H30.34z"/>
			<path class="st7" d="M30.47,59.4c0.53,1.49,1.95,2.57,3.6,2.57H51c1.66,0,3.08-1.08,3.61-2.57h0.43
				c-0.54,1.72-2.15,2.97-4.04,2.97H34.07c-1.89,0-3.5-1.25-4.04-2.97H30.47z"/>
			<path class="st7" d="M30.34,58.98h-0.42c-0.03-0.13-0.04-0.26-0.06-0.4h0.42C30.3,58.72,30.33,58.85,30.34,58.98z"/>
			<path class="st7" d="M32.79,42.25c-1.59,2.09-2.54,4.7-2.54,7.54v8.34c0,0.16,0.01,0.3,0.03,0.44h-0.42
				c-0.01-0.14-0.03-0.29-0.03-0.44v-8.34c0-2.92,0.97-5.62,2.64-7.79C32.59,42.08,32.69,42.15,32.79,42.25z"/>
			<path class="st7" d="M30.03,59.4c0.54,1.72,2.15,2.97,4.04,2.97H51c1.89,0,3.5-1.25,4.04-2.97h0.42
				c-0.53,1.95-2.32,3.38-4.46,3.38H34.07c-2.12,0-3.91-1.43-4.46-3.38H30.03z"/>
			<path class="st7" d="M30.03,59.4h-0.42c-0.04-0.13-0.09-0.27-0.1-0.42h0.42C29.96,59.12,29.98,59.25,30.03,59.4z"/>
			<path class="st7" d="M29.87,58.58c0.01,0.14,0.03,0.27,0.06,0.4h-0.42c-0.03-0.13-0.06-0.26-0.06-0.4H29.87z"/>
			<path class="st7" d="M32.48,42.01c-1.66,2.17-2.64,4.86-2.64,7.79v8.34c0,0.16,0.01,0.3,0.03,0.44h-0.42
				c-0.01-0.14-0.03-0.29-0.03-0.44v-8.34c0-3.01,1-5.81,2.71-8.03C32.25,41.85,32.38,41.92,32.48,42.01z"/>
			<path class="st4" d="M30,40.77c-0.83,0.44-1.76,0.69-2.77,0.69c-0.97,0-1.91-0.24-2.72-0.67c0.87-0.29,1.79-0.43,2.75-0.43
				C28.21,40.36,29.12,40.5,30,40.77z"/>
			<path class="st4" d="M21.3,35.52c0-3.27,2.67-5.94,5.94-5.94s5.94,2.67,5.94,5.94c0,1.91-0.9,3.6-2.31,4.67
				c-1.13-0.44-2.35-0.67-3.6-0.67c-1.28,0-2.51,0.24-3.63,0.7C22.21,39.15,21.3,37.45,21.3,35.52z"/>
			<path class="st7" d="M27.23,42.29c-1.36,0-2.64-0.42-3.71-1.12c0.16-0.07,0.32-0.14,0.47-0.2c0.95,0.57,2.05,0.9,3.24,0.9
				c1.19,0,2.31-0.33,3.27-0.92c0.17,0.06,0.33,0.11,0.47,0.2C29.9,41.88,28.61,42.29,27.23,42.29z"/>
			<path class="st4" d="M24.03,40.51c1-0.37,2.09-0.57,3.23-0.57c1.12,0,2.19,0.19,3.2,0.56c-0.14,0.1-0.3,0.19-0.46,0.27
				c-0.87-0.27-1.79-0.42-2.74-0.42c-0.96,0-1.88,0.14-2.75,0.43C24.34,40.72,24.18,40.61,24.03,40.51z"/>
			<path class="st7" d="M27.23,41.46c1,0,1.94-0.24,2.77-0.69c0.17,0.06,0.34,0.11,0.5,0.19c-0.96,0.59-2.08,0.92-3.27,0.92
				c-1.19,0-2.29-0.33-3.24-0.9c0.17-0.07,0.34-0.13,0.52-0.19C25.32,41.22,26.26,41.46,27.23,41.46z"/>
			<path class="st4" d="M27.26,39.94c-1.13,0-2.22,0.2-3.23,0.57c-0.14-0.09-0.27-0.17-0.4-0.29c1.12-0.46,2.35-0.7,3.63-0.7V39.94z
				"/>
			<path class="st7" d="M24.51,40.79c-0.17,0.06-0.34,0.11-0.52,0.19c-0.14-0.07-0.29-0.17-0.43-0.27c0.16-0.07,0.32-0.13,0.47-0.19
				C24.18,40.61,24.34,40.72,24.51,40.79z"/>
			<path class="st7" d="M23.63,40.23c0.13,0.11,0.26,0.2,0.4,0.29c-0.16,0.06-0.32,0.11-0.47,0.19c0,0,0,0-0.01,0
				c-0.13-0.1-0.24-0.19-0.37-0.29C23.32,40.34,23.48,40.28,23.63,40.23z"/>
			<path class="st7" d="M23.99,40.97c-0.16,0.06-0.32,0.13-0.47,0.2c-0.13-0.09-0.27-0.17-0.39-0.27c0.13-0.07,0.27-0.14,0.42-0.2
				c0.01,0,0.01,0,0.01,0C23.7,40.8,23.85,40.9,23.99,40.97z"/>
			<path class="st7" d="M23.55,40.7c-0.14,0.06-0.29,0.13-0.42,0.2c-0.11-0.09-0.23-0.19-0.34-0.29c0.13-0.09,0.26-0.14,0.39-0.2
				C23.3,40.51,23.42,40.6,23.55,40.7z"/>
			<path class="st7" d="M21.3,35.52c0,1.92,0.92,3.63,2.34,4.7c-0.16,0.06-0.32,0.11-0.46,0.19c-1.41-1.16-2.29-2.92-2.29-4.89
				c0-3.5,2.84-6.35,6.35-6.35c3.5,0,6.35,2.85,6.35,6.35c0,1.95-0.89,3.7-2.27,4.86c-0.14-0.07-0.3-0.13-0.46-0.19
				c1.41-1.08,2.31-2.77,2.31-4.67c0-3.27-2.67-5.94-5.94-5.94S21.3,32.26,21.3,35.52z"/>
			<path class="st7" d="M20.46,35.52c0-3.73,3.04-6.75,6.77-6.75c3.03,0,5.61,1.99,6.47,4.75c0.2,0.63,0.3,1.3,0.3,2.01
				c0,2.02-0.89,3.83-2.29,5.06l-0.39-0.2c1.38-1.16,2.27-2.91,2.27-4.86c0-3.5-2.85-6.35-6.35-6.35c-3.51,0-6.35,2.85-6.35,6.35
				c0,1.96,0.89,3.73,2.29,4.89c-0.13,0.06-0.26,0.11-0.39,0.2C21.37,39.38,20.46,37.56,20.46,35.52z"/>
			<path class="st7" d="M20.91,58.58h8.55c0,0.14,0.03,0.27,0.06,0.4h-8.6c-1.75,0-3.17-1.42-3.17-3.17v-6.27
				c0-3.79,2.19-7.1,5.39-8.65c0.11,0.1,0.26,0.19,0.39,0.27c-3.15,1.45-5.36,4.66-5.36,8.37v6.27
				C18.16,57.33,19.39,58.58,20.91,58.58z"/>
			<path class="st7" d="M20.91,59.4c-1.98,0-3.58-1.61-3.58-3.58v-6.27c0-3.9,2.22-7.28,5.46-8.93c0.11,0.1,0.23,0.2,0.34,0.29
				c-3.2,1.55-5.39,4.86-5.39,8.65v6.27c0,1.75,1.42,3.17,3.17,3.17h8.6c0.01,0.14,0.06,0.29,0.1,0.42H20.91z"/>
		</g>
	</g>
</g>
</svg>
