<?xml version="1.0" encoding="utf-8"?>
<!-- Generator: Adobe Illustrator 23.0.0, SVG Export Plug-In . SVG Version: 6.00 Build 0)  -->
<svg version="1.1" id="Layer_1" xmlns="http://www.w3.org/2000/svg" xmlns:xlink="http://www.w3.org/1999/xlink" x="0px" y="0px"
	 viewBox="0 0 85 85" style="enable-background:new 0 0 85 85;" xml:space="preserve">
<style type="text/css">
	.st0{clip-path:url(#XMLID_2_);fill:#F16355;}
	.st1{fill:none;stroke:#FFFFFF;stroke-width:2;stroke-linecap:round;stroke-linejoin:round;stroke-miterlimit:10;}
	.st2{clip-path:url(#SVGID_2_);}
	.st3{clip-path:url(#XMLID_3_);fill:#F16355;}
	.st4{fill:#FFFFFF;}
	.st5{clip-path:url(#XMLID_4_);fill:#F16355;}
	.st6{clip-path:url(#XMLID_5_);fill:#F16355;}
	.st7{fill:#F16355;}
	.st8{clip-path:url(#XMLID_6_);fill:#F16355;}
</style>
<g id="XMLID_142_">
	<defs>
		<path id="XMLID_143_" d="M85,42.5C85,65.97,65.97,85,42.5,85C19.03,85,0,65.97,0,42.5C0,19.03,19.03,0,42.5,0
			C65.97,0,85,19.03,85,42.5z"/>
	</defs>
	<use xlink:href="#XMLID_143_"  style="overflow:visible;fill:#F16355;"/>
	<clipPath id="XMLID_2_">
		<use xlink:href="#XMLID_143_"  style="overflow:visible;"/>
	</clipPath>
	<path id="XMLID_144_" class="st0" d="M85,42.67c0,23.47-19.03,42.5-42.5,42.5C19.03,85.17,0,66.14,0,42.67s19.03-42.5,42.5-42.5
		C65.97,0.17,85,19.2,85,42.67z"/>
</g>
<g>
	<g>
		
			<rect x="27.42" y="35.01" transform="matrix(0.7071 -0.7071 0.7071 0.7071 -17.117 42.7019)" class="st1" width="31.14" height="14"/>
		<path class="st1" d="M34.1,60.8l-1.41,1.41c-1.56,1.56-4.1,1.56-5.66,0l-4.24-4.24c-1.56-1.56-1.56-4.1,0-5.66l1.41-1.41
			L34.1,60.8z"/>
		<rect x="23.56" y="52.44" transform="matrix(0.7071 0.7071 -0.7071 0.7071 47.4449 -5.6659)" class="st1" width="14" height="4"/>
		<path class="st1" d="M62.12,21.65l-13.07,4.4l9.9,9.9l4.4-13.07C63.55,22.13,62.87,21.45,62.12,21.65z M56.51,23.81l4.68,4.68
			L56.51,23.81z"/>
	</g>
	<g>
		<defs>
			<path id="SVGID_1_" d="M43.21,31.89L31.89,43.21L19.87,31.19c-0.78-0.78-0.78-2.05,0-2.83l8.49-8.49c0.78-0.78,2.05-0.78,2.83,0
				L43.21,31.89z M65.13,53.81L53.11,41.79L41.79,53.11l12.02,12.02c0.78,0.78,2.05,0.78,2.83,0l8.49-8.49
				C65.91,55.86,65.91,54.59,65.13,53.81z"/>
		</defs>
		<clipPath id="SVGID_2_">
			<use xlink:href="#SVGID_1_"  style="overflow:visible;"/>
		</clipPath>
		<g class="st2">
			<path class="st1" d="M65.13,56.64l-8.49,8.49c-0.78,0.78-2.05,0.78-2.83,0L19.87,31.19c-0.78-0.78-0.78-2.05,0-2.83l8.49-8.49
				c0.78-0.78,2.05-0.78,2.83,0l33.94,33.94C65.91,54.59,65.91,55.86,65.13,56.64z"/>
			<g>
				
					<rect x="21.53" y="31.14" transform="matrix(0.7066 -0.7076 0.7076 0.7066 -14.5771 27.2125)" class="st1" width="8" height="0.1"/>
				
					<rect x="24.94" y="35.38" transform="matrix(0.7071 -0.7071 0.7071 0.7071 -17.1603 29.4288)" class="st1" width="4" height="0.1"/>
				
					<rect x="27.77" y="38.21" transform="matrix(0.7071 -0.7071 0.7071 0.7071 -18.3319 32.2574)" class="st1" width="4" height="0.1"/>
				
					<rect x="30.6" y="41.04" transform="matrix(0.7076 -0.7066 0.7066 0.7076 -19.4993 35.0489)" class="st1" width="4" height="0.1"/>
				
					<rect x="33.43" y="43.86" transform="matrix(0.7071 -0.7071 0.7071 0.7071 -20.6751 37.9141)" class="st1" width="4" height="0.1"/>
				
					<rect x="35.67" y="45.28" transform="matrix(0.7066 -0.7077 0.7077 0.7066 -20.4357 41.3747)" class="st1" width="8" height="0.1"/>
				
					<rect x="39.09" y="49.52" transform="matrix(0.7066 -0.7076 0.7076 0.7066 -23.0226 43.6169)" class="st1" width="4" height="0.1"/>
				
					<rect x="41.91" y="52.35" transform="matrix(0.7071 -0.7071 0.7071 0.7071 -24.1898 46.3995)" class="st1" width="4" height="0.1"/>
				
					<rect x="44.74" y="55.18" transform="matrix(0.7071 -0.7071 0.7071 0.7071 -25.3612 49.2233)" class="st1" width="4" height="0.1"/>
				
					<rect x="47.57" y="58.01" transform="matrix(0.7071 -0.7071 0.7071 0.7071 -26.5333 52.0563)" class="st1" width="4" height="0.1"/>
				
					<rect x="49.81" y="59.42" transform="matrix(0.7071 -0.7071 0.7071 0.7071 -26.2905 55.4705)" class="st1" width="8" height="0.1"/>
			</g>
		</g>
		
			<use xlink:href="#SVGID_1_"  style="overflow:visible;fill:none;stroke:#FFFFFF;stroke-width:2;stroke-linecap:round;stroke-linejoin:round;stroke-miterlimit:10;"/>
	</g>
</g>
</svg>
