<?xml version="1.0" encoding="utf-8"?>
<!-- Generator: Adobe Illustrator 23.0.0, SVG Export Plug-In . SVG Version: 6.00 Build 0)  -->
<svg version="1.1" id="Layer_1" xmlns="http://www.w3.org/2000/svg" xmlns:xlink="http://www.w3.org/1999/xlink" x="0px" y="0px"
	 viewBox="0 0 85 85" style="enable-background:new 0 0 85 85;" xml:space="preserve">
<style type="text/css">
	.st0{clip-path:url(#XMLID_2_);fill:#F16355;}
	.st1{fill:none;stroke:#FFFFFF;stroke-width:2;stroke-linecap:round;stroke-linejoin:round;stroke-miterlimit:10;}
	.st2{clip-path:url(#SVGID_2_);}
	.st3{clip-path:url(#XMLID_3_);fill:#F16355;}
	.st4{fill:#FFFFFF;}
	.st5{clip-path:url(#XMLID_4_);fill:#F16355;}
	.st6{clip-path:url(#XMLID_5_);fill:#F16355;}
	.st7{fill:#F16355;}
	.st8{clip-path:url(#XMLID_6_);fill:#F16355;}
</style>
<g id="XMLID_145_">
	<defs>
		<path id="XMLID_146_" d="M85,42.5C85,65.97,65.97,85,42.5,85C19.03,85,0,65.97,0,42.5C0,19.03,19.03,0,42.5,0
			C65.97,0,85,19.03,85,42.5z"/>
	</defs>
	<use xlink:href="#XMLID_146_"  style="overflow:visible;fill:#F16355;"/>
	<clipPath id="XMLID_2_">
		<use xlink:href="#XMLID_146_"  style="overflow:visible;"/>
	</clipPath>
	<path id="XMLID_147_" class="st0" d="M85,42.67c0,23.47-19.03,42.5-42.5,42.5C19.03,85.17,0,66.14,0,42.67s19.03-42.5,42.5-42.5
		C65.97,0.17,85,19.2,85,42.67z"/>
</g>
<g>
	<path class="st4" d="M44.01,33h-2.98l0.9-3.95c0.23-0.97,0.44-2.37,0.55-3.16h0.06c0.11,0.78,0.34,2.19,0.54,3.16L44.01,33z"/>
	<path class="st4" d="M52.5,19.46H32.5c-0.61,0-1.11,0.5-1.11,1.11v20.01c0,0.61,0.5,1.11,1.11,1.11H52.5c0.61,0,1.11-0.5,1.11-1.11
		V20.58C53.62,19.96,53.12,19.46,52.5,19.46z M43.98,20.8h1.72c0.25,0,0.44,0.2,0.44,0.44c0,0.25-0.2,0.44-0.44,0.44h-1.72
		c-0.25,0-0.44-0.2-0.44-0.44C43.53,20.99,43.73,20.8,43.98,20.8z M40.53,20.8h1.73c0.24,0,0.44,0.2,0.44,0.44
		c0,0.25-0.2,0.44-0.44,0.44h-1.73c-0.25,0-0.44-0.2-0.44-0.44C40.08,20.99,40.28,20.8,40.53,20.8z M33.61,38.58
		c0,0.25-0.2,0.45-0.44,0.45s-0.44-0.2-0.44-0.44v-1.74c0-0.24,0.2-0.44,0.44-0.44s0.44,0.2,0.44,0.44V38.58z M33.61,35.13
		c0,0.25-0.2,0.44-0.44,0.44s-0.44-0.2-0.44-0.44v-1.72c0-0.25,0.2-0.44,0.44-0.44s0.44,0.2,0.44,0.44V35.13z M33.61,31.69
		c0,0.24-0.2,0.44-0.44,0.44s-0.44-0.2-0.44-0.44v-1.73c0-0.25,0.2-0.44,0.44-0.44s0.44,0.2,0.44,0.44V31.69z M33.61,28.24
		c0,0.25-0.2,0.44-0.44,0.44s-0.44-0.2-0.44-0.44v-1.73c0-0.24,0.2-0.44,0.44-0.44s0.44,0.2,0.44,0.44V28.24z M33.61,24.79
		c0,0.25-0.2,0.44-0.44,0.44s-0.44-0.2-0.44-0.44v-1.73c0-0.24,0.2-0.44,0.44-0.44s0.44,0.2,0.44,0.44V24.79z M33.34,21.79
		c-0.15-0.2-0.12-0.48,0.08-0.62c0.31-0.24,0.68-0.36,1.08-0.36h0.85c0.25,0,0.44,0.2,0.44,0.44c0,0.25-0.2,0.44-0.44,0.44H34.5
		c-0.2,0-0.38,0.06-0.53,0.18c-0.08,0.06-0.18,0.09-0.28,0.09C33.55,21.95,33.42,21.9,33.34,21.79z M35.87,40.36H34.5
		c-0.16,0-0.31-0.02-0.47-0.06c-0.23-0.06-0.37-0.31-0.31-0.54c0.06-0.24,0.31-0.38,0.54-0.32c0.08,0.03,0.16,0.04,0.24,0.04h1.37
		c0.24,0,0.44,0.2,0.44,0.44C36.31,40.17,36.11,40.36,35.87,40.36z M36.63,21.24c0-0.25,0.2-0.44,0.44-0.44h1.73
		c0.25,0,0.44,0.2,0.44,0.44c0,0.25-0.2,0.44-0.44,0.44h-1.73C36.84,21.69,36.63,21.49,36.63,21.24z M39.31,40.36h-1.72
		c-0.25,0-0.44-0.2-0.44-0.44c0-0.25,0.2-0.44,0.44-0.44h1.72c0.25,0,0.44,0.2,0.44,0.44C39.75,40.17,39.56,40.36,39.31,40.36z
		 M42.76,40.36h-1.73c-0.24,0-0.44-0.2-0.44-0.44c0-0.25,0.2-0.44,0.44-0.44h1.73c0.25,0,0.44,0.2,0.44,0.44
		C43.2,40.17,43.01,40.36,42.76,40.36z M46.21,40.36h-1.73c-0.25,0-0.44-0.2-0.44-0.44c0-0.25,0.2-0.44,0.44-0.44h1.73
		c0.24,0,0.44,0.2,0.44,0.44C46.65,40.17,46.45,40.36,46.21,40.36z M45.15,37.94l-0.69-2.96h-3.89l-0.68,2.96h-2.22l3.69-14.71h2.29
		l3.7,14.71H45.15z M46.97,21.24c0-0.25,0.2-0.44,0.44-0.44h1.73c0.25,0,0.44,0.2,0.44,0.44c0,0.25-0.2,0.44-0.44,0.44h-1.73
		C47.18,21.69,46.97,21.49,46.97,21.24z M49.65,40.36h-1.72c-0.25,0-0.44-0.2-0.44-0.44c0-0.25,0.2-0.44,0.44-0.44h1.72
		c0.25,0,0.44,0.2,0.44,0.44C50.09,40.17,49.9,40.36,49.65,40.36z M52.28,38.58c0,0.56-0.26,1.07-0.69,1.41
		c-0.08,0.06-0.18,0.09-0.28,0.09c-0.13,0-0.26-0.06-0.35-0.18c-0.15-0.19-0.12-0.47,0.08-0.62c0.22-0.17,0.35-0.43,0.35-0.7v-0.5
		c0-0.25,0.2-0.44,0.44-0.44s0.44,0.2,0.44,0.44V38.58z M52.28,36.36c0,0.24-0.2,0.44-0.44,0.44s-0.44-0.2-0.44-0.44v-1.73
		c0-0.25,0.2-0.44,0.44-0.44s0.44,0.2,0.44,0.44V36.36z M52.28,32.91c0,0.25-0.2,0.44-0.44,0.44s-0.44-0.2-0.44-0.44v-1.73
		c0-0.24,0.2-0.44,0.44-0.44s0.44,0.2,0.44,0.44V32.91z M52.28,29.46c0,0.25-0.2,0.44-0.44,0.44s-0.44-0.2-0.44-0.44v-1.72
		c0-0.25,0.2-0.44,0.44-0.44s0.44,0.2,0.44,0.44V29.46z M52.28,26.02c0,0.24-0.2,0.44-0.44,0.44s-0.44-0.2-0.44-0.44v-1.73
		c0-0.25,0.2-0.44,0.44-0.44s0.44,0.2,0.44,0.44V26.02z M51.84,23.01c-0.25,0-0.44-0.2-0.44-0.44c0-0.39-0.27-0.74-0.65-0.84
		c-0.24-0.07-0.37-0.31-0.31-0.55c0.07-0.23,0.31-0.37,0.55-0.31c0.76,0.21,1.29,0.92,1.3,1.71C52.28,22.81,52.09,23.01,51.84,23.01
		z"/>
	<path class="st4" d="M32.01,51.29c0,1.43-0.65,2.16-1.93,2.16H28.4v-4.22h1.62C31.38,49.24,32.01,49.91,32.01,51.29z"/>
	<path class="st4" d="M40.5,43.48H20.49c-0.61,0-1.11,0.5-1.11,1.11V64.6c0,0.61,0.5,1.11,1.11,1.11H40.5c0.61,0,1.11-0.5,1.11-1.11
		V44.59C41.61,43.97,41.11,43.48,40.5,43.48z M31.97,44.81h1.72c0.25,0,0.44,0.2,0.44,0.44c0,0.25-0.2,0.44-0.44,0.44h-1.72
		c-0.25,0-0.44-0.2-0.44-0.44C31.53,45.01,31.72,44.81,31.97,44.81z M28.52,44.81h1.73c0.24,0,0.44,0.2,0.44,0.44
		c0,0.25-0.2,0.44-0.44,0.44h-1.73c-0.25,0-0.44-0.2-0.44-0.44C28.08,45.01,28.27,44.81,28.52,44.81z M21.6,62.6
		c0,0.25-0.2,0.45-0.44,0.45c-0.25,0-0.44-0.2-0.44-0.44v-1.74c0-0.24,0.2-0.44,0.44-0.44c0.25,0,0.44,0.2,0.44,0.44V62.6z
		 M21.6,59.14c0,0.25-0.2,0.44-0.44,0.44c-0.25,0-0.44-0.2-0.44-0.44v-1.72c0-0.25,0.2-0.44,0.44-0.44c0.25,0,0.44,0.2,0.44,0.44
		V59.14z M21.6,55.7c0,0.24-0.2,0.44-0.44,0.44c-0.25,0-0.44-0.2-0.44-0.44v-1.73c0-0.25,0.2-0.44,0.44-0.44
		c0.25,0,0.44,0.2,0.44,0.44V55.7z M21.6,52.25c0,0.25-0.2,0.44-0.44,0.44c-0.25,0-0.44-0.2-0.44-0.44v-1.73
		c0-0.24,0.2-0.44,0.44-0.44c0.25,0,0.44,0.2,0.44,0.44V52.25z M21.6,48.8c0,0.25-0.2,0.44-0.44,0.44c-0.25,0-0.44-0.2-0.44-0.44
		v-1.73c0-0.24,0.2-0.44,0.44-0.44c0.25,0,0.44,0.2,0.44,0.44V48.8z M21.33,45.8c-0.15-0.2-0.12-0.48,0.08-0.62
		c0.31-0.24,0.68-0.36,1.08-0.36h0.85c0.25,0,0.44,0.2,0.44,0.44c0,0.25-0.2,0.44-0.44,0.44h-0.85c-0.2,0-0.38,0.06-0.53,0.18
		c-0.08,0.06-0.18,0.09-0.28,0.09C21.55,45.97,21.41,45.91,21.33,45.8z M23.86,64.37h-1.37c-0.16,0-0.31-0.02-0.47-0.06
		c-0.23-0.06-0.37-0.31-0.31-0.54c0.06-0.24,0.31-0.38,0.54-0.32c0.08,0.03,0.16,0.04,0.24,0.04h1.37c0.24,0,0.44,0.2,0.44,0.44
		C24.31,64.18,24.1,64.37,23.86,64.37z M24.63,45.25c0-0.25,0.2-0.44,0.44-0.44h1.73c0.25,0,0.44,0.2,0.44,0.44
		c0,0.25-0.2,0.44-0.44,0.44h-1.73C24.83,45.7,24.63,45.5,24.63,45.25z M27.3,64.37h-1.72c-0.25,0-0.44-0.2-0.44-0.44
		c0-0.25,0.2-0.44,0.44-0.44h1.72c0.25,0,0.44,0.2,0.44,0.44C27.75,64.18,27.55,64.37,27.3,64.37z M30.75,64.37h-1.73
		c-0.24,0-0.44-0.2-0.44-0.44c0-0.25,0.2-0.44,0.44-0.44h1.73c0.25,0,0.44,0.2,0.44,0.44C31.2,64.18,31,64.37,30.75,64.37z
		 M34.2,64.37h-1.73c-0.25,0-0.44-0.2-0.44-0.44c0-0.25,0.2-0.44,0.44-0.44h1.73c0.24,0,0.44,0.2,0.44,0.44
		C34.65,64.18,34.44,64.37,34.2,64.37z M30.48,61.95h-4.21V47.24h3.99c2.37,0,3.9,1.54,3.9,3.99c0,1.43-0.59,2.59-1.49,3.15
		c1.25,0.52,2.04,1.77,2.04,3.36C34.72,60.37,33.04,61.95,30.48,61.95z M34.97,45.25c0-0.25,0.2-0.44,0.44-0.44h1.73
		c0.25,0,0.44,0.2,0.44,0.44c0,0.25-0.2,0.44-0.44,0.44h-1.73C35.17,45.7,34.97,45.5,34.97,45.25z M37.64,64.37h-1.72
		c-0.25,0-0.44-0.2-0.44-0.44c0-0.25,0.2-0.44,0.44-0.44h1.72c0.25,0,0.44,0.2,0.44,0.44C38.09,64.18,37.89,64.37,37.64,64.37z
		 M40.28,62.6c0,0.56-0.26,1.07-0.69,1.41c-0.08,0.06-0.18,0.09-0.28,0.09c-0.13,0-0.26-0.06-0.35-0.18
		c-0.15-0.19-0.12-0.47,0.08-0.62c0.22-0.17,0.35-0.43,0.35-0.7v-0.5c0-0.25,0.2-0.44,0.44-0.44c0.25,0,0.44,0.2,0.44,0.44V62.6z
		 M40.28,60.37c0,0.24-0.2,0.44-0.44,0.44c-0.25,0-0.44-0.2-0.44-0.44v-1.73c0-0.25,0.2-0.44,0.44-0.44c0.25,0,0.44,0.2,0.44,0.44
		V60.37z M40.28,56.92c0,0.25-0.2,0.44-0.44,0.44c-0.25,0-0.44-0.2-0.44-0.44V55.2c0-0.24,0.2-0.44,0.44-0.44
		c0.25,0,0.44,0.2,0.44,0.44V56.92z M40.28,53.47c0,0.25-0.2,0.44-0.44,0.44c-0.25,0-0.44-0.2-0.44-0.44v-1.72
		c0-0.25,0.2-0.44,0.44-0.44c0.25,0,0.44,0.2,0.44,0.44V53.47z M40.28,50.03c0,0.24-0.2,0.44-0.44,0.44c-0.25,0-0.44-0.2-0.44-0.44
		V48.3c0-0.25,0.2-0.44,0.44-0.44c0.25,0,0.44,0.2,0.44,0.44V50.03z M39.83,47.02c-0.25,0-0.44-0.2-0.44-0.44
		c0-0.39-0.27-0.74-0.65-0.84c-0.24-0.07-0.37-0.31-0.31-0.55c0.07-0.23,0.31-0.37,0.55-0.31c0.76,0.21,1.29,0.92,1.3,1.71
		C40.28,46.82,40.08,47.02,39.83,47.02z"/>
	<path class="st4" d="M32.56,57.74c0,1.49-0.8,2.21-2.36,2.21H28.4v-4.49h1.73C31.61,55.45,32.56,56.23,32.56,57.74z"/>
	<path class="st4" d="M64.51,43.48H44.5c-0.61,0-1.11,0.5-1.11,1.11V64.6c0,0.61,0.5,1.11,1.11,1.11h20.01
		c0.61,0,1.11-0.5,1.11-1.11V44.59C65.62,43.97,65.12,43.48,64.51,43.48z M55.98,44.81h1.72c0.25,0,0.44,0.2,0.44,0.44
		c0,0.25-0.2,0.44-0.44,0.44h-1.72c-0.25,0-0.44-0.2-0.44-0.44C55.54,45.01,55.73,44.81,55.98,44.81z M52.53,44.81h1.73
		c0.24,0,0.44,0.2,0.44,0.44c0,0.25-0.2,0.44-0.44,0.44h-1.73c-0.25,0-0.44-0.2-0.44-0.44C52.09,45.01,52.28,44.81,52.53,44.81z
		 M45.61,62.6c0,0.25-0.2,0.45-0.44,0.45c-0.25,0-0.44-0.2-0.44-0.44v-1.74c0-0.24,0.2-0.44,0.44-0.44c0.25,0,0.44,0.2,0.44,0.44
		V62.6z M45.61,59.14c0,0.25-0.2,0.44-0.44,0.44c-0.25,0-0.44-0.2-0.44-0.44v-1.72c0-0.25,0.2-0.44,0.44-0.44
		c0.25,0,0.44,0.2,0.44,0.44V59.14z M45.61,55.7c0,0.24-0.2,0.44-0.44,0.44c-0.25,0-0.44-0.2-0.44-0.44v-1.73
		c0-0.25,0.2-0.44,0.44-0.44c0.25,0,0.44,0.2,0.44,0.44V55.7z M45.61,52.25c0,0.25-0.2,0.44-0.44,0.44c-0.25,0-0.44-0.2-0.44-0.44
		v-1.73c0-0.24,0.2-0.44,0.44-0.44c0.25,0,0.44,0.2,0.44,0.44V52.25z M45.61,48.8c0,0.25-0.2,0.44-0.44,0.44
		c-0.25,0-0.44-0.2-0.44-0.44v-1.73c0-0.24,0.2-0.44,0.44-0.44c0.25,0,0.44,0.2,0.44,0.44V48.8z M45.35,45.8
		c-0.15-0.2-0.12-0.48,0.08-0.62c0.31-0.24,0.68-0.36,1.08-0.36h0.85c0.25,0,0.44,0.2,0.44,0.44c0,0.25-0.2,0.44-0.44,0.44H46.5
		c-0.2,0-0.38,0.06-0.53,0.18c-0.08,0.06-0.18,0.09-0.28,0.09C45.56,45.97,45.43,45.91,45.35,45.8z M47.87,64.37H46.5
		c-0.16,0-0.31-0.02-0.47-0.06c-0.23-0.06-0.37-0.31-0.31-0.54c0.06-0.24,0.31-0.38,0.54-0.32c0.08,0.03,0.16,0.04,0.24,0.04h1.37
		c0.24,0,0.44,0.2,0.44,0.44C48.32,64.18,48.11,64.37,47.87,64.37z M48.64,45.25c0-0.25,0.2-0.44,0.44-0.44h1.73
		c0.25,0,0.44,0.2,0.44,0.44c0,0.25-0.2,0.44-0.44,0.44h-1.73C48.84,45.7,48.64,45.5,48.64,45.25z M51.31,64.37H49.6
		c-0.25,0-0.44-0.2-0.44-0.44c0-0.25,0.2-0.44,0.44-0.44h1.72c0.25,0,0.44,0.2,0.44,0.44C51.76,64.18,51.56,64.37,51.31,64.37z
		 M54.76,64.37h-1.73c-0.24,0-0.44-0.2-0.44-0.44c0-0.25,0.2-0.44,0.44-0.44h1.73c0.25,0,0.44,0.2,0.44,0.44
		C55.21,64.18,55.01,64.37,54.76,64.37z M58.21,64.37h-1.73c-0.25,0-0.44-0.2-0.44-0.44c0-0.25,0.2-0.44,0.44-0.44h1.73
		c0.24,0,0.44,0.2,0.44,0.44C58.66,64.18,58.45,64.37,58.21,64.37z M54.42,62.2c-2.58,0-4.26-1.62-4.26-4.58v-6.05
		c0-2.98,1.66-4.6,4.24-4.6c2.67,0,4.24,1.59,4.37,4.52h-2.1c-0.12-1.73-0.88-2.5-2.29-2.5c-1.24,0-2.06,0.82-2.06,2.58v6.05
		c0,1.74,0.82,2.56,2.1,2.56c1.43,0,2.19-0.79,2.34-2.47h2.1C58.7,60.61,57.13,62.2,54.42,62.2z M58.98,45.25
		c0-0.25,0.2-0.44,0.44-0.44h1.73c0.25,0,0.44,0.2,0.44,0.44c0,0.25-0.2,0.44-0.44,0.44h-1.73C59.18,45.7,58.98,45.5,58.98,45.25z
		 M61.66,64.37h-1.72c-0.25,0-0.44-0.2-0.44-0.44c0-0.25,0.2-0.44,0.44-0.44h1.72c0.25,0,0.44,0.2,0.44,0.44
		C62.1,64.18,61.9,64.37,61.66,64.37z M64.29,62.6c0,0.56-0.26,1.07-0.69,1.41c-0.08,0.06-0.18,0.09-0.28,0.09
		c-0.13,0-0.26-0.06-0.35-0.18c-0.15-0.19-0.12-0.47,0.08-0.62c0.22-0.17,0.35-0.43,0.35-0.7v-0.5c0-0.25,0.2-0.44,0.44-0.44
		c0.25,0,0.44,0.2,0.44,0.44V62.6z M64.29,60.37c0,0.24-0.2,0.44-0.44,0.44c-0.25,0-0.44-0.2-0.44-0.44v-1.73
		c0-0.25,0.2-0.44,0.44-0.44c0.25,0,0.44,0.2,0.44,0.44V60.37z M64.29,56.92c0,0.25-0.2,0.44-0.44,0.44c-0.25,0-0.44-0.2-0.44-0.44
		V55.2c0-0.24,0.2-0.44,0.44-0.44c0.25,0,0.44,0.2,0.44,0.44V56.92z M64.29,53.47c0,0.25-0.2,0.44-0.44,0.44
		c-0.25,0-0.44-0.2-0.44-0.44v-1.72c0-0.25,0.2-0.44,0.44-0.44c0.25,0,0.44,0.2,0.44,0.44V53.47z M64.29,50.03
		c0,0.24-0.2,0.44-0.44,0.44c-0.25,0-0.44-0.2-0.44-0.44V48.3c0-0.25,0.2-0.44,0.44-0.44c0.25,0,0.44,0.2,0.44,0.44V50.03z
		 M63.84,47.02c-0.25,0-0.44-0.2-0.44-0.44c0-0.39-0.27-0.74-0.65-0.84c-0.24-0.07-0.37-0.31-0.31-0.55
		c0.07-0.23,0.31-0.37,0.55-0.31c0.76,0.21,1.29,0.92,1.3,1.71C64.29,46.82,64.09,47.02,63.84,47.02z"/>
</g>
</svg>
