<?xml version="1.0" encoding="utf-8"?>
<!-- Generator: Adobe Illustrator 23.0.0, SVG Export Plug-In . SVG Version: 6.00 Build 0)  -->
<svg version="1.1" id="Layer_1" xmlns="http://www.w3.org/2000/svg" xmlns:xlink="http://www.w3.org/1999/xlink" x="0px" y="0px"
	 viewBox="0 0 85 85" style="enable-background:new 0 0 85 85;" xml:space="preserve">
<style type="text/css">
	.st0{clip-path:url(#XMLID_2_);fill:#F16355;}
	.st1{fill:none;stroke:#FFFFFF;stroke-width:2;stroke-linecap:round;stroke-linejoin:round;stroke-miterlimit:10;}
	.st2{clip-path:url(#SVGID_2_);}
	.st3{clip-path:url(#XMLID_3_);fill:#F16355;}
	.st4{fill:#FFFFFF;}
	.st5{clip-path:url(#XMLID_4_);fill:#F16355;}
	.st6{clip-path:url(#XMLID_5_);fill:#F16355;}
	.st7{fill:#F16355;}
	.st8{clip-path:url(#XMLID_6_);fill:#F16355;}
</style>
<g id="XMLID_79_">
	<defs>
		<path id="XMLID_80_" d="M85,42.59c0,23.47-19.03,42.5-42.5,42.5C19.03,85.09,0,66.06,0,42.59c0-23.47,19.03-42.5,42.5-42.5
			C65.97,0.09,85,19.11,85,42.59z"/>
	</defs>
	<use xlink:href="#XMLID_80_"  style="overflow:visible;fill:#F16355;"/>
	<clipPath id="XMLID_2_">
		<use xlink:href="#XMLID_80_"  style="overflow:visible;"/>
	</clipPath>
	<path id="XMLID_81_" class="st0" d="M85,42.76c0,23.47-19.03,42.5-42.5,42.5C19.03,85.26,0,66.23,0,42.76s19.03-42.5,42.5-42.5
		C65.97,0.26,85,19.29,85,42.76z"/>
</g>
<g id="Certificate_Icon">
	<path class="st4" d="M25.56,65.96c-1.11,0-2.01-0.9-2.01-2.01V22.5c0-1.11,0.9-2.01,2.01-2.01h33.39c1.11,0,2.01,0.9,2.01,2.01
		v23.42c0,0.52-0.42,0.94-0.94,0.94s-0.94-0.42-0.94-0.94V22.5c0-0.08-0.06-0.14-0.14-0.14H25.56c-0.08,0-0.14,0.06-0.14,0.14v41.44
		c0,0.08,0.06,0.14,0.14,0.14H45.3c0.52,0,0.94,0.42,0.94,0.94s-0.42,0.94-0.94,0.94H25.56z"/>
	<path class="st4" d="M45.3,64.48H25.56c-0.3,0-0.54-0.24-0.54-0.54V22.5c0-0.3,0.24-0.54,0.54-0.54h33.39
		c0.3,0,0.54,0.24,0.54,0.54v23.42c0,0.3,0.24,0.54,0.54,0.54c0.3,0,0.54-0.24,0.54-0.54V22.5c0-0.89-0.72-1.61-1.61-1.61H25.56
		c-0.89,0-1.61,0.72-1.61,1.61v41.44c0,0.89,0.72,1.61,1.61,1.61H45.3c0.3,0,0.54-0.24,0.54-0.54C45.84,64.72,45.6,64.48,45.3,64.48
		z"/>
	<path class="st4" d="M55.42,59.83c-2.54,0-4.6-2.06-4.6-4.6c0-2.54,2.06-4.6,4.6-4.6c2.54,0,4.6,2.06,4.6,4.6
		C60.02,57.77,57.96,59.83,55.42,59.83z M55.42,52.5c-1.5,0-2.73,1.22-2.73,2.73s1.22,2.73,2.73,2.73s2.73-1.22,2.73-2.73
		S56.93,52.5,55.42,52.5z"/>
	<path class="st4" d="M59.62,55.23c0-2.32-1.88-4.2-4.2-4.2c-2.32,0-4.2,1.88-4.2,4.2c0,2.32,1.88,4.2,4.2,4.2
		C57.74,59.43,59.62,57.55,59.62,55.23z M52.29,55.23c0-1.72,1.4-3.13,3.13-3.13c1.72,0,3.13,1.4,3.13,3.13
		c0,1.72-1.4,3.13-3.13,3.13C53.7,58.36,52.29,56.95,52.29,55.23z"/>
	<path class="st4" d="M57.06,68.28c-0.47-0.01-0.91-0.31-1.11-0.76l-0.54-1.19c-0.01,0.06-0.03,0.12-0.06,0.17l-0.46,1.01
		c-0.21,0.45-0.64,0.75-1.14,0.76c0,0,0,0,0,0c-0.52,0-0.96-0.26-1.18-0.69l-0.97-1.82l-2.01,0.48c-0.1,0.02-0.2,0.04-0.3,0.04
		c-0.39,0-0.75-0.17-1-0.47c-0.32-0.38-0.39-0.91-0.18-1.36l1.73-3.83c-0.34-0.13-0.67-0.33-0.92-0.67c-0.43-0.6-0.38-1.3-0.33-1.86
		c0.02-0.21,0.04-0.53,0-0.64c-0.03-0.09-0.22-0.32-0.35-0.47c-0.39-0.45-0.86-0.99-0.86-1.75c0-0.76,0.47-1.3,0.84-1.73
		c0.13-0.15,0.34-0.38,0.37-0.48c0.04-0.12,0.01-0.43-0.01-0.64c-0.05-0.56-0.1-1.26,0.33-1.86c0.44-0.6,1.12-0.76,1.67-0.89
		c0.2-0.05,0.51-0.12,0.6-0.19c0.09-0.06,0.25-0.33,0.36-0.51c0.3-0.49,0.67-1.1,1.38-1.33c0.17-0.06,0.35-0.08,0.54-0.08
		c0.48,0,0.92,0.18,1.31,0.34c0.22,0.09,0.5,0.21,0.63,0.21c0.13,0,0.41-0.12,0.62-0.21c0.4-0.17,0.83-0.35,1.32-0.35
		c0.19,0,0.37,0.03,0.54,0.08c0.71,0.23,1.08,0.84,1.38,1.33c0.11,0.18,0.27,0.45,0.36,0.51c0.09,0.07,0.4,0.14,0.6,0.19
		c0.55,0.13,1.24,0.29,1.68,0.89c0.43,0.6,0.38,1.3,0.33,1.86c-0.02,0.22-0.04,0.53-0.01,0.64c0.03,0.1,0.24,0.34,0.36,0.48
		c0.38,0.43,0.85,0.97,0.85,1.74c0,0.76-0.47,1.3-0.85,1.74c-0.13,0.15-0.33,0.38-0.36,0.48c-0.04,0.12-0.01,0.42,0,0.64
		c0.05,0.56,0.1,1.26-0.33,1.86c-0.44,0.6-1.13,0.76-1.68,0.89c-0.22,0.05-0.51,0.12-0.6,0.19c-0.09,0.07-0.25,0.33-0.36,0.51
		c-0.29,0.49-0.66,1.1-1.38,1.33c-0.17,0.06-0.35,0.08-0.54,0.08c-0.49,0-0.92-0.18-1.31-0.34c-0.1-0.04-0.21-0.09-0.33-0.13
		l1.45,3.2l0.62-1.18c0.23-0.43,0.67-0.69,1.15-0.69c0.1,0,0.2,0.01,0.3,0.04l1.3,0.31l-0.85-1.88c-0.1-0.23-0.11-0.48-0.02-0.72
		c0.09-0.23,0.26-0.42,0.49-0.52c0.12-0.06,0.25-0.08,0.38-0.08c0.37,0,0.7,0.22,0.85,0.55l1.33,2.95c0.21,0.46,0.14,0.98-0.18,1.36
		c-0.25,0.3-0.61,0.47-1,0.47c-0.1,0-0.2-0.01-0.3-0.04l-2.01-0.48l-0.97,1.83c-0.22,0.42-0.66,0.69-1.14,0.69L57.06,68.28z
		 M51.9,63.81c0.48,0,0.92,0.26,1.15,0.69l0.63,1.18c0.16-0.3,0.48-0.49,0.83-0.49c0.13,0,0.26,0.03,0.39,0.08
		c0.02,0.01,0.04,0.02,0.06,0.03l-1.08-2.38c-0.13,0.02-0.26,0.04-0.38,0.04c-0.19,0-0.37-0.03-0.54-0.08
		c-0.71-0.23-1.08-0.84-1.38-1.33c-0.01-0.02-0.03-0.05-0.05-0.08l-1.22,2.69l1.3-0.31C51.7,63.82,51.8,63.81,51.9,63.81z
		 M53.49,49.39c-0.04,0.04-0.23,0.36-0.32,0.51c-0.22,0.36-0.46,0.77-0.86,1.05c-0.4,0.29-0.86,0.4-1.27,0.5
		c-0.19,0.04-0.53,0.12-0.61,0.19c0,0.05,0.02,0.4,0.04,0.58c0.04,0.42,0.07,0.9-0.08,1.38c-0.15,0.46-0.46,0.82-0.73,1.13
		c-0.14,0.16-0.36,0.42-0.39,0.52c0.02,0.07,0.26,0.34,0.39,0.49c0.27,0.31,0.58,0.67,0.73,1.13c0.15,0.47,0.12,0.95,0.08,1.38
		c-0.01,0.19-0.04,0.53-0.01,0.63c0.05,0.02,0.39,0.1,0.57,0.14c0.42,0.1,0.88,0.21,1.28,0.5c0.4,0.29,0.64,0.7,0.86,1.05
		c0.09,0.15,0.28,0.47,0.37,0.53c0.05-0.02,0.36-0.15,0.53-0.22c0.38-0.16,0.85-0.35,1.35-0.35s0.97,0.19,1.34,0.35
		c0.18,0.07,0.49,0.2,0.6,0.2c0.03-0.04,0.22-0.34,0.32-0.51c0.22-0.36,0.46-0.77,0.86-1.05c0.4-0.29,0.86-0.4,1.28-0.5
		c0.19-0.04,0.53-0.12,0.61-0.19c0-0.05-0.03-0.41-0.04-0.58c-0.03-0.43-0.07-0.91,0.08-1.38c0.15-0.46,0.45-0.81,0.72-1.12
		c0.13-0.15,0.37-0.43,0.39-0.53c-0.02-0.07-0.25-0.33-0.38-0.49c-0.28-0.32-0.58-0.67-0.73-1.13c-0.15-0.47-0.11-0.95-0.08-1.37
		c0.02-0.18,0.04-0.54,0.01-0.64c-0.05-0.02-0.39-0.1-0.57-0.14c-0.42-0.1-0.88-0.21-1.28-0.5c-0.39-0.29-0.64-0.69-0.86-1.05
		c-0.1-0.17-0.28-0.47-0.37-0.53c-0.05,0.02-0.35,0.14-0.53,0.22c-0.38,0.16-0.84,0.35-1.35,0.35s-0.97-0.2-1.35-0.35
		C53.88,49.51,53.59,49.39,53.49,49.39z"/>
	<path class="st4" d="M61.03,61.67c-0.12-0.27-0.44-0.39-0.71-0.27c-0.27,0.12-0.39,0.44-0.27,0.71l1.18,2.62l-2.09-0.5
		c-0.4-0.1-0.81,0.09-1,0.45l-1.01,1.9l-2.05-4.52c0.12-0.04,0.23-0.06,0.33-0.06c0.21,0,0.5,0.12,0.78,0.24
		c0.36,0.15,0.75,0.31,1.16,0.31c0.14,0,0.28-0.02,0.42-0.06c0.57-0.19,0.88-0.7,1.16-1.16c0.15-0.25,0.31-0.51,0.46-0.62
		c0.16-0.12,0.46-0.19,0.75-0.25c0.51-0.12,1.1-0.26,1.44-0.74c0.35-0.48,0.3-1.07,0.26-1.59c-0.02-0.3-0.05-0.61,0.01-0.8
		c0.06-0.17,0.25-0.4,0.44-0.62c0.35-0.4,0.75-0.86,0.75-1.47c0-0.61-0.4-1.07-0.75-1.47c-0.19-0.22-0.38-0.44-0.44-0.62
		c-0.06-0.19-0.04-0.5-0.01-0.8c0.04-0.52,0.09-1.12-0.26-1.59c-0.35-0.48-0.93-0.62-1.44-0.74c-0.29-0.07-0.59-0.14-0.75-0.25
		c-0.15-0.11-0.31-0.37-0.46-0.62c-0.27-0.45-0.59-0.97-1.16-1.16c-0.55-0.18-1.1,0.05-1.58,0.25c-0.28,0.12-0.57,0.24-0.78,0.24
		c-0.21,0-0.5-0.12-0.78-0.24c-0.48-0.2-1.02-0.43-1.58-0.25c-0.57,0.19-0.88,0.7-1.16,1.16c-0.15,0.25-0.31,0.51-0.46,0.62
		c-0.16,0.12-0.46,0.19-0.75,0.25c-0.51,0.12-1.1,0.26-1.44,0.74c-0.35,0.48-0.3,1.07-0.26,1.59c0.02,0.3,0.05,0.61-0.01,0.8
		c-0.06,0.17-0.25,0.4-0.44,0.62c-0.35,0.4-0.75,0.86-0.75,1.47c0,0.61,0.4,1.07,0.75,1.47c0.19,0.22,0.38,0.44,0.44,0.62
		c0.06,0.19,0.04,0.5,0.01,0.8c-0.04,0.52-0.09,1.12,0.26,1.59c0.28,0.39,0.72,0.55,1.14,0.66l-1.92,4.24
		c-0.14,0.31-0.09,0.67,0.13,0.94c0.22,0.27,0.56,0.38,0.9,0.3l2.31-0.55l1.11,2.1c0.16,0.3,0.46,0.48,0.79,0.48
		c0.01,0,0.02,0,0.03,0c0.34-0.01,0.65-0.21,0.79-0.53l0.46-1.01c0.12-0.27,0-0.59-0.27-0.71c-0.27-0.12-0.59,0-0.71,0.27
		l-0.31,0.68l-1.01-1.9c-0.19-0.36-0.6-0.55-1-0.45l-2.09,0.5l1.83-4.03c0,0,0.01,0.01,0.02,0.01c0.15,0.11,0.31,0.37,0.46,0.62
		c0.27,0.45,0.59,0.97,1.16,1.16c0.35,0.11,0.7,0.06,1.03-0.04l2.22,4.91c0.14,0.31,0.44,0.52,0.79,0.53c0.01,0,0.02,0,0.03,0
		c0.33,0,0.63-0.18,0.79-0.48l1.11-2.1l2.31,0.55c0.33,0.08,0.68-0.04,0.9-0.3c0.22-0.27,0.27-0.63,0.13-0.94L61.03,61.67z
		 M53.4,61.46c-0.19-0.06-0.39-0.4-0.57-0.69c-0.21-0.34-0.42-0.7-0.75-0.94c-0.33-0.24-0.74-0.34-1.13-0.43
		c-0.33-0.08-0.71-0.17-0.82-0.32c-0.11-0.15-0.08-0.54-0.05-0.87c0.03-0.4,0.07-0.82-0.06-1.22c-0.12-0.38-0.39-0.69-0.65-0.99
		c-0.24-0.28-0.48-0.56-0.48-0.77s0.25-0.49,0.48-0.77c0.26-0.3,0.53-0.61,0.65-0.99c0.13-0.4,0.09-0.81,0.06-1.22
		c-0.03-0.34-0.06-0.72,0.05-0.87c0.12-0.16,0.49-0.25,0.82-0.32c0.39-0.09,0.8-0.19,1.13-0.43c0.33-0.24,0.54-0.59,0.75-0.94
		C53,49.39,53.21,49.06,53.4,49c0.17-0.06,0.52,0.09,0.83,0.22c0.36,0.15,0.77,0.32,1.2,0.32c0.42,0,0.83-0.17,1.2-0.32
		c0.31-0.13,0.66-0.27,0.83-0.22c0.19,0.06,0.39,0.4,0.57,0.69c0.21,0.34,0.42,0.7,0.75,0.94c0.33,0.24,0.74,0.34,1.13,0.43
		c0.33,0.08,0.71,0.17,0.82,0.32c0.11,0.15,0.08,0.54,0.05,0.87c-0.03,0.4-0.07,0.82,0.06,1.22c0.12,0.38,0.39,0.69,0.65,0.99
		c0.24,0.28,0.48,0.56,0.48,0.77s-0.25,0.49-0.48,0.77c-0.26,0.3-0.53,0.61-0.65,0.99c-0.13,0.4-0.09,0.81-0.06,1.22
		c0.03,0.34,0.06,0.72-0.05,0.87c-0.11,0.16-0.49,0.25-0.82,0.32c-0.39,0.09-0.8,0.19-1.13,0.43c-0.33,0.24-0.54,0.59-0.75,0.94
		c-0.18,0.29-0.38,0.63-0.57,0.69c-0.17,0.06-0.52-0.09-0.83-0.22c-0.36-0.15-0.77-0.32-1.2-0.32c-0.42,0-0.83,0.17-1.2,0.32
		C53.92,61.37,53.57,61.52,53.4,61.46z"/>
	<path class="st4" d="M37.25,30.42c-0.52,0-0.94-0.42-0.94-0.94s0.42-0.94,0.94-0.94h10.02c0.52,0,0.94,0.42,0.94,0.94
		s-0.42,0.94-0.94,0.94H37.25z"/>
	<path class="st4" d="M47.27,30.02c0.3,0,0.54-0.24,0.54-0.54c0-0.3-0.24-0.54-0.54-0.54H37.25c-0.3,0-0.54,0.24-0.54,0.54
		c0,0.3,0.24,0.54,0.54,0.54H47.27z"/>
	<path class="st4" d="M31.88,35.14c-0.52,0-0.94-0.42-0.94-0.94s0.42-0.94,0.94-0.94h20.76c0.52,0,0.94,0.42,0.94,0.94
		s-0.42,0.94-0.94,0.94H31.88z"/>
	<path class="st4" d="M52.64,33.67H31.88c-0.3,0-0.54,0.24-0.54,0.54c0,0.3,0.24,0.54,0.54,0.54h20.76c0.3,0,0.54-0.24,0.54-0.54
		C53.17,33.91,52.93,33.67,52.64,33.67z"/>
	<path class="st4" d="M31.88,39.87c-0.52,0-0.94-0.42-0.94-0.94s0.42-0.94,0.94-0.94h20.76c0.52,0,0.94,0.42,0.94,0.94
		s-0.42,0.94-0.94,0.94H31.88z"/>
	<path class="st4" d="M52.64,38.39H31.88c-0.3,0-0.54,0.24-0.54,0.54c0,0.3,0.24,0.54,0.54,0.54h20.76c0.3,0,0.54-0.24,0.54-0.54
		C53.17,38.63,52.93,38.39,52.64,38.39z"/>
	<path class="st4" d="M31.88,44.59c-0.52,0-0.94-0.42-0.94-0.94s0.42-0.94,0.94-0.94h15.39c0.52,0,0.94,0.42,0.94,0.94
		s-0.42,0.94-0.94,0.94H31.88z"/>
	<path class="st4" d="M47.27,43.12H31.88c-0.3,0-0.54,0.24-0.54,0.54s0.24,0.54,0.54,0.54h15.39c0.3,0,0.54-0.24,0.54-0.54
		S47.56,43.12,47.27,43.12z"/>
	<path class="st4" d="M31.88,49.31c-0.52,0-0.94-0.42-0.94-0.94s0.42-0.94,0.94-0.94H41.9c0.52,0,0.94,0.42,0.94,0.94
		s-0.42,0.94-0.94,0.94H31.88z"/>
	<path class="st4" d="M41.9,47.84H31.88c-0.3,0-0.54,0.24-0.54,0.54c0,0.3,0.24,0.54,0.54,0.54H41.9c0.3,0,0.54-0.24,0.54-0.54
		C42.44,48.08,42.2,47.84,41.9,47.84z"/>
	<path class="st4" d="M38.04,61.65c-0.06,0-0.12,0-0.18-0.01c-0.72-0.09-1.11-0.69-1.39-1.13c-0.11-0.17-0.31-0.48-0.41-0.52
		c-0.06,0.03-0.38,0.27-0.56,0.4c-0.52,0.39-1.31,0.98-2.35,0.98c-0.46,0-0.93-0.12-1.4-0.35c-1.21-0.61-1.91-1.82-1.88-3.25
		c0.04-1.41,0.81-2.68,1.92-3.16c0.45-0.2,0.9-0.3,1.33-0.3c1.08,0,1.86,0.63,2.2,1.16c0.13,0.21,0.17,0.46,0.12,0.71
		c-0.06,0.24-0.2,0.45-0.42,0.58c-0.15,0.09-0.32,0.14-0.5,0.14c-0.32,0-0.62-0.16-0.79-0.43c-0.03-0.04-0.21-0.29-0.61-0.29
		c-0.18,0-0.37,0.05-0.59,0.14c-0.45,0.2-0.78,0.82-0.8,1.49c-0.01,0.33,0.06,1.14,0.84,1.53c0.21,0.1,0.4,0.16,0.57,0.16
		c0.35,0,0.68-0.2,1.23-0.61c0.48-0.36,1.03-0.76,1.71-0.76c0.1,0,0.21,0.01,0.31,0.03c0.86,0.16,1.31,0.84,1.63,1.34
		c0.03,0.04,0.05,0.08,0.07,0.11c0.28-0.29,0.5-0.63,0.7-0.94c0.37-0.58,0.75-1.17,1.46-1.28c0.07-0.01,0.14-0.02,0.21-0.02
		c0.34,0,0.67,0.13,0.99,0.39c0.32,0.26,0.59,0.57,0.81,0.82c0.21,0.24,0.34,0.37,0.42,0.44c0.96-0.6,1.92-0.62,2.04-0.62
		c0.27,0,0.5,0.1,0.68,0.28c0.17,0.18,0.27,0.42,0.27,0.67c-0.01,0.51-0.43,0.93-0.94,0.93c-0.01,0-0.6,0.01-1.13,0.38
		c-0.3,0.2-0.6,0.31-0.92,0.31c-0.82,0-1.42-0.69-1.83-1.15c-0.11-0.12-0.22-0.25-0.33-0.36c-0.05,0.08-0.1,0.16-0.14,0.21
		c-0.29,0.45-0.64,0.99-1.16,1.47C38.84,61.47,38.45,61.65,38.04,61.65z"/>
	<path class="st4" d="M41.97,58.83c-0.22-0.25-0.47-0.54-0.76-0.78c-0.28-0.23-0.58-0.33-0.87-0.28c-0.52,0.08-0.83,0.55-1.18,1.1
		c-0.25,0.38-0.53,0.82-0.91,1.17c-0.1,0.09-0.16,0.12-0.19,0.14c-0.09-0.07-0.25-0.31-0.35-0.46c-0.3-0.46-0.68-1.04-1.37-1.17
		c-0.66-0.12-1.2,0.28-1.71,0.66c-0.8,0.59-1.34,0.92-2.21,0.49c-0.99-0.5-1.07-1.49-1.06-1.9c0.02-0.83,0.45-1.59,1.04-1.85
		c1.1-0.48,1.6,0.16,1.69,0.3c0.16,0.25,0.49,0.32,0.74,0.17c0.25-0.16,0.33-0.49,0.17-0.74c-0.35-0.55-1.42-1.41-3.03-0.71
		c-0.97,0.43-1.65,1.55-1.68,2.81c-0.03,1.27,0.59,2.35,1.66,2.89c1.52,0.76,2.61-0.05,3.33-0.59c0.33-0.25,0.68-0.5,0.88-0.47
		c0.24,0.04,0.45,0.37,0.66,0.69c0.27,0.41,0.57,0.88,1.11,0.95c0.04,0.01,0.09,0.01,0.13,0.01c0.31,0,0.61-0.14,0.92-0.43
		c0.48-0.44,0.82-0.96,1.09-1.38c0.14-0.21,0.32-0.49,0.43-0.6c0.01,0.01,0.02,0.02,0.04,0.03c0.22,0.18,0.43,0.42,0.64,0.66
		c0.5,0.57,1.26,1.43,2.22,0.78c0.64-0.44,1.34-0.45,1.35-0.45c0,0,0,0,0.01,0c0.29,0,0.53-0.24,0.54-0.53
		c0-0.3-0.23-0.54-0.53-0.54c-0.04,0-1.03,0-1.97,0.64C42.65,59.51,42.54,59.48,41.97,58.83z"/>
	<path class="st4" d="M43.37,57.49c-0.4,0-0.75-0.25-0.88-0.63c-0.17-0.49,0.09-1.02,0.58-1.19c0.3-0.11,0.76-0.23,1.21-0.23
		c0.78,0,1.14,0.38,1.29,0.7c0.23,0.46,0.04,1.03-0.42,1.26c-0.13,0.07-0.27,0.1-0.42,0.1c-0.2,0-0.38-0.06-0.54-0.17
		c-0.14,0.02-0.34,0.06-0.51,0.12C43.58,57.47,43.48,57.49,43.37,57.49z"/>
	<path class="st4" d="M43.37,57.09c0.06,0,0.12-0.01,0.18-0.03c0.27-0.09,0.62-0.16,0.78-0.15c0.16,0.18,0.42,0.23,0.64,0.12
		c0.27-0.13,0.37-0.46,0.24-0.72c-0.37-0.74-1.53-0.43-2.01-0.27c-0.28,0.1-0.43,0.4-0.33,0.68C42.94,56.95,43.15,57.09,43.37,57.09
		z"/>
</g>
</svg>
