<?xml version="1.0" encoding="utf-8"?>
<!-- Generator: Adobe Illustrator 23.0.0, SVG Export Plug-In . SVG Version: 6.00 Build 0)  -->
<svg version="1.1" id="Layer_1" xmlns="http://www.w3.org/2000/svg" xmlns:xlink="http://www.w3.org/1999/xlink" x="0px" y="0px"
	 viewBox="0 0 85 85" style="enable-background:new 0 0 85 85;" xml:space="preserve">
<style type="text/css">
	.st0{clip-path:url(#XMLID_2_);fill:#F16355;}
	.st1{fill:none;stroke:#FFFFFF;stroke-width:2;stroke-linecap:round;stroke-linejoin:round;stroke-miterlimit:10;}
	.st2{clip-path:url(#SVGID_2_);}
	.st3{clip-path:url(#XMLID_3_);fill:#F16355;}
	.st4{fill:#FFFFFF;}
	.st5{clip-path:url(#XMLID_4_);fill:#F16355;}
	.st6{clip-path:url(#XMLID_5_);fill:#F16355;}
	.st7{fill:#F16355;}
	.st8{clip-path:url(#XMLID_6_);fill:#F16355;}
</style>
<g id="XMLID_85_">
	<defs>
		<path id="XMLID_89_" d="M85,42.5C85,65.97,65.97,85,42.5,85C19.03,85,0,65.97,0,42.5C0,19.03,19.03,0,42.5,0
			C65.97,0,85,19.03,85,42.5z"/>
	</defs>
	<use xlink:href="#XMLID_89_"  style="overflow:visible;fill:#F16355;"/>
	<clipPath id="XMLID_2_">
		<use xlink:href="#XMLID_89_"  style="overflow:visible;"/>
	</clipPath>
	<path id="XMLID_90_" class="st0" d="M85,42.67c0,23.47-19.03,42.5-42.5,42.5C19.03,85.17,0,66.14,0,42.67s19.03-42.5,42.5-42.5
		C65.97,0.17,85,19.2,85,42.67z"/>
</g>
<g>
	<g>
		<g>
			<g>
				<path class="st4" d="M61.4,52.84c-0.29,0-0.57-0.09-0.81-0.28l-9.23-7.19H38.99c-1.21,0-2.19-0.98-2.19-2.19V20.91
					c0-1.21,0.98-2.19,2.19-2.19h28c1.21,0,2.19,0.98,2.19,2.19v22.27c0,1.21-0.98,2.19-2.19,2.19h-4.27v6.15
					c0,0.51-0.28,0.96-0.74,1.19C61.79,52.8,61.6,52.84,61.4,52.84z M38.99,20.19c-0.4,0-0.72,0.32-0.72,0.72v22.27
					c0,0.4,0.32,0.72,0.72,0.72h12.87l9.39,7.32v-7.32H67c0.4,0,0.72-0.32,0.72-0.72V20.91c0-0.4-0.32-0.72-0.72-0.72H38.99z"/>
			</g>
			<g>
				<path class="st4" d="M23.6,66.28c-0.2,0-0.4-0.04-0.58-0.14c-0.46-0.22-0.74-0.68-0.74-1.19v-6.15H18
					c-1.21,0-2.19-0.98-2.19-2.19V34.35c0-1.21,0.98-2.19,2.19-2.19h17.67v1.47H18c-0.4,0-0.72,0.32-0.72,0.72v22.27
					c0,0.4,0.32,0.72,0.72,0.72h5.74v7.32l9.39-7.32h12.87c0.4,0,0.72-0.32,0.72-0.72V46.55h1.47v10.07c0,1.21-0.98,2.19-2.19,2.19
					H33.64L24.41,66C24.17,66.18,23.89,66.28,23.6,66.28z"/>
			</g>
		</g>
	</g>
	<g>
		<g>
			<path class="st4" d="M36.1,51.56c-0.3,0-0.58-0.19-0.69-0.49l-3.34-9.47l-3.47,9.48c-0.14,0.38-0.56,0.58-0.94,0.44
				c-0.38-0.14-0.57-0.56-0.44-0.94l4.17-11.39c0.11-0.29,0.35-0.49,0.69-0.48c0.31,0,0.58,0.2,0.69,0.49l4.02,11.39
				c0.13,0.38-0.07,0.8-0.45,0.94C36.27,51.55,36.18,51.56,36.1,51.56z"/>
		</g>
		<g>
			<path class="st4" d="M34.21,47.86h-4.94c-0.4,0-0.73-0.33-0.73-0.73s0.33-0.73,0.73-0.73h4.94c0.4,0,0.73,0.33,0.73,0.73
				S34.62,47.86,34.21,47.86z"/>
		</g>
	</g>
	<g>
		<g>
			<path class="st4" d="M57.85,38.55c-0.1,0-0.21-0.02-0.31-0.07c-5.51-2.59-7.3-7.33-7.37-7.53c-0.14-0.38,0.06-0.8,0.43-0.94
				c0.38-0.14,0.8,0.06,0.94,0.43c0.02,0.04,1.68,4.39,6.62,6.71c0.37,0.17,0.52,0.61,0.35,0.98
				C58.39,38.39,58.12,38.55,57.85,38.55z"/>
		</g>
		<g>
			<path class="st4" d="M47.46,38.79c-0.27,0-0.54-0.15-0.66-0.42c-0.17-0.36-0.02-0.8,0.35-0.98c8.81-4.21,7.66-9.53,7.6-9.76
				c-0.09-0.39,0.15-0.79,0.54-0.88c0.39-0.09,0.79,0.14,0.88,0.53c0.07,0.27,1.57,6.68-8.39,11.43
				C47.68,38.77,47.57,38.79,47.46,38.79z"/>
		</g>
		<g>
			<path class="st4" d="M58.17,28.2h-10.7c-0.4,0-0.73-0.33-0.73-0.73s0.33-0.73,0.73-0.73h10.7c0.4,0,0.73,0.33,0.73,0.73
				S58.57,28.2,58.17,28.2z"/>
		</g>
		<g>
			<path class="st4" d="M52.81,28.2c-0.4,0-0.73-0.33-0.73-0.73v-1.91c0-0.4,0.33-0.73,0.73-0.73c0.4,0,0.73,0.33,0.73,0.73v1.91
				C53.55,27.87,53.22,28.2,52.81,28.2z"/>
		</g>
	</g>
</g>
</svg>
